<?xml version="1.0" encoding="utf-8"?>

<svg version="1.1" id="Layer_1" xmlns="http://www.w3.org/2000/svg" xmlns:xlink="http://www.w3.org/1999/xlink" x="0px" y="0px"
width="72px" height="72px" viewBox="0 0 72 72" enable-background="new 0 0 72 72" xml:space="preserve">
<line fill="none" stroke="#C2C4C6" stroke-miterlimit="10" x1="0" y1="8.847" x2="72" y2="8.847"/>
<line fill="none" stroke="#C2C4C6" stroke-miterlimit="10" x1="0" y1="18.196" x2="72" y2="18.196"/>
<line fill="none" stroke="#C2C4C6" stroke-miterlimit="10" x1="0" y1="27.029" x2="72" y2="27.029"/>
<line fill="none" stroke="#C2C4C6" stroke-miterlimit="10" x1="0" y1="35.81" x2="72" y2="35.81"/>
<line fill="none" stroke="#C2C4C6" stroke-miterlimit="10" x1="0" y1="44.901" x2="72" y2="44.901"/>
<line fill="none" stroke="#C2C4C6" stroke-miterlimit="10" x1="0" y1="53.888" x2="72" y2="53.888"/>
<line fill="none" stroke="#C2C4C6" stroke-miterlimit="10" x1="0" y1="63.341" x2="72" y2="63.341"/>
<line fill="none" stroke="#C2C4C6" stroke-miterlimit="10" x1="9.25" y1="72" x2="9.25" y2="0"/>
<line fill="none" stroke="#C2C4C6" stroke-miterlimit="10" x1="18" y1="0" x2="18" y2="72"/>
<line fill="none" stroke="#C2C4C6" stroke-miterlimit="10" x1="27.07" y1="0" x2="27.07" y2="72"/>
<line fill="none" stroke="#C2C4C6" stroke-miterlimit="10" x1="35.851" y1="72" x2="35.851" y2="0"/>
<line fill="none" stroke="#C2C4C6" stroke-miterlimit="10" x1="45.045" y1="0" x2="45.045" y2="72"/>
<line fill="none" stroke="#C2C4C6" stroke-miterlimit="10" x1="54.085" y1="72" x2="54.085" y2="0"/>
<line fill="none" stroke="#C2C4C6" stroke-miterlimit="10" x1="62.866" y1="0" x2="62.866" y2="72"/>
<rect x="0" y="9" fill="#F04E4F" width="18" height="18"/>
<rect x="18" y="27" fill="#68CCE4" width="18" height="9"/>
<rect x="18" fill="#E065A6" width="18" height="9"/>
<rect x="36" y="9" fill="#24B34B" width="9" height="18"/>
<g>
<path d="M12.668,22.875v-1.769H9.65v-0.58l2.898-4.148h0.95v4.038h0.909v0.689h-0.909v1.769H12.668z M12.668,20.417v-2.169
c0-0.34,0.01-0.68,0.03-1.02h-0.03c-0.2,0.38-0.36,0.66-0.54,0.959l-1.589,2.209v0.02H12.668z"/>
</g>
<g>
<path d="M22.543,34.875v-1.769h-3.019v-0.58l2.898-4.148h0.95v4.038h0.909v0.689h-0.909v1.769H22.543z M22.543,32.417v-2.169
c0-0.34,0.01-0.68,0.03-1.02h-0.03c-0.2,0.38-0.36,0.66-0.54,0.959l-1.589,2.209v0.02H22.543z"/>
</g>
<g>
<path d="M40.543,25.125v-1.769h-3.018v-0.58l2.898-4.148h0.949v4.038h0.909v0.689h-0.909v1.769H40.543z M40.543,22.667v-2.169
c0-0.34,0.01-0.68,0.03-1.02h-0.03c-0.199,0.38-0.359,0.66-0.539,0.959l-1.59,2.209v0.02H40.543z"/>
</g>
<path fill="#F3EA16" d="M72,27v9v1.125V72H45V36h9.085v-9H72z M63,54h-9v9h9V54z M63,36h-9v9h9V36z"/>
<g>
<path d="M22.543,7.75V5.981h-3.019v-0.58l2.898-4.148h0.95v4.038h0.909v0.689h-0.909V7.75H22.543z M22.543,5.292V3.123
c0-0.34,0.01-0.68,0.03-1.02h-0.03c-0.2,0.38-0.36,0.66-0.54,0.959l-1.589,2.209v0.02H22.543z"/>
</g>
<g>
<path d="M49.234,63.698h-0.021l-1.13,0.609l-0.17-0.67l1.42-0.759h0.749v6.496h-0.849V63.698z"/>
</g>
<g>
<path d="M17.518,63.182c0,2.209-0.82,3.429-2.259,3.429c-1.27,0-2.129-1.189-2.149-3.339c0-2.179,0.939-3.378,2.259-3.378
C16.738,59.894,17.518,61.113,17.518,63.182z M13.989,63.282c0,1.688,0.52,2.648,1.319,2.648c0.899,0,1.329-1.05,1.329-2.709
c0-1.599-0.41-2.648-1.319-2.648C14.549,60.573,13.989,61.513,13.989,63.282z"/>
</g>
<g>
<path d="M8.268,4.432c0,2.209-0.82,3.428-2.259,3.428c-1.27,0-2.129-1.189-2.149-3.338c0-2.179,0.939-3.378,2.259-3.378
C7.488,1.144,8.268,2.363,8.268,4.432z M4.739,4.532c0,1.689,0.52,2.648,1.319,2.648c0.899,0,1.329-1.049,1.329-2.708
c0-1.599-0.41-2.648-1.319-2.648C5.299,1.823,4.739,2.763,4.739,4.532z"/>
</g>
<g>
<path d="M56.075,62.25v-0.54l0.689-0.669c1.659-1.579,2.408-2.419,2.418-3.398c0-0.66-0.319-1.27-1.289-1.27
c-0.59,0-1.079,0.3-1.379,0.55l-0.28-0.619c0.45-0.38,1.09-0.66,1.839-0.66c1.399,0,1.989,0.96,1.989,1.889
c0,1.2-0.869,2.169-2.238,3.488L57.304,61.5v0.021h2.919v0.729H56.075z"/>
</g>
<g>
<path d="M33.328,12.993h-2.479l-0.25,1.669c0.15-0.02,0.29-0.04,0.53-0.04c0.5,0,1,0.11,1.399,0.35c0.51,0.29,0.93,0.85,0.93,1.669
c0,1.27-1.009,2.219-2.418,2.219c-0.71,0-1.31-0.2-1.619-0.4l0.22-0.669c0.27,0.16,0.8,0.36,1.389,0.36
c0.83,0,1.539-0.54,1.539-1.409c-0.01-0.84-0.569-1.439-1.869-1.439c-0.37,0-0.66,0.04-0.899,0.07l0.419-3.119h3.108V12.993z"/>
</g>
<g>
<g>
<line fill="none" stroke="#000000" stroke-miterlimit="10" x1="32" y1="21.75" x2="32" y2="29.382"/>
<g>
<polygon points="30.355,28.9 32,31.75 33.645,28.9 			"/>
</g>
</g>
</g>
<g>
<g>
<line fill="none" stroke="#000000" stroke-miterlimit="10" x1="13" y1="24.875" x2="13" y2="38.132"/>
<g>
<polygon points="11.355,37.65 13,40.5 14.645,37.65 			"/>
</g>
</g>
</g>
<g>
<g>
<line fill="none" stroke="#000000" stroke-miterlimit="10" x1="55.452" y1="56.007" x2="50.675" y2="51.23"/>
<g>
<polygon points="52.179,50.407 49,49.555 49.851,52.734 			"/>
</g>
</g>
</g>
<g>
<path d="M56.659,42.99c0.25,0.16,0.83,0.41,1.439,0.41c1.13,0,1.479-0.72,1.47-1.26c-0.011-0.909-0.83-1.299-1.68-1.299h-0.489
v-0.66h0.489c0.64,0,1.449-0.329,1.449-1.099c0-0.521-0.329-0.979-1.139-0.979c-0.521,0-1.02,0.229-1.3,0.43l-0.229-0.64
c0.34-0.25,0.999-0.5,1.699-0.5c1.279,0,1.858,0.76,1.858,1.549c0,0.67-0.399,1.239-1.199,1.529v0.021
c0.8,0.159,1.449,0.76,1.449,1.669c0,1.039-0.81,1.949-2.369,1.949c-0.729,0-1.369-0.23-1.688-0.44L56.659,42.99z"/>
</g>
<g>
<g>
<line fill="none" stroke="#000000" stroke-miterlimit="10" x1="62" y1="41.461" x2="66.778" y2="46.239"/>
<g>
<polygon points="65.274,47.062 68.452,47.914 67.601,44.735 			"/>
</g>
</g>
</g>
<g>
<g>
<line fill="none" stroke="#000000" stroke-miterlimit="10" x1="49" y1="58.5" x2="42.243" y2="58.5"/>
<g>
<polygon points="42.725,56.855 39.875,58.5 42.725,60.145 			"/>
</g>
</g>
</g>
</svg>
