<?xml version="1.0" encoding="utf-8"?>
<!-- Generator: Adobe Illustrator 22.0.1, SVG Export Plug-In . SVG Version: 6.00 Build 0)  -->
<svg version="1.1" xmlns="http://www.w3.org/2000/svg" xmlns:xlink="http://www.w3.org/1999/xlink" x="0px" y="0px"
width="474.667px" height="244.333px" viewBox="0 0 474.667 244.333" enable-background="new 0 0 474.667 244.333"
xml:space="preserve">
<g id="Layer_1">
<rect y="33.667" fill="#FFFFFF" stroke="#C7C8CA" stroke-width="0.25" stroke-miterlimit="10" width="36" height="36"/>
<rect x="36" y="33.667" fill="#FFFFFF" stroke="#C7C8CA" stroke-width="0.25" stroke-miterlimit="10" width="36" height="36"/>
<rect x="72" y="33.667" fill="#FFFFFF" stroke="#C7C8CA" stroke-width="0.25" stroke-miterlimit="10" width="36" height="36"/>
<rect x="108" y="33.667" fill="#FFFFFF" stroke="#C7C8CA" stroke-width="0.25" stroke-miterlimit="10" width="36" height="36"/>
<rect x="144" y="33.667" fill="#FFFFFF" stroke="#C7C8CA" stroke-width="0.25" stroke-miterlimit="10" width="36" height="36"/>
<rect x="180" y="33.667" fill="#FFFFFF" stroke="#C7C8CA" stroke-width="0.25" stroke-miterlimit="10" width="36" height="36"/>
<rect x="216" y="33.667" fill="#FFFFFF" stroke="#C7C8CA" stroke-width="0.25" stroke-miterlimit="10" width="36" height="36"/>
<rect x="252" y="33.667" fill="#FFFFFF" stroke="#C7C8CA" stroke-width="0.25" stroke-miterlimit="10" width="36" height="36"/>
<rect x="288" y="33.667" fill="#FFFFFF" stroke="#C7C8CA" stroke-width="0.25" stroke-miterlimit="10" width="36" height="36"/>
<rect x="324" y="33.667" fill="#FFFFFF" stroke="#C7C8CA" stroke-width="0.25" stroke-miterlimit="10" width="36" height="36"/>
<rect x="360" y="33.667" fill="#FFFFFF" stroke="#C7C8CA" stroke-width="0.25" stroke-miterlimit="10" width="36" height="36"/>
<rect x="396" y="33.667" fill="#FFFFFF" stroke="#C7C8CA" stroke-width="0.25" stroke-miterlimit="10" width="36" height="36"/>
<rect x="432" y="33.667" fill="#FFFFFF" stroke="#C7C8CA" stroke-width="0.25" stroke-miterlimit="10" width="36" height="36"/>
<rect y="69.667" fill="#FFFFFF" stroke="#C7C8CA" stroke-width="0.25" stroke-miterlimit="10" width="36" height="36"/>
<rect x="36" y="69.667" fill="#FFFFFF" stroke="#C7C8CA" stroke-width="0.25" stroke-miterlimit="10" width="36" height="36"/>
<rect x="72" y="69.667" fill="#FFFFFF" stroke="#C7C8CA" stroke-width="0.25" stroke-miterlimit="10" width="36" height="36"/>
<rect x="108" y="69.667" fill="#FFFFFF" stroke="#C7C8CA" stroke-width="0.25" stroke-miterlimit="10" width="36" height="36"/>
<rect x="144" y="69.667" fill="#FFFFFF" stroke="#C7C8CA" stroke-width="0.25" stroke-miterlimit="10" width="36" height="36"/>
<rect x="180" y="69.667" fill="#FFFFFF" stroke="#C7C8CA" stroke-width="0.25" stroke-miterlimit="10" width="36" height="36"/>
<rect x="216" y="69.667" fill="#FFFFFF" stroke="#C7C8CA" stroke-width="0.25" stroke-miterlimit="10" width="36" height="36"/>
<rect x="252" y="69.667" fill="#FFFFFF" stroke="#C7C8CA" stroke-width="0.25" stroke-miterlimit="10" width="36" height="36"/>
<rect x="288" y="69.667" fill="#FFFFFF" stroke="#C7C8CA" stroke-width="0.25" stroke-miterlimit="10" width="36" height="36"/>
<rect x="324" y="69.667" fill="#FFFFFF" stroke="#C7C8CA" stroke-width="0.25" stroke-miterlimit="10" width="36" height="36"/>
<rect x="360" y="69.667" fill="#FFFFFF" stroke="#C7C8CA" stroke-width="0.25" stroke-miterlimit="10" width="36" height="36"/>
<rect x="396" y="69.667" fill="#FFFFFF" stroke="#C7C8CA" stroke-width="0.25" stroke-miterlimit="10" width="36" height="36"/>
<rect x="432" y="69.667" fill="#FFFFFF" stroke="#C7C8CA" stroke-width="0.25" stroke-miterlimit="10" width="36" height="36"/>
<rect y="114.667" fill="#FFFFFF" stroke="#C7C8CA" stroke-width="0.25" stroke-miterlimit="10" width="36" height="36"/>
<rect x="36" y="114.667" fill="#FFFFFF" stroke="#C7C8CA" stroke-width="0.25" stroke-miterlimit="10" width="36" height="36"/>
<rect x="72" y="114.667" fill="#FFFFFF" stroke="#C7C8CA" stroke-width="0.25" stroke-miterlimit="10" width="36" height="36"/>
<rect x="108" y="114.667" fill="#FFFFFF" stroke="#C7C8CA" stroke-width="0.25" stroke-miterlimit="10" width="36" height="36"/>
<rect x="144" y="114.667" fill="#FFFFFF" stroke="#C7C8CA" stroke-width="0.25" stroke-miterlimit="10" width="36" height="36"/>
<rect x="180" y="114.667" fill="#FFFFFF" stroke="#C7C8CA" stroke-width="0.25" stroke-miterlimit="10" width="36" height="36"/>
<rect x="216" y="114.667" fill="#FFFFFF" stroke="#C7C8CA" stroke-width="0.25" stroke-miterlimit="10" width="36" height="36"/>
<rect x="252" y="114.667" fill="#FFFFFF" stroke="#C7C8CA" stroke-width="0.25" stroke-miterlimit="10" width="36" height="36"/>
<rect x="288" y="114.667" fill="#FFFFFF" stroke="#C7C8CA" stroke-width="0.25" stroke-miterlimit="10" width="36" height="36"/>
<rect x="324" y="114.667" fill="#FFFFFF" stroke="#C7C8CA" stroke-width="0.25" stroke-miterlimit="10" width="36" height="36"/>
<rect x="360" y="114.667" fill="#FFFFFF" stroke="#C7C8CA" stroke-width="0.25" stroke-miterlimit="10" width="36" height="36"/>
<rect x="396" y="114.667" fill="#FFFFFF" stroke="#C7C8CA" stroke-width="0.25" stroke-miterlimit="10" width="36" height="36"/>
<rect x="432" y="114.667" fill="#FFFFFF" stroke="#C7C8CA" stroke-width="0.25" stroke-miterlimit="10" width="36" height="36"/>
<rect y="150.667" fill="#FFFFFF" stroke="#C7C8CA" stroke-width="0.25" stroke-miterlimit="10" width="36" height="36"/>
<rect x="36" y="150.667" fill="#FFFFFF" stroke="#C7C8CA" stroke-width="0.25" stroke-miterlimit="10" width="36" height="36"/>
<rect x="72" y="150.667" fill="#FFFFFF" stroke="#C7C8CA" stroke-width="0.25" stroke-miterlimit="10" width="36" height="36"/>
<rect x="108" y="150.667" fill="#FFFFFF" stroke="#C7C8CA" stroke-width="0.25" stroke-miterlimit="10" width="36" height="36"/>
<rect x="144" y="150.667" fill="#FFFFFF" stroke="#C7C8CA" stroke-width="0.25" stroke-miterlimit="10" width="36" height="36"/>
<rect x="180" y="150.667" fill="#FFFFFF" stroke="#C7C8CA" stroke-width="0.25" stroke-miterlimit="10" width="36" height="36"/>
<rect x="216" y="150.667" fill="#FFFFFF" stroke="#C7C8CA" stroke-width="0.25" stroke-miterlimit="10" width="36" height="36"/>
<rect x="252" y="150.667" fill="#FFFFFF" stroke="#C7C8CA" stroke-width="0.25" stroke-miterlimit="10" width="36" height="36"/>
<rect x="288" y="150.667" fill="#FFFFFF" stroke="#C7C8CA" stroke-width="0.25" stroke-miterlimit="10" width="36" height="36"/>
<rect x="324" y="150.667" fill="#FFFFFF" stroke="#C7C8CA" stroke-width="0.25" stroke-miterlimit="10" width="36" height="36"/>
<rect x="360" y="150.667" fill="#FFFFFF" stroke="#C7C8CA" stroke-width="0.25" stroke-miterlimit="10" width="36" height="36"/>
<rect x="396" y="150.667" fill="#FFFFFF" stroke="#C7C8CA" stroke-width="0.25" stroke-miterlimit="10" width="36" height="36"/>
<rect x="432" y="150.667" fill="#FFFFFF" stroke="#C7C8CA" stroke-width="0.25" stroke-miterlimit="10" width="36" height="36"/>
</g>
<g id="Layer_2">
<g>
<path d="M12.549,42.498c1.224-0.032,1.835,0.912,1.835,2.832c-0.273,2.103-0.303,3.154-0.088,3.154
c2.012,1.445,2.952,2.812,2.822,4.101c-1.171,0-2.112,0.657-2.822,1.972c-4.179,3.951-6.532,5.927-7.059,5.927
c0,2.128-0.954,3.193-2.861,3.193c-1.836,0.143-2.754-0.329-2.754-1.416c0-0.345,1.263-1.754,3.789-4.228
c2.564-8.469,4.101-12.703,4.609-12.703C10.021,43.657,10.863,42.713,12.549,42.498z M20.683,60.855
c0.579-0.228,0.885-0.228,0.918,0c0.026,1.002-0.059,1.503-0.254,1.503C20.904,62.358,20.683,61.857,20.683,60.855z"/>
</g>
<g>
<path d="M41.509,42.498c0.397-0.508,1.442-0.596,3.134-0.264c0.469,0,1.149,0.56,2.041,1.68c-0.781,0.039-1.113,0.979-0.996,2.822
c-0.437,2.513-0.869,3.925-1.299,4.237c0.045,0.833,0.287,1.302,0.723,1.406c-1.12,0.586-1.647,1.999-1.582,4.237
c0.365,1.498,1.208,3.408,2.529,5.731c-1.51,0.384-2.923,0.576-4.238,0.576c-1.009-0.13-1.559-0.352-1.65-0.664
c0.69-1.9,1.009-5.194,0.957-9.881c0.963-3.183,1.445-5.064,1.445-5.644C41.636,45.909,41.281,44.497,41.509,42.498z
M55.55,58.033c0.098-0.781,0.697-1.227,1.797-1.338c0.325,0,0.449,0.915,0.371,2.744c-0.592,1.341-1.657,2.012-3.193,2.012
c-0.124,0.774-1.533,1.136-4.228,1.083l-0.703-0.273C52.009,61.916,53.994,60.507,55.55,58.033z M52.66,43.914
c0.58-0.501,1.201-0.879,1.865-1.133c1.191,0,2.128,1.79,2.812,5.37c-0.768,1.914-1.842,2.854-3.222,2.822
c-1.66,0-2.539-1.412-2.636-4.237C51.915,45.05,52.309,44.11,52.66,43.914z"/>
</g>
<g>
<path d="M81.562,38.27c1.282-0.267,2.21-0.267,2.783,0c0,1.062-0.762,2.217-2.285,3.466c-0.99,1.133-1.484,2.799-1.484,5
c0,1.634-0.465,4.927-1.396,9.881l-1.357,1.143c-0.397,0-1.087-1.793-2.07-5.38c-0.052-6.444,0.804-10.207,2.568-11.287
C78.32,40.272,79.4,39.332,81.562,38.27z M77.773,59.439c0-0.306,0.153-0.306,0.459,0C77.926,59.485,77.773,59.485,77.773,59.439z
M78.144,58.033l1.094-1.348l0.664,1.348l-0.664,1.045L78.144,58.033z M81.239,59.439c4.602,0.195,6.903,0.195,6.903,0
c2.291-0.28,3.642-0.28,4.052,0c-0.13,1.914-0.215,2.871-0.254,2.871c-1.452,0.918-3.805,1.325-7.059,1.221
c-3.046-0.82-4.625-1.712-4.736-2.675C80.146,59.911,80.51,59.439,81.239,59.439z"/>
</g>
<g>
<path d="M113.597,42.498c0.41-0.788,0.957-1.253,1.641-1.396c1.185,0,1.816,1.409,1.894,4.228
c0.469,0.377,0.566,2.259,0.293,5.644c-0.879,0.13-1.244,2.012-1.094,5.644c0.013,1.654,0.16,2.594,0.439,2.822
c0,0.098,1.842,0.098,5.526,0c1.881,0.059,2.822-0.078,2.822-0.41c0.26,0.182,1.12,0.319,2.578,0.41
c-0.911,2.988-3.183,4.482-6.815,4.482c-2.747-0.423-5.113-0.504-7.099-0.244c-1.347,0-1.946-0.94-1.796-2.822
c0.566-0.573,0.827-2.454,0.781-5.644c-0.56-0.95-0.791-3.304-0.693-7.06C112.191,48.152,112.699,46.267,113.597,42.498z"/>
</g>
<g>
<path d="M150.437,41.092c0.345-0.248,1.106-0.248,2.285,0c1.12,0,1.618,0.94,1.494,2.822c-0.156,1.881-0.029,2.822,0.38,2.822
c0.039,3.971-0.14,5.956-0.537,5.956c-1.224,1.146-1.751,2.926-1.582,5.341c0.189,2.662,1.185,3.994,2.988,3.994
c1.387-0.508,3.271-1.973,5.653-4.394c1.881,0,2.822-0.313,2.822-0.938c1.23,0.111,1.846,1.498,1.846,4.16
c0,2.096-1.556,3.144-4.667,3.144c-1.751,0-3.635-0.508-5.653-1.523c-1.686,0.456-3.095,0.684-4.228,0.684
c-1.445-0.065-2.168-0.833-2.168-2.304c0.423-1.399,0.57-3.752,0.439-7.06c-0.423-2.115-0.599-5.409-0.527-9.881
C149.06,42.066,149.545,41.125,150.437,41.092z M159.605,42.498c0.358-0.573,1.331-1.038,2.919-1.396
c1.412,0.566,2.119,2.916,2.119,7.049c-0.97,3.066-1.429,4.947-1.376,5.644c-0.117,0.41-1.305,0.534-3.564,0.371
c-1.133,0-1.68-1.536-1.641-4.608c0.729-0.332,1.094-2.213,1.094-5.644L159.605,42.498z"/>
</g>
<g>
<path d="M186.281,42.498c0.449-0.267,1.708-0.176,3.779,0.273c2.454,0.306,3.866,0.42,4.237,0.342
c1.399-0.612,2.809-1.067,4.228-1.367c1.295,0,1.988,1.195,2.08,3.583c0,1.12-1.162,1.715-3.486,1.787
c0-0.189-1.413-0.241-4.237-0.156l-1.24,1.191c2.916,1.563,4.375,2.972,4.375,4.228c-0.951,1.139-2.936,1.624-5.956,1.455
c-1.374,0-2.093,1.869-2.158,5.604c-0.13,0.397-0.352,1.253-0.664,2.568c-1.374,0-1.999-1.325-1.875-3.974
c-0.084-4.459,0.417-6.812,1.504-7.06c0.117-3.528-0.231-5.292-1.045-5.292c-0.221-0.254-0.518-0.843-0.889-1.767
C185.089,43.406,185.539,42.934,186.281,42.498z"/>
</g>
<g>
<path d="M222.427,49.558l0.811-0.674c1.048,1.777,1.517,3.164,1.406,4.16c-0.248,0.436-0.202,1.159,0.137,2.167
c-0.137,1.881,0.026,2.822,0.488,2.822c0,1.999,1.676,3.141,5.028,3.427c1.81,0,3.691-1.419,5.644-4.257
c1.881-0.631,2.822-1.269,2.822-1.914c0,0.645,1.035,1.559,3.105,2.744c0.26,2.506,0.166,3.759-0.283,3.759
c-0.241,0.989-1.653,1.458-4.237,1.406c0-0.371-3.763-0.436-11.287-0.195c-2.278,0-3.417-1.656-3.417-4.97
c0-2.233-0.283-3.645-0.85-4.238C221.779,50.97,221.991,49.558,222.427,49.558z M225.679,36.855
c0.592-0.573,2.132-0.85,4.618-0.83c4.856,0,8.146,1.035,9.872,3.105c0.924,0.033,1.474,2.099,1.65,6.2
c-0.442,0.736-0.615,1.676-0.517,2.822c-0.749,0-1.009,0.941-0.781,2.822c0.059,2.278-0.573,3.691-1.895,4.238l-1.279,1.289
c0-0.247-0.941-1.487-2.822-3.72c-0.3-0.677-0.619-1.279-0.957-1.807c1.172,0,1.878-2.353,2.119-7.059
c-1.028-1.777-3.297-2.601-6.805-2.471c-2.402,1.849-3.99,3.144-4.765,3.886c0,1.334-0.293,2.001-0.878,2.001
c-0.098,0-0.57-1.181-1.416-3.544c0.442,0,0.586-0.898,0.43-2.695C222.251,40.07,223.394,38.658,225.679,36.855z"/>
</g>
<g>
<path d="M258.437,41.092c1.719-0.241,2.927,0.071,3.623,0.937c1.165,0.645,1.634,1.514,1.406,2.607
c-0.781,0.605-1.283,2.246-1.504,4.921l-0.771,1.416c0.853,0.775,1.143,1.344,0.869,1.709c-1.504,2.454-2.2,5.178-2.09,8.172
c0,1.224-0.244,1.835-0.732,1.835c-1.718,0-2.577-1.083-2.577-3.251c0.084-3.671-0.111-6.024-0.586-7.059
c0.254-2.818,0.618-4.228,1.094-4.228c-0.43-0.006-0.619-1.891-0.566-5.653C256.895,41.828,257.506,41.359,258.437,41.092z
M269.813,43.914c1.171-0.82,2.35-1.23,3.534-1.23c1.119,0,1.592,0.602,1.416,1.806c-0.365,0.208-0.397,0.957-0.098,2.246
c0,0.475-0.439,1.969-1.318,4.481c-0.273,0-0.391-0.553-0.352-1.66c0-0.534-0.859-1.002-2.578-1.406
c-0.084-1.757-0.465-2.698-1.142-2.822L269.813,43.914z"/>
</g>
<g>
<path d="M294.749,41.092c1.855-0.111,2.783,0.358,2.783,1.406c-0.638,5.995-0.935,11.232-0.889,15.71
c0,0.957,0.94,1.435,2.822,1.435c1.771-0.221,3.319-0.29,4.647-0.205c1.399,0.072,2.021,1.013,1.865,2.822
c0,1.166-1.699,1.712-5.098,1.641c-5.702-0.013-8.553-0.56-8.553-1.641c0.201-2.291,0.247-6.994,0.137-14.109
c0.02-4.439,0.472-6.659,1.357-6.659L294.749,41.092z"/>
</g>
<g>
<path d="M329.754,53.795l0.068-0.781c0,0.566,0.618,1.298,1.854,2.197c0.169,2.949,0.491,4.423,0.967,4.423
c1.106-0.241,2.991-1.061,5.653-2.46c1.412,1.25,2.119,2.005,2.119,2.265c-0.437,2.539-2.087,4.068-4.95,4.589
c-5.11,0.013-7.665-0.104-7.665-0.352c-1.126-0.735-1.689-1.676-1.689-2.822C327.94,56.149,329.154,53.795,329.754,53.795z
M333.61,42.498c3.729-0.254,5.595-0.254,5.595,0c2.344,0.951,3.45,2.62,3.319,5.009c-0.514,2.259-1.454,3.408-2.821,3.447
c-0.476-3.437-1.481-5.312-3.018-5.624c-2.291-0.885-3.437-1.357-3.437-1.416L333.61,42.498z"/>
</g>
<g>
<path d="M365.656,41.092c1.634-0.156,2.848,0.784,3.642,2.822c-0.078,1.985,0.176,3.346,0.762,4.081
c1.438-2.382,2.851-3.574,4.237-3.574c0.671-0.911,1.611-1.656,2.822-2.236l1.327,0.313c-0.162,0-1.077,1.429-2.743,4.287
c-0.781,0.188-1.595,0.644-2.441,1.367c0,1.289,0.375,2.229,1.123,2.822c-0.071,1.881,0.146,2.822,0.654,2.822
c-2.031,0.176-3.222,0.091-3.573-0.254l-1.406-0.664c-1.257,1.022-1.885,2.74-1.885,5.155c0.188,2.818,0.306,4.228,0.352,4.228
c0,0.476-0.901,0.713-2.704,0.713c-0.918,0-1.377-1.178-1.377-3.535c0.306-0.397,0.332-2.75,0.078-7.059
c0.586-0.02,0.768-2.37,0.547-7.05C364.881,42.505,365.076,41.092,365.656,41.092z M370.372,48.152l0.371,1.406
c-0.521,0.352-1.068,0.823-1.641,1.416l0.957,0.625c1.406,0,2.161-1.149,2.265-3.447
C371.837,47.813,371.186,47.813,370.372,48.152z M377.188,55.211c1.764-0.234,2.682-0.01,2.753,0.674
c0.742,0,1.455,1.656,2.139,4.97c0,1.542-1.185,2.304-3.555,2.285c-1.51,0-2.33-1.233-2.46-3.701
C376.461,56.673,376.836,55.263,377.188,55.211z M376.26,53.795c0.67-0.078,1.006-0.078,1.006,0l-0.146,1.23L376.26,53.795z"/>
</g>
<g>
<path d="M401.725,41.092c1.829-0.007,2.77,0.934,2.821,2.822c-0.3,0-0.427,1.881-0.381,5.644c0.41,0,0.576,2.825,0.498,8.475
c0,0.898,1.878,1.347,5.634,1.347c3.105-0.059,4.657,0.433,4.657,1.475c0,1.959-1.083,2.939-3.251,2.939
c-3.729-0.475-6.552-0.599-8.466-0.371c-1.888-0.13-2.828-0.521-2.821-1.172c0.514-2.187,0.657-4.534,0.43-7.04
c-0.625-2.382-1.064-5.676-1.318-9.881c-0.195-2.662,0.101-3.994,0.889-3.994L401.725,41.092z"/>
</g>
<g>
<path d="M438.065,39.676c0.176-0.397,1.035-0.481,2.578-0.254c0.254,0,1.061,1.025,2.422,3.076
c-1.081,1.289-1.566,2.702-1.455,4.238c0.735,1.438,2.601,3.32,5.595,5.644c-0.859,0.768-1.292,1.712-1.299,2.832
c-0.202,0.892-0.999,1.36-2.392,1.406c0.045,0.977,0.029,1.465-0.049,1.465c-1.928,0.13-2.868,0.664-2.822,1.601
c0.3,0.931,0.271,1.791-0.088,2.578c0,0.358-0.911,0.472-2.733,0.342c-0.488-0.052-0.729-1.106-0.723-3.164
c0.201-1.803,0.123-4.156-0.234-7.059c0.703-2.649,1.021-4.638,0.957-5.966c0-0.619-0.3-1.924-0.898-3.916
C437.627,40.617,438.007,39.676,438.065,39.676z M440.624,48.152c-0.117,1.211-0.276,2.151-0.479,2.822
c0.254,0.326,0.667,0.326,1.24,0C440.917,50.973,440.663,50.033,440.624,48.152z M440.536,56.617
c0.059,0.612,0.566,0.963,1.523,1.055l1.406-1.055c0-0.931-0.941-1.396-2.822-1.396L440.536,56.617z M454.743,39.676
c1.751-0.117,2.806,0.355,3.163,1.416c0.313,2.805,0.231,4.218-0.244,4.237c-0.143,3.717-0.247,7.011-0.313,9.881
c-0.384,0.931-0.521,2.812-0.41,5.644c-0.182,1.055-0.439,1.611-0.771,1.669c-4.699,0.02-7.049-0.732-7.049-2.255
c-0.28,0-0.424-1.217-0.43-3.652c0.391-0.286,0.765-0.755,1.123-1.406c-0.476,0-0.645-0.944-0.508-2.832
c0.599-0.039,1.585-1.92,2.958-5.644c-0.247-0.599-0.354-1.113-0.322-1.543C452.565,43.657,453.499,41.818,454.743,39.676z"/>
</g>
<g>
<path d="M6.339,77.092l0.898-0.996c1.972,1.256,2.913,2.204,2.822,2.841c-0.619,0.911-1.09,2.519-1.416,4.823
c-0.124,0.814,0.068,1.413,0.576,1.797c-0.625,0.072-0.817,0.751-0.576,2.041l1.416,0.615l1.406-0.781l0.889,0.947
c-0.319,0.345-1.084,0.365-2.294,0.059c-1.25,0.442-2.07,3.248-2.461,8.417c0,1.028-0.667,1.497-2.001,1.406
c-0.566,0-0.85-2.822-0.85-8.465c-0.052-0.618,0.218-2.5,0.811-5.644c-0.176-0.449-0.244-2.333-0.205-5.653
C5.568,77.724,5.896,77.255,6.339,77.092z M18.066,86.973c0.391-0.657,1.484-0.986,3.281-0.986c1.171,0,1.757,0.797,1.757,2.392
c0,4.706-0.491,7.059-1.474,7.059c-0.078,1.224-0.641,1.836-1.689,1.836c-0.944,0-1.416-0.684-1.416-2.051
c-0.541,0-0.794-1.809-0.762-5.429l-0.518-1.416L18.066,86.973z"/>
</g>
<g>
<path d="M43.462,77.092l1.181-1.396c0.599,0,0.813,0.934,0.645,2.802c-0.417,0.573-0.817,1.045-1.201,1.416
c0.241,0.475,0.169,3.297-0.215,8.465c-0.045,3.769,0.218,5.653,0.791,5.653c0,0.566,2.347,1.067,7.04,1.503
c0.221-0.221,2.242-0.254,6.063-0.098c0.052,2.005-0.088,3.007-0.42,3.007c-0.924,0.762-3.746,1.068-8.465,0.918
c-3.444-0.456-5.166-1.292-5.166-2.509c0-0.651-0.651-1.123-1.953-1.416c0-1.048-0.541-1.988-1.621-2.822
c-0.423-1.497-0.583-4.319-0.479-8.465C41.142,79.445,42.408,77.092,43.462,77.092z M44.653,75.676
c0-0.527,0.938-0.703,2.812-0.527c0.195,0.99-0.273,1.484-1.406,1.484L44.653,75.676z"/>
</g>
<g>
<path d="M78.935,77.092c1.328-0.254,2.083-0.254,2.265,0c2.187,1.81,3.281,3.222,3.281,4.237
c-1.256,2.063-1.885,3.473-1.885,4.228c0.377,0,1.283,0.94,2.715,2.822c-3.639,0.657-5.458,2.542-5.458,5.653
c-0.657,0.918-0.986,1.858-0.986,2.822c-0.82,0.338-1.39,0.338-1.709,0c-0.084-4.752,0.248-7.577,0.996-8.475
c0.495,0,0.674-1.409,0.537-4.228c0-0.325-0.589-1.738-1.768-4.237C77.327,78.248,77.998,77.307,78.935,77.092z M90.505,78.498
c0.924,0.078,1.884,0.078,2.88,0c0.293,0.43,0.664,1.374,1.113,2.832c-0.541,2.363-1.748,3.772-3.623,4.228
c-0.56,1.028-1.247,1.5-2.061,1.416c-0.124-1.855-0.963-3.473-2.519-4.853l-0.654-0.791
C88.884,80.191,90.505,79.247,90.505,78.498z"/>
</g>
<g>
<path d="M115.97,75.676c0.482-0.045,1.178-0.306,2.09-0.781l1.25,0.781c-0.358,1.979-1.116,3.392-2.275,4.238
c-0.293,4.107-0.625,6.46-0.996,7.059c1.432,4.707,2.529,7.06,3.291,7.06c0.117,0,0.163,0.947,0.137,2.841
c-0.996,1.074-2.301,1.536-3.916,1.386c-1.321-1.314-1.972-2.724-1.953-4.228c-0.521,0-1.113-1.884-1.777-5.653
c0.28-3.333,0.657-6.626,1.132-9.881C114.333,76.617,115.338,75.676,115.97,75.676z M127.901,92.617
c2.194,0.208,3.291,0.681,3.291,1.416c-0.052,2.564-1.136,3.847-3.251,3.847c-1.523-0.306-2.291-1.12-2.304-2.441
C127.146,93.714,127.901,92.773,127.901,92.617z"/>
</g>
<g>
<path d="M151.14,77.092c2.402-0.039,4.065,0.901,4.989,2.822c-0.898,0.566-1.312,1.507-1.24,2.822c-0.071,0-0.205,1.413-0.4,4.237
c0.813,0.605,1.139,1.156,0.976,1.65c-0.957,0-2.001,1.331-3.134,3.993c0.026,1.764-0.338,3.652-1.093,5.663
c-1.823,0.13-2.734-0.345-2.734-1.425c0.449-0.273,0.524-2.626,0.225-7.06c-0.084-2.089,0.172-3.971,0.771-5.644
c-0.43-2.936-0.482-4.82-0.156-5.653C149.936,77.672,150.535,77.203,151.14,77.092z M161.353,78.498
c2.317-0.202,3.476,0.27,3.476,1.416c0.534,0,0.901,1.881,1.104,5.644c-0.254,2.057-0.449,3.085-0.586,3.085
c-0.352-0.299-1.556-0.856-3.613-1.67c-0.495,0-0.7-0.97-0.615-2.91c-1.139-2.766-1.738-4.149-1.796-4.149
C159.322,79.53,159.999,79.058,161.353,78.498z"/>
</g>
<g>
<path d="M190.021,74.27c1.1-0.41,1.923-0.41,2.47,0c2.402,0.254,3.707,0.254,3.916,0c0-0.481,0.706-0.722,2.119-0.722
c2.773,0.729,4.234,2.379,4.384,4.95c-0.137,3.099,0.121,6.864,0.771,11.297c-0.033,4.707-0.856,7.06-2.47,7.06
c0,0.709-1.364,1.064-4.091,1.064c-0.241-1.653,0.088-2.48,0.986-2.48c0.892-1.23,1.338-2.17,1.338-2.822
c-0.892-2.512-2.22-4.866-3.984-7.059c-0.104,0-0.16-1.881-0.166-5.644c0-0.605-0.804-1.227-2.412-1.865
c-2.669,2.396-4.003,3.958-4.003,4.687c-1.094,0.911-1.64,1.533-1.64,1.865c-1.068-3.125-1.729-4.687-1.982-4.687
C185.822,76.64,187.41,74.758,190.021,74.27z M185.402,92.617l0.42-1.005l0.928,1.005l-0.928,1.338L185.402,92.617z
M185.91,94.033l1.328-0.879c0,1.029,1.748,2.731,5.243,5.106c-0.566,0.384-1.846,0.495-3.837,0.332
c-0.059,0-1.025-1.051-2.9-3.154C185.763,94.645,185.818,94.176,185.91,94.033z M186.613,89.795l0.625-0.8
c0.084,0.677,0.084,1.064,0,1.162L186.613,89.795z M186.994,86.973l0.244-1.005c0.091,0.774,0.091,1.337,0,1.689L186.994,86.973z
M193.75,98.26c1.4-0.182,2.373-0.182,2.919,0C195.979,98.339,195.006,98.339,193.75,98.26z"/>
</g>
<g>
<path d="M220.201,79.914c0.02-0.228,0.28-0.228,0.781,0C220.481,79.979,220.221,79.979,220.201,79.914z M221.324,78.498
l0.498-0.732l0.723,0.732l-0.723,0.771L221.324,78.498z M230.717,78.498c0.481-0.299,1.282-0.469,2.402-0.508l1.025,0.508
c-0.26,1.166-1.074,1.748-2.441,1.748c-0.573,0-0.859,1.302-0.859,3.906c0.586,1.784,0.872,2.753,0.859,2.91
c-0.755,4.648-1.162,6.972-1.221,6.972c0.709,0,1.064,1.409,1.064,4.228c-0.202,1.419-1.563,2.129-4.082,2.129
c-1.901,0-2.841-0.96-2.822-2.88c0.488-2.018,0.592-3.648,0.313-4.892c0-1.51-0.342-3.391-1.025-5.644
c0-1.816,1.016-3.697,3.046-5.644c0.84-1.445,1.475-2.353,1.904-2.724C230.105,78.677,230.717,78.641,230.717,78.498z"/>
</g>
<g>
<path d="M258.954,74.27c1.38-0.065,2.155,1.344,2.324,4.228c-0.554,0.827-0.765,3.297-0.635,7.411
c0,3.534-0.068,5.302-0.205,5.302c-0.195,2.942-0.596,4.413-1.201,4.413c-1.139-3.886-1.751-5.829-1.835-5.829
c-0.808-1.679-1.137-4.296-0.986-7.85c0.273-0.02,0.381-1.637,0.322-4.853C257.369,75.211,258.108,74.27,258.954,74.27z
M273.22,78.498l0.127-0.635c1.399,0.67,2.1,1.354,2.1,2.051c-0.319,0.794-0.219,2.207,0.303,4.237
c-0.17,0.69-0.144,2.099,0.078,4.228c-1.042,1.829-1.563,3.242-1.563,4.237c0.117,1.706-0.479,3.118-1.787,4.238
c-0.234,2.493-2.295,3.72-6.181,3.681c-1.106,0-2.682-0.758-4.726-2.275c0-1.848,2.044-2.994,6.132-3.437
c2.708-0.905,4.062-2.109,4.062-3.613c0.215-1.491,0.173-2.903-0.127-4.238c0.755-1.614,1.133-3.027,1.133-4.237
c0-0.338-0.276-1.295-0.83-2.871L273.22,78.498z"/>
</g>
<g>
<path d="M293.266,75.676c0-0.436,0.657-0.608,1.972-0.518c0.677,0.814,1.618,3.046,2.822,6.698
c1.282,1.471,1.924,3.646,1.924,6.522c-0.385,0.612-0.557,1.126-0.518,1.542c0.436,1.016,0.995,1.445,1.679,1.289
c1.374-0.742,2.227-1.214,2.559-1.416c-0.007-2.336,0.934-3.893,2.821-4.667c0.645,0.189,1.02,0.804,1.123,1.845
c-1.835,2.272-2.679,3.88-2.528,4.824c0.052,4.068-0.889,6.581-2.822,7.538c-2.408,0-3.612-1.298-3.612-3.896
c0.279-0.026,0.439-0.966,0.479-2.822c-2.747-0.826-4.121-2.239-4.121-4.237c-0.442,0-0.699-1.409-0.771-4.228
c-0.56-0.163-0.839-1.575-0.839-4.237c-0.417-0.586-0.72-1.526-0.908-2.822L293.266,75.676z M307.647,82.736
c0.188-0.371,0.384-0.371,0.586,0l-0.293,0.957L307.647,82.736z"/>
</g>
<g>
<path d="M327.273,72.855c0.156-0.345,1.006-0.589,2.549-0.732c1.744,0.736,2.616,1.92,2.616,3.554
c-0.371,2.057-0.459,3.47-0.264,4.238c0.188,0,0.817,2.607,1.885,7.821c0.208,0.716,0.039,1.403-0.508,2.06
c0.794,1.563,1.904,2.344,3.329,2.344c1.087,0.592,1.56,1.386,1.416,2.382c-0.098,0-0.569,1.315-1.416,3.944l-1.415,0.645
c-2.317-0.495-3.477-2.187-3.477-5.077c-0.013-1.966-0.442-3.378-1.289-4.238c-0.098-3.209-0.391-4.813-0.878-4.813
c-0.521-0.735-0.859-2.425-1.016-5.067C328.064,78.541,327.553,76.188,327.273,72.855z M341.334,74.27
c0-0.41,1.337-0.494,4.013-0.253c0.273,0,0.273,0.569,0,1.708l1.035,1.367c-1.009,0.755-1.556,1.224-1.641,1.406
c0.462,1.881,0.664,3.395,0.605,4.541c-2.564,1.067-4.117,2.848-4.657,5.341c-0.697,0.404-1.315,0.404-1.855,0
c-0.156-2.5,0.134-4.628,0.869-6.386C339.645,78.635,340.188,76.061,341.334,74.27z M348.119,94.033
c1.179-0.111,1.931-0.111,2.256,0l0.449,1.406c0,0.345-0.886,0.485-2.656,0.42C347.974,95.859,347.957,95.25,348.119,94.033z
M352.191,86.973c0.325-0.13,0.396,0,0.215,0.391L352.191,86.973z"/>
</g>
<g>
<path d="M378.983,72.855c0.085-0.293,0.872-0.462,2.363-0.508c1.185,0.273,1.656,1.123,1.416,2.548
c-1.315,2.435-2.728,3.652-4.238,3.652c-0.963,0.697-1.432,2.093-1.405,4.189c-0.358,0-0.83,1.413-1.416,4.237
c0.313,0,0.436,0.941,0.371,2.822c-0.254,1.178-1.318,1.768-3.193,1.768c-1.913,0.67-3.625,2.903-5.136,6.698
c-0.436,0.612-1.546,0.83-3.329,0.654l-0.742-0.654c0.469-1.588,1.549-3.469,3.241-5.644c0-1.015,0.576-2.551,1.729-4.608
c1.712-0.586,2.545-1.872,2.5-3.857c-0.176-2.825-0.459-4.237-0.85-4.237l1.172-1.328c0,0.404,1.412,0.547,4.237,0.43
c1.275-0.319,1.855-1.432,1.738-3.339C377.441,74.017,377.955,73.076,378.983,72.855z M365.188,72.855
c1.054-0.202,2.206,0.319,3.456,1.562c0.313,0,0.446,0.892,0.4,2.676c0,0.338-0.706,0.338-2.119,0
c-1.158-0.124-1.969-1.064-2.431-2.822L365.188,72.855z M378.28,91.211c1.342,0.267,3.326,2.148,5.956,5.644
c-0.078,1.699-1.041,2.552-2.89,2.558c-2.22-0.032-3.629-0.885-4.228-2.558c0.228-1.36,0.55-2.301,0.966-2.822
c-0.663-0.006-0.985-0.504-0.966-1.494L378.28,91.211z M377.275,92.617l1.249,0.273c0.209,0,0.209-0.417,0-1.25L377.275,92.617z"
/>
</g>
<g>
<path d="M404.995,84.152l1.064-1.074c2.655,2.239,4.068,3.358,4.237,3.358c1.705-0.188,2.559-0.01,2.559,0.537
c-0.183,1.25-0.095,2.2,0.264,2.851c-0.671,0.078-0.856,1.009-0.557,2.792c-0.254,4.271-1.01,6.555-2.266,6.854
c-2.271,0-3.431-0.872-3.476-2.617c0.475,0,0.689-0.996,0.645-2.988c-0.866-1.602-1.237-2.958-1.113-4.072
c-0.437-0.488-0.654-1.429-0.654-2.822c-0.723,0-1.074-0.54-1.055-1.621L404.995,84.152z M405.308,79.914
c0.533-0.033,0.784,0.003,0.752,0.107L405.308,79.914z M413.031,82.736c0-0.202,0.306-0.202,0.918,0
C413.337,82.944,413.031,82.944,413.031,82.736z M415.647,74.27c0.261-0.436,1.299-0.608,3.115-0.517
c0.865,0,1.278,0.641,1.239,1.923c-0.546,2.155-1.585,3.567-3.114,4.238c-0.247,0-0.563,1.224-0.947,3.671
c-1.666-1.015-2.499-1.767-2.499-2.255c0.391-0.95,0.391-1.894,0-2.832c0.663,0,1.044-0.94,1.142-2.822L415.647,74.27z"/>
</g>
<g>
<path d="M438.925,75.676c0-0.137,1.514-0.479,4.541-1.025c0,0.306,1.412,0.443,4.237,0.41c0,0.15,1.289,0.827,3.866,2.031
c0,2.291-0.816,4.234-2.45,5.829c-0.6,0-1.687,2.291-3.262,6.874c-2.597,1.791-3.896,3.203-3.896,4.238l-1.23,1.406
c1.263,0.814,3.587,1.126,6.972,0.938c2.428-0.267,3.665-0.107,3.71,0.479c0.176,1.757-0.12,2.636-0.889,2.636
c-2.701,0.13-5.054-0.149-7.059-0.84c-0.697-0.449-2.106-0.546-4.229-0.293c-2.46,0.215-3.739,0.183-3.837-0.098
c-0.202-2.239,0.439-3.648,1.924-4.228c0.761-3.899,2.34-6.477,4.735-7.733c2.174-1.582,3.261-3.238,3.261-4.97
c-0.403-0.905-2.284-1.376-5.644-1.416c-0.853-0.762-1.429-1.234-1.728-1.416C438.411,77.75,438.736,76.809,438.925,75.676z"/>
</g>
<g>
<path d="M10.538,123.498c0.352-0.768,1.605-1.009,3.759-0.723c1.113,0.273,1.807,2.868,2.08,7.782
c1.81,3.203,2.705,6.028,2.685,8.475c-0.202,1.374-0.381,2.077-0.537,2.109c-0.625-1.81-2.695-3.453-6.21-4.931
c1.087-1.309,1.565-2.721,1.435-4.238c0-0.553-0.761-0.83-2.285-0.83c-1.159,0.833-1.627,1.842-1.406,3.026
c0.651,1.055,1.035,1.735,1.152,2.041c-2.675,1.393-4.472,3.798-5.39,7.215c-0.059,0.358-0.999,0.462-2.822,0.313
c-0.313-0.371-0.186-0.999,0.381-1.884c2.037-5.006,3.596-8.299,4.677-9.881C8.657,126.857,9.483,124.032,10.538,123.498z"/>
</g>
<g>
<path d="M42.671,122.092c1.959-0.059,4.029,0.335,6.21,1.181c0.006-0.364,1.419-0.485,4.237-0.361
c1.146,0,1.719,0.667,1.719,2.002c-0.183,0.605-0.755,0.957-1.719,1.054c-1.738-1.536-3.622-2.223-5.653-2.06
c-2.038,1.016-3.056,2.763-3.056,5.243c0.371,2.441,0.387,3.851,0.049,4.228c-0.801,0.735-1.201,2.148-1.201,4.237
c0.065,2.591,1.939,4.248,5.624,4.97l1.416,0.4c0-0.085,1.292-1.403,3.876-3.955c0-2.07,0.589-3.362,1.767-3.876
c0.768,0,1.078,1.761,0.928,5.282c0,1.803-2.663,2.874-7.987,3.212c-0.697,0.287-3.05,0.43-7.06,0.43
c-1.028-0.163-1.579-0.436-1.65-0.82c0.742-6.301,1.08-10.063,1.015-11.287c-0.573-5.767-0.83-8.651-0.771-8.651
C40.591,122.646,41.343,122.236,42.671,122.092z M52.796,130.558c1.035-0.13,1.553,0.81,1.553,2.822
c0,0.553-0.882,0.762-2.646,0.625c0-0.104-1.129-0.313-3.388-0.625C49.578,132.039,51.072,131.098,52.796,130.558z
M54.339,134.795c0.02-0.417,0.254-0.417,0.703,0C54.593,135.186,54.359,135.186,54.339,134.795z"/>
</g>
<g>
<path d="M79.433,123.498c1.197-0.709,2.542-1.064,4.032-1.064c0,0.222,2.353,0.293,7.06,0.215
c2.278,0.046,3.417,1.273,3.417,3.681c0,0.97-0.271,1.439-0.811,1.406c-0.723,0-2.532-1.175-5.429-3.525
c-0.124-0.234-1.064-0.361-2.822-0.381c-4.003,1.933-5.946,5.116-5.829,9.549c-0.137,3.691,0.394,5.835,1.591,6.435
c1.237,1.374,3.121,2.024,5.653,1.953c1.823-0.098,3.232-1.12,4.228-3.066c0-0.788,0.716-1.149,2.148-1.084
c0.527,0,0.752,0.687,0.674,2.061c-0.287,3.021-3.108,4.563-8.465,4.628c-5.826-0.228-9.016-3.87-9.569-10.926
C76.002,128.016,77.376,124.722,79.433,123.498z"/>
</g>
<g>
<path d="M115.023,122.092c1.979-0.026,3.577,0.442,4.794,1.406c-2.779,2.292-4.397,4.645-4.853,7.06
c0.462,0,0.696,2.825,0.703,8.475c0,1.829,0.797,2.744,2.393,2.744c5.644-0.319,8.465-2.226,8.465-5.722
c0.215,0,0.215-1.653,0-4.96c0.059-2.22-0.781-4.28-2.519-6.181c-0.384-1.009-0.485-1.514-0.303-1.514
c4.094-0.059,6.757,1.858,7.987,5.751c0.423,0,0.56,1.881,0.41,5.644c-1.823,6.047-5.563,9.136-11.219,9.266
c-5.774,0.013-8.661-0.254-8.661-0.801c0.091-0.937,0.267-4.231,0.527-9.881c0.377-1.178,0.443-3.528,0.195-7.05
c-0.156-0.788-0.293-1.731-0.41-2.832C112.63,122.802,113.46,122.333,115.023,122.092z"/>
</g>
<g>
<path d="M149.695,122.092c1.341-0.326,2.613-0.326,3.818,0c0.612,0.677,0.794,1.279,0.547,1.806
c-0.957,1.224-1.383,2.975-1.279,5.253c0.631,2.05,1.162,2.991,1.592,2.822c0.677,0,2.454-0.384,5.331-1.152
c1.217,0,1.826,0.853,1.826,2.558c0,0.605-1.077,0.839-3.232,0.703c-1.497-0.417-2.91-0.599-4.237-0.547
c-1.178,0.13-1.793,1.491-1.846,4.081c0.345,3.392,1.901,5.058,4.667,5c3.639-2.116,5.52-3.173,5.644-3.173
c0.97,0.026,1.578,0.83,1.826,2.412c0,1.621-1.549,2.376-4.647,2.265c0-0.247-1.413-0.426-4.238-0.537
c-0.215,0.437-2.096,0.537-5.644,0.303c-0.56,0-0.791-1.148-0.693-3.447c-0.084-5.734-0.02-10.438,0.195-14.109
c-0.215-1.094-0.397-2.037-0.547-2.832L149.695,122.092z M159.703,122.092c1.568-0.28,2.717-0.28,3.447,0l0.625,1.406
c0,0.82-0.885,1.208-2.656,1.162c-0.391-0.254-1.025-0.641-1.904-1.162L159.703,122.092z"/>
</g>
<g>
<path d="M186.535,122.092c2.35-0.098,3.525,0.182,3.525,0.839c1.015,0.365,1.484,0.557,1.406,0.576
c-1.406,1.875-2.109,3.284-2.109,4.228c0.371,1.881,1.78,2.822,4.228,2.822c1.452,0.241,2.158,1.201,2.119,2.88
c0,0.273-1.712,0.726-5.136,1.357c-1.66,0.072-2.525,1.484-2.597,4.238c0.176,3.007-0.068,4.579-0.732,4.716l-1.416,0.498
c-0.82,0-1.224-1.269-1.211-3.808c0.638-1.979,0.885-4.332,0.742-7.059c-0.397-2.435-0.527-5.728-0.391-9.881
C185.255,122.776,185.779,122.307,186.535,122.092z M194.199,122.092c0.462-0.423,1.904-0.58,4.326-0.469
c0.989,0.084,1.461,0.8,1.416,2.148c-0.176,1.464-1.116,2.197-2.822,2.197c-1.139,0-2.529-0.823-4.169-2.47L194.199,122.092z"/>
</g>
<g>
<path d="M223.53,123.498c1.205-0.898,2.516-1.347,3.935-1.347c1.12,0.312,1.927,0.761,2.421,1.347
c-4.368,0.827-6.551,4.121-6.551,9.881c-0.065,5.689,1.312,8.576,4.13,8.661c1.829,0.293,3.242,0.417,4.238,0.371
c2.766-1.374,4.179-4.4,4.237-9.081c1.295,0,1.943,0.488,1.943,1.464c1.074,0,1.565,2.354,1.474,7.06
c0,1.582-1.611,2.324-4.833,2.226c-0.67-0.215-3.024-0.14-7.06,0.225c-4.068-1.653-6.103-2.942-6.103-3.867
c-0.723,0-1.097-3.293-1.123-9.881C221.047,126.216,222.144,123.863,223.53,123.498z"/>
</g>
<g>
<path d="M257.344,122.092c2.096-0.137,3.144,0.332,3.144,1.406c-0.104,4.641,0.42,6.998,1.572,7.069
c0.501,0.722,1.207,1.191,2.118,1.406c-2.63,1.569-3.944,2.509-3.944,2.822c-0.332,0.417-0.511,3.239-0.537,8.465
c-0.091,0.456-0.716,0.693-1.874,0.713c-0.658,0-0.983-1.178-0.977-3.535c-0.254-9.406-0.28-14.109-0.078-14.109
c-0.307-1.243-0.424-2.288-0.352-3.134L257.344,122.092z M270.847,123.498c0-0.924,0.834-1.386,2.5-1.386
c0.801,0,1.116,1.406,0.947,4.218c-0.456,1.133-0.684,3.014-0.684,5.644c0.176,1.862,0.088,5.631-0.264,11.307
c-1.12,0.384-2.132,0.378-3.037-0.02c0.104-5.416-0.162-8.237-0.8-8.465c-0.893-0.833-1.823-1.305-2.793-1.416
c0-1.38,0.801-2.125,2.402-2.236c1.334-0.742,2.001-2.819,2.001-6.229L270.847,123.498z"/>
</g>
<g>
<path d="M292.836,122.092c0.059-0.443,0.859-0.703,2.401-0.781c1.399,0,2.08,1.673,2.041,5.019c-0.13,0-0.267,4.703-0.41,14.109
c0.163,2.825-0.013,4.238-0.527,4.238c-1.133,0.26-2.457,0.26-3.974,0c-0.424,0-0.583-3.293-0.479-9.881
c0.188,0,0.25-3.766,0.186-11.297C292.152,123.056,292.406,122.587,292.836,122.092z"/>
</g>
<g>
<path d="M336.5,123.498c0.163-0.651,1.23-0.827,3.203-0.527c0.755,0,1.08,3.941,0.977,11.824c-0.391,6.21-2.129,9.315-5.214,9.315
c-2.045,0.358-3.926,0.371-5.644,0.039c-1.947-0.898-2.92-2.135-2.92-3.71c0-1.36,0.504-2.041,1.514-2.041
c1.243,2.155,2.652,3.232,4.228,3.232c1.979,0,2.936-1.806,2.871-5.419c-0.261-5.65-0.144-8.475,0.352-8.475
C336.302,127.736,336.514,126.323,336.5,123.498z"/>
</g>
<g>
<path d="M377.559,122.092c1.673-0.215,2.675-0.215,3.007,0l0.635,1.406c0,0.345-1.744,2.229-5.233,5.653
c-0.801,1.959-1.201,3.841-1.201,5.644l0.645,1.416c-0.11,0.462-0.954,0.563-2.529,0.303c-1.263-0.703-2.203-1.055-2.821-1.055
c-1.094,0-1.641,0.719-1.641,2.158c-0.645,3.899-1.038,5.849-1.182,5.849c-1.36,0.339-2.323,0.271-2.89-0.205
c0.267,0,0.357-4.703,0.273-14.109c0.123-1.556,0.055-3.531-0.205-5.927c0-0.723,0.94-1.074,2.821-1.055
c0.808,0,1.198,1.387,1.172,4.16c-0.091,2.018-0.013,3.492,0.234,4.423c1.959,0.254,3.372-0.094,4.237-1.045
c1.836-0.723,2.776-2.601,2.822-5.634C376.002,123.091,376.621,122.431,377.559,122.092z M375.508,137.617
c0.084-0.358,0.26-0.358,0.527,0C375.768,137.851,375.592,137.851,375.508,137.617z M376.24,139.033l0.879-0.859
c0.97,0,2.46,1.696,4.472,5.087c-0.144,0.469-1.165,0.615-3.066,0.439C377.574,143.7,376.813,142.144,376.24,139.033z"/>
</g>
<g>
<path d="M400.602,123.498c0-0.729,0.879-1.071,2.636-1.025c0.788,0,1.179,2.227,1.172,6.679c0.059,6.073,0.153,9.367,0.283,9.881
c0,1.094,1.396,1.627,4.188,1.601c2.559-0.397,3.971-0.595,4.238-0.595c1.236,0.059,1.93,0.664,2.079,1.816
c-0.071,2.077-1.236,3.115-3.495,3.115c0-0.26-3.294-0.387-9.881-0.381c-1.113-0.221-1.696-0.664-1.748-1.328
c0.176,0,0.25-4.703,0.225-14.109C400.441,125.382,400.543,123.498,400.602,123.498z"/>
</g>
<g>
<path d="M437.979,122.092c0.794-0.176,1.683-0.176,2.665,0c0.71,0,1.396,1.881,2.061,5.644c1.939,4.055,2.909,6.408,2.909,7.059
c1.758,1.302,2.637,2.714,2.637,4.238c0.006,1.979-0.778,2.919-2.354,2.822c-1.204,0-1.861-2.353-1.972-7.06
c-0.268-1.771-1.361-2.61-3.281-2.519c-0.605,0.742-0.827,3.463-0.664,8.163c0.078,2.194-0.169,3.291-0.742,3.291
c-1.595,0.124-2.392-0.032-2.392-0.469c-0.339-8.878-0.482-14.197-0.43-15.954C436.416,123.83,436.937,122.092,437.979,122.092z
M453.278,123.498c0.475-0.866,1.438-1.299,2.89-1.299c1.062,0,1.592,0.905,1.592,2.715c-0.215,0.592-0.205,4.358,0.029,11.297
c-0.449,0.735-0.674,3.085-0.674,7.049c-0.064,0.527-0.85,0.801-2.353,0.82c-1.348,0-2.021-0.742-2.021-2.226
c0.098-2.421-0.163-4.303-0.781-5.644c0-0.879-0.208-2.292-0.625-4.238C452.475,128.035,453.122,125.21,453.278,123.498z"/>
</g>
<g>
<path d="M5.636,158.092c2.76-0.098,4.14,0.843,4.14,2.822c0.28,2.063,0.374,3.573,0.283,4.53c-1.413,0-2.158,3.665-2.236,10.994
c-0.267,2.272-0.934,3.417-2.001,3.437c-0.775,0-1.146-0.674-1.113-2.021c0.104-7.043,0.007-13.185-0.292-18.425L5.636,158.092z
M10.011,167.973c1.914-0.13,2.871,0.169,2.871,0.898l1.083,0.508c-0.501,0.299-1.513,0.299-3.037,0
C10.486,168.618,10.18,168.149,10.011,167.973z M20.331,158.092c1.667-0.085,2.574,0.384,2.724,1.406
c-0.638,4.602-0.908,8.84-0.81,12.713c-0.397,4.875-0.697,7.313-0.898,7.313c-0.137,0.437-1.078,0.554-2.822,0.352
c-1.276-0.078-1.914-2.633-1.914-7.665c-0.722-0.495-1.025-1.445-0.908-2.851c1.927-1.146,3.027-3.021,3.3-5.624
c-0.261-0.495-0.339-1.907-0.234-4.238C18.814,158.704,19.335,158.236,20.331,158.092z"/>
</g>
<g>
<path d="M47.26,158.092c3.482-0.163,5.436-0.107,5.858,0.166c3.873,1.113,5.754,3.519,5.644,7.216
c-0.703,0-1.907-1.048-3.612-3.144c-1.523-1.12-3.789-1.591-6.796-1.416c-3.658,0.807-5.494,4.101-5.507,9.881
c0.573,4.218,3.056,6.656,7.45,7.313c2.545-0.169,4.426-1.768,5.644-4.794c0.26-0.475,1.201-1.438,2.822-2.89
c0.553,0.501,0.996,1.566,1.328,3.193c-1.029,4.661-4.504,7.015-10.428,7.06c-5.168-0.703-8.352-3.056-9.549-7.06
c-0.658-0.833-0.912-3.186-0.762-7.059C40.302,161.331,42.938,158.509,47.26,158.092z"/>
</g>
<g>
<path d="M76.523,158.092c0.313-0.449,2.158-0.573,5.537-0.371c0,0.254,0.94,0.361,2.822,0.322
c0.332-0.391,1.744-0.511,4.237-0.361c1.895,0.338,2.835,1.927,2.822,4.765c-0.442,5.286-1.383,7.928-2.822,7.928
c-2.337-0.403-3.505-0.735-3.505-0.996c1.692-1.321,2.49-3.203,2.393-5.644c-1.1-1.647-2.614-2.471-4.541-2.471
c-1.745,0.437-2.675,2.201-2.792,5.292c0,0.247,0.462,1.194,1.387,2.841c-1.549,1.399-2.324,3.277-2.324,5.634
c0.267,3.177,0.101,4.765-0.498,4.765c-1.641,0.124-2.461-0.055-2.461-0.537c-0.273-1.445-0.283-3.326-0.029-5.644
c0.287-1.699,0.381-4.052,0.283-7.059c0-0.352-0.472-2.705-1.416-7.06C75.784,158.769,76.087,158.3,76.523,158.092z"/>
</g>
<g>
<path d="M117.923,158.092c0.384-0.371,2.783-0.436,7.196-0.195c3.886,0.299,5.872,2.246,5.956,5.839
c0.189,2.22,0.153,3.632-0.107,4.237c0.853,0,1.253,1.012,1.201,3.037c-0.43,0-0.983,2.282-1.66,6.845
c0,1.315-1.328,1.972-3.984,1.972c-2.708,0.117-5.061,0.17-7.06,0.156c-0.813,0-1.826-0.709-3.037-2.128
c-3.463-1.094-5.172-4.387-5.126-9.881C112.305,162.441,114.512,159.147,117.923,158.092z M119.573,160.914
c-2.558,1.419-4.14,3.772-4.745,7.059c-0.046,4.316,0.625,7.138,2.011,8.465c0,1.185,1.348,1.777,4.042,1.777
c3.189,0.104,5.009-0.957,5.458-3.183c1.464-4.707,2.421-7.06,2.871-7.06c-0.273,0-0.381-0.94-0.322-2.822
c-0.846-2.747-2.575-4.458-5.185-5.136C120.95,159.983,119.573,160.283,119.573,160.914z"/>
</g>
<g>
<path d="M149.714,159.498c0.195-0.631,1.172-0.931,2.929-0.898c0.709,0,1.022,0.771,0.938,2.314c-0.436,0-0.697,1.881-0.781,5.644
c0.397,1.269,1.129,2.21,2.197,2.822c-1.946,0.15-2.919,1.562-2.919,4.237c0.02,4.017-0.26,6.024-0.839,6.024
c-1.706,0.15-2.559,0.023-2.559-0.381C148.653,169.926,148.998,163.339,149.714,159.498z M162.515,160.914
c1.927-0.007,2.871,1.985,2.832,5.976c-0.156,3.463-1.097,5.194-2.822,5.194c-4.459-1.575-6.688-2.477-6.688-2.705
c0-0.482,1.478-1.422,4.433-2.822C161.767,165.366,162.515,163.486,162.515,160.914z M163.843,176.439
c0.045-0.312,0.127-0.312,0.244,0c0.879,1.113,1.299,2.067,1.26,2.861c-0.97,0-1.455-0.013-1.455-0.039
C163.709,178.486,163.693,177.546,163.843,176.439z"/>
</g>
<g>
<path d="M186.417,159.498c0.827-0.749,2.041-1.123,3.642-1.123c2.187,0.3,3.6,0.267,4.237-0.098
c3.424-0.059,5.136,0.82,5.136,2.637c-0.026,1.998-0.352,3.879-0.977,5.644c0,1.328,0.69,2.74,2.07,4.237
c0.755,0,1.028,1.891,0.82,5.673c-0.566,2.226-2.917,3.339-7.05,3.339c-2.656,0.404-4.54,0.488-5.653,0.254
c-2.636-1.016-4.156-2.223-4.56-3.623c0-1.972,0.618-2.913,1.855-2.822c1.738,3.001,4.052,4.524,6.942,4.57
c2.356-0.833,3.535-2.356,3.535-4.57c0-0.462-1.432-1.875-4.296-4.237c0-0.885,1.064-1.826,3.193-2.822
c0.045-0.182,0.475-0.651,1.289-1.406c-0.749-3.378-2.46-5.035-5.136-4.97c-2.077,1.328-3.115,2.984-3.115,4.97
c0.169,2.819,0.026,4.228-0.43,4.228c-0.247,0.273-0.947,0.27-2.099-0.01c-0.82-1.413-1.185-3.291-1.094-5.634
C184.78,161.933,185.343,160.52,186.417,159.498z"/>
</g>
<g>
<path d="M219.527,158.092c0.358-0.377,2.063-0.426,5.116-0.146c1.048,0.592,2.46,0.866,4.238,0.82
c1.1-0.54,2.988-0.765,5.663-0.673l1.103,1.406c0,1.374-1.315,2.06-3.944,2.06c-1.849-0.11-2.773,0.146-2.773,0.771
c0.26,1.152,0.391,3.034,0.391,5.644c-0.267,0-0.31,2.822-0.127,8.465c0.228,2.494,0.124,3.74-0.313,3.74
c-0.13,0.346-0.628,0.512-1.494,0.498c-1.237-0.215-1.914-0.687-2.031-1.416c0.527-1.204,0.762-3.554,0.703-7.049
c-0.56-1.354-0.739-4.179-0.537-8.475c0-0.97-0.762-1.445-2.285-1.426c-3.046,0.111-4.57-0.827-4.57-2.812
C218.941,158.587,219.228,158.118,219.527,158.092z"/>
</g>
<g>
<path d="M257.627,158.092c1.815-0.059,2.724,0.41,2.724,1.406c-0.261,8.248-0.257,12.954,0.01,14.119
c0.098,2.52,1.604,3.919,4.521,4.199c3.75-0.241,5.614-3.053,5.595-8.436c-0.032-1.692,0.219-3.102,0.752-4.228
c-0.143-4.12,0.095-6.181,0.713-6.181c1.315-0.006,1.973,0.169,1.973,0.527c0.149,0.026,0.022,2.379-0.381,7.06
c0.553,0.364,0.748,2.718,0.586,7.059c-0.424,4.466-3.502,6.698-9.237,6.698c-3.814,0.065-6.167-0.801-7.059-2.597
c-0.977-1.055-1.445-4.361-1.406-9.92c-0.033-5.689-0.033-8.534,0-8.534L257.627,158.092z"/>
</g>
<g>
<path d="M307.765,158.092c1.465-0.033,2.197,0.436,2.197,1.406c0,0.456-0.784,1.868-2.354,4.238
c-0.813,4.446-2.008,7.739-3.583,9.881c-0.989,3.925-1.565,5.888-1.729,5.888c0,0.521-0.943,0.746-2.831,0.674
c-1.088,0-2.214-2.656-3.379-7.967c-1.985-2.767-2.997-5.591-3.036-8.475c-0.769-1.973-1.152-3.385-1.152-4.238
c0.234-0.534,0.875-0.856,1.924-0.967c1.275,0,2.15,1.735,2.626,5.205c0.149,0,0.687,2.46,1.611,7.381
c0.201,0.436,0.67,1.068,1.406,1.895c1.614-0.508,3.026-2.793,4.237-6.854c1.426-1.992,2.139-4.211,2.139-6.659
C306.395,158.6,307.036,158.132,307.765,158.092z"/>
</g>
<g>
<path d="M327.811,159.498c0.182-0.267,0.921-0.267,2.216,0c0.43,0,1.123,3.294,2.08,9.881c1.133,2.838,2.252,4.257,3.359,4.257
c0.904,0,1.288,1.406,1.151,4.218c-0.045,1.276-0.897,1.914-2.558,1.914c-1.296,0-2.591-2.991-3.887-8.973
c-0.104-0.644-1.031-3.938-2.782-9.881L327.811,159.498z M339.586,159.498c1.959-0.247,2.938,0.059,2.938,0.918
c0.3,0,0.371,2.047,0.215,6.142c0.397,2.753,0.97,4.166,1.719,4.237c-1.445,0.208-2.558,0.026-3.339-0.547
c-1.771,0.671-2.956,0.853-3.555,0.547c-0.267,0-0.264-2.353,0.01-7.059C338.121,160.911,338.792,159.498,339.586,159.498z
M347.778,170.795c0.813-0.098,1.22,0.375,1.22,1.416c0.293,0.801,0.313,1.741,0.059,2.822c0.202,3.248-0.563,4.872-2.294,4.872
c-1.745,0-2.617-2.096-2.617-6.288c0.313-1.484,1.185-2.226,2.617-2.226L347.778,170.795z"/>
</g>
<g>
<path d="M378.505,158.092c1.985-0.078,2.979,0.39,2.979,1.406c0,1.055-1.565,2.939-4.696,5.653
c-0.508,0.469-1.071,1.878-1.689,4.228c0,0.371,1.934,3.196,5.8,8.475c0.462,0.716,0.611,1.279,0.449,1.689
c-0.202,0.319-1.143,0.4-2.822,0.244c-0.768,0-1.708-1.136-2.821-3.408c-1.478-2.304-2.891-3.473-4.237-3.505
c-0.495,0-2.08,2.128-4.756,6.385c-0.201,0.502-0.966,0.795-2.294,0.879l-1.191-0.879c1.588-1.744,3.769-5.038,6.542-9.881
c0-0.326-0.258-1.735-0.771-4.228c0-0.67,1.295-1.064,3.886-1.181c1.055-0.397,1.995-1.686,2.822-3.867
C376.282,159.283,377.217,158.613,378.505,158.092z M364.172,159.498c0.273-0.749,1.295-1.016,3.065-0.801
c1.035,0.013,1.735,1.693,2.1,5.039l-0.693,0.82C366.104,163.267,364.614,161.581,364.172,159.498z"/>
</g>
<g>
<path d="M399.703,158.092c2.271-0.13,3.561,0.338,3.866,1.406c0.28,2.011,0.169,3.229-0.332,3.652
c-1.698,0-3.212-1.217-4.54-3.652C398.841,158.685,399.176,158.216,399.703,158.092z M415.14,158.092
c0.547-0.176,1.364-0.176,2.451,0l0.596,1.406c0,0.664-1.357,2.077-4.072,4.238c-0.963,1.139-2.269,6.314-3.915,15.524
c0,0.866-0.911,1.299-2.733,1.299c-0.854,0-1.149-0.901-0.889-2.705c0.091-4.83-0.313-7.655-1.211-8.475
c-0.632-0.045-0.872-1.383-0.723-4.013c1.881-0.078,2.822,0.316,2.822,1.182c0.865,0,2.392-0.938,4.579-2.812
C412.045,160.039,413.076,158.157,415.14,158.092z"/>
</g>
<g>
<path d="M445.574,158.092c1.113-0.456,2.295-0.684,3.545-0.684c1.888,0.313,2.828,1.015,2.821,2.109
c-2.206,2.396-3.863,5.214-4.97,8.456c-3.463,3.925-5.194,6.278-5.194,7.06c-0.293,1.438-0.199,2.158,0.283,2.158
c0,0.338,1.881,0.387,5.644,0.146c2.193-0.098,3.29,0.075,3.29,0.518c0,1.582-0.625,2.373-1.874,2.373
c-2.767-0.234-7.001-0.286-12.703-0.156c-0.925,0-1.331-0.738-1.221-2.216c1.354-2.753,3.17-5.208,5.448-7.362
c1.275-2.994,2.721-5.715,4.335-8.163c-0.234-1.048-0.625-1.992-1.171-2.832C444.178,159.31,444.768,158.841,445.574,158.092z
M437.646,158.092c1.998-0.163,2.997,0.01,2.997,0.517l0.684,0.889c-1.101,1.035-2.337,1.507-3.71,1.416l-0.654-1.416
L437.646,158.092z"/>
</g>
<g>
<path d="M9.218,197.357c0.245-0.47,0.571-0.748,0.979-0.834c0.708,0,1.084,0.842,1.131,2.525c0.28,0.226,0.338,1.349,0.175,3.37
c-0.525,0.078-0.743,1.201-0.653,3.371c0.007,0.987,0.095,1.549,0.262,1.685c0,0.059,1.1,0.059,3.3,0
c1.124,0.035,1.686-0.046,1.686-0.244c0.155,0.108,0.668,0.19,1.54,0.244c-0.544,1.785-1.901,2.677-4.07,2.677
c-1.641-0.252-3.054-0.301-4.239-0.146c-0.805,0-1.163-0.562-1.073-1.686c0.338-0.342,0.494-1.465,0.467-3.37
c-0.334-0.567-0.473-1.973-0.414-4.216C8.378,200.734,8.681,199.608,9.218,197.357z"/>
<path d="M21.09,197.357c0.117-0.377,0.7-0.556,1.75-0.536c0.423,0,0.61,0.461,0.56,1.382c-0.26,0-0.416,1.124-0.466,3.371
c0.237,0.758,0.674,1.319,1.312,1.685c-1.163,0.09-1.744,0.934-1.744,2.531c0.012,2.398-0.155,3.598-0.501,3.598
c-1.019,0.09-1.528,0.014-1.528-0.228C20.456,203.586,20.662,199.651,21.09,197.357z M28.735,198.203
c1.15-0.004,1.714,1.186,1.691,3.569c-0.093,2.067-0.655,3.102-1.685,3.102c-2.663-0.94-3.995-1.479-3.995-1.615
c0-0.287,0.882-0.85,2.647-1.685C28.288,200.862,28.735,199.739,28.735,198.203z M29.528,207.474c0.027-0.187,0.076-0.187,0.146,0
c0.525,0.665,0.776,1.234,0.752,1.709c-0.579,0-0.869-0.008-0.869-0.023C29.448,208.697,29.438,208.135,29.528,207.474z"/>
<path d="M33.365,204.104c0.276-0.334,0.981-0.471,2.117-0.408c0,0.113,0.952,0.53,2.857,1.254c0.373,0,0.546,0.595,0.519,1.784
c-0.264,0-0.511,1.091-0.74,3.271c-0.82,1.097-1.979,1.633-3.476,1.609c-1.967,0-3.007-1.099-3.12-3.295
C31.604,206.431,32.218,205.026,33.365,204.104z"/>
<path d="M57.15,204.104l0.041-0.467c0,0.339,0.37,0.776,1.108,1.313c0.101,1.761,0.294,2.642,0.578,2.642
c0.661-0.144,1.786-0.634,3.376-1.47c0.844,0.746,1.266,1.197,1.266,1.353c-0.26,1.517-1.246,2.431-2.957,2.741
c-3.052,0.008-4.578-0.063-4.578-0.21c-0.672-0.439-1.009-1.001-1.009-1.686C56.067,205.509,56.792,204.104,57.15,204.104z
M59.454,197.357c2.228-0.151,3.341-0.151,3.341,0c1.399,0.568,2.061,1.565,1.983,2.992c-0.307,1.349-0.869,2.035-1.686,2.058
c-0.284-2.052-0.884-3.172-1.802-3.358c-1.369-0.528-2.053-0.811-2.053-0.846L59.454,197.357z"/>
<path d="M70.556,196.517c2.08-0.097,3.246-0.063,3.499,0.1c2.313,0.665,3.437,2.102,3.371,4.31c-0.42,0-1.139-0.626-2.158-1.878
c-0.91-0.669-2.263-0.95-4.059-0.846c-2.185,0.482-3.281,2.449-3.289,5.901c0.342,2.52,1.825,3.975,4.449,4.368
c1.52-0.102,2.644-1.056,3.371-2.863c0.156-0.284,0.717-0.859,1.686-1.727c0.33,0.3,0.595,0.936,0.793,1.907
c-0.614,2.783-2.69,4.188-6.228,4.216c-3.086-0.42-4.988-1.825-5.703-4.216c-0.393-0.498-0.544-1.903-0.455-4.216
C66.4,198.452,67.975,196.766,70.556,196.517z"/>
<path d="M81.758,197.357c0.715-0.424,1.518-0.636,2.408-0.636c0,0.133,1.405,0.176,4.216,0.129c1.36,0.027,2.041,0.76,2.041,2.198
c0,0.579-0.161,0.859-0.484,0.84c-0.432,0-1.512-0.702-3.242-2.105c-0.074-0.14-0.636-0.216-1.685-0.228
c-2.391,1.155-3.551,3.056-3.481,5.703c-0.082,2.204,0.235,3.485,0.951,3.843c0.738,0.82,1.864,1.209,3.376,1.167
c1.089-0.059,1.93-0.669,2.525-1.831c0-0.471,0.427-0.687,1.283-0.647c0.315,0,0.449,0.41,0.402,1.23
c-0.171,1.804-1.856,2.725-5.056,2.764c-3.479-0.136-5.384-2.312-5.715-6.525C79.709,200.055,80.529,198.089,81.758,197.357z"/>
<path d="M101.292,196.517c0.999-0.128,1.598-0.128,1.796,0l0.379,0.84c0,0.206-1.042,1.332-3.125,3.377
c-0.479,1.17-0.717,2.293-0.717,3.37l0.385,0.846c-0.066,0.276-0.57,0.336-1.51,0.181c-0.754-0.42-1.316-0.63-1.686-0.63
c-0.653,0-0.979,0.43-0.979,1.289c-0.385,2.328-0.62,3.493-0.706,3.493c-0.813,0.202-1.388,0.161-1.726-0.123
c0.159,0,0.214-2.809,0.163-8.426c0.074-0.93,0.033-2.109-0.122-3.54c0-0.432,0.562-0.642,1.685-0.63
c0.482,0,0.715,0.828,0.7,2.484c-0.054,1.205-0.008,2.086,0.14,2.642c1.17,0.151,2.014-0.057,2.531-0.624
c1.096-0.432,1.658-1.553,1.685-3.364C100.363,197.115,100.733,196.72,101.292,196.517z M100.068,205.79
c0.051-0.214,0.156-0.214,0.315,0C100.224,205.929,100.119,205.929,100.068,205.79z M100.505,206.635l0.525-0.514
c0.579,0,1.469,1.013,2.671,3.038c-0.086,0.28-0.696,0.367-1.831,0.263C101.302,209.423,100.848,208.493,100.505,206.635z"/>
<path d="M109.101,203.258c1.396-0.073,2.093,0.208,2.093,0.846c0.579,0.712,0.844,1.566,0.793,2.565
c-0.746,1.101-1.23,1.65-1.452,1.65c-0.269,2.025-1.256,3.149-2.962,3.371c-0.762,0-1.825-0.844-3.19-2.531
c-0.361-0.773-0.542-1.615-0.542-2.524c0.307-1.354,1.055-2.012,2.245-1.978C106.452,204.658,107.457,204.192,109.101,203.258z"/>
<path d="M129.358,198.203c0.012-0.136,0.167-0.136,0.466,0C129.525,198.242,129.37,198.242,129.358,198.203z M130.029,197.357
l0.297-0.438l0.432,0.438l-0.432,0.461L130.029,197.357z M135.639,197.357c0.288-0.179,0.766-0.279,1.435-0.303l0.612,0.303
c-0.156,0.696-0.642,1.044-1.458,1.044c-0.342,0-0.513,0.777-0.513,2.333c0.35,1.064,0.521,1.645,0.513,1.737
c-0.451,2.775-0.694,4.164-0.729,4.164c0.424,0,0.636,0.842,0.636,2.524c-0.121,0.848-0.933,1.271-2.438,1.271
c-1.135,0-1.697-0.573-1.685-1.721c0.292-1.205,0.354-2.179,0.187-2.921c0-0.902-0.204-2.025-0.612-3.371
c0-1.084,0.606-2.208,1.819-3.37c0.501-0.863,0.88-1.405,1.137-1.627C135.273,197.465,135.639,197.443,135.639,197.357z"/>
<path d="M141.796,195.673c0-0.261,0.393-0.364,1.178-0.31c0.404,0.486,0.966,1.819,1.685,4c0.766,0.879,1.149,2.178,1.149,3.896
c-0.229,0.365-0.333,0.673-0.309,0.922c0.26,0.606,0.595,0.862,1.003,0.77c0.82-0.443,1.33-0.725,1.528-0.846
c-0.004-1.396,0.558-2.324,1.686-2.787c0.385,0.112,0.608,0.48,0.67,1.102c-1.096,1.357-1.6,2.317-1.51,2.881
c0.031,2.43-0.531,3.931-1.686,4.502c-1.438,0-2.157-0.775-2.157-2.327c0.167-0.015,0.262-0.577,0.286-1.685
c-1.641-0.494-2.461-1.338-2.461-2.531c-0.264,0-0.418-0.842-0.46-2.524c-0.334-0.098-0.501-0.941-0.501-2.531
c-0.249-0.35-0.43-0.911-0.542-1.686L141.796,195.673z M150.386,199.888c0.113-0.222,0.229-0.222,0.35,0l-0.175,0.571
L150.386,199.888z"/>
<path d="M171.862,195.673c0.288-0.027,0.704-0.183,1.248-0.467l0.747,0.467c-0.214,1.182-0.667,2.025-1.359,2.53
c-0.175,2.453-0.373,3.858-0.595,4.216c0.855,2.812,1.51,4.217,1.965,4.217c0.07,0,0.097,0.565,0.082,1.696
c-0.595,0.642-1.374,0.918-2.338,0.828c-0.789-0.785-1.178-1.627-1.166-2.524c-0.311,0-0.665-1.126-1.062-3.377
c0.167-1.99,0.393-3.957,0.677-5.901C170.884,196.234,171.484,195.673,171.862,195.673z M178.987,205.79
c1.31,0.124,1.965,0.406,1.965,0.846c-0.031,1.531-0.678,2.297-1.942,2.297c-0.91-0.183-1.368-0.668-1.376-1.458
C178.537,206.445,178.987,205.882,178.987,205.79z"/>
<path d="M183.95,196.517c1.084-0.034,1.626,0.245,1.626,0.84c-0.155,4.926-0.153,7.736,0.006,8.433
c0.059,1.504,0.958,2.34,2.7,2.507c2.239-0.144,3.353-1.823,3.341-5.038c-0.02-1.011,0.13-1.853,0.449-2.524
c-0.085-2.461,0.057-3.691,0.426-3.691c0.785-0.004,1.178,0.101,1.178,0.314c0.089,0.016,0.013,1.421-0.228,4.217
c0.33,0.218,0.447,1.623,0.35,4.216c-0.252,2.667-2.091,4-5.516,4c-2.278,0.039-3.684-0.479-4.216-1.551
c-0.583-0.63-0.863-2.604-0.839-5.925c-0.02-3.397-0.02-5.097,0-5.097L183.95,196.517z"/>
<path d="M196.12,196.517c0.035-0.264,0.513-0.419,1.435-0.466c0.836,0,1.242,0.999,1.219,2.997c-0.078,0-0.16,2.809-0.245,8.426
c0.097,1.688-0.008,2.531-0.314,2.531c-0.677,0.155-1.468,0.155-2.374,0c-0.253,0-0.348-1.967-0.286-5.901
c0.113,0,0.149-2.249,0.111-6.747C195.711,197.093,195.863,196.813,196.12,196.517z"/>
<path d="M206.395,196.517c0.665-0.271,1.37-0.408,2.117-0.408c1.127,0.188,1.689,0.606,1.685,1.26
c-1.318,1.431-2.307,3.114-2.968,5.05c-2.068,2.345-3.103,3.75-3.103,4.217c-0.175,0.858-0.119,1.288,0.169,1.288
c0,0.202,1.124,0.231,3.371,0.088c1.31-0.059,1.965,0.045,1.965,0.309c0,0.945-0.374,1.417-1.12,1.417
c-1.652-0.14-4.181-0.171-7.586-0.093c-0.552,0-0.795-0.441-0.729-1.324c0.809-1.645,1.893-3.109,3.254-4.396
c0.762-1.788,1.625-3.413,2.589-4.875c-0.14-0.626-0.373-1.189-0.7-1.691C205.561,197.245,205.912,196.965,206.395,196.517z
M201.659,196.517c1.194-0.097,1.791,0.006,1.791,0.31l0.408,0.53c-0.657,0.618-1.396,0.9-2.216,0.846l-0.391-0.846
L201.659,196.517z"/>
<path d="M229.194,196.517c0.793-0.151,1.244-0.151,1.353,0c1.307,1.081,1.959,1.925,1.959,2.531
c-0.75,1.232-1.125,2.074-1.125,2.525c0.226,0,0.766,0.562,1.621,1.685c-2.173,0.393-3.26,1.519-3.26,3.377
c-0.393,0.548-0.589,1.109-0.589,1.685c-0.49,0.202-0.83,0.202-1.021,0c-0.05-2.838,0.148-4.524,0.595-5.062
c0.295,0,0.402-0.842,0.321-2.524c0-0.194-0.352-1.038-1.055-2.531C228.234,197.208,228.634,196.646,229.194,196.517z
M236.104,197.357c0.552,0.047,1.125,0.047,1.72,0c0.175,0.257,0.396,0.82,0.665,1.691c-0.323,1.411-1.044,2.253-2.163,2.525
c-0.334,0.614-0.745,0.896-1.23,0.845c-0.074-1.107-0.576-2.073-1.505-2.897l-0.391-0.473
C235.136,198.368,236.104,197.804,236.104,197.357z"/>
<path d="M240.046,196.517c1.252-0.081,1.878,0.198,1.878,0.84c-0.063,2.772,0.25,4.18,0.938,4.223
c0.299,0.431,0.721,0.711,1.266,0.839c-1.571,0.938-2.356,1.499-2.356,1.686c-0.198,0.249-0.305,1.935-0.321,5.056
c-0.054,0.272-0.428,0.414-1.12,0.426c-0.393,0-0.587-0.703-0.583-2.111c-0.151-5.617-0.167-8.426-0.046-8.426
c-0.183-0.742-0.253-1.366-0.21-1.872L240.046,196.517z M248.111,197.357c0-0.552,0.498-0.828,1.493-0.828
c0.478,0,0.667,0.84,0.565,2.52c-0.272,0.677-0.408,1.8-0.408,3.37c0.105,1.112,0.053,3.363-0.157,6.753
c-0.669,0.229-1.273,0.226-1.813-0.012c0.062-3.234-0.097-4.92-0.478-5.056c-0.533-0.497-1.089-0.779-1.668-0.846
c0-0.824,0.478-1.269,1.435-1.335c0.797-0.443,1.195-1.684,1.195-3.721L248.111,197.357z"/>
<path d="M252.543,204.104c0.275-0.334,0.981-0.471,2.116-0.408c0,0.113,0.953,0.53,2.857,1.254c0.373,0,0.547,0.595,0.52,1.784
c-0.265,0-0.512,1.091-0.741,3.271c-0.82,1.097-1.979,1.633-3.475,1.609c-1.968,0-3.007-1.099-3.12-3.295
C250.782,206.431,251.396,205.026,252.543,204.104z"/>
<path d="M260.426,197.357c0.245-0.47,0.572-0.748,0.98-0.834c0.707,0,1.084,0.842,1.131,2.525c0.28,0.226,0.338,1.349,0.175,3.37
c-0.524,0.078-0.742,1.201-0.653,3.371c0.008,0.987,0.096,1.549,0.263,1.685c0,0.059,1.101,0.059,3.301,0
c1.123,0.035,1.685-0.046,1.685-0.244c0.156,0.108,0.669,0.19,1.54,0.244c-0.545,1.785-1.901,2.677-4.07,2.677
c-1.641-0.252-3.054-0.301-4.239-0.146c-0.805,0-1.163-0.562-1.073-1.686c0.338-0.342,0.494-1.465,0.467-3.37
c-0.335-0.567-0.473-1.973-0.414-4.216C259.586,200.734,259.89,199.608,260.426,197.357z"/>
<path d="M271.932,204.104c0.275-0.334,0.981-0.471,2.116-0.408c0,0.113,0.953,0.53,2.857,1.254c0.373,0,0.547,0.595,0.52,1.784
c-0.265,0-0.512,1.091-0.741,3.271c-0.82,1.097-1.979,1.633-3.475,1.609c-1.968,0-3.008-1.099-3.12-3.295
C270.171,206.431,270.784,205.026,271.932,204.104z"/>
<path d="M282.964,203.258c1.396-0.073,2.094,0.208,2.094,0.846c0.579,0.712,0.843,1.566,0.793,2.565
c-0.747,1.101-1.23,1.65-1.452,1.65c-0.269,2.025-1.256,3.149-2.963,3.371c-0.762,0-1.825-0.844-3.189-2.531
c-0.361-0.773-0.542-1.615-0.542-2.524c0.307-1.354,1.056-2.012,2.245-1.978C280.314,204.658,281.319,204.192,282.964,203.258z"/>
<path d="M304.696,196.517c1.17-0.034,2.406,0.201,3.709,0.706c0.004-0.218,0.848-0.29,2.53-0.216c0.685,0,1.026,0.398,1.026,1.195
c-0.108,0.361-0.45,0.571-1.026,0.63c-1.037-0.917-2.163-1.327-3.376-1.23c-1.217,0.606-1.825,1.65-1.825,3.132
c0.222,1.457,0.231,2.299,0.029,2.524c-0.479,0.439-0.718,1.283-0.718,2.531c0.039,1.547,1.159,2.536,3.359,2.968l0.846,0.239
c0-0.051,0.771-0.838,2.314-2.361c0-1.236,0.353-2.008,1.056-2.315c0.459,0,0.644,1.052,0.554,3.154
c0,1.077-1.59,1.717-4.77,1.919c-0.416,0.171-1.821,0.257-4.216,0.257c-0.614-0.098-0.943-0.261-0.985-0.49
c0.442-3.763,0.645-6.01,0.606-6.741c-0.343-3.444-0.496-5.166-0.461-5.166C303.454,196.848,303.903,196.603,304.696,196.517z
M310.743,201.574c0.618-0.078,0.928,0.483,0.928,1.685c0,0.331-0.527,0.455-1.58,0.373c0-0.062-0.675-0.187-2.023-0.373
C308.821,202.458,309.713,201.896,310.743,201.574z M311.665,204.104c0.012-0.249,0.151-0.249,0.42,0
C311.816,204.338,311.677,204.338,311.665,204.104z"/>
<path d="M318.809,197.357c0.21-0.458,0.958-0.603,2.245-0.432c0.664,0.164,1.078,1.713,1.242,4.648
c1.08,1.912,1.615,3.6,1.604,5.062c-0.121,0.82-0.228,1.24-0.321,1.259c-0.373-1.08-1.609-2.062-3.708-2.944
c0.648-0.781,0.935-1.625,0.856-2.531c0-0.33-0.454-0.495-1.364-0.495c-0.692,0.497-0.972,1.1-0.84,1.808
c0.389,0.63,0.618,1.036,0.688,1.219c-1.598,0.832-2.671,2.269-3.219,4.31c-0.035,0.214-0.597,0.275-1.686,0.187
c-0.187-0.222-0.11-0.597,0.228-1.126c1.217-2.989,2.147-4.956,2.793-5.901C317.685,199.363,318.179,197.676,318.809,197.357z"/>
<path d="M328.815,197.357c0.719-0.536,1.502-0.805,2.35-0.805c0.669,0.187,1.15,0.455,1.446,0.805
c-2.608,0.494-3.913,2.461-3.913,5.901c-0.039,3.398,0.783,5.122,2.467,5.173c1.093,0.175,1.937,0.249,2.531,0.222
c1.651-0.82,2.495-2.628,2.53-5.424c0.773,0,1.16,0.292,1.16,0.875c0.642,0,0.936,1.405,0.881,4.216
c0,0.945-0.962,1.388-2.887,1.33c-0.4-0.129-1.806-0.084-4.216,0.134c-2.43-0.987-3.645-1.757-3.645-2.31
c-0.432,0-0.655-1.967-0.671-5.9C327.332,198.98,327.987,197.575,328.815,197.357z"/>
<path d="M341.638,197.357c0.493-0.446,1.219-0.67,2.175-0.67c1.307,0.179,2.15,0.159,2.531-0.059
c2.045-0.035,3.067,0.49,3.067,1.574c-0.016,1.193-0.21,2.317-0.584,3.371c0,0.793,0.412,1.637,1.236,2.53
c0.451,0,0.614,1.13,0.49,3.388c-0.338,1.33-1.741,1.995-4.21,1.995c-1.586,0.24-2.712,0.291-3.377,0.151
c-1.574-0.606-2.481-1.328-2.723-2.164c0-1.178,0.369-1.739,1.107-1.685c1.038,1.792,2.42,2.701,4.146,2.729
c1.407-0.497,2.11-1.407,2.11-2.729c0-0.276-0.854-1.12-2.565-2.531c0-0.528,0.636-1.09,1.907-1.685
c0.027-0.109,0.283-0.389,0.77-0.84c-0.447-2.018-1.47-3.007-3.067-2.969c-1.24,0.793-1.86,1.783-1.86,2.969
c0.102,1.683,0.016,2.524-0.256,2.524c-0.148,0.163-0.566,0.161-1.254-0.006c-0.49-0.844-0.708-1.965-0.653-3.364
C340.66,198.811,340.996,197.967,341.638,197.357z"/>
<path d="M369.319,196.517c1.403-0.058,2.104,0.109,2.104,0.502c0.606,0.218,0.887,0.332,0.84,0.344
c-0.84,1.12-1.26,1.962-1.26,2.525c0.222,1.123,1.063,1.686,2.525,1.686c0.866,0.144,1.288,0.717,1.266,1.72
c0,0.163-1.022,0.434-3.067,0.811c-0.991,0.043-1.509,0.887-1.552,2.531c0.105,1.796-0.04,2.734-0.437,2.816l-0.846,0.297
c-0.49,0-0.731-0.758-0.724-2.274c0.381-1.182,0.529-2.587,0.443-4.216c-0.237-1.454-0.314-3.421-0.233-5.901
C368.555,196.925,368.868,196.646,369.319,196.517z M373.896,196.517c0.276-0.252,1.137-0.346,2.583-0.279
c0.591,0.051,0.873,0.478,0.846,1.283c-0.104,0.874-0.667,1.312-1.686,1.312c-0.68,0-1.51-0.491-2.489-1.476L373.896,196.517z"/>
<path d="M379.774,196.517c0.801-0.194,1.561-0.194,2.28,0c0.365,0.405,0.474,0.765,0.326,1.079
c-0.571,0.731-0.826,1.776-0.764,3.138c0.377,1.225,0.694,1.786,0.95,1.685c0.404,0,1.466-0.229,3.185-0.688
c0.727,0,1.09,0.509,1.09,1.527c0,0.361-0.644,0.502-1.93,0.42c-0.895-0.249-1.738-0.357-2.531-0.326
c-0.703,0.077-1.071,0.89-1.102,2.438c0.206,2.025,1.135,3.021,2.787,2.985c2.173-1.264,3.297-1.896,3.37-1.896
c0.579,0.016,0.943,0.496,1.091,1.44c0,0.969-0.926,1.419-2.775,1.354c0-0.148-0.844-0.255-2.531-0.321
c-0.128,0.261-1.252,0.321-3.37,0.181c-0.335,0-0.473-0.686-0.414-2.059c-0.051-3.425-0.012-6.233,0.116-8.426
c-0.128-0.653-0.237-1.217-0.326-1.691L379.774,196.517z M385.752,196.517c0.937-0.167,1.623-0.167,2.058,0l0.374,0.84
c0,0.49-0.529,0.722-1.587,0.694c-0.232-0.151-0.612-0.383-1.137-0.694L385.752,196.517z"/>
<path d="M390.451,197.357c0.108-0.159,0.55-0.159,1.323,0c0.257,0,0.671,1.968,1.242,5.901c0.677,1.695,1.345,2.543,2.006,2.543
c0.54,0,0.77,0.84,0.688,2.519c-0.027,0.763-0.537,1.144-1.528,1.144c-0.773,0-1.547-1.787-2.32-5.359
c-0.063-0.385-0.616-2.352-1.662-5.901L390.451,197.357z M397.483,197.357c1.17-0.147,1.755,0.035,1.755,0.549
c0.179,0,0.222,1.223,0.129,3.668c0.236,1.644,0.579,2.487,1.026,2.53c-0.863,0.125-1.528,0.016-1.995-0.326
c-1.057,0.4-1.765,0.509-2.122,0.326c-0.159,0-0.157-1.405,0.006-4.216C396.608,198.201,397.009,197.357,397.483,197.357z
M402.376,204.104c0.485-0.059,0.729,0.224,0.729,0.846c0.175,0.479,0.187,1.04,0.035,1.686c0.12,1.939-0.336,2.909-1.37,2.909
c-1.042,0-1.563-1.252-1.563-3.755c0.187-0.887,0.707-1.33,1.563-1.33L402.376,204.104z"/>
<path d="M423.59,197.357c0-0.435,0.525-0.639,1.575-0.612c0.47,0,0.703,1.33,0.699,3.989c0.035,3.627,0.092,5.594,0.169,5.901
c0,0.652,0.834,0.972,2.502,0.956c1.527-0.237,2.371-0.355,2.53-0.355c0.739,0.034,1.153,0.396,1.242,1.084
c-0.043,1.24-0.738,1.86-2.087,1.86c0-0.155-1.968-0.231-5.901-0.228c-0.665-0.132-1.013-0.396-1.044-0.793
c0.104,0,0.149-2.809,0.134-8.426C423.495,198.483,423.555,197.357,423.59,197.357z"/>
<path d="M433.171,196.517c1.356-0.077,2.126,0.203,2.31,0.84c0.167,1.201,0.101,1.929-0.198,2.182
c-1.015,0-1.919-0.728-2.712-2.182C432.656,196.872,432.855,196.591,433.171,196.517z M442.39,196.517
c0.327-0.104,0.814-0.104,1.464,0l0.356,0.84c0,0.396-0.811,1.24-2.433,2.531c-0.575,0.681-1.354,3.771-2.338,9.271
c0,0.518-0.544,0.775-1.633,0.775c-0.509,0-0.687-0.538-0.53-1.615c0.054-2.884-0.187-4.571-0.724-5.062
c-0.377-0.027-0.521-0.826-0.432-2.396c1.124-0.047,1.686,0.188,1.686,0.706c0.517,0,1.429-0.561,2.735-1.68
C440.542,197.68,441.157,196.556,442.39,196.517z"/>
<path d="M446.128,196.517c1.648-0.058,2.473,0.504,2.473,1.686c0.167,1.232,0.224,2.135,0.169,2.706
c-0.844,0-1.288,2.188-1.335,6.565c-0.159,1.357-0.558,2.041-1.195,2.053c-0.463,0-0.685-0.402-0.665-1.207
c0.063-4.206,0.004-7.874-0.175-11.003L446.128,196.517z M448.74,202.419c1.144-0.077,1.715,0.102,1.715,0.537l0.647,0.303
c-0.3,0.179-0.904,0.179-1.813,0C449.024,202.803,448.842,202.524,448.74,202.419z M454.904,196.517
c0.995-0.05,1.537,0.229,1.627,0.84c-0.381,2.749-0.542,5.279-0.484,7.593c-0.237,2.912-0.416,4.367-0.536,4.367
c-0.082,0.261-0.644,0.331-1.686,0.21c-0.762-0.046-1.143-1.572-1.143-4.577c-0.432-0.296-0.612-0.863-0.542-1.703
c1.15-0.684,1.808-1.804,1.971-3.358c-0.155-0.296-0.202-1.14-0.14-2.531C453.998,196.883,454.31,196.603,454.904,196.517z"/>
<path d="M467.301,196.517c1.186-0.046,1.779,0.233,1.779,0.84c0,0.63-0.936,1.756-2.806,3.377
c-0.303,0.279-0.639,1.121-1.009,2.524c0,0.222,1.155,1.909,3.464,5.062c0.276,0.428,0.365,0.765,0.269,1.009
c-0.12,0.19-0.683,0.239-1.686,0.146c-0.458,0-1.021-0.679-1.685-2.035c-0.883-1.377-1.727-2.074-2.531-2.094
c-0.296,0-1.242,1.271-2.84,3.813c-0.12,0.3-0.577,0.475-1.37,0.525l-0.712-0.525c0.949-1.042,2.251-3.009,3.907-5.901
c0-0.194-0.153-1.036-0.461-2.524c0-0.4,0.773-0.636,2.321-0.706c0.63-0.237,1.191-1.007,1.686-2.309
C465.974,197.229,466.531,196.829,467.301,196.517z M458.741,197.357c0.163-0.446,0.773-0.606,1.831-0.478
c0.617,0.008,1.035,1.011,1.253,3.009l-0.414,0.489C459.896,199.608,459.005,198.601,458.741,197.357z"/>
<path d="M8.417,224.654c0.012-0.142,0.175-0.142,0.488,0C8.592,224.695,8.429,224.695,8.417,224.654z M9.119,223.769l0.311-0.457
l0.452,0.457l-0.452,0.482L9.119,223.769z M14.99,223.769c0.301-0.187,0.801-0.293,1.501-0.317l0.641,0.317
c-0.163,0.729-0.671,1.093-1.525,1.093c-0.358,0-0.537,0.813-0.537,2.44c0.366,1.115,0.545,1.722,0.537,1.819
c-0.472,2.904-0.726,4.356-0.763,4.356c0.443,0,0.665,0.881,0.665,2.643c-0.126,0.887-0.977,1.33-2.551,1.33
c-1.188,0-1.776-0.6-1.764-1.8c0.305-1.261,0.37-2.28,0.195-3.058c0-0.943-0.214-2.119-0.641-3.527
c0-1.135,0.635-2.311,1.904-3.527c0.525-0.902,0.921-1.471,1.19-1.702C14.607,223.882,14.99,223.859,14.99,223.769z"/>
<path d="M21.483,222.89c1.31-0.085,1.965,0.208,1.965,0.879c-0.065,2.901,0.262,4.374,0.982,4.418
c0.313,0.452,0.754,0.745,1.324,0.879c-1.644,0.98-2.465,1.568-2.465,1.764c-0.208,0.261-0.319,2.024-0.335,5.291
c-0.057,0.285-0.448,0.434-1.172,0.445c-0.411,0-0.614-0.736-0.61-2.209c-0.159-5.879-0.175-8.818-0.049-8.818
c-0.191-0.776-0.265-1.43-0.22-1.959L21.483,222.89z M29.922,223.769c0-0.577,0.521-0.866,1.563-0.866
c0.5,0,0.698,0.879,0.592,2.636c-0.285,0.708-0.427,1.884-0.427,3.527c0.11,1.164,0.055,3.52-0.165,7.067
c-0.7,0.24-1.333,0.235-1.898-0.013c0.065-3.385-0.102-5.148-0.5-5.291c-0.558-0.521-1.139-0.815-1.745-0.885
c0-0.862,0.5-1.328,1.501-1.397c0.834-0.464,1.251-1.762,1.251-3.894L29.922,223.769z"/>
<path d="M34.932,222.89c0.838-0.203,1.634-0.203,2.386,0c0.382,0.424,0.497,0.8,0.342,1.129c-0.598,0.766-0.865,1.859-0.799,3.283
c0.395,1.282,0.726,1.87,0.995,1.764c0.423,0,1.534-0.239,3.332-0.72c0.761,0,1.141,0.533,1.141,1.599
c0,0.379-0.673,0.525-2.02,0.439c-0.936-0.26-1.818-0.374-2.648-0.342c-0.736,0.082-1.121,0.932-1.153,2.551
c0.215,2.12,1.188,3.161,2.917,3.125c2.274-1.322,3.45-1.983,3.527-1.983c0.606,0.016,0.986,0.519,1.141,1.507
c0,1.014-0.968,1.485-2.905,1.416c0-0.154-0.883-0.267-2.648-0.336c-0.134,0.273-1.31,0.336-3.527,0.189
c-0.35,0-0.494-0.718-0.433-2.154c-0.053-3.584-0.012-6.523,0.122-8.818c-0.134-0.683-0.249-1.272-0.342-1.77L34.932,222.89z
M41.188,222.89c0.98-0.175,1.698-0.175,2.154,0l0.391,0.879c0,0.513-0.554,0.755-1.66,0.727c-0.244-0.159-0.641-0.4-1.19-0.727
L41.188,222.89z"/>
<path d="M64.352,222.89c1.469-0.061,2.203,0.114,2.203,0.525c0.635,0.228,0.928,0.348,0.879,0.359
c-0.879,1.172-1.318,2.053-1.318,2.643c0.232,1.176,1.113,1.764,2.643,1.764c0.907,0.15,1.349,0.751,1.324,1.801
c0,0.171-1.07,0.453-3.21,0.848c-1.038,0.045-1.579,0.928-1.624,2.648c0.11,1.88-0.042,2.862-0.458,2.948l-0.885,0.311
c-0.513,0-0.765-0.793-0.757-2.38c0.399-1.236,0.553-2.707,0.464-4.412c-0.248-1.521-0.33-3.58-0.244-6.176
C63.553,223.318,63.88,223.025,64.352,222.89z M69.143,222.89c0.289-0.264,1.19-0.361,2.704-0.293
c0.618,0.054,0.913,0.501,0.885,1.343c-0.11,0.916-0.698,1.373-1.764,1.373c-0.712,0-1.581-0.515-2.606-1.544L69.143,222.89z"/>
<path d="M74.757,222.89c0.037-0.276,0.537-0.439,1.501-0.488c0.875,0,1.3,1.046,1.275,3.137c-0.082,0-0.167,2.939-0.256,8.818
c0.102,1.766-0.008,2.648-0.33,2.648c-0.708,0.163-1.536,0.163-2.483,0c-0.265,0-0.364-2.059-0.299-6.176
c0.118,0,0.157-2.354,0.116-7.061C74.33,223.493,74.488,223.2,74.757,222.89z"/>
<path d="M89.378,222.89c0.916-0.02,1.373,0.273,1.373,0.879c0,0.285-0.49,1.168-1.471,2.648c-0.509,2.779-1.255,4.838-2.24,6.176
c-0.618,2.453-0.979,3.68-1.08,3.68c0,0.326-0.59,0.466-1.77,0.422c-0.68,0-1.383-1.66-2.112-4.98
c-1.241-1.729-1.873-3.494-1.897-5.297c-0.48-1.232-0.72-2.115-0.72-2.648c0.146-0.333,0.547-0.535,1.202-0.604
c0.797,0,1.345,1.084,1.642,3.252c0.093,0,0.429,1.538,1.007,4.613c0.126,0.273,0.419,0.668,0.879,1.185
c1.009-0.317,1.892-1.745,2.648-4.284c0.891-1.245,1.336-2.632,1.336-4.162C88.521,223.208,88.922,222.915,89.378,222.89z"/>
<path d="M92.936,222.89c0.838-0.203,1.634-0.203,2.386,0c0.382,0.424,0.497,0.8,0.342,1.129c-0.598,0.766-0.865,1.859-0.799,3.283
c0.395,1.282,0.726,1.87,0.995,1.764c0.423,0,1.534-0.239,3.332-0.72c0.761,0,1.141,0.533,1.141,1.599
c0,0.379-0.673,0.525-2.02,0.439c-0.936-0.26-1.818-0.374-2.648-0.342c-0.736,0.082-1.121,0.932-1.153,2.551
c0.215,2.12,1.188,3.161,2.917,3.125c2.274-1.322,3.45-1.983,3.527-1.983c0.606,0.016,0.986,0.519,1.141,1.507
c0,1.014-0.968,1.485-2.905,1.416c0-0.154-0.883-0.267-2.648-0.336c-0.134,0.273-1.31,0.336-3.527,0.189
c-0.35,0-0.494-0.718-0.433-2.154c-0.053-3.584-0.012-6.523,0.122-8.818c-0.134-0.683-0.249-1.272-0.342-1.77L92.936,222.89z
M99.191,222.89c0.98-0.175,1.698-0.175,2.154,0l0.391,0.879c0,0.513-0.554,0.755-1.66,0.727c-0.244-0.159-0.641-0.4-1.19-0.727
L99.191,222.89z"/>
<path d="M122.441,222.89c1.225-0.036,2.519,0.21,3.881,0.738c0.004-0.228,0.887-0.303,2.648-0.226
c0.716,0,1.074,0.417,1.074,1.251c-0.114,0.379-0.472,0.599-1.074,0.659c-1.086-0.96-2.264-1.389-3.533-1.287
c-1.273,0.635-1.91,1.727-1.91,3.276c0.232,1.526,0.242,2.407,0.03,2.643c-0.5,0.46-0.75,1.343-0.75,2.648
c0.041,1.619,1.212,2.655,3.515,3.106l0.885,0.25c0-0.053,0.808-0.877,2.423-2.472c0-1.293,0.368-2.101,1.104-2.423
c0.48,0,0.673,1.101,0.58,3.302c0,1.127-1.664,1.797-4.992,2.008c-0.436,0.179-1.906,0.269-4.412,0.269
c-0.643-0.102-0.987-0.272-1.031-0.513c0.464-3.938,0.675-6.289,0.635-7.055c-0.358-3.604-0.519-5.406-0.482-5.406
C121.141,223.236,121.611,222.98,122.441,222.89z M128.77,228.181c0.646-0.081,0.97,0.507,0.97,1.764
c0,0.346-0.551,0.477-1.654,0.391c0-0.064-0.706-0.195-2.118-0.391C126.757,229.107,127.691,228.519,128.77,228.181z
M129.733,230.83c0.012-0.26,0.159-0.26,0.439,0C129.892,231.074,129.746,231.074,129.733,230.83z"/>
<path d="M137.661,222.89c2.177-0.102,3.397-0.066,3.662,0.104c2.42,0.695,3.596,2.198,3.527,4.51
c-0.439,0-1.192-0.655-2.258-1.966c-0.952-0.699-2.368-0.994-4.248-0.885c-2.287,0.505-3.434,2.563-3.442,6.176
c0.358,2.637,1.91,4.16,4.656,4.571c1.591-0.106,2.767-1.104,3.527-2.996c0.163-0.298,0.75-0.899,1.764-1.807
c0.346,0.313,0.623,0.979,0.83,1.995c-0.643,2.913-2.815,4.384-6.518,4.412c-3.23-0.439-5.22-1.91-5.968-4.412
c-0.411-0.521-0.57-1.991-0.476-4.412C133.312,224.915,134.959,223.151,137.661,222.89z"/>
<path d="M156.304,222.89c1.241-0.049,1.861,0.244,1.861,0.879c0,0.659-0.979,1.837-2.936,3.533
c-0.317,0.293-0.669,1.174-1.056,2.643c0,0.232,1.208,1.998,3.625,5.297c0.289,0.448,0.382,0.8,0.281,1.056
c-0.126,0.2-0.714,0.251-1.764,0.153c-0.48,0-1.068-0.71-1.764-2.13c-0.924-1.44-1.807-2.171-2.648-2.191
c-0.31,0-1.3,1.331-2.972,3.991c-0.126,0.313-0.604,0.496-1.434,0.55l-0.745-0.55c0.993-1.09,2.356-3.148,4.089-6.176
c0-0.203-0.161-1.084-0.482-2.643c0-0.419,0.81-0.665,2.429-0.738c0.659-0.248,1.247-1.054,1.764-2.416
C154.914,223.635,155.498,223.216,156.304,222.89z M147.345,223.769c0.171-0.468,0.81-0.635,1.916-0.5
c0.647,0.008,1.084,1.058,1.312,3.148l-0.433,0.513C148.553,226.125,147.622,225.071,147.345,223.769z"/>
<path d="M160.112,222.89c0.037-0.276,0.537-0.439,1.501-0.488c0.875,0,1.3,1.046,1.275,3.137c-0.082,0-0.167,2.939-0.256,8.818
c0.102,1.766-0.008,2.648-0.33,2.648c-0.708,0.163-1.536,0.163-2.483,0c-0.265,0-0.364-2.059-0.299-6.176
c0.118,0,0.157-2.354,0.116-7.061C159.685,223.493,159.843,223.2,160.112,222.89z"/>
<path d="M165.902,222.89c1.725-0.061,2.588,0.527,2.588,1.764c0.175,1.29,0.234,2.233,0.177,2.832
c-0.883,0-1.349,2.29-1.397,6.871c-0.167,1.42-0.584,2.136-1.251,2.148c-0.484,0-0.716-0.421-0.696-1.264
c0.065-4.401,0.004-8.24-0.183-11.516L165.902,222.89z M168.637,229.066c1.196-0.081,1.794,0.106,1.794,0.562l0.677,0.317
c-0.313,0.188-0.946,0.188-1.898,0C168.934,229.469,168.742,229.176,168.637,229.066z M175.087,222.89
c1.042-0.053,1.609,0.24,1.703,0.879c-0.399,2.877-0.567,5.525-0.507,7.945c-0.248,3.048-0.435,4.571-0.561,4.571
c-0.085,0.272-0.673,0.346-1.764,0.22c-0.797-0.049-1.196-1.646-1.196-4.791c-0.452-0.309-0.641-0.902-0.567-1.781
c1.204-0.717,1.892-1.888,2.063-3.516c-0.163-0.309-0.211-1.191-0.146-2.648C174.139,223.273,174.464,222.98,175.087,222.89z"/>
<path d="M181.202,223.769c0.752-0.562,1.572-0.842,2.459-0.842c0.7,0.195,1.204,0.476,1.513,0.842
c-2.73,0.517-4.095,2.575-4.095,6.176c-0.041,3.556,0.82,5.36,2.582,5.413c1.143,0.183,2.026,0.261,2.648,0.231
c1.729-0.857,2.612-2.75,2.648-5.675c0.81,0,1.214,0.305,1.214,0.915c0.671,0,0.979,1.471,0.921,4.412
c0,0.989-1.007,1.453-3.021,1.392c-0.419-0.134-1.89-0.087-4.412,0.141c-2.543-1.033-3.814-1.839-3.814-2.417
c-0.452,0-0.686-2.059-0.702-6.176C179.649,225.468,180.335,223.998,181.202,223.769z"/>
<path d="M209.535,223.769c0.114-0.167,0.576-0.167,1.385,0c0.269,0,0.702,2.059,1.3,6.176c0.708,1.774,1.408,2.661,2.1,2.661
c0.565,0,0.805,0.879,0.72,2.636c-0.028,0.798-0.561,1.196-1.599,1.196c-0.81,0-1.619-1.869-2.429-5.608
c-0.065-0.402-0.645-2.461-1.739-6.176L209.535,223.769z M216.895,223.769c1.225-0.154,1.837,0.037,1.837,0.574
c0.187,0,0.232,1.279,0.134,3.838c0.248,1.721,0.606,2.604,1.074,2.648c-0.903,0.131-1.599,0.017-2.087-0.342
c-1.106,0.419-1.847,0.533-2.221,0.342c-0.167,0-0.165-1.471,0.006-4.412C215.979,224.652,216.398,223.769,216.895,223.769z
M222.015,230.83c0.508-0.061,0.763,0.234,0.763,0.885c0.183,0.501,0.195,1.089,0.037,1.764c0.126,2.03-0.352,3.046-1.434,3.046
c-1.09,0-1.636-1.311-1.636-3.931c0.195-0.928,0.741-1.392,1.636-1.392L222.015,230.83z"/>
<path d="M227.818,222.89c0.037-0.276,0.537-0.439,1.501-0.488c0.875,0,1.3,1.046,1.275,3.137c-0.082,0-0.167,2.939-0.256,8.818
c0.102,1.766-0.008,2.648-0.33,2.648c-0.708,0.163-1.536,0.163-2.483,0c-0.265,0-0.364-2.059-0.299-6.176
c0.118,0,0.157-2.354,0.116-7.061C227.391,223.493,227.55,223.2,227.818,222.89z"/>
<path d="M238.57,222.89c0.696-0.284,1.434-0.427,2.215-0.427c1.18,0.195,1.768,0.635,1.764,1.318
c-1.379,1.497-2.415,3.259-3.106,5.284c-2.165,2.453-3.247,3.924-3.247,4.412c-0.183,0.899-0.125,1.349,0.177,1.349
c0,0.212,1.176,0.242,3.527,0.092c1.371-0.061,2.057,0.047,2.057,0.323c0,0.989-0.391,1.483-1.172,1.483
c-1.729-0.146-4.375-0.179-7.939-0.098c-0.578,0-0.832-0.462-0.763-1.386c0.846-1.721,1.981-3.254,3.405-4.601
c0.797-1.872,1.7-3.572,2.709-5.103c-0.146-0.654-0.391-1.244-0.732-1.77C237.698,223.651,238.066,223.358,238.57,222.89z
M233.615,222.89c1.249-0.102,1.874,0.007,1.874,0.324l0.427,0.555c-0.688,0.647-1.461,0.942-2.319,0.885l-0.409-0.885
L233.615,222.89z"/>
<path d="M248.139,223.769c0.22-0.479,1.003-0.63,2.35-0.451c0.696,0.171,1.128,1.792,1.3,4.863
c1.131,2.002,1.689,3.768,1.678,5.297c-0.127,0.858-0.238,1.298-0.336,1.318c-0.391-1.131-1.684-2.158-3.881-3.082
c0.679-0.817,0.979-1.7,0.897-2.648c0-0.346-0.476-0.519-1.428-0.519c-0.724,0.521-1.017,1.151-0.879,1.892
c0.407,0.659,0.647,1.085,0.72,1.275c-1.672,0.871-2.795,2.374-3.369,4.51c-0.037,0.225-0.625,0.289-1.764,0.195
c-0.195-0.231-0.116-0.624,0.238-1.178c1.273-3.128,2.248-5.187,2.923-6.176C246.963,225.869,247.48,224.103,248.139,223.769z"/>
<path d="M257.476,223.769c0.122-0.395,0.732-0.581,1.831-0.562c0.443,0,0.639,0.482,0.586,1.446c-0.272,0-0.436,1.176-0.488,3.527
c0.248,0.794,0.706,1.382,1.373,1.764c-1.217,0.094-1.825,0.977-1.825,2.648c0.013,2.511-0.162,3.766-0.524,3.766
c-1.065,0.094-1.599,0.015-1.599-0.238C256.813,230.287,257.028,226.17,257.476,223.769z M265.477,224.654
c1.204-0.004,1.794,1.241,1.77,3.735c-0.098,2.164-0.686,3.246-1.764,3.246c-2.787-0.984-4.181-1.548-4.181-1.69
c0-0.301,0.924-0.889,2.771-1.764C265.009,227.437,265.477,226.261,265.477,224.654z M266.306,234.357
c0.029-0.195,0.08-0.195,0.153,0c0.549,0.696,0.812,1.292,0.787,1.788c-0.606,0-0.909-0.008-0.909-0.024
C266.223,235.636,266.213,235.049,266.306,234.357z"/>
<path d="M271.524,222.89c1.236-0.016,2.235,0.277,2.996,0.879c-1.737,1.433-2.748,2.903-3.033,4.412
c0.289,0,0.436,1.766,0.439,5.297c0,1.144,0.498,1.715,1.495,1.715c3.527-0.199,5.291-1.391,5.291-3.576
c0.134,0,0.134-1.033,0-3.1c0.036-1.388-0.488-2.675-1.574-3.863c-0.24-0.63-0.304-0.945-0.189-0.945
c2.559-0.037,4.223,1.161,4.992,3.594c0.264,0,0.35,1.176,0.256,3.527c-1.139,3.78-3.477,5.71-7.012,5.792
c-3.608,0.008-5.413-0.159-5.413-0.501c0.057-0.586,0.167-2.645,0.33-6.176c0.235-0.736,0.276-2.205,0.122-4.406
c-0.098-0.492-0.184-1.082-0.257-1.77C270.029,223.334,270.548,223.042,271.524,222.89z"/>
<path d="M285.261,223.769c0.517-0.468,1.275-0.701,2.276-0.701c1.367,0.187,2.25,0.166,2.648-0.062
c2.14-0.036,3.21,0.513,3.21,1.647c-0.017,1.249-0.22,2.425-0.61,3.527c0,0.83,0.432,1.713,1.294,2.648
c0.472,0,0.643,1.183,0.513,3.546c-0.354,1.392-1.823,2.087-4.406,2.087c-1.66,0.252-2.838,0.306-3.533,0.159
c-1.647-0.635-2.598-1.39-2.85-2.265c0-1.232,0.386-1.82,1.159-1.764c1.086,1.876,2.532,2.828,4.339,2.856
c1.473-0.521,2.209-1.473,2.209-2.856c0-0.289-0.895-1.172-2.685-2.648c0-0.553,0.665-1.141,1.995-1.764
c0.028-0.113,0.297-0.406,0.806-0.879c-0.468-2.111-1.538-3.146-3.21-3.105c-1.298,0.829-1.947,1.865-1.947,3.105
c0.106,1.762,0.017,2.643-0.269,2.643c-0.154,0.171-0.592,0.169-1.312-0.006c-0.513-0.883-0.74-2.057-0.684-3.521
C284.237,225.291,284.59,224.408,285.261,223.769z"/>
<path d="M317.957,223.769c0.102-0.406,0.77-0.517,2.002-0.329c0.472,0,0.675,2.463,0.61,7.39c-0.244,3.882-1.33,5.822-3.259,5.822
c-1.277,0.224-2.453,0.231-3.527,0.024c-1.217-0.562-1.824-1.335-1.824-2.319c0-0.85,0.314-1.275,0.945-1.275
c0.777,1.347,1.658,2.021,2.643,2.021c1.236,0,1.835-1.129,1.794-3.388c-0.163-3.531-0.09-5.297,0.22-5.297
C317.833,226.418,317.966,225.535,317.957,223.769z"/>
<path d="M326.013,222.89c1.135-0.036,1.702,0.257,1.702,0.879c-0.162,5.155-0.16,8.097,0.007,8.824
c0.061,1.574,1.003,2.449,2.825,2.624c2.344-0.15,3.509-1.907,3.497-5.272c-0.021-1.058,0.136-1.938,0.47-2.643
c-0.09-2.575,0.059-3.862,0.445-3.862c0.821-0.004,1.232,0.105,1.232,0.329c0.094,0.017,0.015,1.487-0.237,4.412
c0.346,0.229,0.468,1.699,0.366,4.412c-0.265,2.791-2.189,4.187-5.773,4.187c-2.384,0.041-3.854-0.5-4.412-1.623
c-0.61-0.659-0.903-2.726-0.879-6.2c-0.021-3.556-0.021-5.334,0-5.334L326.013,222.89z"/>
<path d="M339.462,222.89c0.496-0.109,1.052-0.109,1.666,0c0.443,0,0.873,1.176,1.287,3.527c1.213,2.535,1.819,4.006,1.819,4.412
c1.098,0.814,1.647,1.696,1.647,2.648c0.004,1.237-0.486,1.825-1.471,1.764c-0.753,0-1.164-1.471-1.232-4.412
c-0.167-1.106-0.851-1.631-2.051-1.574c-0.379,0.464-0.517,2.164-0.415,5.102c0.049,1.371-0.105,2.057-0.464,2.057
c-0.997,0.077-1.495-0.021-1.495-0.293c-0.212-5.549-0.301-8.873-0.269-9.972C338.485,223.977,338.811,222.89,339.462,222.89z
M349.024,223.769c0.297-0.541,0.899-0.812,1.807-0.812c0.663,0,0.994,0.565,0.994,1.696c-0.134,0.37-0.128,2.725,0.019,7.061
c-0.28,0.46-0.421,1.929-0.421,4.406c-0.041,0.33-0.531,0.501-1.471,0.513c-0.842,0-1.264-0.464-1.264-1.392
c0.062-1.513-0.102-2.688-0.488-3.527c0-0.549-0.13-1.432-0.39-2.648C348.522,226.605,348.927,224.84,349.024,223.769z"/>
<path d="M354.432,222.89c0.195-0.28,1.349-0.357,3.46-0.231c0,0.158,0.588,0.226,1.764,0.201c0.207-0.244,1.09-0.319,2.648-0.226
c1.184,0.212,1.771,1.204,1.764,2.978c-0.276,3.304-0.864,4.956-1.764,4.956c-1.461-0.253-2.19-0.46-2.19-0.623
c1.058-0.825,1.556-2.001,1.495-3.527c-0.688-1.029-1.634-1.544-2.838-1.544c-1.091,0.272-1.672,1.375-1.745,3.308
c0,0.155,0.288,0.747,0.866,1.776c-0.969,0.874-1.452,2.048-1.452,3.521c0.167,1.985,0.063,2.979-0.312,2.979
c-1.025,0.077-1.538-0.035-1.538-0.336c-0.171-0.903-0.177-2.079-0.018-3.527c0.179-1.062,0.237-2.532,0.177-4.412
c0-0.22-0.295-1.69-0.885-4.412C353.97,223.314,354.159,223.021,354.432,222.89z"/>
<path d="M385.817,222.89c0.239-0.231,1.738-0.272,4.497-0.122c2.429,0.188,3.67,1.404,3.723,3.649
c0.118,1.388,0.096,2.271-0.067,2.648c0.533,0,0.783,0.633,0.751,1.898c-0.269,0-0.614,1.426-1.038,4.277
c0,0.822-0.829,1.233-2.489,1.233c-1.692,0.073-3.163,0.105-4.412,0.098c-0.509,0-1.142-0.443-1.898-1.331
c-2.164-0.684-3.231-2.742-3.203-6.176C382.306,225.608,383.685,223.549,385.817,222.89z M386.849,224.654
c-1.6,0.888-2.588,2.358-2.966,4.412c-0.029,2.697,0.391,4.461,1.257,5.291c0,0.74,0.842,1.111,2.526,1.111
c1.993,0.064,3.131-0.599,3.411-1.99c0.915-2.941,1.514-4.412,1.794-4.412c-0.171,0-0.237-0.588-0.201-1.764
c-0.528-1.717-1.609-2.786-3.24-3.21C387.709,224.073,386.849,224.259,386.849,224.654z"/>
<path d="M398.131,222.89c1.135-0.036,1.702,0.257,1.702,0.879c-0.162,5.155-0.16,8.097,0.007,8.824
c0.061,1.574,1.003,2.449,2.825,2.624c2.344-0.15,3.509-1.907,3.497-5.272c-0.021-1.058,0.136-1.938,0.47-2.643
c-0.09-2.575,0.059-3.862,0.445-3.862c0.821-0.004,1.232,0.105,1.232,0.329c0.094,0.017,0.015,1.487-0.237,4.412
c0.346,0.229,0.468,1.699,0.366,4.412c-0.265,2.791-2.189,4.187-5.773,4.187c-2.384,0.041-3.854-0.5-4.412-1.623
c-0.61-0.659-0.903-2.726-0.879-6.2c-0.021-3.556-0.021-5.334,0-5.334L398.131,222.89z"/>
<path d="M410.867,222.89c0.036-0.276,0.537-0.439,1.501-0.488c0.875,0,1.3,1.046,1.275,3.137c-0.081,0-0.167,2.939-0.256,8.818
c0.102,1.766-0.009,2.648-0.33,2.648c-0.708,0.163-1.535,0.163-2.483,0c-0.265,0-0.364-2.059-0.299-6.176
c0.117,0,0.156-2.354,0.115-7.061C410.439,223.493,410.599,223.2,410.867,222.89z"/>
<path d="M417.78,223.769c0.749-0.443,1.589-0.665,2.521-0.665c0,0.139,1.471,0.184,4.412,0.135c1.424,0.028,2.136,0.795,2.136,2.3
c0,0.606-0.169,0.899-0.507,0.879c-0.451,0-1.582-0.734-3.393-2.203c-0.077-0.146-0.665-0.226-1.764-0.237
c-2.502,1.208-3.717,3.197-3.644,5.968c-0.085,2.307,0.246,3.647,0.995,4.021c0.772,0.858,1.95,1.266,3.533,1.221
c1.139-0.061,2.02-0.699,2.643-1.916c0-0.492,0.447-0.718,1.343-0.678c0.329,0,0.47,0.43,0.421,1.288
c-0.18,1.888-1.942,2.852-5.291,2.893c-3.642-0.143-5.635-2.419-5.98-6.829C415.636,226.592,416.495,224.534,417.78,223.769z"/>
<path d="M438.224,222.89c1.046-0.134,1.672-0.134,1.88,0l0.396,0.879c0,0.216-1.09,1.394-3.271,3.533
c-0.501,1.225-0.751,2.4-0.751,3.527l0.402,0.885c-0.068,0.289-0.596,0.353-1.58,0.189c-0.789-0.439-1.377-0.659-1.764-0.659
c-0.684,0-1.025,0.45-1.025,1.349c-0.402,2.438-0.648,3.655-0.738,3.655c-0.851,0.212-1.452,0.169-1.807-0.128
c0.167,0,0.224-2.939,0.171-8.818c0.077-0.972,0.035-2.207-0.128-3.704c0-0.451,0.588-0.671,1.764-0.659
c0.505,0,0.749,0.867,0.732,2.6c-0.057,1.262-0.008,2.183,0.146,2.765c1.225,0.159,2.107-0.059,2.648-0.652
c1.147-0.452,1.735-1.626,1.764-3.521C437.251,223.515,437.638,223.102,438.224,222.89z M436.942,232.593
c0.053-0.224,0.163-0.224,0.329,0C437.105,232.74,436.995,232.74,436.942,232.593z M437.4,233.478l0.549-0.537
c0.606,0,1.538,1.061,2.795,3.18c-0.09,0.293-0.729,0.385-1.916,0.274C438.234,236.395,437.758,235.424,437.4,233.478z"/>
<path d="M442.478,223.769c0-0.455,0.549-0.669,1.647-0.641c0.492,0,0.736,1.392,0.732,4.174c0.036,3.796,0.096,5.854,0.177,6.176
c0,0.684,0.873,1.018,2.618,1.001c1.599-0.248,2.481-0.372,2.648-0.372c0.773,0.036,1.206,0.415,1.3,1.135
c-0.045,1.298-0.773,1.947-2.185,1.947c0-0.163-2.059-0.242-6.176-0.238c-0.695-0.139-1.06-0.415-1.093-0.83
c0.11,0,0.157-2.939,0.141-8.818C442.378,224.947,442.44,223.769,442.478,223.769z"/>
<path d="M452.504,222.89c1.42-0.081,2.226,0.212,2.417,0.879c0.175,1.257,0.105,2.019-0.208,2.282
c-1.062,0-2.008-0.761-2.838-2.282C451.965,223.26,452.174,222.968,452.504,222.89z M462.152,222.89
c0.342-0.109,0.852-0.109,1.531,0l0.372,0.879c0,0.415-0.848,1.298-2.545,2.648c-0.602,0.712-1.417,3.946-2.446,9.703
c0,0.541-0.57,0.812-1.709,0.812c-0.533,0-0.718-0.563-0.556-1.69c0.058-3.019-0.195-4.784-0.757-5.297
c-0.395-0.028-0.545-0.864-0.451-2.508c1.176-0.049,1.764,0.197,1.764,0.738c0.541,0,1.495-0.586,2.862-1.758
C460.218,224.107,460.862,222.931,462.152,222.89z"/>
<path d="M465.729,230.83c0.288-0.35,1.026-0.492,2.215-0.427c0,0.118,0.997,0.556,2.99,1.312c0.391,0,0.571,0.623,0.543,1.868
c-0.276,0-0.535,1.141-0.775,3.423c-0.858,1.147-2.07,1.709-3.637,1.685c-2.059,0-3.146-1.149-3.265-3.448
C463.885,233.265,464.528,231.795,465.729,230.83z"/>
</g>
<g>
<path d="M7.476,4.346c1.623-0.228,2.764,0.067,3.421,0.886c1.101,0.608,1.543,1.429,1.328,2.462
c-0.737,0.571-1.211,2.121-1.42,4.647l-0.729,1.337c0.805,0.731,1.079,1.27,0.82,1.614c-1.42,2.317-2.078,4.891-1.974,7.718
c0,1.156-0.23,1.734-0.691,1.734c-1.623,0-2.435-1.023-2.435-3.071c0.08-3.467-0.104-5.689-0.553-6.667
c0.239-2.662,0.584-3.993,1.032-3.993c-0.405-0.006-0.584-1.785-0.534-5.339C6.019,5.041,6.598,4.598,7.476,4.346z M18.22,7.011
c1.106-0.774,2.219-1.162,3.338-1.162c1.058,0,1.503,0.569,1.337,1.706c-0.344,0.197-0.375,0.904-0.092,2.121
c0,0.449-0.415,1.859-1.245,4.232c-0.258,0-0.368-0.522-0.332-1.567c0-0.504-0.812-0.946-2.435-1.328
c-0.08-1.66-0.439-2.548-1.078-2.665L18.22,7.011z"/>
<path d="M28.104,4.346c1.267-0.308,2.469-0.308,3.605,0c0.578,0.64,0.75,1.208,0.517,1.706c-0.903,1.156-1.307,2.81-1.208,4.961
c0.597,1.937,1.098,2.825,1.503,2.665c0.64,0,2.318-0.362,5.035-1.088c1.149,0,1.725,0.806,1.725,2.416
c0,0.571-1.018,0.793-3.053,0.664c-1.414-0.394-2.748-0.565-4.002-0.517c-1.112,0.123-1.693,1.408-1.742,3.854
c0.325,3.203,1.795,4.777,4.407,4.722c3.437-1.998,5.214-2.997,5.33-2.997c0.916,0.024,1.491,0.784,1.725,2.277
c0,1.531-1.463,2.244-4.39,2.14c0-0.233-1.334-0.402-4.002-0.507c-0.203,0.412-1.979,0.507-5.33,0.286
c-0.528,0-0.747-1.085-0.654-3.256c-0.08-5.416-0.019-9.857,0.184-13.325c-0.202-1.032-0.375-1.924-0.516-2.674L28.104,4.346z
M37.557,4.346c1.481-0.265,2.566-0.265,3.256,0l0.59,1.328c0,0.774-0.836,1.141-2.509,1.097
c-0.368-0.239-0.968-0.605-1.798-1.097L37.557,4.346z"/>
<path d="M51.344,5.674c0.332-0.726,1.516-0.953,3.55-0.683c1.052,0.258,1.706,2.708,1.965,7.35
c1.709,3.024,2.554,5.693,2.536,8.004c-0.191,1.298-0.36,1.962-0.508,1.992c-0.59-1.709-2.545-3.261-5.864-4.657
c1.026-1.235,1.478-2.569,1.355-4.002c0-0.522-0.72-0.783-2.158-0.783c-1.095,0.786-1.537,1.739-1.328,2.858
c0.615,0.996,0.978,1.639,1.088,1.927c-2.526,1.316-4.223,3.588-5.09,6.815c-0.056,0.338-0.943,0.437-2.665,0.295
c-0.295-0.351-0.175-0.943,0.359-1.78c1.925-4.728,3.396-7.838,4.417-9.332C49.567,8.846,50.348,6.178,51.344,5.674z"/>
<path d="M78.722,4.346c1.384-0.03,2.075,0.412,2.075,1.328c0,0.43-0.741,1.765-2.223,4.002c-0.769,4.199-1.896,7.31-3.384,9.332
c-0.935,3.707-1.479,5.561-1.633,5.561c0,0.492-0.891,0.704-2.674,0.637c-1.026,0-2.09-2.509-3.19-7.525
c-1.875-2.612-2.831-5.28-2.868-8.004c-0.726-1.862-1.088-3.196-1.088-4.002c0.221-0.504,0.826-0.809,1.816-0.913
c1.205,0,2.032,1.639,2.48,4.915c0.142,0,0.648,2.324,1.521,6.972c0.19,0.412,0.634,1.008,1.328,1.789
c1.524-0.479,2.858-2.638,4.002-6.474c1.347-1.882,2.02-3.978,2.02-6.289C77.428,4.826,78.033,4.383,78.722,4.346z"/>
<path d="M84.098,4.346c1.267-0.308,2.469-0.308,3.605,0c0.578,0.64,0.75,1.208,0.517,1.706c-0.903,1.156-1.307,2.81-1.208,4.961
c0.597,1.937,1.098,2.825,1.503,2.665c0.64,0,2.318-0.362,5.035-1.088c1.149,0,1.725,0.806,1.725,2.416
c0,0.571-1.018,0.793-3.053,0.664c-1.414-0.394-2.748-0.565-4.002-0.517c-1.112,0.123-1.693,1.408-1.742,3.854
c0.325,3.203,1.795,4.777,4.407,4.722c3.437-1.998,5.214-2.997,5.33-2.997c0.916,0.024,1.491,0.784,1.725,2.277
c0,1.531-1.463,2.244-4.39,2.14c0-0.233-1.334-0.402-4.002-0.507c-0.203,0.412-1.979,0.507-5.33,0.286
c-0.528,0-0.747-1.085-0.654-3.256c-0.08-5.416-0.019-9.857,0.184-13.325c-0.202-1.032-0.375-1.924-0.516-2.674L84.098,4.346z
M93.55,4.346c1.481-0.265,2.566-0.265,3.256,0l0.59,1.328c0,0.774-0.836,1.141-2.509,1.097c-0.368-0.239-0.968-0.605-1.798-1.097
L93.55,4.346z"/>
<path d="M102.707,4.346c2.606-0.092,3.909,0.796,3.909,2.665c0.265,1.949,0.354,3.375,0.268,4.279
c-1.334,0-2.038,3.461-2.111,10.383c-0.252,2.146-0.883,3.228-1.891,3.246c-0.731,0-1.082-0.636-1.051-1.909
c0.098-6.651,0.006-12.452-0.277-17.4L102.707,4.346z M106.838,13.678c1.808-0.123,2.711,0.16,2.711,0.849l1.023,0.479
c-0.473,0.283-1.429,0.283-2.867,0C107.286,14.287,106.998,13.844,106.838,13.678z M116.585,4.346
c1.574-0.08,2.432,0.363,2.573,1.328c-0.603,4.347-0.857,8.349-0.766,12.006c-0.375,4.605-0.658,6.907-0.849,6.907
c-0.129,0.412-1.018,0.522-2.665,0.332c-1.205-0.073-1.808-2.486-1.808-7.239c-0.682-0.467-0.968-1.364-0.857-2.692
c1.82-1.082,2.859-2.853,3.117-5.312c-0.246-0.467-0.319-1.801-0.222-4.002C115.152,4.924,115.644,4.482,116.585,4.346z"/>
<path d="M123.28,4.346c0.056-0.418,0.812-0.664,2.269-0.737c1.322,0,1.965,1.58,1.928,4.739c-0.123,0-0.252,4.442-0.388,13.325
c0.153,2.668-0.013,4.002-0.498,4.002c-1.069,0.246-2.32,0.246-3.753,0c-0.399,0-0.55-3.11-0.452-9.332
c0.179,0,0.237-3.556,0.176-10.669C122.635,5.257,122.875,4.813,123.28,4.346z"/>
<path d="M133.727,5.674c1.131-0.67,2.4-1.006,3.809-1.006c0,0.21,2.223,0.277,6.667,0.203c2.152,0.043,3.228,1.202,3.228,3.477
c0,0.916-0.255,1.359-0.766,1.328c-0.682,0-2.391-1.109-5.127-3.329c-0.116-0.222-1.005-0.341-2.665-0.359
c-3.78,1.826-5.616,4.832-5.505,9.019c-0.129,3.485,0.372,5.512,1.503,6.077c1.168,1.297,2.947,1.912,5.339,1.844
c1.722-0.092,3.053-1.057,3.993-2.896c0-0.743,0.677-1.085,2.029-1.023c0.498,0,0.71,0.648,0.636,1.946
c-0.271,2.853-2.936,4.31-7.995,4.371c-5.502-0.216-8.515-3.655-9.037-10.319C130.487,9.941,131.785,6.83,133.727,5.674z"/>
<path d="M157.989,5.674c0.332-0.726,1.516-0.953,3.55-0.683c1.052,0.258,1.706,2.708,1.965,7.35
c1.709,3.024,2.554,5.693,2.536,8.004c-0.191,1.298-0.36,1.962-0.508,1.992c-0.59-1.709-2.545-3.261-5.864-4.657
c1.026-1.235,1.478-2.569,1.355-4.002c0-0.522-0.72-0.783-2.158-0.783c-1.095,0.786-1.537,1.739-1.328,2.858
c0.615,0.996,0.978,1.639,1.088,1.927c-2.526,1.316-4.223,3.588-5.09,6.815c-0.056,0.338-0.943,0.437-2.665,0.295
c-0.295-0.351-0.175-0.943,0.359-1.78c1.925-4.728,3.396-7.838,4.417-9.332C156.213,8.846,156.993,6.178,157.989,5.674z"/>
</g>
</g>
</svg>
