<?xml version="1.0" encoding="utf-8"?>
<svg version="1.1" id="Layer_1" xmlns="http://www.w3.org/2000/svg" xmlns:xlink="http://www.w3.org/1999/xlink" x="0px" y="0px"
width="55.368px" height="10.791px" viewBox="0 0 55.368 10.791" enable-background="new 0 0 55.368 10.791" xml:space="preserve">
<g>
<path d="M2.551,1.466c0.366-0.137,0.641-0.137,0.823,0c0.801,0.084,1.236,0.084,1.305,0c0-0.161,0.235-0.241,0.706-0.241
c0.924,0.243,1.412,0.793,1.461,1.65c-0.045,1.033,0.04,2.288,0.257,3.766C7.093,8.21,6.819,8.994,6.28,8.994
c0,0.237-0.455,0.355-1.364,0.355c-0.08-0.551,0.029-0.827,0.329-0.827c0.297-0.41,0.446-0.724,0.446-0.941
C5.394,6.744,4.951,5.96,4.363,5.229c-0.035,0-0.053-0.627-0.055-1.881c0-0.202-0.268-0.409-0.804-0.622
C2.615,3.525,2.17,4.045,2.17,4.288C1.805,4.592,1.623,4.799,1.623,4.91C1.267,3.868,1.047,3.348,0.963,3.348
C1.151,2.256,1.681,1.629,2.551,1.466z M1.011,7.582l0.14-0.335l0.31,0.335l-0.31,0.446L1.011,7.582z M1.18,8.054l0.443-0.293
c0,0.343,0.583,0.91,1.748,1.702C3.182,9.591,2.756,9.628,2.092,9.574c-0.02,0-0.342-0.351-0.967-1.051
C1.132,8.258,1.15,8.102,1.18,8.054z M1.415,6.641l0.208-0.267c0.028,0.226,0.028,0.354,0,0.387L1.415,6.641z M1.542,5.701
l0.082-0.335c0.03,0.258,0.03,0.446,0,0.563L1.542,5.701z M3.794,9.463c0.466-0.061,0.791-0.061,0.973,0
C4.537,9.489,4.213,9.489,3.794,9.463z"/>
<path d="M9.461,2.407c0.618-0.037,0.927,0.12,0.927,0.469c-0.212,1.999-0.311,3.744-0.296,5.237c0,0.319,0.313,0.479,0.94,0.479
c0.59-0.074,1.106-0.097,1.549-0.068c0.466,0.024,0.674,0.337,0.622,0.94c0,0.389-0.566,0.571-1.699,0.547
c-1.901-0.004-2.851-0.187-2.851-0.547C8.72,8.699,8.736,7.131,8.699,4.76C8.705,3.28,8.856,2.54,9.151,2.54L9.461,2.407z"/>
<path d="M14.528,5.229l0.27-0.225c0.349,0.592,0.505,1.055,0.469,1.387c-0.083,0.146-0.067,0.386,0.045,0.723
c-0.045,0.627,0.009,0.94,0.163,0.94c0,0.666,0.559,1.047,1.676,1.143c0.603,0,1.23-0.473,1.881-1.419
c0.627-0.21,0.94-0.423,0.94-0.638c0,0.215,0.345,0.52,1.035,0.915c0.086,0.835,0.055,1.253-0.095,1.253
c-0.08,0.33-0.551,0.486-1.412,0.469c0-0.124-1.254-0.146-3.763-0.065c-0.759,0-1.139-0.552-1.139-1.657
c0-0.744-0.094-1.215-0.283-1.413C14.312,5.7,14.382,5.229,14.528,5.229z M15.611,0.994c0.198-0.191,0.711-0.283,1.54-0.276
c1.619,0,2.715,0.345,3.291,1.035c0.308,0.011,0.491,0.7,0.55,2.067c-0.147,0.245-0.205,0.559-0.172,0.94
c-0.25,0-0.336,0.314-0.26,0.941c0.02,0.759-0.191,1.23-0.631,1.413l-0.426,0.429c0-0.082-0.314-0.496-0.941-1.24
c-0.1-0.226-0.206-0.426-0.319-0.602c0.391,0,0.626-0.785,0.706-2.353c-0.343-0.593-1.099-0.867-2.268-0.824
c-0.801,0.616-1.33,1.048-1.588,1.295c0,0.445-0.098,0.667-0.293,0.667c-0.033,0-0.19-0.394-0.472-1.181
c0.147,0,0.195-0.299,0.144-0.898C14.469,2.067,14.85,1.595,15.611,0.994z"/>
<path d="M23.162,2.876c0.133-0.169,0.481-0.199,1.045-0.088c0.156,0,0.383,0.187,0.681,0.56c-0.261,0.013-0.371,0.326-0.332,0.94
c-0.146,0.837-0.29,1.308-0.433,1.413c0.015,0.278,0.095,0.434,0.24,0.469c-0.373,0.195-0.549,0.666-0.527,1.412
c0.122,0.5,0.403,1.136,0.844,1.911c-0.504,0.128-0.975,0.192-1.413,0.192c-0.336-0.043-0.52-0.117-0.55-0.221
c0.23-0.633,0.336-1.731,0.319-3.293c0.321-1.061,0.482-1.688,0.482-1.881C23.205,4.013,23.086,3.542,23.162,2.876z M27.842,8.054
c0.032-0.26,0.232-0.409,0.599-0.446c0.108,0,0.15,0.305,0.124,0.915c-0.197,0.447-0.553,0.67-1.064,0.67
c-0.041,0.258-0.511,0.378-1.409,0.361l-0.234-0.091C26.662,9.348,27.324,8.879,27.842,8.054z M26.88,3.348
c0.192-0.167,0.4-0.293,0.621-0.378c0.397,0,0.71,0.597,0.938,1.79c-0.256,0.638-0.614,0.952-1.074,0.941
c-0.553,0-0.846-0.471-0.879-1.413C26.631,3.726,26.762,3.413,26.88,3.348z"/>
<path d="M30.869,2.407l0.394-0.465c0.2,0,0.271,0.312,0.215,0.934c-0.139,0.191-0.272,0.348-0.4,0.472
c0.081,0.158,0.057,1.099-0.071,2.822c-0.016,1.256,0.072,1.884,0.264,1.884c0,0.189,0.782,0.356,2.347,0.501
c0.073-0.074,0.747-0.084,2.021-0.032c0.017,0.668-0.029,1.002-0.141,1.002c-0.308,0.254-1.248,0.356-2.821,0.306
c-1.148-0.152-1.722-0.431-1.722-0.836c0-0.217-0.217-0.374-0.651-0.472c0-0.35-0.18-0.663-0.54-0.941
c-0.142-0.499-0.194-1.439-0.159-2.822C30.095,3.192,30.517,2.407,30.869,2.407z M31.266,1.935c0-0.176,0.313-0.234,0.937-0.176
c0.064,0.33-0.092,0.495-0.469,0.495L31.266,1.935z"/>
<path d="M36.724,1.935c0-0.146,0.22-0.203,0.657-0.173c0.226,0.271,0.54,1.016,0.941,2.233c0.427,0.49,0.641,1.215,0.641,2.174
c-0.128,0.204-0.186,0.375-0.172,0.514c0.145,0.338,0.331,0.481,0.56,0.43c0.458-0.248,0.742-0.405,0.853-0.472
c-0.002-0.779,0.312-1.297,0.94-1.556c0.215,0.063,0.34,0.268,0.374,0.615c-0.611,0.757-0.893,1.293-0.843,1.608
c0.018,1.356-0.296,2.193-0.94,2.512c-0.803,0-1.204-0.433-1.204-1.298c0.093-0.009,0.146-0.322,0.159-0.941
c-0.915-0.275-1.373-0.746-1.373-1.412c-0.147,0-0.233-0.47-0.258-1.41c-0.187-0.054-0.279-0.525-0.279-1.412
c-0.139-0.195-0.24-0.509-0.303-0.941L36.724,1.935z M41.518,4.288c0.063-0.124,0.128-0.124,0.195,0l-0.098,0.319L41.518,4.288z"/>
<path d="M44.275,2.407c0.618-0.037,0.928,0.12,0.928,0.469c-0.213,1.999-0.312,3.744-0.297,5.237c0,0.319,0.313,0.479,0.941,0.479
c0.59-0.074,1.106-0.097,1.549-0.068c0.467,0.024,0.674,0.337,0.622,0.94c0,0.389-0.566,0.571-1.699,0.547
c-1.901-0.004-2.852-0.187-2.852-0.547c0.067-0.764,0.083-2.332,0.046-4.703c0.007-1.479,0.157-2.22,0.452-2.22L44.275,2.407z"/>
<path d="M49.086,2.407c0.544-0.052,0.949,0.262,1.214,0.941c-0.026,0.662,0.059,1.115,0.254,1.36
c0.479-0.794,0.95-1.191,1.412-1.191c0.224-0.304,0.537-0.552,0.94-0.745l0.442,0.104c-0.054,0-0.358,0.476-0.914,1.429
c-0.261,0.063-0.531,0.215-0.813,0.456c0,0.43,0.125,0.743,0.374,0.941c-0.023,0.627,0.049,0.94,0.218,0.94
c-0.677,0.059-1.073,0.03-1.19-0.084l-0.469-0.221c-0.419,0.34-0.629,0.913-0.629,1.718c0.063,0.939,0.103,1.409,0.117,1.409
c0,0.159-0.3,0.238-0.901,0.238c-0.306,0-0.459-0.393-0.459-1.178c0.103-0.132,0.111-0.917,0.026-2.353
c0.195-0.007,0.256-0.79,0.183-2.35C48.827,2.878,48.892,2.407,49.086,2.407z M50.657,4.76l0.124,0.469
c-0.174,0.117-0.356,0.274-0.547,0.472l0.319,0.208c0.469,0,0.72-0.383,0.755-1.149C51.145,4.647,50.928,4.647,50.657,4.76z
M52.929,7.113c0.588-0.078,0.894-0.003,0.917,0.225c0.248,0,0.485,0.552,0.713,1.656c0,0.514-0.395,0.768-1.185,0.762
c-0.503,0-0.776-0.411-0.82-1.233C52.687,7.6,52.812,7.131,52.929,7.113z M52.62,6.641c0.224-0.026,0.335-0.026,0.335,0
l-0.049,0.41L52.62,6.641z"/>
</g>
</svg>
