<?xml version="1.0" encoding="utf-8"?>
<!-- Generator: Adobe Illustrator 22.0.1, SVG Export Plug-In . SVG Version: 6.00 Build 0)  -->
<svg version="1.1" id="Layer_1" xmlns="http://www.w3.org/2000/svg" xmlns:xlink="http://www.w3.org/1999/xlink" x="0px" y="0px"
	 width="58.467px" height="72px" viewBox="0 0 58.467 72" enable-background="new 0 0 58.467 72" xml:space="preserve">
<path d="M36.204,0.686l11.853,4.658c0,0-10.205,4.26-10.411,10.757c-0.18,5.664,14.957,11.177,15.792,13.22
	c6.432,15.748-1.719,39.758-9.815,40.811C35.527,71.186,12.903,73.57,5.14,66.14S4.974,35.864,20.611,36.03
	c15.637,0.166,4.536-9.903-0.055-13.308S36.204,0.686,36.204,0.686z M28.139,44.887c-4.689,1.6-14.847,6.004-14.237,9.83
	c0.61,3.826,6.277,6.354,13.652,6.798s20.5-1.264,18.631-10.646C44.285,41.333,32.827,43.287,28.139,44.887z"/>
</svg>
