<svg xmlns="http://www.w3.org/2000/svg" width="487.33" height="298.33" viewBox="0 0 487.33 298.33"><title>diagram</title><g id="jeeves"><polyline points="486.83 294.83 486.83 297.83 483.83 297.83" style="fill:none;stroke:#a97c50;stroke-miterlimit:10"/><line x1="477.9" y1="297.83" x2="6.47" y2="297.83" style="fill:none;stroke:#a97c50;stroke-miterlimit:10;stroke-dasharray:5.930041313171387,5.930041313171387"/><polyline points="3.5 297.83 0.5 297.83 0.5 294.83" style="fill:none;stroke:#a97c50;stroke-miterlimit:10"/><line x1="0.5" y1="288.89" x2="0.5" y2="6.47" style="fill:none;stroke:#a97c50;stroke-miterlimit:10;stroke-dasharray:5.945578098297119,5.945578098297119"/><polyline points="0.5 3.5 0.5 0.5 3.5 0.5" style="fill:none;stroke:#a97c50;stroke-miterlimit:10"/><line x1="9.43" y1="0.5" x2="480.87" y2="0.5" style="fill:none;stroke:#a97c50;stroke-miterlimit:10;stroke-dasharray:5.930041313171387,5.930041313171387"/><polyline points="483.83 0.5 486.83 0.5 486.83 3.5" style="fill:none;stroke:#a97c50;stroke-miterlimit:10"/><line x1="486.83" y1="9.45" x2="486.83" y2="291.86" style="fill:none;stroke:#a97c50;stroke-miterlimit:10;stroke-dasharray:5.945578098297119,5.945578098297119"/><path d="M195.31,395.74a4.94,4.94,0,0,1,2-1.77c1.84-.71,3.88,1,4.33,2.92s-.2,3.91-.75,5.81c-7.09,24.42.33,50.22-5.17,74.86a35.35,35.35,0,0,1-4.48,10.79c-2.11,3.44-4.35,5-7.85,7l-13.3,7.81a56.47,56.47,0,0,1-5.08,2.75,46.69,46.69,0,0,1-6.53,2.27,60.37,60.37,0,0,1-8,1.81,77.41,77.41,0,0,1-9.51.54l-19.34.29c-3.14,0-6.62.53-9.73.11-2.39-.31-4.27-.91-6.78-.88a66.62,66.62,0,0,1-10.16-.83,7.19,7.19,0,0,1-2.84-.84c-2.85-1.79-.59-9.4.16-12a4.3,4.3,0,0,1,1.27-2.31,4.56,4.56,0,0,1,2.11-.73c5.36,0,11-1.09,16.38-1.5q8.7-.68,17.39-1.47c4.85-.44,9.8-1.46,14.66-1.46l2-.24c9.42-1.11,23.08-.84,28.86-10.12a18.21,18.21,0,0,0,1.92-4.75,49.39,49.39,0,0,0,1.38-18.86c-.31-2.76-1-5.48-1.19-8.25-.58-7.58,2.17-15,4.87-22.07,2.07-5.43,3.92-11,6.17-16.35A57.92,57.92,0,0,1,195.31,395.74Z" transform="translate(-50.17 -228.83)" style="fill:#20b24b"/><text transform="translate(58.92 256.5)" style="font-size:18px;fill:#231f20;font-family:SansSerif, SansSerif">[[jeeves]]</text></g><g id="giovanni"><text transform="translate(58.92 176.62)" style="font-size:18px;fill:#231f20;font-family:SansSerif, SansSerif">[[giovanni]]</text><path d="M99.61,436.08c-1.71.43-3.87.79-5-.62A4.28,4.28,0,0,1,94,433.6a44.73,44.73,0,0,1-.24-13.52,27.15,27.15,0,0,1,2.82-8.76,1.61,1.61,0,0,1,.58-.75,1.79,1.79,0,0,1,1.29,0,107.42,107.42,0,0,0,14.74,2.1l31.3,3c9.82.93,19.3,2.21,29.2.85a10.05,10.05,0,0,0,5-1.62,6.79,6.79,0,0,0,2.2-3.85,20.48,20.48,0,0,0,.29-4.5c-.07-6.47-.52-12.91-1.05-19.38a1.6,1.6,0,0,1,.3-1.34,1.57,1.57,0,0,1,.68-.31c2.73-.7,5.48-1,8.19-1.75,2.87-.78,6.26-.91,8.25,1.68a9.28,9.28,0,0,1,1.32,7.44,34.72,34.72,0,0,1-2.77,7.26,87.34,87.34,0,0,0-6,18.78c-1.17,5.83-.49,11.5-2.67,17.27-1.43,3.76-3.89,7.27-7.44,9.16a2.17,2.17,0,0,1-1.59.33,2.54,2.54,0,0,1-1.16-1.11A13.31,13.31,0,0,0,167,438.61c-5-.22-10.3-1.47-15.31-2.17-11.06-1.53-22.19-3-33.37-2.76A84.06,84.06,0,0,0,99.61,436.08Z" transform="translate(-50.17 -228.83)" style="fill:#602670"/></g><g id="bertrand"><text transform="translate(74.17 111.5)" style="font-size:18px;fill:#231f20;font-family:SansSerif, SansSerif">[[bertrand]]</text><path d="M102.57,343.44l13.68.82c4.37.26,9,1,13.36.73,8.5-.51,17,.71,25.65-.17,4.43-.45,8.94-.77,13.22-2.08,3.18-1,8.39-3.06,8.84-6.93a5.2,5.2,0,0,1,.34-2,2,2,0,0,1,1.74-.91,3.09,3.09,0,0,1,1.88.77c1.39,1.17,1.89,3.06,2.53,4.76,2.87,7.57,10.43,12.55,15.42,18.71a18.48,18.48,0,0,1,3.14,4.94,21.11,21.11,0,0,1,1,7.13c.13,5,.24,10.19-1.25,15a6,6,0,0,1-1.27,2.45,6.07,6.07,0,0,1-3.31,1.49,48.41,48.41,0,0,1-10,.51c-2.16,0-4.54-.16-6.13-1.63s-1.85-3.51-2.1-5.49a47.31,47.31,0,0,0-1.63-9.1,12.38,12.38,0,0,0-5.52-7.15c-2.53-1.33-5.51-1.37-8.37-1.38l-11.4,0c-17.46-.06-35-.12-52.25,2.65a5.25,5.25,0,0,1-2.23,0,4.71,4.71,0,0,1-2.3-1.87,22.35,22.35,0,0,1-4.5-13.49,8.69,8.69,0,0,1,1-4.58C94.18,343.36,98.76,343.22,102.57,343.44Z" transform="translate(-50.17 -228.83)" style="fill:#94a33a"/></g><g id="fennec"><text transform="translate(88.83 46.83)" style="font-size:18px;fill:#231f20;font-family:SansSerif, SansSerif">[[fennec]]</text><path d="M113.85,282.36c1-1.37,2.55-3.09,4.33-3.32,3.26-.42,7.1.11,10.43.12,3.71,0,7.42.09,11.13.23q11.13.41,22.22,1.55c6.42.66,12.86,1.52,19,3.58,5.68,1.91,11.43,5.32,13.46,11,1,2.74,1,5.73,1.26,8.63.42,4.57,1.52,9.06,2.06,13.61.86,7.32.25,14.69.3,22,.06,7.64,1.82,14.13,4.66,21.2a4.45,4.45,0,0,1,.49,2.38,3.45,3.45,0,0,1-1.4,2,1.43,1.43,0,0,1-.43.25c-.68.22-1.23-.56-1.55-1.2a33.3,33.3,0,0,0-4.41-7.25c-1.41-1.61-3.33-2.7-4.84-4.26-3.79-3.94-8.39-7.37-10.92-12.33-2.25-4.37-2.56-9.45-2.88-14.35a22.27,22.27,0,0,0-1.48-7.79A18.5,18.5,0,0,0,171,313a42.68,42.68,0,0,0-8.23-6.3c-7.19-4.14-15.63-5.59-23.92-6.12s-16.62-.21-24.87-1.15a6.4,6.4,0,0,1-3.8-1.34c-1.79-1.71-1.12-4.67-.33-7A31.92,31.92,0,0,1,113.85,282.36Z" transform="translate(-50.17 -228.83)" style="fill:#4457a6"/></g><g id="alice"><path d="M249.13,374a2.65,2.65,0,0,1,1.78.83,2.58,2.58,0,0,1,.35,1.2q1.11,9.36,1.49,18.78a4.1,4.1,0,0,1-.15,1.6c-.45,1.2-1.9,1.7-3.19,1.77-2.53.14-5-.76-7.51-1.05a30.53,30.53,0,0,0-5.89.09l-16.89,1.32a49.12,49.12,0,0,0-11.32,1.78,16.62,16.62,0,0,0-9.15,6.54,235.12,235.12,0,0,1-.5-43.43c.08-1,.39-2.25,1.38-2.42.76-.14,1.42.49,1.95,1.05,4.58,4.83,10.3,8.87,16.83,10.19a47.53,47.53,0,0,0,9.54.61C235.18,372.78,241.88,372.69,249.13,374Z" transform="translate(-50.17 -228.83)" style="fill:#a2d9f2"/><text transform="translate(163.83 136.83)" style="font-size:18px;fill:#231f20;font-family:SansSerif, SansSerif">[[alice]]</text></g><g id="dallas"><path d="M396.45,394.39a4.93,4.93,0,0,0-2-1.78c-1.84-.71-3.89,1-4.33,2.92s.2,3.91.75,5.81c7.09,24.42-.34,50.22,5.17,74.86a35.3,35.3,0,0,0,4.48,10.8c2.11,3.43,4.35,5,7.85,7l13.29,7.8a55.34,55.34,0,0,0,5.08,2.75,46.69,46.69,0,0,0,6.53,2.27,60.16,60.16,0,0,0,8.06,1.81,75.49,75.49,0,0,0,9.51.54l19.33.29c3.15,0,6.63.53,9.74.12,2.38-.32,4.27-.92,6.78-.89a64,64,0,0,0,10.15-.83,7.25,7.25,0,0,0,2.84-.83c2.86-1.8.59-9.41-.16-12a4.35,4.35,0,0,0-1.26-2.31,4.54,4.54,0,0,0-2.11-.72c-5.36,0-11-1.09-16.38-1.51q-8.7-.68-17.39-1.46c-4.85-.44-9.8-1.47-14.67-1.47l-2-.23c-9.42-1.12-23.08-.85-28.86-10.12a18.07,18.07,0,0,1-1.92-4.76,49.18,49.18,0,0,1-1.38-18.86c.31-2.76,1-5.48,1.18-8.25.59-7.57-2.16-15-4.87-22.07-2.07-5.43-3.91-11-6.17-16.34A57,57,0,0,0,396.45,394.39Z" transform="translate(-50.17 -228.83)" style="fill:#20b24b"/><text transform="translate(389.83 253.83)" style="font-size:18px;fill:#231f20;font-family:SansSerif, SansSerif">[[dallas]]</text></g><g id="henry"><path d="M492.15,434.72c1.72.43,3.88.79,5-.62a4.13,4.13,0,0,0,.67-1.85,44.74,44.74,0,0,0,.24-13.52,27.24,27.24,0,0,0-2.82-8.76,1.61,1.61,0,0,0-.58-.75,1.74,1.74,0,0,0-1.29,0,107.54,107.54,0,0,1-14.75,2.09l-31.29,3c-9.82.93-19.31,2.21-29.2.86a10,10,0,0,1-5-1.63,6.68,6.68,0,0,1-2.2-3.85,19.89,19.89,0,0,1-.29-4.5c.07-6.47.51-12.91,1-19.37a1.61,1.61,0,0,0-.29-1.35,1.55,1.55,0,0,0-.68-.3c-2.74-.71-5.48-1-8.2-1.75s-6.25-.91-8.24,1.67a9.25,9.25,0,0,0-1.32,7.44,34.46,34.46,0,0,0,2.77,7.27,87.08,87.08,0,0,1,6,18.77c1.17,5.83.49,11.51,2.67,17.27,1.43,3.76,3.89,7.27,7.44,9.16a2.15,2.15,0,0,0,1.58.33,2.46,2.46,0,0,0,1.17-1.11,13.34,13.34,0,0,1,10.16-5.94c5-.22,10.31-1.47,15.32-2.16,11-1.54,22.19-3,33.37-2.76A84.47,84.47,0,0,1,492.15,434.72Z" transform="translate(-50.17 -228.83)" style="fill:#602670"/><text transform="translate(381.37 179.47)" style="font-size:18px;fill:#231f20;font-family:SansSerif, SansSerif">[[henry]]</text></g><g id="ionesco"><path d="M489.2,342.09l-13.68.82c-4.37.26-9,1-13.36.72-8.5-.51-17.05.71-25.65-.16-4.43-.45-8.94-.77-13.22-2.08-3.18-1-8.39-3.06-8.84-6.94a5.24,5.24,0,0,0-.35-2,1.94,1.94,0,0,0-1.74-.91,3,3,0,0,0-1.87.78c-1.39,1.17-1.89,3.05-2.54,4.75-2.87,7.57-10.42,12.56-15.42,18.71a19,19,0,0,0-3.14,4.94,21.11,21.11,0,0,0-1,7.13c-.12,5.05-.24,10.2,1.26,15a4.82,4.82,0,0,0,4.58,3.94,47,47,0,0,0,10,.51c2.16,0,4.53-.16,6.12-1.63s1.86-3.5,2.11-5.49a46.32,46.32,0,0,1,1.63-9.09,12.28,12.28,0,0,1,5.52-7.15c2.52-1.34,5.51-1.38,8.37-1.39l11.39,0c17.46-.07,35-.13,52.26,2.64a5.25,5.25,0,0,0,2.23,0,4.6,4.6,0,0,0,2.3-1.87,22.38,22.38,0,0,0,4.5-13.49,8.71,8.71,0,0,0-1.05-4.58C497.59,342,493,341.86,489.2,342.09Z" transform="translate(-50.17 -228.83)" style="fill:#94a33a"/><text transform="translate(389.83 109.17)" style="font-size:18px;fill:#231f20;font-family:SansSerif, SansSerif">[[ionesco]]</text></g><g id="ceci"><path d="M477.92,281c-1-1.37-2.55-3.09-4.33-3.32-3.27-.41-7.11.12-10.43.13q-5.57,0-11.13.22-11.14.41-22.22,1.55c-6.42.66-12.87,1.52-19,3.58-5.68,1.91-11.43,5.33-13.46,11-1,2.75-1,5.73-1.26,8.64-.42,4.57-1.53,9.05-2.07,13.61-.86,7.31-.24,14.69-.3,22-.05,7.63-1.81,14.12-4.65,21.19a4.55,4.55,0,0,0-.5,2.38,3.43,3.43,0,0,0,1.41,2,1.33,1.33,0,0,0,.42.26c.69.21,1.24-.56,1.56-1.21a33.08,33.08,0,0,1,4.41-7.24c1.41-1.61,3.33-2.71,4.83-4.27,3.79-3.93,8.39-7.37,10.93-12.32,2.24-4.38,2.56-9.45,2.88-14.36a21.87,21.87,0,0,1,1.48-7.79,18.5,18.5,0,0,1,4.22-5.47,42.62,42.62,0,0,1,8.22-6.3c7.2-4.14,15.64-5.58,23.92-6.11S469.5,299,477.75,298a6.33,6.33,0,0,0,3.79-1.33c1.8-1.72,1.13-4.67.33-7A32,32,0,0,0,477.92,281Z" transform="translate(-50.17 -228.83)" style="fill:#4457a6"/><text transform="translate(372.17 45.17)" style="font-size:18px;fill:#231f20;font-family:SansSerif, SansSerif">[[ceci]]</text></g><g id="eloise"><path d="M363.92,371.45a47.38,47.38,0,0,0,9.53-.61c6.54-1.32,12.25-5.36,16.84-10.19.53-.56,1.19-1.18,1.95-1,1,.17,1.29,1.42,1.37,2.42a235.21,235.21,0,0,1-.49,43.44,16.62,16.62,0,0,0-9.16-6.55,49.49,49.49,0,0,0-11.32-1.78l-16.88-1.32a31.34,31.34,0,0,0-5.89-.08c-2.52.28-5,1.18-7.51,1-1.29-.07-2.74-.56-3.19-1.77a3.91,3.91,0,0,1-.15-1.6q.38-9.4,1.49-18.78a2.5,2.5,0,0,1,.35-1.2,2.55,2.55,0,0,1,1.77-.82C349.89,371.33,356.59,371.42,363.92,371.45Z" transform="translate(-50.17 -228.83)" style="fill:#a2d9f2"/><text transform="translate(301.17 135.47)" style="font-size:18px;fill:#231f20;font-family:SansSerif, SansSerif">[[eloise]]</text></g><g id="Layer_1" data-name="Layer 1"><path d="M343.35,372.47c12.92-3.5,28.17,2.31,39.32-5.11,5.7-3.8,9-10.44,10.34-17.15s1.05-13.65,1-20.5a228.49,228.49,0,0,1,1.37-25.22c.55-5,1.38-10.31,4.46-14.33,4.1-5.35,11.2-7.27,17.82-8.56a233.37,233.37,0,0,1,61.52-3.77" transform="translate(-50.17 -228.83)" style="fill:none;stroke:#231f20;stroke-miterlimit:10;stroke-width:3px"/><path d="M343.92,396.73a172.87,172.87,0,0,1,33.43.22c3.89.41,8,1,11,3.53,4.75,3.92,5.21,10.91,5.28,17.07q.27,21.56.53,43.1c.11,9.4.47,19.53,6.21,27a34.64,34.64,0,0,0,9.43,7.93c14,8.67,30.53,12.83,47,14s33-.65,49.3-3.14" transform="translate(-50.17 -228.83)" style="fill:none;stroke:#231f20;stroke-miterlimit:10;stroke-width:3px"/><path d="M490.23,297.31a282.53,282.53,0,0,0-44.72,3.3c-11.31,1.74-24.05,5.3-29,15.61-2.42,5-2.51,10.83-2.27,16.4a10.09,10.09,0,0,0,.8,4.19c1.05,2.08,3.33,3.21,5.52,4,12.48,4.64,26.23,3.75,39.51,2.79l42.66-3.06" transform="translate(-50.17 -228.83)" style="fill:none;stroke:#231f20;stroke-miterlimit:10;stroke-width:3px"/><path d="M495.46,365.19c-10.38-1-20.81-1.75-31.2-2.11-9.69-.34-19.5,1.44-29.3.34-3.35-.37-6.71-1-10.07-.76s-6.84,1.56-8.8,4.3a15.71,15.71,0,0,0-2.19,5.83,120.65,120.65,0,0,0-2.25,37,6,6,0,0,0,1,3.22c.91,1.16,2.49,1.51,3.95,1.75,15.81,2.59,29.81-1.56,45.19-2a252.89,252.89,0,0,0,35.7-3.54" transform="translate(-50.17 -228.83)" style="fill:none;stroke:#231f20;stroke-miterlimit:10;stroke-width:3px"/><path d="M498.23,436.59c-9.75-2.19-21.4-4.77-31.37-4.51-13.09.35-26.54,3-39.55,4.53-5,.58-10.84,1.72-13,6.27a14.92,14.92,0,0,0-.95,6.52c0,9.33-2.38,21.21,3.83,29,5.09,6.4,14,7.95,22.17,8.89q26.61,3.07,53.42,3.88c3.89.11,8.12.09,11.2-2.29" transform="translate(-50.17 -228.83)" style="fill:none;stroke:#231f20;stroke-miterlimit:10;stroke-width:3px"/><text transform="translate(459.74 62.29)" style="font-size:18px;fill:#231f20;font-family:MyriadPro-Regular, Myriad Pro">3</text><text transform="translate(459.74 124.44)" style="font-size:18px;fill:#231f20;font-family:MyriadPro-Regular, Myriad Pro">2</text><text transform="translate(459.74 198.45)" style="font-size:18px;fill:#231f20;font-family:MyriadPro-Regular, Myriad Pro">1</text><text transform="translate(459.74 273.03)" style="font-size:18px;fill:#231f20;font-family:MyriadPro-Regular, Myriad Pro">B</text><path d="M248.13,327.8l-.35,139a14.79,14.79,0,0,0,.69,5.47,12.11,12.11,0,0,0,3.47,4.42c9.54,8.42,22.71,11.2,35.3,13,18.69,2.71,39.35,3.57,54.75-7.36a7.75,7.75,0,0,0,2.86-3.05,8.56,8.56,0,0,0,.42-3.67q-2.4-73.89-.16-147.83" transform="translate(-50.17 -228.83)" style="fill:#dfe5c3;stroke:#231f20;stroke-miterlimit:10;stroke-width:3px"/><path d="M270.17,413.77a37.26,37.26,0,0,0,8.46,6.64,62.62,62.62,0,0,0,.6-23.55c3.39,3.73,8.75,7.75,12.89,4.86,1.63-1.14,2.48-3.08,3.16-5a72.42,72.42,0,0,0,4.35-27.35,43.56,43.56,0,0,1,8.74,37.66,22.34,22.34,0,0,0,9.81-13.55,26.55,26.55,0,0,0,9.08,19.83,11.14,11.14,0,0,1,2.68,2.76,8.84,8.84,0,0,1,.86,3.12c1.44,10.12,1,21.23-5.05,29.46C304.91,477,261.2,442.61,270.17,413.77Z" transform="translate(-50.17 -228.83)" style="fill:#f79326;stroke:#231f20;stroke-miterlimit:10"/><path d="M327.91,374.61a17.48,17.48,0,0,0-1.62,15.65,10.22,10.22,0,0,0-.38-17.89" transform="translate(-50.17 -228.83)" style="fill:#f79326;stroke:#231f20;stroke-miterlimit:10"/><path d="M260.82,314.8c-6.11,2.07-11.19,5-12.26,12-2.35,15.5,18.8,19.42,30,20.86a162.32,162.32,0,0,0,39.64.69c7.24-.86,14.69-2.49,20.47-6.93s9.44-12.36,7-19.23c-3.48-9.8-17.29-9.93-26.09-10.53C300.73,310.4,278.94,308.68,260.82,314.8Z" transform="translate(-50.17 -228.83)" style="fill:#ebeed9;stroke:#231f20;stroke-miterlimit:10;stroke-width:3px"/><path d="M248.38,374.12c-12.92-3.5-28.17,2.32-39.32-5.1-5.7-3.8-9-10.44-10.34-17.16s-1.05-13.64-1-20.5a228.49,228.49,0,0,0-1.37-25.22c-.55-5-1.38-10.31-4.46-14.33-4.1-5.35-11.2-7.26-17.82-8.56a233.8,233.8,0,0,0-61.52-3.77" transform="translate(-50.17 -228.83)" style="fill:none;stroke:#231f20;stroke-miterlimit:10;stroke-width:3px"/><path d="M247.81,398.38a172.87,172.87,0,0,0-33.43.23c-3.89.4-8,1-11,3.52-4.75,3.92-5.21,10.91-5.28,17.08q-.27,21.54-.53,43.09c-.11,9.4-.47,19.54-6.21,27a34.64,34.64,0,0,1-9.43,7.93c-14,8.68-30.53,12.83-47,14s-33-.64-49.3-3.14" transform="translate(-50.17 -228.83)" style="fill:none;stroke:#231f20;stroke-miterlimit:10;stroke-width:3px"/><path d="M101.5,299a283.72,283.72,0,0,1,44.72,3.3c11.31,1.74,24.05,5.3,29,15.62,2.42,5,2.51,10.82,2.27,16.39a10.09,10.09,0,0,1-.8,4.19c-1,2.08-3.33,3.21-5.52,4-12.48,4.64-26.23,3.75-39.51,2.8L89,342.21" transform="translate(-50.17 -228.83)" style="fill:none;stroke:#231f20;stroke-miterlimit:10;stroke-width:3px"/><path d="M96.27,366.85c10.38-1,20.81-1.76,31.2-2.12,9.69-.34,19.5,1.44,29.3.35,3.35-.38,6.71-1,10.07-.77s6.84,1.56,8.8,4.3a15.78,15.78,0,0,1,2.19,5.83,120.65,120.65,0,0,1,2.25,37,6.07,6.07,0,0,1-1,3.22c-.91,1.16-2.5,1.51-3.95,1.75-15.81,2.59-29.81-1.56-45.2-2a255.89,255.89,0,0,1-35.69-3.54" transform="translate(-50.17 -228.83)" style="fill:none;stroke:#231f20;stroke-miterlimit:10;stroke-width:3px"/><path d="M93.5,438.25c9.75-2.2,21.4-4.78,31.37-4.51,13.09.34,26.54,3,39.55,4.53,5,.57,10.84,1.71,13,6.26a15,15,0,0,1,1,6.53c0,9.33,2.38,21.21-3.83,29-5.1,6.41-14,8-22.17,8.89Q125.76,492,99,492.85c-3.89.12-8.12.09-11.2-2.29" transform="translate(-50.17 -228.83)" style="fill:none;stroke:#231f20;stroke-miterlimit:10;stroke-width:3px"/><text transform="translate(21.07 61.83)" style="font-size:18px;fill:#231f20;font-family:MyriadPro-Regular, Myriad Pro">3</text><text transform="translate(21.07 123.97)" style="font-size:18px;fill:#231f20;font-family:MyriadPro-Regular, Myriad Pro">2</text><text transform="translate(21.07 197.98)" style="font-size:18px;fill:#231f20;font-family:MyriadPro-Regular, Myriad Pro">1</text><text transform="translate(21.07 272.56)" style="font-size:18px;fill:#231f20;font-family:MyriadPro-Regular, Myriad Pro">B</text></g></svg>