<svg id="Layer_1" data-name="Layer 1" xmlns="http://www.w3.org/2000/svg" width="612" height="512" viewBox="0 0 612 512"><title>diagram</title><g id="bg"><rect x="318.33" y="0.5" width="271.17" height="140" style="fill:none;stroke:#939598;stroke-miterlimit:10"/></g><g id="jeeves"><path d="M189.58,336.6a6.07,6.07,0,0,1,2.45-2.18c2.27-.87,4.78,1.23,5.33,3.59s-.24,4.81-.92,7.14c-8.72,30,.41,61.76-6.36,92.06a43.54,43.54,0,0,1-5.51,13.27c-2.6,4.22-5.35,6.1-9.65,8.63l-16.35,9.59a67.2,67.2,0,0,1-6.25,3.38,56.59,56.59,0,0,1-8,2.8,76.31,76.31,0,0,1-9.91,2.23,95.11,95.11,0,0,1-11.69.66l-23.78.35c-3.86.06-8.14.66-12,.15-2.93-.39-5.25-1.13-8.33-1.09a80.4,80.4,0,0,1-12.49-1,8.88,8.88,0,0,1-3.49-1c-3.52-2.2-.73-11.56.2-14.8a5.32,5.32,0,0,1,1.55-2.84,5.5,5.5,0,0,1,2.6-.89c6.58,0,13.54-1.34,20.14-1.85Q97.82,454,108.5,453c6-.54,12-1.8,18-1.8l2.47-.29c11.58-1.37,28.37-1,35.48-12.45a22.32,22.32,0,0,0,2.37-5.84,60.72,60.72,0,0,0,1.69-23.2c-.38-3.39-1.19-6.73-1.46-10.14-.72-9.31,2.67-18.4,6-27.13,2.55-6.68,4.81-13.52,7.59-20.1A70.81,70.81,0,0,1,189.58,336.6Z" style="fill:#20b24b"/><text transform="translate(83.55 446.76)" style="isolation:isolate;font-size:14px;fill:#231f20;font-family:SansSerif, SansSerif">[[jeeves]]</text></g><g id="giovanni"><text transform="translate(83.55 348.55)" style="isolation:isolate;font-size:14px;fill:#231f20;font-family:SansSerif, SansSerif">[[giovanni]]</text><path d="M71.91,386.2c-2.11.53-4.77,1-6.09-.76a5.21,5.21,0,0,1-.81-2.28,54.87,54.87,0,0,1-.3-16.63,33.79,33.79,0,0,1,3.46-10.77,2.11,2.11,0,0,1,.72-.92,2.18,2.18,0,0,1,1.59,0,131.9,131.9,0,0,0,18.13,2.58q19.23,1.84,38.48,3.67c12.08,1.15,23.74,2.73,35.9,1.06,2.16-.3,4.44-.64,6.15-2a8.26,8.26,0,0,0,2.7-4.73,24.52,24.52,0,0,0,.36-5.54c-.09-8-.63-15.87-1.28-23.82a2,2,0,0,1,.36-1.66,2,2,0,0,1,.83-.37c3.37-.87,6.74-1.24,10.08-2.15,3.53-1,7.7-1.12,10.14,2.06,1.95,2.53,2.25,6,1.62,9.15a43.26,43.26,0,0,1-3.4,8.93,107,107,0,0,0-7.42,23.08c-1.44,7.17-.6,14.15-3.28,21.24-1.76,4.62-4.79,8.94-9.15,11.26a2.63,2.63,0,0,1-1.95.41,3,3,0,0,1-1.43-1.36,16.36,16.36,0,0,0-12.5-7.31c-6.16-.27-12.67-1.81-18.83-2.66-13.59-1.89-27.28-3.71-41-3.4A104.36,104.36,0,0,0,71.91,386.2Z" style="fill:#602670"/></g><g id="bertrand"><text transform="translate(102.31 268.47)" style="isolation:isolate;font-size:14px;fill:#231f20;font-family:SansSerif, SansSerif">[[bertrand]]</text><path d="M75.55,272.29l16.81,1c5.38.32,11.06,1.21,16.43.89,10.45-.62,21,.88,31.54-.2,5.45-.55,11-1,16.26-2.55,3.9-1.2,10.32-3.77,10.86-8.53a6.41,6.41,0,0,1,.43-2.49A2.42,2.42,0,0,1,170,259.3a3.74,3.74,0,0,1,2.3,1c1.71,1.44,2.33,3.75,3.12,5.84,3.53,9.31,12.82,15.44,19,23a23,23,0,0,1,3.86,6.07A25.94,25.94,0,0,1,199.5,304c.15,6.2.29,12.53-1.55,18.46a5.93,5.93,0,0,1-5.63,4.84,58.89,58.89,0,0,1-12.3.63c-2.66-.05-5.57-.2-7.53-2s-2.28-4.31-2.59-6.76c-.47-3.76-.8-7.58-2-11.18s-3.43-7-6.79-8.79c-3.1-1.64-6.78-1.69-10.29-1.71l-16.49,1.17c-21.47-.08-40.57-1.37-61.76,2a6.38,6.38,0,0,1-2.75.05A5.78,5.78,0,0,1,67,298.4a27.57,27.57,0,0,1-5.53-16.59,10.62,10.62,0,0,1,1.29-5.63C65.22,272.19,70.86,272,75.55,272.29Z" style="fill:#94a33a"/></g><g id="fennec"><text transform="translate(120.34 188.95)" style="isolation:isolate;font-size:14px;fill:#231f20;font-family:SansSerif, SansSerif">[[fennec]]</text><path d="M89.41,197.18c1.22-1.68,3.13-3.8,5.33-4.08,4-.51,8.73.14,12.82.16q6.84,0,13.69.27,13.69.5,27.32,1.91c7.89.81,15.82,1.87,23.34,4.4,7,2.35,14.05,6.55,16.55,13.48,1.22,3.37,1.21,7,1.54,10.61.52,5.62,1.88,11.13,2.54,16.74,1.06,9,.31,18.06.37,27.09.07,9.39,2.24,17.37,5.73,26.06a5.58,5.58,0,0,1,.61,2.92,4.3,4.3,0,0,1-1.73,2.52,1.84,1.84,0,0,1-.52.31c-.85.26-1.52-.69-1.91-1.48a40.78,40.78,0,0,0-5.43-8.91c-1.73-2-4.09-3.33-5.94-5.25-4.66-4.84-10.32-9.06-13.44-15.15-2.75-5.39-3.14-11.62-3.54-17.65-.21-3.27-.46-6.61-1.82-9.58a22.83,22.83,0,0,0-5.18-6.73,52.52,52.52,0,0,0-10.12-7.74c-8.85-5.09-19.22-6.87-29.41-7.52s-20.45-.26-30.59-1.43c-1.67-.19-3.45-.47-4.67-1.63-2.2-2.11-1.38-5.75-.4-8.64C85.81,204.14,87.11,200.36,89.41,197.18Z" style="fill:#4457a6"/></g><g id="alice"><path d="M255.76,309.81a3.25,3.25,0,0,1,2.19,1,3.47,3.47,0,0,1,.43,1.48q1.37,11.5,1.83,23.09a5,5,0,0,1-.19,2c-.55,1.48-2.34,2.09-3.92,2.18-3.11.16-6.14-.94-9.23-1.29a39,39,0,0,0-7.25.1L218.86,340c-4.69.37-9.44.74-13.92,2.18s-8.75,4.07-11.26,8a289.55,289.55,0,0,1-.61-53.4c.1-1.23.48-2.77,1.69-3,.94-.16,1.75.6,2.4,1.29,5.64,5.94,12.67,10.91,20.7,12.53a57.56,57.56,0,0,0,11.73.75C238.6,308.37,246.84,308.25,255.76,309.81Z" style="fill:#a2d9f2"/><text transform="translate(212.56 299.61)" style="isolation:isolate;font-size:14px;fill:#231f20;font-family:SansSerif, SansSerif">[[alice]]</text></g><g id="dallas"><path d="M436.91,334.94a6.16,6.16,0,0,0-2.45-2.19c-2.27-.87-4.78,1.23-5.33,3.59s.24,4.81.92,7.15c8.72,30-.41,61.75,6.36,92.05a43.54,43.54,0,0,0,5.51,13.27c2.6,4.22,5.35,6.1,9.65,8.63l16.35,9.6a69.47,69.47,0,0,0,6.24,3.38,58.29,58.29,0,0,0,8,2.79,74.7,74.7,0,0,0,9.91,2.23,95.11,95.11,0,0,0,11.69.66l23.78.36c3.86.05,8.14.65,12,.14,2.93-.39,5.24-1.12,8.33-1.09a80.4,80.4,0,0,0,12.49-1,8.88,8.88,0,0,0,3.49-1c3.51-2.2.73-11.56-.2-14.79a5.29,5.29,0,0,0-1.55-2.84,5.41,5.41,0,0,0-2.6-.9c-6.58,0-13.54-1.34-20.14-1.85q-10.7-.83-21.38-1.8c-6-.54-12.05-1.8-18-1.8l-2.47-.29c-11.58-1.37-28.37-1-35.48-12.44a22.53,22.53,0,0,1-2.37-5.85A60.67,60.67,0,0,1,458,407.76c.38-3.4,1.19-6.74,1.45-10.14.72-9.32-2.66-18.41-6-27.14-2.55-6.68-4.81-13.52-7.59-20.1A70.9,70.9,0,0,0,436.91,334.94Z" style="fill:#20b24b"/><text transform="translate(490.45 443.49)" style="isolation:isolate;font-size:14px;fill:#231f20;font-family:SansSerif, SansSerif">[[dallas]]</text></g><g id="henry"><path d="M554.58,384.53c2.11.53,4.77,1,6.09-.76a5.21,5.21,0,0,0,.81-2.28,54.81,54.81,0,0,0,.3-16.62,33.29,33.29,0,0,0-3.47-10.78,2,2,0,0,0-.71-.92,2.18,2.18,0,0,0-1.59,0,131.9,131.9,0,0,1-18.13,2.58L499.4,359.4c-12.08,1.14-23.74,2.72-35.9,1.05-2.16-.3-4.44-.64-6.15-2a8.12,8.12,0,0,1-2.7-4.73,24.52,24.52,0,0,1-.36-5.54c.08-7.95.63-15.87,1.28-23.82a2,2,0,0,0-.36-1.66,2.14,2.14,0,0,0-.83-.37c-3.37-.87-6.74-1.24-10.08-2.15-3.53-1-7.7-1.12-10.14,2.06-2,2.53-2.25,6-1.62,9.15a43.26,43.26,0,0,0,3.4,8.93,107.05,107.05,0,0,1,7.42,23.09c1.44,7.16.6,14.14,3.28,21.23,1.76,4.62,4.78,8.94,9.15,11.26a2.63,2.63,0,0,0,1.95.41,3,3,0,0,0,1.43-1.36,16.39,16.39,0,0,1,12.5-7.31c6.16-.27,12.67-1.8,18.83-2.66,13.59-1.88,27.28-3.7,41-3.39A103.8,103.8,0,0,1,554.58,384.53Z" style="fill:#602670"/><text transform="translate(480.05 352.04)" style="isolation:isolate;font-size:14px;fill:#231f20;font-family:SansSerif, SansSerif">[[henry]]</text></g><g id="ionesco"><path d="M550.94,270.63l-16.81,1c-5.38.33-11.06,1.21-16.43.89-10.45-.62-21,.88-31.54-.2-5.45-.55-11-.94-16.26-2.55-3.9-1.19-10.32-3.77-10.87-8.53a6.22,6.22,0,0,0-.42-2.49,2.43,2.43,0,0,0-2.14-1.12,3.74,3.74,0,0,0-2.3,1c-1.71,1.44-2.33,3.75-3.12,5.84-3.53,9.31-12.82,15.44-19,23a23.52,23.52,0,0,0-3.86,6.07,26.33,26.33,0,0,0-1.23,8.77c-.15,6.2-.29,12.54,1.55,18.46a5.93,5.93,0,0,0,5.63,4.84,57.56,57.56,0,0,0,12.3.63c2.66,0,5.57-.2,7.53-2s2.28-4.31,2.59-6.76c.47-3.76.8-7.58,2-11.17s3.43-7,6.78-8.8c3.11-1.64,6.79-1.69,10.3-1.71h14c21.47-.08,43.05-.15,64.25,3.25a6.71,6.71,0,0,0,2.75.06,5.79,5.79,0,0,0,2.82-2.3A27.53,27.53,0,0,0,565,280.14a10.62,10.62,0,0,0-1.29-5.63C561.27,270.52,555.63,270.35,550.94,270.63Z" style="fill:#94a33a"/><text transform="translate(490.45 265.6)" style="isolation:isolate;font-size:14px;fill:#231f20;font-family:SansSerif, SansSerif">[[ionesco]]</text></g><g id="luigi"><path d="M361.79,17.64c-4-2.37-8.51-4.38-13.2-4.3s-9.59,2.75-11,7.21a27.54,27.54,0,0,1-.85,2.81c-1.44,3.21-6,5.86-8.42,8.51a12.93,12.93,0,0,0-2.9,4.39,9,9,0,0,0-.43,3.05c.08,4.95,3.28,9.56,7.6,12a19.9,19.9,0,0,0,11,2.2c.63,0,7.8-.3,7.71-.55,2.34,6.52,10.37,10.79,16.95,11a26,26,0,0,0,13.28-3.71c3-1.67,6.13-5.47,9.22-6.55,2.53-.88,5,1.66,8,1.31,4-.61,8.66-2.38,10.83-5.84A16.22,16.22,0,0,0,411,36c-1.36-3.69-4.2-8-7.66-9.92-1.61-.92-1.31-2.45-2.11-3.75A9.47,9.47,0,0,0,398,19.5a37.33,37.33,0,0,0-8.88-3.76A38.73,38.73,0,0,0,375,14.1a36.86,36.86,0,0,0-7,1.19C367.11,15.53,362.25,17.91,361.79,17.64Z" style="fill:#31c5f4"/><text transform="translate(348.79 81.6)" style="isolation:isolate;font-size:14px;fill:#231f20;font-family:SansSerif, SansSerif">[[luigi]]</text></g><g id="karnov"><path d="M570.13,70.38c-.77-4.06-2-8-2.93-12-.76-3.31-.91-5.51-3.05-8.31A26,26,0,0,0,547.89,40a53.52,53.52,0,0,0-8.95-.31,174.31,174.31,0,0,1-20.56-1c-6.2-.65-12.42-.52-18.68-.85L479,36.79c-13.69-.72-27.39-1.29-41.07-2.15-3.87-.2-8.21-.24-11,2.43-3.58,3.38-5.64,13.5-1.58,17.17,1.41,1.28,3.41,1.61,5.29,1.88l.41.07,20.55,3c6.54,1,13.14,1.26,19.73,1.77,13.7,1,27.39,2.27,41.12,2.83,6.6.27,13.26.39,19.71,1.83s12.7,4.38,17,9.38a28.88,28.88,0,0,1,6.29,14.3,49.77,49.77,0,0,1,.64,8.09c0,2.56-.59,5,1,7.24,1.78,2.54,6.32,1.76,8.85,1s5.24-2.41,5.33-5.13-.28-5.54-.15-8.35A91.74,91.74,0,0,0,570.13,70.38Z" style="fill:#f3ea11"/><text transform="translate(463.45 29.6)" style="isolation:isolate;font-size:14px;fill:#231f20;font-family:SansSerif, SansSerif">[[karnov]]</text></g><g id="ceci"><path d="M537.08,195.52c-1.22-1.69-3.14-3.8-5.33-4.08-4-.52-8.73.13-12.82.15q-6.85,0-13.69.27-13.69.49-27.32,1.91c-7.89.81-15.82,1.87-23.34,4.4-7,2.35-14.05,6.55-16.55,13.48-1.22,3.37-1.22,7-1.54,10.62-.52,5.62-1.89,11.13-2.55,16.73-1.06,9-.3,18.06-.36,27.09-.07,9.39-2.24,17.37-5.73,26.06a5.62,5.62,0,0,0-.61,2.93,4.28,4.28,0,0,0,1.73,2.51,1.71,1.71,0,0,0,.52.31c.84.26,1.52-.69,1.91-1.48a41,41,0,0,1,5.43-8.91c1.73-2,4.09-3.33,5.94-5.25,4.66-4.83,10.32-9.06,13.44-15.15,2.75-5.38,3.14-11.62,3.54-17.65.21-3.26.46-6.61,1.82-9.58a22.66,22.66,0,0,1,5.18-6.72,51.87,51.87,0,0,1,10.12-7.75c8.85-5.09,19.22-6.87,29.41-7.52s20.45-.26,30.59-1.42c1.67-.19,3.45-.48,4.67-1.64,2.2-2.11,1.38-5.74.4-8.63C540.68,202.48,539.38,198.7,537.08,195.52Z" style="fill:#4457a6"/><text transform="translate(468.73 186.91)" style="isolation:isolate;font-size:14px;fill:#231f20;font-family:SansSerif, SansSerif">[[ceci]]</text></g><g id="eloise"><path d="M396.9,306.73a57.56,57.56,0,0,0,11.73-.75c8-1.62,15.06-6.58,20.7-12.53.65-.69,1.46-1.45,2.4-1.29,1.21.21,1.58,1.75,1.69,3a289.66,289.66,0,0,1-.61,53.41c-2.51-4-6.78-6.61-11.26-8.05s-9.23-1.82-13.92-2.19l-20.76-1.62a38.19,38.19,0,0,0-7.25-.11c-3.09.35-6.12,1.46-9.23,1.29-1.58-.09-3.37-.7-3.92-2.18a4.85,4.85,0,0,1-.19-2q.47-11.58,1.83-23.1a2.4,2.4,0,0,1,2.3-2.5h.32C379.65,306.59,387.89,306.7,396.9,306.73Z" style="fill:#a2d9f2"/><text transform="translate(381.43 297.94)" style="isolation:isolate;font-size:14px;fill:#231f20;font-family:SansSerif, SansSerif">[[eloise]]</text></g><g id="mario"><path d="M150.14,20.23c-4-2.37-8.51-4.38-13.2-4.3s-9.59,2.75-11,7.21a25.23,25.23,0,0,1-.85,2.81c-1.44,3.21-6,5.86-8.42,8.51a13.18,13.18,0,0,0-2.9,4.39,9.3,9.3,0,0,0-.43,3c.08,5,3.28,9.56,7.6,12a19.81,19.81,0,0,0,11,2.2c.63,0,7.8-.3,7.71-.55,2.34,6.52,10.37,10.79,16.95,11a26,26,0,0,0,13.28-3.71c3-1.67,6.13-5.47,9.22-6.55,2.53-.88,5,1.66,8,1.31,4.05-.61,8.67-2.37,10.84-5.84a16.21,16.21,0,0,0,1.4-13.2c-1.36-3.69-4.2-8-7.66-9.92-1.61-.92-1.31-2.45-2.11-3.75a9.47,9.47,0,0,0-3.23-2.8,37.57,37.57,0,0,0-8.88-3.76,38.71,38.71,0,0,0-14.11-1.64,37,37,0,0,0-7,1.19C155.46,18.12,150.6,20.5,150.14,20.23Z" style="fill:#d783b6"/><text transform="translate(107.14 83.19)" style="isolation:isolate;font-size:14px;fill:#231f20;font-family:SansSerif, SansSerif">[[mario]]</text></g><g id="naomi"><path id="drip" d="M213.67,95.75a16.75,16.75,0,0,1-33.5,0C180.17,86.5,195.4,69,196.92,69S213.67,86.5,213.67,95.75Z" style="fill:#38e86f"/><text transform="translate(180.14 130.88)" style="isolation:isolate;font-size:14px;fill:#231f20;font-family:SansSerif, SansSerif">[[naomi]]</text></g><g id="attic"><polygon points="187 0.5 254.06 140.81 47.15 140.81 126.5 0.5 187 0.5" style="fill:none;stroke:#939598;stroke-miterlimit:10"/><text transform="translate(80.15 131.88)" style="isolation:isolate;font-size:22.13295555114746px;fill:#231f20;font-family:ArialMT, Arial">4F attic</text></g><g id="fg"><path d="M371.61,308c15.89-4.31,34.64,2.84,48.34-6.28,7-4.68,11.05-12.84,12.72-21.1s1.29-16.77,1.28-25.2a281.51,281.51,0,0,1,1.68-31c.69-6.19,1.7-12.67,5.49-17.61,5-6.58,13.77-8.94,21.91-10.53a287.37,287.37,0,0,1,75.65-4.64" style="fill:none;stroke:#231f20;stroke-miterlimit:10;stroke-width:3px"/><path d="M372.31,337.81a213,213,0,0,1,41.1.28c4.79.5,9.83,1.28,13.54,4.34,5.85,4.82,6.41,13.41,6.5,21q.32,26.49.65,53c.14,11.56.58,24,7.64,33.18a42.74,42.74,0,0,0,11.59,9.75c17.26,10.66,37.53,15.78,57.78,17.17s40.56-.8,60.61-3.87" style="fill:none;stroke:#231f20;stroke-miterlimit:10;stroke-width:3px"/><path d="M552.21,215.57a348,348,0,0,0-55,4.05c-13.91,2.14-29.57,6.52-35.68,19.21-3,6.17-3.08,13.3-2.79,20.15a12.65,12.65,0,0,0,1,5.15c1.3,2.57,4.11,3.95,6.8,4.95,15.34,5.7,32.25,4.61,48.57,3.44l46-3.31" style="fill:none;stroke:#231f20;stroke-miterlimit:10;stroke-width:3px"/><path d="M558.64,299c-12.76-1.22-25.59-2.16-38.36-2.6-11.92-.42-24,1.77-36,.42-4.12-.46-8.24-1.24-12.38-.93s-8.41,1.91-10.82,5.28a19.26,19.26,0,0,0-2.69,7.17,148.17,148.17,0,0,0-2.77,45.48,7.44,7.44,0,0,0,1.17,4c1.12,1.43,3.07,1.86,4.86,2.15,19.44,3.18,36.65-1.92,55.57-2.45a313.68,313.68,0,0,0,43.89-4.35" style="fill:none;stroke:#231f20;stroke-miterlimit:10;stroke-width:3px"/><path d="M562.05,386.83c-12-2.7-26.32-5.87-38.57-5.54-16.09.42-32.63,3.73-48.64,5.57-6.15.7-13.33,2.1-16,7.7-1.16,2.46-1.18,5.3-1.16,8,0,11.47-2.93,26.08,4.71,35.69,6.26,7.88,17.26,9.78,27.25,10.94Q522.39,453,555.35,454c4.78.15,10,.11,13.77-2.81" style="fill:none;stroke:#231f20;stroke-miterlimit:10;stroke-width:3px"/><text transform="translate(546.41 207.33)" style="isolation:isolate;font-size:22.13295555114746px;fill:#231f20;font-family:ArialMT, Arial">3</text><text transform="translate(569.12 289.38)" style="isolation:isolate;font-size:22.13295555114746px;fill:#231f20;font-family:ArialMT, Arial">2</text><text transform="translate(576.41 375.38)" style="isolation:isolate;font-size:22.13295555114746px;fill:#231f20;font-family:ArialMT, Arial">1</text><text transform="translate(576.41 467.08)" style="isolation:isolate;font-size:22.13295555114746px;fill:#231f20;font-family:ArialMT, Arial">B</text><path d="M254.53,253.06,254.1,424a17.85,17.85,0,0,0,.85,6.73,14.87,14.87,0,0,0,4.26,5.43c11.73,10.36,27.92,13.78,43.41,16,23,3.33,48.38,4.39,67.32-9.05a9.76,9.76,0,0,0,3.52-3.75,10.47,10.47,0,0,0,.51-4.51q-3-90.86-.19-181.78" style="fill:#dfe5c3"/><path d="M372,297.2c.09-11.95,2.25-23.72,1.47-35.7-3.61,2.82-6,6.75-9.73,9.56a34.71,34.71,0,0,1-11.75,5.8c-4.16,1.11-9,1.7-11.57,5.12-1.7,2.23-2.05,5.18-2.25,8-1.46,20.18,1.64,40.4,2,60.63s-2.33,41.47-14,58c-13.29,19-38.69,29.2-61,22.9a9.35,9.35,0,0,0-4.09-.59,2.92,2.92,0,0,0-2.59,2.77,3.56,3.56,0,0,0,.71,1.67c4,5.87,12.67,9.91,19.24,11.74a77.81,77.81,0,0,0,10.5,1.9c17.74,2.46,37.87,6.67,55.74,4.32,9.53-1.25,17.93-5.87,25.66-11.47a9.6,9.6,0,0,0,2.6-2.48c1.16-1.83,1-4.16.85-6.32-2.41-31.55-2.41-63.41-2.16-94.93Z" style="fill:#c1ce76"/><path d="M255.53,253.06,255.1,424a17.85,17.85,0,0,0,.85,6.73,14.87,14.87,0,0,0,4.26,5.43c11.73,10.36,27.92,13.78,43.41,16,23,3.33,48.38,4.39,67.32-9.05a9.76,9.76,0,0,0,3.52-3.75,10.47,10.47,0,0,0,.51-4.51q-3-90.86-.19-181.78" style="fill:none;stroke:#231f20;stroke-miterlimit:10;stroke-width:3px"/><path d="M281.63,358.77a45.71,45.71,0,0,0,10.4,8.17,76.68,76.68,0,0,0,.73-29c4.18,4.59,10.77,9.54,15.86,6,2-1.4,3-3.8,3.88-6.1a89.18,89.18,0,0,0,5.36-33.63,53.63,53.63,0,0,1,10.74,46.31,27.39,27.39,0,0,0,12.06-16.66,32.62,32.62,0,0,0,11.17,24.38,14,14,0,0,1,3.29,3.4,10.73,10.73,0,0,1,1.06,3.84c1.77,12.44,1.25,26.1-6.21,36.21C324.34,436.47,270.6,394.23,281.63,358.77Z" style="fill:#f79326;stroke:#231f20;stroke-miterlimit:10;stroke-width:2px"/><path d="M352.62,310.62a21.52,21.52,0,0,0-2,19.24,12.57,12.57,0,0,0-.46-22" style="fill:#f79326;stroke:#231f20;stroke-miterlimit:10;stroke-width:2px"/><path d="M270.13,237.08c-7.52,2.54-13.76,6.13-15.07,14.78-2.89,19.05,23.11,23.87,36.87,25.64,16.16,2.07,32.57,2.77,48.74.85,8.91-1.06,18.06-3.05,25.18-8.52s11.6-15.19,8.59-23.64c-4.28-12.06-21.26-12.21-32.09-12.95C319.2,231.67,292.41,229.55,270.13,237.08Z" style="fill:#ebeed9;stroke:#231f20;stroke-miterlimit:10;stroke-width:3px"/><path d="M254.83,310c-15.89-4.31-34.64,2.84-48.34-6.28-7-4.67-11-12.84-12.72-21.1s-1.29-16.77-1.28-25.2a279.07,279.07,0,0,0-1.68-31c-.68-6.2-1.69-12.68-5.49-17.62-5-6.58-13.77-8.94-21.9-10.53a287.89,287.89,0,0,0-75.66-4.64" style="fill:none;stroke:#231f20;stroke-miterlimit:10;stroke-width:3px"/><path d="M254.13,339.84a213,213,0,0,0-41.1.28c-4.79.5-9.83,1.28-13.54,4.34-5.85,4.82-6.4,13.42-6.5,21q-.31,26.49-.64,53c-.15,11.56-.59,24-7.65,33.18a42.74,42.74,0,0,1-11.59,9.75c-17.26,10.67-37.53,15.78-57.77,17.17s-40.56-.8-60.62-3.86" style="fill:none;stroke:#231f20;stroke-miterlimit:10;stroke-width:3px"/><path d="M74.23,217.6a349.22,349.22,0,0,1,55,4.05c13.92,2.15,29.57,6.52,35.68,19.21,3,6.17,3.08,13.31,2.79,20.16a12.65,12.65,0,0,1-1,5.15c-1.29,2.56-4.1,3.94-6.8,4.94-15.33,5.71-32.25,4.61-48.57,3.44l-52.46-3.77" style="fill:none;stroke:#231f20;stroke-miterlimit:10;stroke-width:3px"/><path d="M67.8,301.07c12.76-1.22,25.59-2.16,38.37-2.6,9.45-.33,21.38,2.06,36,.43,4.12-.46,8.25-1.25,12.38-.94s8.41,1.91,10.82,5.28a19.26,19.26,0,0,1,2.69,7.17,148.17,148.17,0,0,1,2.77,45.48,7.44,7.44,0,0,1-1.17,4c-1.12,1.43-3.06,1.86-4.86,2.15-19.43,3.19-36.64-1.91-55.57-2.45a312,312,0,0,1-43.88-4.35" style="fill:none;stroke:#231f20;stroke-miterlimit:10;stroke-width:3px"/><path d="M64.39,388.87c12-2.7,26.32-5.87,38.58-5.55,16.09.43,32.63,3.74,48.63,5.57,6.15.7,13.33,2.11,16,7.7,1.17,2.47,1.18,5.3,1.17,8-.05,11.47,2.93,26.08-4.72,35.69-6.26,7.87-17.26,9.78-27.25,10.93Q104,455,71.09,456c-4.78.15-10,.12-13.77-2.81" style="fill:none;stroke:#231f20;stroke-miterlimit:10;stroke-width:3px"/><text transform="translate(37.02 211.39)" style="isolation:isolate;font-size:22.13295555114746px;fill:#231f20;font-family:ArialMT, Arial">3</text><text transform="translate(37.02 295.81)" style="isolation:isolate;font-size:22.13295555114746px;fill:#231f20;font-family:ArialMT, Arial">2</text><text transform="translate(37.02 378.81)" style="isolation:isolate;font-size:22.13295555114746px;fill:#231f20;font-family:ArialMT, Arial">1</text><text transform="translate(37.02 470.51)" style="isolation:isolate;font-size:22.13295555114746px;fill:#231f20;font-family:ArialMT, Arial">B</text><polygon points="264 194.67 264 178.42 347.06 178.42 347.06 167.38 372.67 188.14 347.06 207.33 347.06 195.33 264 194.67" style="fill:#231f20"/><path d="M269.43,284.6c-1.24-.21-2.74-.32-3.54.65a3.64,3.64,0,0,0-.64,1.86c-4.28,29.79-1.17,60.07-1.4,90.16,0,4.16-.09,8.45,1.55,12.27,3.4-2.69,4.22-7.45,4.7-11.76,2.68-24,2.83-49.34,14.8-70.3a47.29,47.29,0,0,0,4.05-7.84C293.36,286.73,278.05,286.09,269.43,284.6Z" style="fill:#ebeed9"/><rect y="129.67" width="612" height="382.33" style="fill:none"/><path d="M336.07,25c.36-5.41,4.76-10.12,10-11.5s11,.31,15.21,3.77" style="fill:none;stroke:#231f20;stroke-miterlimit:10;stroke-width:3px"/><path d="M359,21.05a28.79,28.79,0,0,1,22.33-7.53,36.61,36.61,0,0,1,21.61,10.09" style="fill:none;stroke:#231f20;stroke-miterlimit:10;stroke-width:3px"/><path d="M397.45,25.1c3.68-.69,7.23,1.78,9.63,4.64A19.91,19.91,0,0,1,412,41.13a13.59,13.59,0,0,1-4.57,11.24,10.39,10.39,0,0,1-11.75,1.09" style="fill:none;stroke:#231f20;stroke-miterlimit:10;stroke-width:3px"/><path d="M349.68,51.56a20.69,20.69,0,0,0,25.17,11.61A35.48,35.48,0,0,0,384,58.39a42.12,42.12,0,0,0,9.15-7.79" style="fill:none;stroke:#231f20;stroke-miterlimit:10;stroke-width:3px"/><path d="M337.94,24.8a22.57,22.57,0,0,0-9.19,6.41,14.25,14.25,0,0,0-3.34,10.51c.72,6,6.16,10.73,12.09,11.92S349.62,53,354.89,50" style="fill:none;stroke:#231f20;stroke-miterlimit:10;stroke-width:3px"/><path d="M429,35.24l106.53,3.52c9.63.32,20.37,1.12,26.87,8.24,3.74,4.1,5.39,9.67,6.56,15.1a122.13,122.13,0,0,1,1.9,39.9" style="fill:none;stroke:#231f20;stroke-miterlimit:10;stroke-width:3px"/><path d="M427.8,56.83c26.6,3.29,53.29,6.58,80.1,6.72,7.77,0,15.61-.18,23.22,1.39s15.1,5.18,19.69,11.44c5.93,8.09,6,18.91,5.9,28.94" style="fill:none;stroke:#231f20;stroke-miterlimit:10;stroke-width:3px"/><text transform="translate(413.15 130.88)" style="isolation:isolate;font-size:22.13295555114746px;fill:#231f20;font-family:ArialMT, Arial">2F bed</text><path d="M556.59,108.55c.13,1,.26,2,.38,3" style="fill:none;stroke:#231f20;stroke-miterlimit:10;stroke-width:3px"/><path d="M557.71,117.39c3.59,29.38,6.22,58.84,9.72,88.27,1.53,12.86,3,25.73,4,38.65.35,4.8.62,9.71-.7,14.32a17.26,17.26,0,0,1-4.15,7.26" style="fill:none;stroke:#231f20;stroke-miterlimit:10;stroke-width:3px;stroke-dasharray:5.902594566345215,5.902594566345215"/><path d="M564.27,267.73a11,11,0,0,1-2.72,1.24" style="fill:none;stroke:#231f20;stroke-miterlimit:10;stroke-width:3px"/><path d="M571.92,103.94l1,9.89c2.48,25.23,5.94,50.18,9.53,75.28,1,7.3,2.09,14.61,2.7,22,.59,7.06.78,14.16,1,21.25L587.42,283c.09,3.45.12,7.12-1.69,10.05-2.16,3.49-6.42,5.07-10.49,5.63S567,299,563,300.06" style="fill:none;stroke:#231f20;stroke-miterlimit:10;stroke-width:3px;stroke-dasharray:6"/><path d="M124.42,27.59c.36-5.41,4.76-10.12,10-11.5s11,.31,15.21,3.77" style="fill:none;stroke:#231f20;stroke-miterlimit:10;stroke-width:3px"/><path d="M147.35,23.64a28.86,28.86,0,0,1,22.33-7.53A36.61,36.61,0,0,1,191.29,26.2" style="fill:none;stroke:#231f20;stroke-miterlimit:10;stroke-width:3px"/><path d="M185.8,27.69c3.68-.69,7.23,1.78,9.63,4.64a19.84,19.84,0,0,1,4.92,11.39A13.56,13.56,0,0,1,195.78,55,10.39,10.39,0,0,1,184,56.05" style="fill:none;stroke:#231f20;stroke-miterlimit:10;stroke-width:3px"/><path d="M138,54.15A20.7,20.7,0,0,0,163.2,65.76,35.48,35.48,0,0,0,172.35,61a42.12,42.12,0,0,0,9.15-7.79" style="fill:none;stroke:#231f20;stroke-miterlimit:10;stroke-width:3px"/><path d="M126.29,27.39a22.67,22.67,0,0,0-9.19,6.41,14.31,14.31,0,0,0-3.34,10.51c.72,6,6.16,10.73,12.09,11.92s12.12-.64,17.39-3.64" style="fill:none;stroke:#231f20;stroke-miterlimit:10;stroke-width:3px"/><path d="M213.67,95.75a16.75,16.75,0,0,1-33.5,0C180.17,86.5,195.4,69,196.92,69S213.67,86.5,213.67,95.75Z" style="fill:none;stroke:#231f20;stroke-miterlimit:10;stroke-width:3px"/></g></svg>