<svg xmlns="http://www.w3.org/2000/svg" width="612" height="382.33" viewBox="0 0 612 382.33"><title>diagram</title><g id="jeeves"><path d="M189.58,206.94a6.13,6.13,0,0,1,2.45-2.19c2.27-.87,4.78,1.23,5.33,3.59s-.24,4.81-.92,7.15c-8.72,30,.41,61.75-6.36,92.05a43.54,43.54,0,0,1-5.51,13.27c-2.6,4.22-5.35,6.1-9.65,8.63L158.57,339a67.2,67.2,0,0,1-6.25,3.38,58.08,58.08,0,0,1-8,2.79,75.05,75.05,0,0,1-9.91,2.23,95,95,0,0,1-11.69.66l-23.78.36c-3.86.06-8.14.65-12,.14-2.93-.39-5.25-1.12-8.33-1.09a79.31,79.31,0,0,1-12.49-1,8.78,8.78,0,0,1-3.49-1c-3.52-2.2-.73-11.56.2-14.79a5.31,5.31,0,0,1,1.55-2.84,5.46,5.46,0,0,1,2.6-.89c6.58,0,13.54-1.35,20.14-1.86q10.7-.82,21.38-1.8c6-.54,12-1.8,18-1.8l2.47-.29c11.58-1.37,28.37-1,35.48-12.44a22.25,22.25,0,0,0,2.37-5.85,60.67,60.67,0,0,0,1.69-23.19c-.38-3.4-1.19-6.74-1.46-10.14-.72-9.32,2.67-18.41,6-27.14,2.55-6.68,4.81-13.52,7.59-20.1A71.16,71.16,0,0,1,189.58,206.94Z" style="fill:#20b24b"/><text transform="translate(83.55 317.09)" style="font-size:14px;fill:#231f20;font-family:SansSerif, SansSerif">[[jeeves]]</text></g><g id="giovanni"><text transform="translate(83.55 218.88)" style="font-size:14px;fill:#231f20;font-family:SansSerif, SansSerif">[[giovanni]]</text><path d="M71.91,256.53c-2.11.53-4.77,1-6.09-.76a5.21,5.21,0,0,1-.81-2.28,54.81,54.81,0,0,1-.3-16.62,33.59,33.59,0,0,1,3.46-10.78,2.12,2.12,0,0,1,.72-.92,2.18,2.18,0,0,1,1.59,0,133,133,0,0,0,18.13,2.58l38.48,3.67c12.08,1.14,23.74,2.72,35.9,1,2.16-.3,4.44-.64,6.15-2a8.21,8.21,0,0,0,2.7-4.73,24.35,24.35,0,0,0,.36-5.53c-.09-8-.63-15.88-1.28-23.83a2,2,0,0,1,.36-1.66,2.08,2.08,0,0,1,.83-.37c3.37-.87,6.74-1.23,10.08-2.15,3.53-1,7.7-1.12,10.14,2.06,1.95,2.53,2.25,6,1.62,9.15a42.77,42.77,0,0,1-3.4,8.93,106.88,106.88,0,0,0-7.42,23.09c-1.44,7.16-.6,14.14-3.28,21.23-1.76,4.62-4.79,8.94-9.15,11.27a2.69,2.69,0,0,1-1.95.4,3.08,3.08,0,0,1-1.43-1.36,16.39,16.39,0,0,0-12.5-7.31c-6.16-.27-12.67-1.8-18.83-2.66-13.59-1.88-27.28-3.7-41-3.39A103.44,103.44,0,0,0,71.91,256.53Z" style="fill:#602670"/></g><g id="bertrand"><text transform="translate(102.31 138.8)" style="font-size:14px;fill:#231f20;font-family:SansSerif, SansSerif">[[bertrand]]</text><path d="M75.55,142.63l16.81,1c5.38.32,11.06,1.21,16.43.88,10.45-.62,21,.88,31.54-.2,5.45-.55,11-.94,16.26-2.55,3.9-1.19,10.32-3.77,10.86-8.53a6.38,6.38,0,0,1,.43-2.48,2.4,2.4,0,0,1,2.14-1.13,3.76,3.76,0,0,1,2.3,1c1.71,1.44,2.33,3.75,3.12,5.84,3.53,9.31,12.82,15.45,19,23a22.86,22.86,0,0,1,3.86,6.08c1.07,2.76,1.16,5.8,1.24,8.76.15,6.21.29,12.54-1.55,18.46a5.95,5.95,0,0,1-5.63,4.85,58.78,58.78,0,0,1-12.3.62c-2.66-.05-5.57-.2-7.53-2s-2.28-4.31-2.59-6.76c-.47-3.76-.8-7.58-2-11.17s-3.43-7-6.79-8.8c-3.1-1.64-6.78-1.69-10.29-1.7l-14-.06c-21.47-.08-43.06-.15-64.25,3.26a6.72,6.72,0,0,1-2.75.05,5.81,5.81,0,0,1-2.83-2.3,27.57,27.57,0,0,1-5.53-16.59,10.68,10.68,0,0,1,1.29-5.63C65.22,142.52,70.86,142.35,75.55,142.63Z" style="fill:#94a33a"/></g><g id="fennec"><text transform="translate(120.34 59.29)" style="font-size:14px;fill:#231f20;font-family:SansSerif, SansSerif">[[fennec]]</text><path d="M89.41,67.52c1.22-1.68,3.13-3.8,5.33-4.08,4-.52,8.73.13,12.82.15,4.56,0,9.13.11,13.69.27q13.69.51,27.32,1.91c7.89.81,15.82,1.87,23.34,4.4,7,2.35,14.05,6.55,16.55,13.48,1.22,3.37,1.21,7,1.54,10.62.52,5.62,1.88,11.13,2.54,16.73,1.06,9,.31,18.06.37,27.09.07,9.39,2.24,17.37,5.73,26.06a5.62,5.62,0,0,1,.61,2.93,4.27,4.27,0,0,1-1.73,2.51,1.63,1.63,0,0,1-.52.31c-.85.26-1.52-.69-1.91-1.48a41.17,41.17,0,0,0-5.43-8.91c-1.73-2-4.09-3.33-5.94-5.25-4.66-4.83-10.32-9.06-13.44-15.15-2.75-5.38-3.14-11.62-3.54-17.65-.21-3.26-.46-6.61-1.82-9.58a22.68,22.68,0,0,0-5.18-6.72,52.08,52.08,0,0,0-10.12-7.75c-8.85-5.09-19.22-6.87-29.41-7.52s-20.45-.26-30.59-1.42C88,88.28,86.17,88,85,86.83c-2.2-2.11-1.38-5.74-.4-8.63C85.81,74.48,87.11,70.7,89.41,67.52Z" style="fill:#4457a6"/></g><g id="alice"><path d="M255.76,180.14a3.21,3.21,0,0,1,2.19,1,3.35,3.35,0,0,1,.43,1.47q1.37,11.51,1.83,23.1a5,5,0,0,1-.19,2c-.55,1.48-2.34,2.09-3.92,2.18-3.11.17-6.14-.94-9.23-1.29a38.19,38.19,0,0,0-7.25.11l-20.76,1.62c-4.69.37-9.44.75-13.92,2.19s-8.75,4.06-11.26,8.05a289.65,289.65,0,0,1-.61-53.41c.1-1.23.48-2.77,1.69-3,.94-.16,1.75.6,2.4,1.29,5.64,6,12.67,10.92,20.7,12.53a57.47,57.47,0,0,0,11.73.75C238.6,178.7,246.84,178.59,255.76,180.14Z" style="fill:#a2d9f2"/><text transform="translate(212.56 169.94)" style="font-size:14px;fill:#231f20;font-family:SansSerif, SansSerif">[[alice]]</text></g><g id="dallas"><path d="M436.91,205.27a6.1,6.1,0,0,0-2.45-2.18c-2.27-.88-4.78,1.22-5.33,3.59s.24,4.81.92,7.14c8.72,30-.41,61.75,6.36,92.05a43.29,43.29,0,0,0,5.51,13.27c2.6,4.22,5.35,6.11,9.65,8.63l16.35,9.6a68.33,68.33,0,0,0,6.24,3.38,56.92,56.92,0,0,0,8,2.79,73.49,73.49,0,0,0,9.91,2.23,95,95,0,0,0,11.69.66l23.78.36c3.86.06,8.14.65,12,.14,2.93-.39,5.24-1.12,8.33-1.09a80.51,80.51,0,0,0,12.49-1,9,9,0,0,0,3.49-1c3.51-2.2.73-11.56-.2-14.79a5.31,5.31,0,0,0-1.55-2.84,5.46,5.46,0,0,0-2.6-.89c-6.58,0-13.54-1.34-20.14-1.86q-10.7-.82-21.38-1.8c-6-.54-12.05-1.8-18-1.8l-2.47-.29c-11.58-1.37-28.37-1-35.48-12.44a22.25,22.25,0,0,1-2.37-5.85A60.67,60.67,0,0,1,457.94,278c.38-3.39,1.19-6.73,1.45-10.14.72-9.32-2.66-18.41-6-27.14-2.55-6.68-4.81-13.52-7.59-20.1A71.16,71.16,0,0,0,436.91,205.27Z" style="fill:#20b24b"/><text transform="translate(490.45 313.82)" style="font-size:14px;fill:#231f20;font-family:SansSerif, SansSerif">[[dallas]]</text></g><g id="henry"><path d="M554.58,254.86c2.11.54,4.77,1,6.09-.75a5.2,5.2,0,0,0,.81-2.29,54.8,54.8,0,0,0,.3-16.62,33.44,33.44,0,0,0-3.47-10.78,2,2,0,0,0-.71-.92,2.18,2.18,0,0,0-1.59,0,133,133,0,0,1-18.13,2.58l-38.48,3.67c-12.08,1.15-23.74,2.72-35.9,1.05-2.16-.29-4.44-.64-6.15-2a8.16,8.16,0,0,1-2.7-4.73,24.35,24.35,0,0,1-.36-5.53c.08-8,.63-15.88,1.28-23.83a1.47,1.47,0,0,0-1.19-2c-3.37-.87-6.74-1.23-10.08-2.15-3.53-1-7.7-1.12-10.14,2.06-2,2.54-2.25,6-1.62,9.15a42.77,42.77,0,0,0,3.4,8.93,107.23,107.23,0,0,1,7.42,23.09c1.44,7.17.6,14.15,3.28,21.23,1.76,4.62,4.78,9,9.15,11.27a2.64,2.64,0,0,0,1.95.4,3.08,3.08,0,0,0,1.43-1.36,16.39,16.39,0,0,1,12.5-7.31c6.16-.26,12.67-1.8,18.83-2.65,13.59-1.89,27.28-3.71,41-3.4A104,104,0,0,1,554.58,254.86Z" style="fill:#602670"/><text transform="translate(480.05 222.37)" style="font-size:14px;fill:#231f20;font-family:SansSerif, SansSerif">[[henry]]</text></g><g id="ionesco"><path d="M550.94,141l-16.81,1c-5.38.32-11.06,1.21-16.43.89-10.45-.63-21,.87-31.54-.2-5.45-.56-11-.95-16.26-2.56-3.9-1.19-10.32-3.76-10.87-8.53a6.2,6.2,0,0,0-.42-2.48,2.4,2.4,0,0,0-2.14-1.12,3.73,3.73,0,0,0-2.3.95c-1.71,1.44-2.33,3.76-3.12,5.85-3.53,9.3-12.82,15.44-19,23a23.54,23.54,0,0,0-3.86,6.08,26.37,26.37,0,0,0-1.23,8.77c-.15,6.2-.29,12.53,1.55,18.46a7.39,7.39,0,0,0,1.55,3,7.49,7.49,0,0,0,4.08,1.83,59.44,59.44,0,0,0,12.3.63c2.66-.05,5.57-.2,7.53-2s2.28-4.31,2.59-6.75c.47-3.77.8-7.59,2-11.18s3.43-7,6.78-8.79c3.11-1.65,6.79-1.7,10.3-1.71l14-.05c21.47-.08,43.05-.16,64.25,3.25a6.55,6.55,0,0,0,2.75.05,5.69,5.69,0,0,0,2.82-2.3A27.5,27.5,0,0,0,565,150.47a10.7,10.7,0,0,0-1.29-5.63C561.27,140.86,555.63,140.68,550.94,141Z" style="fill:#94a33a"/><text transform="translate(490.45 135.93)" style="font-size:14px;fill:#231f20;font-family:SansSerif, SansSerif">[[ionesco]]</text></g><g id="ceci"><path d="M537.08,65.85c-1.22-1.68-3.14-3.8-5.33-4.08-4-.52-8.73.14-12.82.15q-6.85,0-13.69.27-13.69.51-27.32,1.91c-7.89.82-15.82,1.87-23.34,4.4-7,2.36-14.05,6.55-16.55,13.48-1.22,3.38-1.22,7-1.54,10.62-.52,5.62-1.89,11.13-2.55,16.74-1.06,9-.3,18.06-.36,27.08-.07,9.39-2.24,17.37-5.73,26.06a5.62,5.62,0,0,0-.61,2.93,4.24,4.24,0,0,0,1.73,2.51,1.63,1.63,0,0,0,.52.31c.84.26,1.52-.69,1.91-1.48a41.17,41.17,0,0,1,5.43-8.91c1.73-2,4.09-3.32,5.94-5.24,4.66-4.84,10.32-9.07,13.44-15.16,2.75-5.38,3.14-11.62,3.54-17.65.21-3.26.46-6.6,1.82-9.58a22.81,22.81,0,0,1,5.18-6.72,52.47,52.47,0,0,1,10.12-7.75c8.85-5.09,19.22-6.87,29.41-7.52s20.45-.26,30.59-1.42c1.67-.19,3.45-.48,4.67-1.64,2.2-2.11,1.38-5.74.4-8.63C540.68,72.81,539.38,69,537.08,65.85Z" style="fill:#4457a6"/><text transform="translate(468.73 57.24)" style="font-size:14px;fill:#231f20;font-family:SansSerif, SansSerif">[[ceci]]</text></g><g id="eloise"><path d="M396.9,177.06a58.23,58.23,0,0,0,11.73-.74c8-1.62,15.06-6.59,20.7-12.54.65-.68,1.46-1.45,2.4-1.29,1.21.22,1.58,1.75,1.69,3a289.56,289.56,0,0,1-.61,53.4c-2.51-4-6.78-6.61-11.26-8s-9.23-1.82-13.92-2.18L386.87,207a38.2,38.2,0,0,0-7.25-.11c-3.09.35-6.12,1.46-9.23,1.29-1.58-.08-3.37-.69-3.92-2.18a4.79,4.79,0,0,1-.19-2q.47-11.58,1.83-23.09a2.41,2.41,0,0,1,2.62-2.5C379.65,176.92,387.89,177,396.9,177.06Z" style="fill:#a2d9f2"/><text transform="translate(381.43 168.28)" style="font-size:14px;fill:#231f20;font-family:SansSerif, SansSerif">[[eloise]]</text></g><g id="Layer_1" data-name="Layer 1"><path d="M371.61,178.32C387.5,174,406.25,181.16,420,172c7-4.67,11.05-12.84,12.72-21.1s1.29-16.77,1.28-25.2a281.69,281.69,0,0,1,1.68-31c.69-6.2,1.7-12.67,5.49-17.62,5-6.58,13.77-8.94,21.91-10.53a287.79,287.79,0,0,1,75.65-4.64" style="fill:none;stroke:#231f20;stroke-miterlimit:10;stroke-width:3px"/><path d="M372.31,208.15a211.39,211.39,0,0,1,41.1.28c4.79.49,9.83,1.27,13.54,4.33,5.85,4.82,6.41,13.42,6.5,21q.32,26.5.65,53c.14,11.56.58,24,7.64,33.18,3.1,4,7.27,7.08,11.59,9.75,17.26,10.67,37.53,15.78,57.78,17.17s40.56-.8,60.61-3.86" style="fill:none;stroke:#231f20;stroke-miterlimit:10;stroke-width:3px"/><path d="M552.21,85.9a348.88,348.88,0,0,0-55,4c-13.91,2.15-29.57,6.53-35.68,19.21-3,6.17-3.08,13.31-2.79,20.16a12.67,12.67,0,0,0,1,5.15c1.3,2.56,4.11,3.94,6.8,4.94,15.34,5.71,32.25,4.61,48.57,3.44l52.46-3.77" style="fill:none;stroke:#231f20;stroke-miterlimit:10;stroke-width:3px"/><path d="M558.64,169.37c-12.76-1.22-25.59-2.16-38.36-2.6-11.92-.41-24,1.77-36,.43-4.12-.46-8.24-1.25-12.38-.94s-8.41,1.91-10.82,5.29a19.17,19.17,0,0,0-2.69,7.16,148.17,148.17,0,0,0-2.77,45.48,7.41,7.41,0,0,0,1.17,4c1.12,1.43,3.07,1.86,4.86,2.15,19.44,3.19,36.65-1.91,55.57-2.45a312.18,312.18,0,0,0,43.89-4.35" style="fill:none;stroke:#231f20;stroke-miterlimit:10;stroke-width:3px"/><path d="M562.05,257.17c-12-2.7-26.32-5.87-38.57-5.55-16.09.43-32.63,3.74-48.64,5.57-6.15.7-13.33,2.11-16,7.7-1.16,2.47-1.18,5.3-1.16,8,0,11.47-2.93,26.08,4.71,35.69,6.26,7.87,17.26,9.78,27.25,10.93q32.73,3.78,65.69,4.77c4.78.14,10,.11,13.77-2.82" style="fill:none;stroke:#231f20;stroke-miterlimit:10;stroke-width:3px"/><text transform="translate(576.41 82.3)" style="font-size:22.13295555114746px;fill:#231f20;font-family:MyriadPro-Regular, Myriad Pro">3</text><text transform="translate(576.41 163.71)" style="font-size:22.13295555114746px;fill:#231f20;font-family:MyriadPro-Regular, Myriad Pro">2</text><text transform="translate(576.41 245.72)" style="font-size:22.13295555114746px;fill:#231f20;font-family:MyriadPro-Regular, Myriad Pro">1</text><text transform="translate(576.41 337.42)" style="font-size:22.13295555114746px;fill:#231f20;font-family:MyriadPro-Regular, Myriad Pro">B</text><path d="M254.53,123.39,254.1,294.3A18,18,0,0,0,255,301a15.05,15.05,0,0,0,4.26,5.43c11.73,10.36,27.92,13.77,43.41,16,23,3.33,48.38,4.39,67.32-9.05a9.6,9.6,0,0,0,3.52-3.75,10.52,10.52,0,0,0,.51-4.51q-3-90.85-.19-181.78" style="fill:#dfe5c3"/><path d="M372,167.53c.09-11.95,2.25-23.71,1.47-35.69-3.61,2.81-6,6.75-9.73,9.56A34.78,34.78,0,0,1,352,147.19c-4.16,1.12-9,1.7-11.57,5.13-1.7,2.22-2.05,5.17-2.25,8-1.46,20.19,1.64,40.4,2,60.63s-2.33,41.47-14,58c-13.29,18.95-38.69,29.19-61,22.89a9.47,9.47,0,0,0-4.09-.59c-1.37.24-2.7,1.39-2.59,2.77a3.64,3.64,0,0,0,.71,1.68c4,5.86,12.67,9.9,19.24,11.73a80,80,0,0,0,10.42,1.95c17.74,2.45,37.87,6.66,55.74,4.31,9.53-1.25,17.93-5.87,25.66-11.46a9.64,9.64,0,0,0,2.6-2.49c1.16-1.83,1-4.16.85-6.32-2.41-31.54-2.41-63.4-2.16-94.92Z" style="fill:#c1ce76"/><path d="M255.53,123.39,255.1,294.3A18,18,0,0,0,256,301a15.05,15.05,0,0,0,4.26,5.43c11.73,10.36,27.92,13.77,43.41,16,23,3.33,48.38,4.39,67.32-9.05a9.6,9.6,0,0,0,3.52-3.75,10.52,10.52,0,0,0,.51-4.51q-3-90.85-.19-181.78" style="fill:none;stroke:#231f20;stroke-miterlimit:10;stroke-width:3px"/><path d="M281.63,229.1a45.71,45.71,0,0,0,10.4,8.17,76.68,76.68,0,0,0,.73-29c4.18,4.59,10.77,9.53,15.86,6,2-1.4,3-3.79,3.88-6.09a89,89,0,0,0,5.36-33.63,53.63,53.63,0,0,1,10.74,46.31,27.42,27.42,0,0,0,12.06-16.66,32.59,32.59,0,0,0,11.17,24.37,14,14,0,0,1,3.29,3.4,10.82,10.82,0,0,1,1.06,3.84c1.77,12.44,1.25,26.1-6.21,36.22C324.34,306.8,270.6,264.56,281.63,229.1Z" style="fill:#f79326;stroke:#231f20;stroke-miterlimit:10;stroke-width:2px"/><path d="M352.62,181a21.54,21.54,0,0,0-2,19.25,12.57,12.57,0,0,0-.46-22" style="fill:#f79326;stroke:#231f20;stroke-miterlimit:10;stroke-width:2px"/><path d="M270.13,107.41c-7.52,2.54-13.76,6.13-15.07,14.78-2.89,19.06,23.11,23.88,36.87,25.64,16.16,2.08,32.57,2.77,48.74.85,8.91-1.05,18.06-3.05,25.18-8.52s11.6-15.19,8.59-23.64c-4.28-12.06-21.26-12.21-32.09-13C319.2,102,292.41,99.88,270.13,107.41Z" style="fill:#ebeed9;stroke:#231f20;stroke-miterlimit:10;stroke-width:3px"/><path d="M254.83,180.35c-15.89-4.31-34.64,2.85-48.34-6.28-7-4.67-11-12.84-12.72-21.1s-1.29-16.77-1.28-25.2a279.52,279.52,0,0,0-1.68-31c-.68-6.19-1.69-12.67-5.49-17.62-5-6.58-13.77-8.93-21.9-10.53A287.86,287.86,0,0,0,87.76,64" style="fill:none;stroke:#231f20;stroke-miterlimit:10;stroke-width:3px"/><path d="M254.13,210.18a212.18,212.18,0,0,0-41.1.28c-4.79.5-9.83,1.27-13.54,4.33-5.85,4.82-6.4,13.42-6.5,21q-.31,26.5-.64,53c-.15,11.56-.59,24-7.65,33.18-3.1,4-7.27,7.08-11.59,9.75-17.26,10.67-37.53,15.78-57.77,17.17s-40.56-.8-60.62-3.86" style="fill:none;stroke:#231f20;stroke-miterlimit:10;stroke-width:3px"/><path d="M74.23,87.94a347.69,347.69,0,0,1,55,4c13.92,2.14,29.57,6.52,35.68,19.2,3,6.18,3.08,13.31,2.79,20.16a12.47,12.47,0,0,1-1,5.15c-1.29,2.56-4.1,3.94-6.8,4.95-15.33,5.7-32.25,4.6-48.57,3.43l-52.46-3.77" style="fill:none;stroke:#231f20;stroke-miterlimit:10;stroke-width:3px"/><path d="M67.8,171.4c12.76-1.22,25.59-2.15,38.37-2.6,11.91-.41,24,1.77,36,.43,4.12-.46,8.25-1.25,12.38-.94s8.41,1.91,10.82,5.29a19.21,19.21,0,0,1,2.69,7.17,148.16,148.16,0,0,1,2.77,45.48,7.38,7.38,0,0,1-1.17,4c-1.12,1.43-3.06,1.86-4.86,2.16-19.43,3.18-36.64-1.92-55.57-2.46a312,312,0,0,1-43.88-4.35" style="fill:none;stroke:#231f20;stroke-miterlimit:10;stroke-width:3px"/><path d="M64.39,259.2c12-2.7,26.32-5.87,38.58-5.55,16.09.43,32.63,3.74,48.63,5.57,6.15.71,13.33,2.11,16,7.7,1.17,2.47,1.18,5.3,1.17,8-.05,11.47,2.93,26.08-4.72,35.69-6.26,7.87-17.26,9.78-27.25,10.93q-32.73,3.78-65.69,4.77c-4.78.14-10,.11-13.77-2.82" style="fill:none;stroke:#231f20;stroke-miterlimit:10;stroke-width:3px"/><text transform="translate(37.02 81.72)" style="font-size:22.13295555114746px;fill:#231f20;font-family:MyriadPro-Regular, Myriad Pro">3</text><text transform="translate(37.02 166.14)" style="font-size:22.13295555114746px;fill:#231f20;font-family:MyriadPro-Regular, Myriad Pro">2</text><text transform="translate(37.02 249.15)" style="font-size:22.13295555114746px;fill:#231f20;font-family:MyriadPro-Regular, Myriad Pro">1</text><text transform="translate(37.02 340.84)" style="font-size:22.13295555114746px;fill:#231f20;font-family:MyriadPro-Regular, Myriad Pro">B</text><polygon points="264 361.67 264 345.42 347.06 345.42 347.06 334.38 372.67 355.14 347.06 374.33 347.06 362.33 264 361.67" style="fill:#231f20"/><path d="M269.43,154.93c-1.24-.21-2.74-.32-3.54.65a3.67,3.67,0,0,0-.64,1.86c-4.28,29.79-1.17,60.08-1.4,90.17,0,4.15-.09,8.45,1.55,12.26,3.4-2.69,4.22-7.44,4.7-11.76,2.68-24,2.83-49.33,14.8-70.3A47.31,47.31,0,0,0,289,170C293.36,157.06,278.05,156.43,269.43,154.93Z" style="fill:#ebeed9"/><rect width="612" height="382.33" style="fill:none"/></g></svg>