<svg id="Layer_1" data-name="Layer 1" xmlns="http://www.w3.org/2000/svg" width="587.52" height="443.84" viewBox="0 0 587.52 443.84"><title>diagram</title><g id="bg"><rect x="315.85" y="11.94" width="271.17" height="140" style="fill:none;stroke:#939598;stroke-miterlimit:10"/></g><g id="jeeves"><path d="M258.22,322.06a5,5,0,0,1,2-1.78c1.86-.71,3.91,1,4.36,2.94s-.2,3.93-.76,5.83c-7.12,24.51.34,50.46-5.19,75.21a35.57,35.57,0,0,1-4.5,10.84c-2.13,3.45-4.38,5-7.89,7L232.88,430a54.48,54.48,0,0,1-5.1,2.76,47.36,47.36,0,0,1-6.54,2.29,63.91,63.91,0,0,1-8.09,1.82,76.28,76.28,0,0,1-9.56.54l-19.42.28c-3.16.05-6.65.54-9.81.13-2.39-.32-4.29-.93-6.8-.89a65.9,65.9,0,0,1-10.21-.82,7.19,7.19,0,0,1-2.85-.82c-2.87-1.79-.59-9.44.17-12.09a4.36,4.36,0,0,1,1.26-2.32,4.52,4.52,0,0,1,2.13-.73c5.37,0,11.06-1.09,16.45-1.51q8.75-.64,17.47-1.47c4.9-.44,9.8-1.47,14.7-1.47l2-.24c9.46-1.11,23.18-.81,29-10.17a17.83,17.83,0,0,0,1.93-4.77A49.45,49.45,0,0,0,241,381.56c-.31-2.77-1-5.5-1.19-8.29-.59-7.6,2.18-15,4.9-22.16,2.09-5.46,3.93-11.05,6.21-16.42A57.83,57.83,0,0,1,258.22,322.06Z" transform="translate(-25.82 -11.89)" style="fill:#20b24b"/><text transform="translate(145.78 400.17)" style="isolation:isolate;font-size:13px;fill:#231f20;font-family:SansSerif, SansSerif">[[jeeves]]</text></g><g id="giovanni"><text transform="translate(145.78 319.93)" style="isolation:isolate;font-size:13px;fill:#231f20;font-family:SansSerif, SansSerif">[[giovanni]]</text><path d="M162.08,362.59c-1.72.43-3.89.81-5-.62a4.16,4.16,0,0,1-.66-1.87,44.5,44.5,0,0,1-.25-13.58,27.57,27.57,0,0,1,2.83-8.8,1.67,1.67,0,0,1,.59-.75,1.72,1.72,0,0,1,1.3,0,108.64,108.64,0,0,0,14.81,2.1q15.71,1.51,31.44,3c9.86.94,19.39,2.23,29.33.87a10.08,10.08,0,0,0,5-1.64,6.76,6.76,0,0,0,2.21-3.86,20.8,20.8,0,0,0,.29-4.53c-.07-6.53-.52-13-1.05-19.46a1.63,1.63,0,0,1,.3-1.35,1.56,1.56,0,0,1,.68-.31c2.75-.71,5.5-1,8.23-1.75,2.89-.82,6.29-.92,8.29,1.68a9.32,9.32,0,0,1,1.32,7.48,35.35,35.35,0,0,1-2.78,7.29A87.36,87.36,0,0,0,253,345.35c-1.18,5.86-.49,11.56-2.68,17.35-1.44,3.78-3.91,7.3-7.48,9.2a2.12,2.12,0,0,1-1.59.34,2.49,2.49,0,0,1-1.17-1.12,13.38,13.38,0,0,0-10.21-6c-5-.22-10.35-1.48-15.38-2.17-11.11-1.55-22.29-3-33.5-2.78A85,85,0,0,0,162.08,362.59Z" transform="translate(-25.82 -11.89)" style="fill:#602670"/></g><g id="bertrand"><text transform="translate(161.1 254.51)" style="isolation:isolate;font-size:13px;fill:#231f20;font-family:SansSerif, SansSerif">[[bertrand]]</text><path d="M165.06,269.52l13.73.82c4.4.26,9,1,13.42.73,8.54-.51,17.16.72,25.77-.17,4.45-.45,9-.81,13.29-2.08,3.18-1,8.43-3.08,8.87-7a5.23,5.23,0,0,1,.35-2,2,2,0,0,1,1.73-.91,3.07,3.07,0,0,1,1.88.82c1.4,1.17,1.9,3.06,2.55,4.77,2.88,7.6,10.47,12.61,15.52,18.79a18.84,18.84,0,0,1,3.16,5,21.07,21.07,0,0,1,1,7.18c.13,5.07.24,10.24-1.26,15.08a4.85,4.85,0,0,1-4.6,4,48.27,48.27,0,0,1-10,.51c-2.17,0-4.55-.16-6.15-1.63s-1.87-3.52-2.12-5.53a46.85,46.85,0,0,0-1.63-9.13,12.38,12.38,0,0,0-5.55-7.18c-2.53-1.34-5.54-1.38-8.41-1.4l-13.47,1c-17.54-.07-33.15-1.12-50.46,1.63a5.13,5.13,0,0,1-2.24,0,4.66,4.66,0,0,1-2.31-1.89,22.51,22.51,0,0,1-4.52-13.55,8.69,8.69,0,0,1,1.06-4.6C156.62,269.44,161.23,269.29,165.06,269.52Z" transform="translate(-25.82 -11.89)" style="fill:#94a33a"/></g><g id="fennec"><text transform="translate(175.83 189.54)" style="isolation:isolate;font-size:13px;fill:#231f20;font-family:SansSerif, SansSerif">[[fennec]]</text><path d="M176.38,208.16c1-1.37,2.56-3.11,4.36-3.33,3.26-.42,7.13.11,10.47.13q5.58,0,11.18.22,11.19.4,22.32,1.56c6.45.66,12.93,1.52,19.07,3.59,5.72,1.92,11.48,5.35,13.52,11,1,2.76,1,5.72,1.26,8.67.43,4.59,1.54,9.1,2.08,13.68.86,7.35.25,14.75.3,22.13.06,7.67,1.83,14.19,4.68,21.29a4.61,4.61,0,0,1,.5,2.39,3.55,3.55,0,0,1-1.41,2.06,1.67,1.67,0,0,1-.43.25c-.69.21-1.24-.56-1.56-1.21a33.08,33.08,0,0,0-4.44-7.28c-1.41-1.63-3.34-2.72-4.85-4.29-3.81-3.95-8.43-7.4-11-12.37-2.25-4.41-2.56-9.5-2.89-14.42a22,22,0,0,0-1.49-7.83,18.61,18.61,0,0,0-4.23-5.5,42.65,42.65,0,0,0-8.27-6.32c-7.23-4.16-15.7-5.62-24-6.15s-16.7-.21-25-1.17a6.35,6.35,0,0,1-3.81-1.33c-1.8-1.72-1.13-4.69-.33-7.06A32.19,32.19,0,0,1,176.38,208.16Z" transform="translate(-25.82 -11.89)" style="fill:#4457a6"/></g><g id="alice"><path d="M312.29,300.18a2.64,2.64,0,0,1,1.79.81,3.06,3.06,0,0,1,.35,1.21q1.11,9.41,1.49,18.87a4.08,4.08,0,0,1-.15,1.63c-.45,1.21-1.91,1.71-3.2,1.78-2.55.13-5-.77-7.55-1.05a31.65,31.65,0,0,0-5.92.08l-17,1.33a50,50,0,0,0-11.37,1.78,16.9,16.9,0,0,0-9.2,6.54,236.4,236.4,0,0,1-.5-43.63c.08-1,.39-2.26,1.38-2.45.77-.13,1.43.49,2,1.05,4.61,4.86,10.35,8.92,16.91,10.24a46.68,46.68,0,0,0,9.59.61C298.27,299,305,298.9,312.29,300.18Z" transform="translate(-25.82 -11.89)" style="fill:#a2d9f2"/><text transform="translate(247.18 277.95)" style="isolation:isolate;font-size:13px;fill:#231f20;font-family:SansSerif, SansSerif">[[alice]]</text></g><g id="dallas"><path d="M460.29,320.71a5,5,0,0,0-2-1.79c-1.85-.71-3.9,1-4.35,2.93s.2,3.93.75,5.84c7.13,24.51-.33,50.45,5.2,75.21a35.57,35.57,0,0,0,4.5,10.84c2.12,3.45,4.37,5,7.88,7.05l13.36,7.84a54.48,54.48,0,0,0,5.1,2.76,47.19,47.19,0,0,0,6.53,2.28,62.4,62.4,0,0,0,8.1,1.83,78.16,78.16,0,0,0,9.55.53l19.43.3c3.15,0,6.65.53,9.8.11,2.4-.32,4.29-.91,6.81-.89a65.66,65.66,0,0,0,10.2-.81,7.53,7.53,0,0,0,2.86-.82c2.86-1.8.59-9.45-.17-12.08a4.39,4.39,0,0,0-1.26-2.33,4.52,4.52,0,0,0-2.13-.73c-5.37,0-11.06-1.1-16.45-1.51q-8.75-.67-17.47-1.47c-4.9-.44-9.85-1.47-14.71-1.47l-2-.24c-9.46-1.12-23.18-.82-29-10.16a18.54,18.54,0,0,1-1.94-4.78,49.45,49.45,0,0,1-1.35-18.95c.31-2.78,1-5.51,1.18-8.28.59-7.62-2.17-15-4.9-22.18-2.08-5.45-3.93-11-6.2-16.42A58.54,58.54,0,0,0,460.29,320.71Z" transform="translate(-25.82 -11.89)" style="fill:#20b24b"/><text transform="translate(478.21 397.5)" style="isolation:isolate;font-size:13px;fill:#231f20;font-family:SansSerif, SansSerif">[[dallas]]</text></g><g id="henry"><path d="M556.42,361.22c1.73.44,3.9.82,5-.62a4.29,4.29,0,0,0,.66-1.86,44.81,44.81,0,0,0,.24-13.58,27.14,27.14,0,0,0-2.83-8.81,1.72,1.72,0,0,0-.58-.75,1.82,1.82,0,0,0-1.3,0,107.12,107.12,0,0,1-14.81,2.11l-31.44,3c-9.87.93-19.4,2.22-29.33.86a10.13,10.13,0,0,1-5-1.63,6.68,6.68,0,0,1-2.21-3.87,19.62,19.62,0,0,1-.29-4.53c.06-6.49.51-13,1-19.46a1.63,1.63,0,0,0-.29-1.35,1.73,1.73,0,0,0-.68-.3c-2.75-.72-5.51-1-8.24-1.76s-6.29-.92-8.28,1.68a9.13,9.13,0,0,0-1.32,7.48,35.31,35.31,0,0,0,2.77,7.29A87.47,87.47,0,0,1,465.56,344c1.17,5.85.49,11.55,2.68,17.34,1.43,3.78,3.9,7.31,7.47,9.2a2.14,2.14,0,0,0,1.59.34,2.43,2.43,0,0,0,1.17-1.11,13.4,13.4,0,0,1,10.21-6c5-.22,10.36-1.47,15.39-2.17,11.1-1.54,22.29-3,33.5-2.77A84.94,84.94,0,0,1,556.42,361.22Z" transform="translate(-25.82 -11.89)" style="fill:#602670"/><text transform="translate(469.71 322.78)" style="isolation:isolate;font-size:13px;fill:#231f20;font-family:SansSerif, SansSerif">[[henry]]</text></g><g id="ionesco"><path d="M553.45,268.17l-13.74.81c-4.39.27-9,1-13.42.73-8.54-.51-17.16.72-25.77-.16-4.45-.45-9-.77-13.28-2.09-3.19-1-8.43-3.08-8.88-7a5.07,5.07,0,0,0-.35-2,2,2,0,0,0-1.74-.91,3,3,0,0,0-1.88.81c-1.4,1.18-1.91,3.07-2.55,4.77-2.89,7.61-10.48,12.62-15.52,18.79a19.43,19.43,0,0,0-3.16,5,21.27,21.27,0,0,0-1,7.17c-.13,5.06-.24,10.24,1.26,15.08a4.86,4.86,0,0,0,4.6,4,46.94,46.94,0,0,0,10.05.51c2.18,0,4.55-.16,6.15-1.63s1.87-3.53,2.12-5.53a46.62,46.62,0,0,1,1.63-9.12,12.45,12.45,0,0,1,5.54-7.19c2.54-1.34,5.55-1.38,8.42-1.4h11.44c17.54-.06,35.17-.12,52.49,2.66a5.46,5.46,0,0,0,2.24,0,4.77,4.77,0,0,0,2.31-1.87,22.54,22.54,0,0,0,4.52-13.62,8.57,8.57,0,0,0-1-4.6C561.89,268.08,557.28,267.94,553.45,268.17Z" transform="translate(-25.82 -11.89)" style="fill:#94a33a"/><text transform="translate(476.21 252.16)" style="isolation:isolate;font-size:13px;fill:#231f20;font-family:SansSerif, SansSerif">[[ionesco]]</text></g><g id="luigi"><path d="M385.12,41c-4-2.37-8.51-4.38-13.2-4.3s-9.59,2.75-11,7.21a25.23,25.23,0,0,1-.85,2.81c-1.44,3.21-6,5.86-8.42,8.51a13.18,13.18,0,0,0-2.9,4.39,9.3,9.3,0,0,0-.43,3c.08,5,3.28,9.56,7.6,12a19.81,19.81,0,0,0,11,2.2c.63,0,7.8-.3,7.71-.55,2.34,6.52,10.37,10.79,16.95,11a26,26,0,0,0,13.28-3.71c3-1.67,6.13-5.47,9.22-6.55,2.53-.88,5,1.66,8,1.31,4-.61,8.66-2.38,10.83-5.84a16.17,16.17,0,0,0,1.42-13.17c-1.36-3.69-4.2-8-7.66-9.92-1.61-.92-1.31-2.45-2.11-3.75a9.56,9.56,0,0,0-3.23-2.83,37.57,37.57,0,0,0-8.88-3.76,38.76,38.76,0,0,0-14.12-1.64,37,37,0,0,0-7,1.19C390.44,38.86,385.58,41.24,385.12,41Z" transform="translate(-25.82 -11.89)" style="fill:#31c5f4"/><text transform="translate(346.31 93.04)" style="isolation:isolate;font-size:14px;fill:#231f20;font-family:SansSerif, SansSerif">[[luigi]]</text></g><g id="karnov"><path d="M593.46,93.71c-.77-4.06-2-8-2.93-12-.76-3.31-.91-5.51-3-8.31a26,26,0,0,0-16.26-10.07,54.6,54.6,0,0,0-9-.31,172.29,172.29,0,0,1-20.56-1c-6.2-.65-12.42-.52-18.68-.85l-20.7-1.05c-13.69-.72-27.39-1.29-41.07-2.15-3.87-.2-8.21-.24-11,2.43-3.58,3.38-5.64,13.5-1.58,17.17,1.41,1.28,3.41,1.61,5.29,1.88l.41.07,20.55,3c6.54,1,13.14,1.26,19.73,1.77,13.7,1,27.39,2.27,41.12,2.83,6.6.27,13.26.39,19.71,1.83s12.7,4.38,17,9.38a28.88,28.88,0,0,1,6.29,14.3,48.76,48.76,0,0,1,.64,8.09c0,2.56-.59,5,1,7.24,1.78,2.54,6.32,1.76,8.85,1s5.24-2.41,5.33-5.13-.28-5.54-.15-8.35A91.21,91.21,0,0,0,593.46,93.71Z" transform="translate(-25.82 -11.89)" style="fill:#f3ea11"/><text transform="translate(460.97 41.04)" style="isolation:isolate;font-size:14px;fill:#231f20;font-family:SansSerif, SansSerif">[[karnov]]</text></g><g id="ceci"><path d="M542.12,206.8c-1-1.38-2.56-3.1-4.35-3.33-3.27-.43-7.13.11-10.47.12-3.74,0-7.46.08-11.19.22q-11.19.41-22.32,1.56c-6.45.66-12.92,1.53-19.07,3.6-5.72,1.92-11.48,5.35-13.52,11-1,2.75-1,5.72-1.26,8.68-.42,4.59-1.54,9.09-2.08,13.67-.87,7.35-.25,14.75-.29,22.13-.06,7.67-1.83,14.19-4.69,21.29a4.5,4.5,0,0,0-.49,2.39,3.42,3.42,0,0,0,1.41,2.05,1.41,1.41,0,0,0,.42.26c.69.21,1.25-.57,1.56-1.21a33.86,33.86,0,0,1,4.44-7.28c1.41-1.64,3.34-2.72,4.85-4.29,3.81-3.95,8.43-7.4,11-12.38,2.25-4.39,2.57-9.49,2.9-14.42a22.08,22.08,0,0,1,1.48-7.83,18.6,18.6,0,0,1,4.24-5.49,42.33,42.33,0,0,1,8.26-6.33c7.23-4.16,15.71-5.61,24-6.14s16.71-.21,25-1.16a6.45,6.45,0,0,0,3.82-1.34c1.8-1.73,1.13-4.69.32-7.05A32,32,0,0,0,542.12,206.8Z" transform="translate(-25.82 -11.89)" style="fill:#4457a6"/><text transform="translate(460.47 187.87)" style="isolation:isolate;font-size:13px;fill:#231f20;font-family:SansSerif, SansSerif">[[ceci]]</text></g><g id="eloise"><path d="M427.6,297.66a47.24,47.24,0,0,0,9.58-.61c6.54-1.33,12.31-5.38,16.91-10.24.53-.56,1.2-1.18,2-1.05,1,.17,1.29,1.43,1.38,2.45a236.4,236.4,0,0,1-.49,43.63,16.65,16.65,0,0,0-9.2-6.57,49.47,49.47,0,0,0-11.38-1.79l-17-1.33a32.52,32.52,0,0,0-5.92-.09c-2.52.29-5,1.2-7.54,1.06-1.29-.08-2.75-.57-3.2-1.78a4,4,0,0,1-.16-1.64q.39-9.45,1.5-18.87a2,2,0,0,1,1.87-2h.27C413.5,297.55,420.24,297.64,427.6,297.66Z" transform="translate(-25.82 -11.89)" style="fill:#a2d9f2"/><text transform="translate(388.14 277.58)" style="isolation:isolate;font-size:13px;fill:#231f20;font-family:SansSerif, SansSerif">[[eloise]]</text></g><g id="mario"><path d="M233.47,43.56c-4-2.37-8.51-4.38-13.2-4.3s-9.59,2.75-11,7.21a24.6,24.6,0,0,1-.85,2.81c-1.44,3.21-6,5.86-8.42,8.51a13.44,13.44,0,0,0-2.9,4.39,9.56,9.56,0,0,0-.43,3c.08,5,3.28,9.56,7.6,12a19.73,19.73,0,0,0,11,2.2c.63,0,7.8-.3,7.71-.55,2.34,6.52,10.37,10.79,17,11a26,26,0,0,0,13.28-3.71c3-1.67,6.13-5.47,9.22-6.55,2.53-.88,5,1.66,8,1.31,4.05-.61,8.67-2.37,10.84-5.84a16.2,16.2,0,0,0,1.4-13.2c-1.36-3.69-4.2-8-7.66-9.92-1.61-.92-1.31-2.45-2.11-3.75a9.57,9.57,0,0,0-3.23-2.8,37.57,37.57,0,0,0-8.88-3.76A38.71,38.71,0,0,0,246.68,40a37,37,0,0,0-7,1.19C238.79,41.45,233.93,43.83,233.47,43.56Z" transform="translate(-25.82 -11.89)" style="fill:#d783b6"/><text transform="translate(164.66 94.63)" style="isolation:isolate;font-size:14px;fill:#231f20;font-family:SansSerif, SansSerif">[[mario]]</text></g><g id="oscar"><path d="M89.74,17.61c-4-2.37-8.51-4.38-13.2-4.3s-9.59,2.75-11,7.21a24,24,0,0,1-.85,2.81c-1.44,3.21-6,5.86-8.42,8.51a13.44,13.44,0,0,0-2.9,4.39,9.56,9.56,0,0,0-.43,3c.08,5,3.28,9.56,7.6,12a19.73,19.73,0,0,0,11,2.2c.63,0,7.8-.3,7.71-.55,2.34,6.52,10.37,10.79,17,11a25.9,25.9,0,0,0,13.28-3.71c3-1.67,6.13-5.47,9.22-6.55,2.53-.88,5,1.66,8,1.31,4-.61,8.67-2.37,10.84-5.84a16.2,16.2,0,0,0,1.4-13.2c-1.36-3.69-4.2-8-7.66-9.92-1.61-.92-1.31-2.45-2.11-3.75a9.57,9.57,0,0,0-3.23-2.8,37.57,37.57,0,0,0-8.88-3.76A38.92,38.92,0,0,0,103,14a37.81,37.81,0,0,0-7,1.19C95.06,15.5,90.2,17.88,89.74,17.61Z" transform="translate(-25.82 -11.89)" style="fill:#c7ff2e"/><text transform="translate(20.93 68.68)" style="isolation:isolate;font-size:14px;fill:#231f20;font-family:SansSerif, SansSerif">[[oscar]]</text></g><g id="naomi"><path id="drip" d="M297,119.08a16.75,16.75,0,1,1-33.5,0c0-9.25,15.23-26.75,16.75-26.75S297,109.83,297,119.08Z" transform="translate(-25.82 -11.89)" style="fill:#38e86f"/><text transform="translate(237.66 142.32)" style="isolation:isolate;font-size:14px;fill:#231f20;font-family:SansSerif, SansSerif">[[naomi]]</text></g><g id="penelope"><path id="drip-2" data-name="drip" d="M86.64,124.46a16.75,16.75,0,1,1-33.5,0c0-9.25,15.23-26.75,16.75-26.75S86.64,115.21,86.64,124.46Z" transform="translate(-25.82 -11.89)" style="fill:#d08d00"/><text transform="translate(17.3 147.7)" style="isolation:isolate;font-size:14px;fill:#231f20;font-family:SansSerif, SansSerif">[[penelope]]</text></g><g id="attic"><polygon points="244.52 11.94 311.58 152.25 104.67 152.25 184.02 11.94 244.52 11.94" style="fill:none;stroke:#939598;stroke-miterlimit:10"/><text transform="translate(137.67 143.32)" style="isolation:isolate;font-size:22.13295555114746px;fill:#231f20;font-family:ArialMT, Arial">4F attic</text></g><path d="M406.94,298.7c13-3.52,28.3,2.32,39.49-5.13,5.72-3.83,9-10.49,10.39-17.24s1.06-13.7,1.05-20.59a230.48,230.48,0,0,1,1.37-25.33c.56-5,1.39-10.35,4.49-14.38,4.08-5.38,11.25-7.31,17.9-8.61a235,235,0,0,1,61.8-3.79" transform="translate(-25.82 -11.89)" style="fill:none;stroke:#231f20;stroke-miterlimit:10;stroke-width:3px"/><path d="M407.51,323.05a174.43,174.43,0,0,1,33.58.23c3.91.41,8,1.05,11.06,3.55,4.78,3.93,5.24,10.95,5.31,17.15q.26,21.64.53,43.3c.11,9.45.47,19.61,6.24,27.11a35,35,0,0,0,9.47,8c14.1,8.71,30.66,12.89,47.21,14s33.13-.66,49.51-3.17" transform="translate(-25.82 -11.89)" style="fill:none;stroke:#231f20;stroke-miterlimit:10;stroke-width:3px"/><path d="M554.49,223.18a285.22,285.22,0,0,0-44.94,3.31c-11.36,1.75-24.16,5.33-29.15,15.7-2.45,5-2.52,10.86-2.28,16.46a10.33,10.33,0,0,0,.82,4.21c1.06,2.1,3.36,3.22,5.55,4,12.54,4.66,26.35,3.77,39.68,2.81l37.59-2.7" transform="translate(-25.82 -11.89)" style="fill:none;stroke:#231f20;stroke-miterlimit:10;stroke-width:3px"/><path d="M559.74,291.34c-10.43-1-20.91-1.76-31.34-2.12-9.74-.34-19.61,1.45-29.41.34-3.37-.37-6.74-1-10.12-.76s-6.87,1.56-8.84,4.32a16,16,0,0,0-2.2,5.86,121.36,121.36,0,0,0-2.26,37.15,6,6,0,0,0,1,3.27c.91,1.17,2.51,1.52,4,1.76,15.88,2.59,29.94-1.57,45.4-2a256.82,256.82,0,0,0,35.86-3.56" transform="translate(-25.82 -11.89)" style="fill:none;stroke:#231f20;stroke-miterlimit:10;stroke-width:3px"/><path d="M562.52,363.1c-9.8-2.2-21.5-4.79-31.51-4.52-13.14.34-26.66,3-39.74,4.55-5,.57-10.89,1.71-13.07,6.29a15,15,0,0,0-.95,6.53c0,9.37-2.39,21.31,3.85,29.16,5.12,6.44,14.1,8,22.27,8.94q26.75,3.1,53.68,3.93c3.91.12,8.17.09,11.25-2.3" transform="translate(-25.82 -11.89)" style="fill:none;stroke:#231f20;stroke-miterlimit:10;stroke-width:3px"/><text transform="translate(523.93 204.56)" style="isolation:isolate;font-size:18.08247947692871px;fill:#231f20;font-family:ArialMT, Arial">3</text><text transform="translate(542.48 271.59)" style="isolation:isolate;font-size:18.08247947692871px;fill:#231f20;font-family:ArialMT, Arial">2</text><text transform="translate(548.44 341.85)" style="isolation:isolate;font-size:18.08247947692871px;fill:#231f20;font-family:ArialMT, Arial">1</text><text transform="translate(548.44 416.77)" style="isolation:isolate;font-size:18.08247947692871px;fill:#231f20;font-family:ArialMT, Arial">B</text><path d="M311.28,253.81l-.35,139.66a14.65,14.65,0,0,0,.7,5.5,12,12,0,0,0,3.48,4.43c9.58,8.47,22.81,11.26,35.46,13.08,18.79,2.72,39.53,3.58,55-7.4a7.92,7.92,0,0,0,2.88-3.06,8.54,8.54,0,0,0,.41-3.69q-2.44-74.22-.15-148.51" transform="translate(-25.82 -11.89)" style="fill:#dfe5c3"/><path d="M407.25,289.87c.08-9.76,1.84-19.37,1.21-29.16-2.95,2.3-4.91,5.51-7.95,7.81a28.54,28.54,0,0,1-9.6,4.74c-3.4.9-7.36,1.39-9.46,4.18-1.38,1.82-1.67,4.23-1.83,6.54-1.2,16.48,1.34,33,1.63,49.53s-1.9,33.88-11.44,47.39C359,396.42,338.2,404.75,320,399.6a7.81,7.81,0,0,0-3.35-.48,2.38,2.38,0,0,0-2.11,2.27,2.89,2.89,0,0,0,.58,1.36c3.27,4.8,10.35,8.1,15.72,9.59a63.74,63.74,0,0,0,8.58,1.55c14.49,2,30.93,5.45,45.53,3.53,7.79-1,14.65-4.79,21-9.37a7.7,7.7,0,0,0,2.12-2c1-1.5.82-3.4.7-5.17-2-25.77-2-51.8-1.77-77.55Z" transform="translate(-25.82 -11.89)" style="fill:#c1ce76"/><path d="M312.1,253.81l-.35,139.66a14.64,14.64,0,0,0,.69,5.5,12.15,12.15,0,0,0,3.48,4.43c9.59,8.47,22.81,11.26,35.47,13.08,18.79,2.72,39.53,3.58,55-7.4a7.89,7.89,0,0,0,2.87-3.06,8.55,8.55,0,0,0,.42-3.69q-2.44-74.22-.15-148.51" transform="translate(-25.82 -11.89)" style="fill:none;stroke:#231f20;stroke-miterlimit:10;stroke-width:3px"/><path d="M333.42,340.18a37.6,37.6,0,0,0,8.5,6.67,62.74,62.74,0,0,0,.6-23.69c3.41,3.75,8.8,7.79,13,4.9,1.64-1.14,2.45-3.1,3.17-5A72.89,72.89,0,0,0,363,295.6a43.83,43.83,0,0,1,8.78,37.84,22.38,22.38,0,0,0,9.85-13.61,26.63,26.63,0,0,0,9.13,19.91,11.6,11.6,0,0,1,2.68,2.78,8.61,8.61,0,0,1,.87,3.14c1.45,10.16,1,21.32-5.07,29.58C368.32,403.66,324.41,369.15,333.42,340.18Z" transform="translate(-25.82 -11.89)" style="fill:#f79326;stroke:#231f20;stroke-miterlimit:10;stroke-width:2px"/><path d="M391.42,300.84a17.56,17.56,0,0,0-1.63,15.72,10.27,10.27,0,0,0-.38-18" transform="translate(-25.82 -11.89)" style="fill:#f79326;stroke:#231f20;stroke-miterlimit:10;stroke-width:2px"/><path d="M324,240.76c-6.15,2.07-11.24,5-12.31,12.07-2.37,15.57,18.88,19.5,30.12,20.95a162.81,162.81,0,0,0,39.82.69c7.28-.86,14.75-2.49,20.57-7s9.48-12.41,7-19.31c-3.5-9.85-17.37-10-26.22-10.58C364.12,236.34,342.23,234.6,324,240.76Z" transform="translate(-25.82 -11.89)" style="fill:#ebeed9;stroke:#231f20;stroke-miterlimit:10;stroke-width:3px"/><path d="M311.53,300.33c-13-3.52-28.3,2.32-39.5-5.13-5.71-3.81-9-10.49-10.39-17.24s-1.05-13.7-1-20.59a227.87,227.87,0,0,0-1.38-25.32c-.55-5.07-1.38-10.36-4.48-14.4-4.09-5.37-11.25-7.3-17.89-8.6A235.22,235.22,0,0,0,175,205.26" transform="translate(-25.82 -11.89)" style="fill:none;stroke:#231f20;stroke-miterlimit:10;stroke-width:3px"/><path d="M311,324.71a173.62,173.62,0,0,0-33.58.23c-3.92.41-8,1.05-11.06,3.55-4.78,3.93-5.23,11-5.32,17.15q-.24,21.64-.52,43.3c-.12,9.45-.48,19.61-6.25,27.11a34.72,34.72,0,0,1-9.47,8c-14.1,8.71-30.66,12.89-47.19,14s-33.14-.65-49.53-3.15" transform="translate(-25.82 -11.89)" style="fill:none;stroke:#231f20;stroke-miterlimit:10;stroke-width:3px"/><path d="M164,224.84a285.09,285.09,0,0,1,44.93,3.31c11.38,1.76,24.16,5.33,29.15,15.69,2.45,5,2.52,10.88,2.28,16.48a10.27,10.27,0,0,1-.81,4.2c-1.06,2.09-3.35,3.22-5.56,4-12.52,4.66-26.35,3.77-39.68,2.81l-42.86-3.08" transform="translate(-25.82 -11.89)" style="fill:none;stroke:#231f20;stroke-miterlimit:10;stroke-width:3px"/><path d="M158.73,293c10.42-1,20.9-1.77,31.34-2.13,7.72-.27,17.47,1.68,29.42.35,3.36-.37,6.74-1,10.11-.76s6.87,1.56,8.84,4.31a15.78,15.78,0,0,1,2.2,5.86,121.06,121.06,0,0,1,2.26,37.15,6,6,0,0,1-1,3.27c-.91,1.17-2.5,1.52-4,1.76-15.87,2.6-29.93-1.56-45.4-2a255,255,0,0,1-35.85-3.56" transform="translate(-25.82 -11.89)" style="fill:none;stroke:#231f20;stroke-miterlimit:10;stroke-width:3px"/><path d="M155.94,364.77c9.8-2.21,21.5-4.8,31.52-4.54,13.14.36,26.66,3.06,39.73,4.55,5,.58,10.89,1.73,13.07,6.3a14.89,14.89,0,0,1,1,6.53c0,9.37,2.39,21.31-3.86,29.16-5.11,6.43-14.1,8-22.26,8.93q-26.81,3.09-53.69,3.91c-3.9.13-8.17.1-11.25-2.29" transform="translate(-25.82 -11.89)" style="fill:none;stroke:#231f20;stroke-miterlimit:10;stroke-width:3px"/><text transform="translate(107.76 207.87)" style="isolation:isolate;font-size:18.08247947692871px;fill:#231f20;font-family:ArialMT, Arial">3</text><text transform="translate(107.76 276.84)" style="isolation:isolate;font-size:18.08247947692871px;fill:#231f20;font-family:ArialMT, Arial">2</text><text transform="translate(107.76 344.66)" style="isolation:isolate;font-size:18.08247947692871px;fill:#231f20;font-family:ArialMT, Arial">1</text><text transform="translate(107.76 419.57)" style="isolation:isolate;font-size:18.08247947692871px;fill:#231f20;font-family:ArialMT, Arial">B</text><polygon points="293.2 194.21 293.2 180.94 361.06 180.94 361.06 171.92 381.99 188.88 361.06 204.56 361.06 194.75 293.2 194.21" style="fill:#231f20"/><path d="M323.46,279.58c-1-.17-2.24-.26-2.9.53a3,3,0,0,0-.52,1.52c-3.5,24.34-1,49.08-1.14,73.66,0,3.4-.08,6.9,1.26,10,2.78-2.2,3.45-6.09,3.84-9.61,2.19-19.61,2.32-40.31,12.09-57.44a38.39,38.39,0,0,0,3.31-6.4C343,281.32,330.5,280.8,323.46,279.58Z" transform="translate(-25.82 -11.89)" style="fill:#ebeed9"/><path d="M359.4,48.33c.36-5.41,4.76-10.12,10-11.5s11,.31,15.21,3.77" transform="translate(-25.82 -11.89)" style="fill:none;stroke:#231f20;stroke-miterlimit:10;stroke-width:3px"/><path d="M382.33,44.38a28.81,28.81,0,0,1,22.33-7.53,36.61,36.61,0,0,1,21.61,10.09" transform="translate(-25.82 -11.89)" style="fill:none;stroke:#231f20;stroke-miterlimit:10;stroke-width:3px"/><path d="M420.78,48.43c3.68-.69,7.23,1.78,9.63,4.64a19.91,19.91,0,0,1,4.92,11.39,13.56,13.56,0,0,1-4.57,11.24A10.37,10.37,0,0,1,419,76.79" transform="translate(-25.82 -11.89)" style="fill:none;stroke:#231f20;stroke-miterlimit:10;stroke-width:3px"/><path d="M373,74.89A20.69,20.69,0,0,0,398.18,86.5a35.48,35.48,0,0,0,9.15-4.78,41.85,41.85,0,0,0,9.15-7.79" transform="translate(-25.82 -11.89)" style="fill:none;stroke:#231f20;stroke-miterlimit:10;stroke-width:3px"/><path d="M361.27,48.13a22.67,22.67,0,0,0-9.19,6.41,14.26,14.26,0,0,0-3.34,10.51c.72,6,6.16,10.73,12.09,11.92s12.12-.64,17.39-3.64" transform="translate(-25.82 -11.89)" style="fill:none;stroke:#231f20;stroke-miterlimit:10;stroke-width:3px"/><path d="M452.33,58.57l106.53,3.52c9.63.32,20.37,1.12,26.87,8.24,3.74,4.1,5.39,9.67,6.56,15.1a122.13,122.13,0,0,1,1.9,39.9" transform="translate(-25.82 -11.89)" style="fill:none;stroke:#231f20;stroke-miterlimit:10;stroke-width:3px"/><path d="M451.13,80.16c26.6,3.29,53.29,6.58,80.1,6.72,7.77,0,15.61-.18,23.22,1.39s15.1,5.18,19.69,11.44c5.93,8.09,6,18.91,5.9,28.94" transform="translate(-25.82 -11.89)" style="fill:none;stroke:#231f20;stroke-miterlimit:10;stroke-width:3px"/><text transform="translate(360.67 142.32)" style="isolation:isolate;font-size:22.13295555114746px;fill:#231f20;font-family:ArialMT, Arial">2F bed</text><path d="M207.75,50.92c.36-5.41,4.76-10.12,10-11.5s11,.31,15.21,3.77" transform="translate(-25.82 -11.89)" style="fill:none;stroke:#231f20;stroke-miterlimit:10;stroke-width:3px"/><path d="M230.68,47A28.89,28.89,0,0,1,253,39.44a36.61,36.61,0,0,1,21.61,10.09" transform="translate(-25.82 -11.89)" style="fill:none;stroke:#231f20;stroke-miterlimit:10;stroke-width:3px"/><path d="M269.13,51c3.68-.69,7.23,1.78,9.63,4.64a19.84,19.84,0,0,1,4.92,11.39,13.54,13.54,0,0,1-4.57,11.28,10.38,10.38,0,0,1-11.78,1" transform="translate(-25.82 -11.89)" style="fill:none;stroke:#231f20;stroke-miterlimit:10;stroke-width:3px"/><path d="M221.33,77.48a20.7,20.7,0,0,0,25.2,11.61,35.11,35.11,0,0,0,9.15-4.76,41.85,41.85,0,0,0,9.15-7.79" transform="translate(-25.82 -11.89)" style="fill:none;stroke:#231f20;stroke-miterlimit:10;stroke-width:3px"/><path d="M209.62,50.72a22.76,22.76,0,0,0-9.19,6.41,14.35,14.35,0,0,0-3.34,10.51c.72,6,6.16,10.73,12.09,11.92s12.12-.64,17.39-3.64" transform="translate(-25.82 -11.89)" style="fill:none;stroke:#231f20;stroke-miterlimit:10;stroke-width:3px"/><path d="M297,119.08a16.75,16.75,0,1,1-33.5,0c0-9.25,15.23-26.75,16.75-26.75S297,109.83,297,119.08Z" transform="translate(-25.82 -11.89)" style="fill:none;stroke:#231f20;stroke-miterlimit:10;stroke-width:3px"/><path d="M562.88,267.07c7,2.11,14.62-2.53,18.34-8.83s4.47-13.86,5.13-21.15c.93-10.31,1.86-20.65,1.55-31a258.44,258.44,0,0,0-2.69-26.9c-2.28-16.91-2.5-34.32-4.79-51.23" transform="translate(-25.82 -11.89)" style="fill:none;stroke:#231f20;stroke-miterlimit:10;stroke-width:3px;stroke-dasharray:6"/><path d="M594.47,126.5a486.55,486.55,0,0,1,9.72,121.05c-.56,12.33-2.14,25.87-11.16,34.3-8.85,8.26-22.1,9.09-34.19,9.45" transform="translate(-25.82 -11.89)" style="fill:none;stroke:#231f20;stroke-miterlimit:10;stroke-width:3px;stroke-dasharray:6"/><path d="M63.71,25.38c.36-5.41,4.76-10.12,10-11.5s11,.31,15.21,3.77" transform="translate(-25.82 -11.89)" style="fill:none;stroke:#231f20;stroke-miterlimit:10;stroke-width:3px"/><path d="M86.64,21.43A28.82,28.82,0,0,1,109,13.9,36.5,36.5,0,0,1,130.58,24" transform="translate(-25.82 -11.89)" style="fill:none;stroke:#231f20;stroke-miterlimit:10;stroke-width:3px"/><path d="M125.09,25.48c3.68-.69,7.23,1.78,9.63,4.64a19.79,19.79,0,0,1,4.92,11.39,13.55,13.55,0,0,1-4.57,11.28,10.42,10.42,0,0,1-11.78,1.05" transform="translate(-25.82 -11.89)" style="fill:none;stroke:#231f20;stroke-miterlimit:10;stroke-width:3px"/><path d="M77.29,51.94a20.71,20.71,0,0,0,25.2,11.61,35.73,35.73,0,0,0,9.15-4.76A42.12,42.12,0,0,0,120.79,51" transform="translate(-25.82 -11.89)" style="fill:none;stroke:#231f20;stroke-miterlimit:10;stroke-width:3px"/><path d="M65.58,25.18a22.57,22.57,0,0,0-9.19,6.41A14.34,14.34,0,0,0,53.05,42.1c.72,6,6.16,10.73,12.09,11.92s12.12-.64,17.39-3.64" transform="translate(-25.82 -11.89)" style="fill:none;stroke:#231f20;stroke-miterlimit:10;stroke-width:3px"/><path d="M86.64,124.46a16.75,16.75,0,1,1-33.5,0c0-9.25,15.23-26.75,16.75-26.75S86.64,115.21,86.64,124.46Z" transform="translate(-25.82 -11.89)" style="fill:none;stroke:#231f20;stroke-miterlimit:10;stroke-width:3px"/><text transform="translate(0 182.87)" style="isolation:isolate;font-size:22.13295555114746px;fill:#231f20;font-family:ArialMT, Arial">Outside</text><text transform="translate(272.5 436.65)" style="isolation:isolate;font-size:22.13295555114746px;fill:#231f20;font-family:ArialMT, Arial">0F Basement</text></svg>