<?xml version="1.0" encoding="utf-8"?>
<svg version="1.1" id="Layer_1" xmlns="http://www.w3.org/2000/svg" xmlns:xlink="http://www.w3.org/1999/xlink" x="0px" y="0px"
	 width="35.917px" height="72px" viewBox="0 0 35.917 72" enable-background="new 0 0 35.917 72" xml:space="preserve">
<polyline fill="none" stroke="#000000" stroke-width="2" stroke-miterlimit="10" points="22.5,34.5 31.5,31.5 31.5,22.5 31.5,13.5 
	24.75,9 18,4.5 11.25,9 4.5,13.5 4.5,22.5 4.5,31.5 11.25,36 18,40.5 18,49.5 18,58.5 "/>
<polyline fill="none" stroke="#000000" stroke-width="2" stroke-miterlimit="10" points="18,13.5 18,22.5 18,31.5 22.5,34.5 
	24.75,36 31.5,40.5 31.5,49.5 31.5,58.5 24.75,63 18,67.5 11.25,63 4.5,58.5 4.5,49.5 4.5,40.5 13.5,37.5 "/>
</svg>
