<?xml version="1.0" encoding="utf-8"?>
<svg version="1.1" id="Layer_1" xmlns="http://www.w3.org/2000/svg" xmlns:xlink="http://www.w3.org/1999/xlink" x="0px" y="0px"
width="54.894px" height="81.513px" viewBox="0 0 54.894 81.513" enable-background="new 0 0 54.894 81.513" xml:space="preserve">
<path d="M4.896,4.784c0.568-0.016,0.853-0.016,0.853,0c0.152,0,0.229,0.588,0.229,1.764c0.061,1.4,0.135,2.224,0.223,2.47
c0.02,0,0.078,0.471,0.176,1.412c0,0.133-0.287,0.199-0.861,0.199c-0.088,0-0.132-0.243-0.132-0.729
c0-0.252-0.015-0.378-0.044-0.378c-1.186-0.385-1.95-0.637-2.294-0.756c-0.115,0-0.211,0.378-0.287,1.134
c-0.145,0.604-0.226,0.905-0.243,0.905c-0.463-0.014-0.705-0.08-0.727-0.199c0-0.033,0.125-0.886,0.375-2.558
C2.295,7.194,2.446,6.4,2.616,5.666c0.063-0.529,0.146-0.794,0.252-0.794C2.868,4.858,3.544,4.829,4.896,4.784z M4.72,7.784
C3.587,7.962,3.021,8.079,3.021,8.136c1.377,0.35,2.091,0.56,2.142,0.63l0.141-0.1c0.008-0.633-0.039-0.949-0.141-0.949
C4.867,7.75,4.72,7.772,4.72,7.784z M3.53,5.842c-0.027,0-0.138,0.471-0.331,1.412c0,0.033,0.065,0.05,0.196,0.05
c0.031,0,0.502-0.115,1.412-0.346c0.25,0,0.368-0.107,0.354-0.322c-0.033-0.613-0.093-0.92-0.179-0.92
C4.015,5.728,3.53,5.77,3.53,5.842z"/>
<path d="M7.69,4.43c0.07-0.104,0.698-0.155,1.884-0.155c0.537,0.041,0.89,0.16,1.058,0.357c0.25,0.023,0.375,0.309,0.375,0.855
c-0.193,0.615-0.456,0.969-0.788,1.061c0.012,0.107,0.185,0.225,0.519,0.352c0.385,0.252,0.577,0.487,0.577,0.706
c0.029,0.176,0.029,0.353,0,0.53c-0.211,0.49-0.586,0.784-1.125,0.882c0.637,0.34,0.99,0.752,1.061,1.236
c-0.115,0.633-0.733,0.949-1.854,0.949c-1.027,0-1.718-0.199-2.071-0.598c-0.045-0.518-0.067-0.929-0.067-1.233
c0.029-0.004,0.036-0.21,0.021-0.618c-0.014-0.072-0.014-0.426,0-1.061c-0.014-0.705-0.014-1.058,0-1.058
c0.016,0,0.009-0.383-0.021-1.148C7.241,4.899,7.269,4.605,7.339,4.605C7.339,4.553,7.456,4.494,7.69,4.43z M8.051,9.372L8.06,9.548
c0.023,0.563,0.469,0.882,1.336,0.958c0.541,0,0.857-0.143,0.949-0.428c0-0.207-0.081-0.364-0.243-0.472
c-0.188-0.26-0.658-0.39-1.412-0.39C8.264,9.217,8.051,9.269,8.051,9.372z M8.139,7.078c-0.043,0.607-0.064,0.96-0.064,1.058
C8.059,8.444,8.088,8.599,8.162,8.599C8.75,8.601,9.044,8.604,9.044,8.607c0.967-0.104,1.467-0.378,1.5-0.823
c-0.078-0.445-0.578-0.703-1.5-0.773C8.454,6.989,8.152,7.012,8.139,7.078z M9.308,5.136c-0.686,0.1-1.028,0.158-1.028,0.176
c-0.094,0-0.141,0.177-0.141,0.53c0,0.455,0.066,0.683,0.199,0.683c0.451-0.072,0.687-0.108,0.706-0.108
c0.617-0.279,0.986-0.529,1.107-0.75c0.025-0.273,0.009-0.411-0.05-0.413C10.102,5.159,9.837,5.12,9.308,5.136z"/>
<path d="M13.939,4.605c0.057-0.068,0.542-0.119,1.456-0.152c0.76,0.168,1.195,0.337,1.307,0.507c0.02,0.184-0.014,0.301-0.1,0.352
C16.47,5.53,16.361,5.64,16.277,5.64c-0.484-0.189-1.014-0.279-1.588-0.27c-0.432,0.027-0.726,0.134-0.882,0.319
c-0.605,0.346-0.992,0.809-1.16,1.389c-0.035,0.1-0.046,0.394-0.032,0.882c0.207,0.98,0.781,1.635,1.723,1.963
c0.744,0.014,1.116,0.006,1.116-0.023c0.561-0.145,0.953-0.39,1.178-0.735c0.055,0,0.251,0.128,0.589,0.384
c0,0.225-0.196,0.485-0.589,0.782c-0.645,0.346-1.351,0.519-2.118,0.519c-0.582,0-0.876-0.037-0.882-0.111
c-0.631-0.127-1.227-0.759-1.787-1.896c-0.117-0.234-0.176-0.705-0.176-1.412c0.051-0.91,0.587-1.75,1.608-2.52
C13.486,4.811,13.707,4.709,13.939,4.605z"/>
<path d="M17.912,4.254c0-0.043,0.279-0.077,0.838-0.103c0.895,0.354,1.342,0.564,1.342,0.633c0.746,0.486,1.181,0.909,1.304,1.269
c0.604,0.65,0.905,1.286,0.905,1.907c-0.027,0.176-0.221,0.47-0.58,0.882c0,0.076-0.354,0.37-1.061,0.882
c-0.227,0.271-0.863,0.633-1.91,1.084c0-0.027-0.294-0.051-0.882-0.07c-0.045,0-0.067-0.396-0.067-1.189
c0.029-0.211,0.037-0.976,0.023-2.294c-0.014,0-0.007-0.589,0.021-1.767c-0.014-0.783-0.006-1.175,0.023-1.175L17.912,4.254z
M18.639,5.487c0.023,0.271,0.017,0.507-0.021,0.706c0,1.566,0.019,2.391,0.056,2.473c-0.008,0.738,0.018,1.107,0.076,1.107
c0.135,0,0.429-0.117,0.882-0.352c1.104-0.848,1.691-1.424,1.764-1.729c0.018-0.205-0.1-0.46-0.352-0.765
c-0.564-0.762-1.329-1.291-2.294-1.588L18.639,5.487z"/>
<path d="M23.279,4.43c0.258,0.016,0.513,0.009,0.765-0.021c0.799-0.016,1.505,0.014,2.118,0.088
c0.912,0.016,1.368,0.052,1.368,0.108c0.014,0.033,0.017,0.21,0.009,0.53c0,0.086-0.459,0.138-1.377,0.155
c0,0.033-0.706,0.077-2.118,0.132c-0.113,0.006-0.18,0.027-0.199,0.064c0,0.598,0.022,0.951,0.067,1.061
c0,0.059,0.456,0.088,1.368,0.088c0.387,0,0.58,0.029,0.58,0.088c0.039,0.109,0.039,0.286,0,0.53c0,0.043-0.312,0.058-0.935,0.044
c-0.588,0-0.882,0.007-0.882,0.021c-0.102,0-0.152,0.272-0.152,0.817c0,0.088,0.169,0.125,0.507,0.111
c0.939-0.016,1.409-0.011,1.409,0.015c0.068,0,0.091,0.193,0.067,0.58c0,0.102-0.434,0.146-1.301,0.132
c-0.412,0.008-0.618,0.022-0.618,0.044c-0.027,0-0.049,0.294-0.064,0.882c0,0.119,0.198,0.179,0.595,0.179
c0.104,0.025,0.574,0.025,1.412,0c0.523,0.012,0.905,0.004,1.146-0.023c0.252,0,0.378,0.066,0.378,0.199
c0.027,0.367,0.02,0.551-0.023,0.551c-0.146,0-0.617-0.022-1.412-0.067c-0.633,0.041-1.28,0.071-1.942,0.091
c-0.617-0.012-0.926-0.026-0.926-0.044c-0.074,0-0.104-0.295-0.088-0.885c0.01,0,0.01-0.882,0-2.646c0.008,0,0-0.706-0.023-2.118
c0-0.354,0.003-0.53,0.009-0.53C23.072,4.527,23.16,4.469,23.279,4.43z"/>
<path d="M31.966,3.548c0-0.074,0.218-0.111,0.653-0.111c0.152,0,0.227,0.096,0.223,0.287c0,0.811-0.133,1.291-0.398,1.441
c-0.326,0.172-0.738,0.258-1.236,0.258c-0.49,0-1.137-0.015-1.939-0.044c-0.133,0-0.191,0.184-0.176,0.551
c-0.012,0.256,0.003,0.462,0.044,0.618c0,0.043,0.279,0.058,0.838,0.044c0.83,0.002,1.301,0.017,1.412,0.044
c0.131,0.004,0.189,0.222,0.176,0.653c0,0.049-0.235,0.073-0.706,0.073c-0.137-0.029-0.666-0.036-1.588-0.021
c-0.133,0-0.191,0.059-0.176,0.176c0.002,0.479,0.061,0.718,0.176,0.718c0.824-0.004,1.236,0,1.236,0.012
c0.059,0,0.08,0.14,0.064,0.419c0,0.146-0.081,0.22-0.243,0.22c-0.131,0.016-0.483,0.023-1.058,0.023
c-0.084,0-0.126,0.271-0.126,0.814c-0.01,0.627-0.026,0.94-0.05,0.94c0,0.049-0.177,0.073-0.53,0.073
c-0.191,0-0.287-0.103-0.287-0.308c0.025,0,0.048-0.647,0.067-1.942c0.021-1.352,0.036-2.027,0.044-2.027
c0.014-0.221,0.006-0.485-0.023-0.794c0.059-0.174,0.088-0.527,0.088-1.061c0-0.131,0.096-0.196,0.287-0.196
c0.326-0.031,0.915-0.031,1.767,0c0.822-0.002,1.233-0.021,1.233-0.056C31.89,4.313,31.966,4.044,31.966,3.548z"/>
<path d="M33.768,2.842c0.109-0.029,0.197-0.01,0.264,0.059c0.188,0.137,0.423,0.192,0.706,0.167
c0.389-0.164,0.859-0.247,1.412-0.249c0.814,0.203,1.344,0.515,1.588,0.935C37.856,3.8,38.011,4.202,38.2,4.96
c0,0.711-0.33,1.13-0.99,1.257c-0.385,0.059-0.797,0.088-1.236,0.088c-1.285,0.285-1.939,0.778-1.963,1.479
c0,0.633,0.184,1.232,0.551,1.799c0.367,0.355,0.661,0.533,0.882,0.533c1.229-0.01,1.969-0.493,2.221-1.45
c0.006-0.512-0.146-0.77-0.454-0.773c-0.42,0-0.832,0.106-1.236,0.319c-0.16,0-0.286-0.143-0.378-0.428
c-0.043-0.174-0.034-0.272,0.026-0.296c0.545-0.34,1.074-0.51,1.588-0.51c0.826,0.115,1.257,0.442,1.292,0.981
c0.006,0.859-0.098,1.447-0.311,1.764c-0.334,0.729-1.015,1.118-2.042,1.169c-1.111,0-1.897-0.331-2.358-0.993
c-0.266-0.406-0.398-0.642-0.398-0.706c-0.117-0.338-0.176-0.749-0.176-1.233c0.236-1.289,1.097-2.047,2.581-2.273
c0.998,0,1.52-0.184,1.564-0.551c-0.021-0.756-0.484-1.204-1.389-1.345c-0.662-0.006-1.14,0.09-1.433,0.287
c0.32,0.615,0.48,0.968,0.48,1.058c-0.289,0.15-0.501,0.226-0.636,0.226c-0.584-1.055-0.944-1.777-1.081-2.168
C33.357,3.084,33.512,2.967,33.768,2.842z"/>
<path d="M39.129,4.254c0-0.088,0.242-0.125,0.727-0.111c0.074,0,0.104,0.154,0.091,0.463c-0.012,0.758,0.024,1.229,0.108,1.412
c-0.025,0.26-0.032,0.39-0.021,0.39c0,0.02,0.588,0.022,1.764,0.009c0.693,0.043,1.164,0.064,1.412,0.064
c0.074,0,0.111-0.213,0.111-0.639c-0.045-0.715-0.063-1.244-0.053-1.588c0.096-0.055,0.312-0.084,0.647-0.088
c0.127,0.002,0.193,0.031,0.199,0.088c-0.029,0.309-0.037,0.573-0.023,0.794c0.016,0,0.009,0.382-0.021,1.146
c0.031,0.014,0.046,0.838,0.044,2.473c-0.029,0-0.028,0.294,0.003,0.882c0.012,0.824-0.017,1.236-0.085,1.236
c-0.039,0.029-0.274,0.029-0.706,0c-0.064,0-0.089-0.235-0.073-0.706c0.014-0.52,0.021-0.814,0.021-0.885
c0-0.066-0.198-0.1-0.595-0.1c0-0.035-0.5-0.061-1.5-0.076c0-0.016-0.382-0.049-1.146-0.1c-0.074,0-0.111,0.387-0.111,1.16
c0.016,0.484-0.007,0.727-0.067,0.727c-0.486,0.016-0.729,0.009-0.729-0.021c-0.027,0-0.036-0.354-0.026-1.061
c0.025-0.369,0.064-0.898,0.117-1.588c-0.014,0-0.014-0.765,0-2.294C39.203,5.426,39.174,4.896,39.129,4.254z M40.011,7.254
c-0.014,0.734-0.006,1.102,0.023,1.102c0,0.074,0.294,0.104,0.882,0.088c0.459,0.043,0.9,0.058,1.324,0.044
c0.646-0.018,0.97-0.041,0.97-0.07c0.059,0,0.08-0.271,0.064-0.812c0.016-0.279-0.006-0.419-0.064-0.419
c-0.781-0.029-1.429-0.036-1.942-0.021C40.43,7.166,40.011,7.195,40.011,7.254z"/>
<path d="M45.416,4.43c0.328-0.029,0.492-0.029,0.492,0c0.031,0.463,0.085,0.698,0.161,0.706c0.227,0.166,0.34,0.401,0.34,0.706
c0,0.268-0.125,0.474-0.375,0.618c-0.059,0-0.088,0.382-0.088,1.146c0.043,0.166,0.05,0.99,0.021,2.473
c0.008,0,0.019,0.176,0.032,0.527c0,0.074-0.224,0.111-0.671,0.111c-0.117,0-0.176-0.184-0.176-0.551
c-0.016,0-0.023-0.618-0.023-1.854c0.059-0.184,0.083-0.771,0.073-1.764c-0.225-0.086-0.337-0.38-0.337-0.882
c0.023-0.162,0.136-0.339,0.337-0.53C45.202,4.665,45.273,4.43,45.416,4.43z"/>
<path d="M49.348,4.594c0-0.059,0.257-0.088,0.771-0.088c0.074,0,0.111,0.206,0.111,0.618c0.236,0.26,0.354,0.495,0.354,0.706
c0,0.43-0.057,0.665-0.17,0.706c-0.152,0.02-0.229,0.255-0.229,0.706c0.029,0.043,0.037,0.749,0.023,2.118
c-0.016,0.525-0.28,0.944-0.794,1.257c-0.27,0.146-0.682,0.22-1.236,0.22c-0.502,0-0.947-0.257-1.336-0.771
c-0.109-0.23-0.16-0.525-0.152-0.885c0.066-0.865,0.563-1.311,1.488-1.336c0.373,0.035,0.56,0.069,0.56,0.103
c0.023,0.262,0.014,0.468-0.029,0.618c0,0.043-0.235,0.058-0.706,0.044c-0.398,0-0.598,0.25-0.598,0.75
c0.082,0.467,0.301,0.702,0.656,0.706c0,0.029,0.216,0.035,0.647,0.018c0.396-0.176,0.595-0.477,0.595-0.902
c0.014-1.676-0.009-2.514-0.067-2.514c-0.23-0.234-0.355-0.396-0.375-0.486c0-0.506,0.125-0.839,0.375-0.999
C49.311,5.183,49.348,4.986,49.348,4.594z"/>
<path d="M4.72,14.254c0.166-0.029,0.372,0.038,0.618,0.202c0.088,0,0.117,0.109,0.088,0.328c-0.072,0.225-0.227,0.577-0.463,1.058
c-0.041,0.232-0.177,0.645-0.407,1.236c0,0.043,0.143,0.058,0.428,0.044c0.164-0.047,0.635-0.079,1.412-0.097
c0.029,0,0.039,0.253,0.029,0.759c0,0.033-0.362,0.069-1.087,0.108c-0.529,0.037-0.794,0.06-0.794,0.067
c-0.012,0.17,0.047,0.287,0.176,0.352c0.613,0.516,0.92,0.81,0.92,0.882c0.639,0.617,0.958,0.971,0.958,1.061
c-0.447,0.387-0.69,0.58-0.729,0.58c-0.031,0-0.453-0.487-1.266-1.462c-0.547-0.629-0.831-0.943-0.853-0.943
c-0.031,0-0.241,0.49-0.63,1.471c-0.211,0.564-0.354,0.866-0.431,0.905C2.17,20.688,1.91,20.563,1.91,20.43
c0.492-1.193,0.777-1.841,0.855-1.942c0.156-0.398,0.232-0.692,0.229-0.882c-0.23-0.438-0.491-1.144-0.782-2.118
c-0.166-0.328-0.242-0.513-0.229-0.554c0.326-0.105,0.562-0.197,0.706-0.275c0.119,0,0.392,0.571,0.817,1.714
c0.012,0,0.093,0.195,0.243,0.586c0.098-0.09,0.274-0.595,0.53-1.515c0.064-0.078,0.182-0.436,0.352-1.072L4.72,14.254z"/>
<path d="M7.175,14.605c0-0.055,0.271-0.088,0.812-0.1c0.131,0,0.189,0.063,0.176,0.188c-0.029,0-0.037,0.677-0.023,2.03
c0.059,0.176,0.088,0.705,0.088,1.588c-0.029,0-0.029,0.529,0,1.588c0,0.104,0.155,0.155,0.466,0.155
c0.48-0.029,1.304-0.044,2.47-0.044c0.104,0,0.154-0.154,0.152-0.463c-0.059-0.469-0.088-0.939-0.088-1.412
c0-0.088,0.155-0.132,0.466-0.132c0.279,0,0.419,0.044,0.419,0.132c0.088,0.555,0.124,1.055,0.108,1.5
c-0.014,0.057,0,0.38,0.041,0.97c0,0.076-0.689,0.136-2.068,0.179c0,0.016-0.735,0.023-2.206,0.023
c-0.145,0.027-0.38,0.036-0.706,0.026c-0.104,0-0.155-0.487-0.155-1.462c0.027-1.914,0.035-3.268,0.023-4.061
C7.133,14.841,7.142,14.605,7.175,14.605z"/>
<path d="M13.017,14.784c0.139-0.051,0.462-0.068,0.97-0.053c0.047,0,0.459,0.387,1.236,1.16c0.4,0.398,0.636,0.598,0.706,0.598
c0.365-0.297,1.047-0.807,2.045-1.529c0.068-0.148,0.269-0.223,0.601-0.223c0.252,0.016,0.378,0.031,0.378,0.047
c0.057,0.994,0.085,1.759,0.085,2.294c0.059,0.141,0.081,0.346,0.067,0.615c-0.008,0-0.001,0.383,0.021,1.148
c-0.08,1.176-0.126,1.764-0.138,1.764c0,0.045-0.255,0.055-0.765,0.029c-0.074,0-0.111-0.539-0.111-1.617
c-0.014-0.736-0.021-1.56-0.021-2.47c0-0.51-0.015-0.765-0.044-0.765c-1.037,0.727-1.556,1.099-1.556,1.116
c0,0.127,0.175,0.304,0.524,0.53c0.199,0.189,0.299,0.308,0.299,0.354c-0.514,0.959-0.9,1.899-1.16,2.821
c0,0.133-0.135,0.199-0.404,0.199c-0.346,0-0.521-0.145-0.527-0.434c-0.543-1.119-0.879-1.864-1.008-2.235
c-0.049-0.09-0.066-0.158-0.053-0.205c0.191-0.213,0.521-0.497,0.99-0.853c0.066-0.088,0.09-0.157,0.07-0.208
c-0.35-0.285-0.703-0.595-1.061-0.929c-0.346-0.342-0.521-0.513-0.527-0.513c-0.029,0-0.037,0.255-0.023,0.765
c-0.031,0.035-0.053,0.977-0.064,2.824c0.01,0,0.024,0.471,0.044,1.412c0.043,0.094,0.058,0.164,0.044,0.211
c0,0.029-0.235,0.068-0.706,0.117c-0.148,0-0.223-0.109-0.223-0.328c0.035-0.398,0.05-0.722,0.044-0.97
c0.021,0,0.037-1.089,0.047-3.267c-0.016,0-0.023-0.411-0.023-1.233C12.811,14.86,12.892,14.802,13.017,14.784z M15.68,17.605
c-0.383,0.311-0.574,0.487-0.574,0.53c-0.1,0.061-0.137,0.178-0.111,0.352c0.449,0.941,0.691,1.412,0.727,1.412
c0.07,0.02,0.105-0.039,0.105-0.176c0.217-0.42,0.461-0.949,0.732-1.588c-0.146-0.184-0.356-0.396-0.63-0.636
C15.823,17.516,15.74,17.551,15.68,17.605z"/>
<path d="M19.957,14.605c0.607,0.004,0.911,0.046,0.911,0.126c0.207,0.172,0.454,0.307,0.741,0.404
c0.756,0.521,1.402,0.934,1.939,1.236c0.102,0.107,0.267,0.208,0.495,0.302c0.074,0,0.1-0.16,0.076-0.48
c-0.006-1.059,0.011-1.588,0.05-1.588c0-0.029,0.193-0.036,0.58-0.021c0.104,0,0.155,0.242,0.155,0.727
c-0.029,0.654-0.044,1.184-0.044,1.588c0.057,1.146,0.085,1.911,0.085,2.294c-0.025,0-0.054,0.471-0.085,1.412
c0,0.088-0.214,0.132-0.642,0.132c-0.111,0-0.287-0.111-0.527-0.334c-0.186-0.063-0.539-0.297-1.061-0.703
c-0.047,0-0.518-0.277-1.412-0.832c-0.33-0.213-0.506-0.319-0.527-0.319c-0.059,0-0.088,0.45-0.088,1.351
c0.029,0.414,0.029,0.649,0,0.706c0,0.045-0.206,0.067-0.618,0.067c-0.125-0.006-0.191-0.028-0.199-0.067
c0.029-0.236,0.044-0.589,0.044-1.058c-0.029,0-0.015-0.471,0.044-1.412C19.865,15.804,19.893,14.627,19.957,14.605z M20.669,15.487
c0,0.033,0,0.269,0,0.706c0.023,0.076,0.023,0.43,0,1.061c0,0.346,0.096,0.522,0.287,0.53c0.139,0.014,0.433-0.104,0.882-0.354
c0.719-0.303,1.078-0.479,1.078-0.53c0-0.064-0.256-0.24-0.768-0.527c-0.383-0.146-0.574-0.235-0.574-0.267
C20.988,15.682,20.687,15.476,20.669,15.487z M23.648,17.43c-1.207,0.58-1.811,0.874-1.811,0.882c0,0.031,0.206,0.142,0.618,0.331
c0.814,0.648,1.344,0.994,1.588,1.037c0.059,0,0.088-0.573,0.088-1.72c0-0.396-0.088-0.599-0.264-0.606
C23.788,17.361,23.715,17.387,23.648,17.43z"/>
<path d="M27.794,14.96c0.059-0.104,0.456-0.155,1.192-0.155c0.826,0.105,1.439,0.451,1.84,1.037
c0.436,0.658,0.653,1.364,0.653,2.118c-0.182,1.23-0.689,2.054-1.523,2.47c-0.527,0.309-0.969,0.463-1.324,0.463
c-0.68-0.008-1.291-0.162-1.834-0.463c-0.678-0.459-1.066-1.312-1.166-2.558c-0.014-0.373,0.054-0.697,0.202-0.973
c0.189-0.42,0.534-0.898,1.034-1.436C27.308,15.202,27.616,15.034,27.794,14.96z M28.043,15.666
c-0.281,0.113-0.536,0.289-0.765,0.527c-0.553,0.463-0.858,0.993-0.917,1.591c0,0.553,0.085,0.964,0.255,1.233
c0.385,0.555,0.939,0.914,1.664,1.078c0.803,0.002,1.332-0.171,1.588-0.519c0.527-0.662,0.836-1.26,0.926-1.793
c0-0.482-0.073-0.807-0.22-0.973c-0.201-0.58-0.73-0.984-1.588-1.213C28.414,15.585,28.1,15.607,28.043,15.666z"/>
<path d="M33.891,14.43c0.037-0.045,0.166-0.062,0.387-0.05c0.633,0.252,1.104,0.523,1.412,0.814
c0.266,0.158,0.398,0.433,0.398,0.823c0,0.273-0.25,0.637-0.75,1.09c-0.52,0.445-0.829,0.671-0.929,0.677
c0,0.014-0.338,0.209-1.014,0.586c-0.176,0.063-0.264,0.337-0.264,0.823c-0.039,0.941-0.088,1.412-0.146,1.412
c0,0.029-0.216,0.066-0.647,0.111c-0.074,0-0.104-0.154-0.088-0.463c0-0.574-0.013-1.222-0.038-1.942
c0.025,0,0.038-0.471,0.038-1.412c-0.029-0.59-0.029-1.061,0-1.412c0-0.15,0.455-0.444,1.365-0.882
C33.779,14.516,33.871,14.457,33.891,14.43z M34.043,15.312c-0.506,0.141-0.759,0.259-0.759,0.354
c-0.033,0.834-0.063,1.363-0.088,1.588c0.002,0.043,0.068,0.064,0.199,0.064c0.221-0.154,0.456-0.286,0.706-0.396
c0.574-0.49,0.861-0.792,0.861-0.905C34.734,15.533,34.428,15.298,34.043,15.312z"/>
<path d="M41.707,14.605c0.129-0.033,0.218,0.002,0.267,0.105c0,0.018,0.154,0.159,0.463,0.425c0,0.018-0.233,0.253-0.7,0.706
c0,0.104,0.104,0.397,0.311,0.882c0.127,0.256,0.19,0.668,0.19,1.236c-0.059,0.518-0.235,1.047-0.53,1.588
c-0.191,0.201-0.279,0.33-0.264,0.387c0.162,0.176,0.339,0.419,0.53,0.729c0.016,0,0.104,0.099,0.264,0.296
c0,0.129-0.105,0.246-0.316,0.352c-0.051,0.135-0.161,0.193-0.331,0.176c-0.012,0-0.296-0.361-0.853-1.084
c-0.17,0.139-0.582,0.295-1.236,0.469c-0.818,0-1.534-0.206-2.147-0.618c-0.49-0.537-0.76-1.066-0.809-1.588
c-0.084-0.16-0.135-0.514-0.152-1.061c0.066-0.639,0.456-1.324,1.169-2.057c0.586-0.525,1.232-0.788,1.939-0.788
c0.527,0.004,1.057,0.168,1.588,0.492C41.493,14.821,41.699,14.605,41.707,14.605z M38.725,15.666
c-0.348,0.176-0.56,0.328-0.636,0.457c-0.586,0.492-0.906,1.046-0.961,1.661c0,0.563,0.085,0.959,0.255,1.189
c0.42,0.607,1.009,0.968,1.767,1.081c0.703,0,1.098-0.11,1.184-0.331c0-0.008-0.151-0.243-0.454-0.706
c-0.174-0.146-0.253-0.323-0.237-0.53c0.26-0.176,0.39-0.27,0.39-0.281c0.154,0,0.264,0.094,0.328,0.281
c0.354,0.436,0.53,0.671,0.53,0.706c0.084,0.016,0.269-0.317,0.554-0.999c0.072-0.029,0.105-0.343,0.1-0.94
c-0.172-0.51-0.323-0.765-0.454-0.765c-0.299,0.313-0.475,0.469-0.527,0.469c-0.303-0.186-0.454-0.381-0.454-0.586
c0.244-0.254,0.366-0.431,0.366-0.53c-0.094-0.061-0.3-0.148-0.618-0.264C39.102,15.563,38.725,15.592,38.725,15.666z"/>
<path d="M45.237,13.899c0.113-0.039,0.437-0.045,0.97-0.018c0.793,0.197,1.197,0.438,1.213,0.724c0,0.383-0.228,0.814-0.683,1.295
c-0.033,0.057-0.181,0.154-0.442,0.293c0,0.045,0.276,0.163,0.829,0.354c0.287,0.158,0.427,0.511,0.419,1.058
c-0.059,0.314-0.21,0.579-0.454,0.794c-0.029,0.158,0.021,0.247,0.149,0.267c0.383,0.68,0.576,1.209,0.58,1.588
c0,0.354-0.037,0.53-0.111,0.53c-0.424,0.016-0.649,0.016-0.677,0c-0.078,0-0.153-0.412-0.226-1.236
c-0.127-0.604-0.414-0.897-0.861-0.882c-1,0.244-1.5,0.391-1.5,0.439c-0.059,0-0.084,0.383-0.076,1.148
c0.006,0.367-0.027,0.551-0.1,0.551c-0.236-0.029-0.472-0.029-0.706,0c-0.059,0-0.073-0.419-0.044-1.257
c0.021-1.471,0.036-2.206,0.044-2.206c0.014,0,0.021-0.735,0.021-2.206c0-0.555,0.11-0.832,0.331-0.832
C44.278,14.157,44.72,14.022,45.237,13.899z M45.237,16.899c0,0.012-0.235,0.071-0.706,0.179c-0.104,0-0.155,0.235-0.155,0.706
c-0.014,0.5,0.009,0.75,0.067,0.75c0-0.012,0.412-0.13,1.236-0.354c0.635-0.145,0.965-0.453,0.99-0.926
c0-0.271-0.154-0.426-0.463-0.463C45.592,16.791,45.269,16.827,45.237,16.899z M45.442,14.784c0,0.018-0.216,0.083-0.647,0.196
c-0.25,0-0.367,0.081-0.352,0.243c0.043,0.646,0.082,0.97,0.117,0.97c0.055,0.016,0.133,0.009,0.234-0.021
c0.836-0.359,1.388-0.764,1.655-1.213c0-0.07-0.11-0.129-0.331-0.176C45.854,14.753,45.628,14.753,45.442,14.784z"/>
<path d="M50.531,14.605c0.131-0.043,0.425-0.043,0.882,0c0.381,0.02,0.705,0.161,0.973,0.425c0.414,0.205,0.624,0.476,0.63,0.812
c0.006,0.703-0.028,1.07-0.103,1.102c-0.16,0.311-0.396,0.466-0.706,0.466c-0.303,0-0.852-0.11-1.646-0.331
c-0.107,0-0.146-0.099-0.117-0.296c0.029-0.324,0.147-0.486,0.354-0.486c0.117,0,0.528,0.099,1.233,0.296
c0.178,0.014,0.267-0.001,0.267-0.044c0.014-0.363-0.026-0.599-0.12-0.706c-0.246-0.338-0.589-0.507-1.028-0.507
c-0.416,0-0.852,0.11-1.307,0.331c-0.32,0.213-0.48,0.507-0.48,0.882c0.014,0.59,0.668,0.984,1.963,1.184
c0.725,0.174,1.195,0.471,1.412,0.891c0.104,0.141,0.154,0.508,0.152,1.102c-0.148,0.523-0.729,0.913-1.74,1.169
c-0.785,0-1.256-0.044-1.412-0.132c-0.518-0.139-0.937-0.543-1.257-1.213c-0.016-0.377-0.009-0.565,0.021-0.565
c0.178-0.248,0.413-0.376,0.706-0.384c0.697,0.088,1.228,0.235,1.591,0.442c0.25,0.025,0.367,0.096,0.352,0.211
c-0.096,0.227-0.154,0.34-0.176,0.34c-0.451-0.191-0.863-0.287-1.236-0.287c-0.172,0-0.268,0.081-0.287,0.243
c0.096,0.426,0.604,0.639,1.523,0.639c0.41,0,0.719-0.213,0.926-0.639c0.016-0.504-0.058-0.778-0.22-0.823
c0-0.053-0.5-0.19-1.5-0.413c-0.771-0.1-1.213-0.364-1.324-0.794c-0.221-0.299-0.331-0.622-0.331-0.97
c0-0.611,0.287-1.102,0.861-1.471C49.47,14.942,49.852,14.785,50.531,14.605z"/>
<path d="M2.001,24.6c0.109-0.059,0.845-0.08,2.206-0.064c0,0.029,0.765,0.044,2.294,0.044c0.27-0.016,0.407-0.009,0.413,0.021
c0.045,0,0.055,0.235,0.029,0.706c0,0.074-0.618,0.111-1.854,0.111c-0.25,0.025-0.375,0.047-0.375,0.064
c0.059,0.016,0.081,0.251,0.067,0.706c0,0.148,0.103,0.223,0.308,0.223c0.006-0.014,0.124-0.021,0.354-0.023
c0.102,0,0.152,0.169,0.152,0.507c0,0.207-0.051,0.311-0.152,0.311c-0.393-0.004-0.589,0.011-0.589,0.044
C4.843,29.482,4.851,30.6,4.878,30.6c0,0.061-0.224,0.111-0.671,0.152c-0.104,0-0.155-0.168-0.155-0.504
c-0.029-0.563-0.036-0.886-0.021-0.97c0.014-0.072,0.014-0.426,0-1.061c-0.021-0.646-0.041-0.97-0.059-0.97
c0-0.059-0.157-0.081-0.472-0.067c-0.141-0.004-0.214-0.04-0.22-0.108c-0.004-0.383,0.011-0.574,0.044-0.574
c0.441-0.043,0.662-0.087,0.662-0.132c0.014-0.297,0.014-0.592,0-0.885c0-0.051-0.515-0.076-1.544-0.076
c-0.398,0.012-0.598-0.021-0.598-0.1c-0.014-0.447,0.009-0.671,0.067-0.671L2.001,24.6z"/>
<path d="M8.068,24.6c0.32-0.014,0.486-0.014,0.498,0c0.039,0,0.078,0.383,0.117,1.148c0.016,0.646,0.009,0.97-0.021,0.97
c0,0.471,0.016,0.706,0.047,0.706l0.152,0.152c0.613-0.381,0.966-0.571,1.058-0.571c0.309,0,0.779,0.188,1.412,0.565
c0.133,0,0.199-0.049,0.199-0.146c0.014-0.863-0.001-1.451-0.044-1.764c0-0.727,0.007-1.09,0.021-1.09
c0.488-0.014,0.732-0.004,0.732,0.029c0.057,0,0.077,0.589,0.062,1.767c0.016,0,0.023,0.705,0.023,2.115
c-0.041,1.061-0.087,1.591-0.138,1.591c-0.203,0.471-0.665,0.756-1.386,0.855c-0.07,0.061-0.481,0.084-1.233,0.07
c-0.785-0.115-1.285-0.365-1.5-0.75c-0.27-0.35-0.404-1.056-0.404-2.118c0.02-1.322,0.029-2.439,0.029-3.352
C7.693,24.685,7.818,24.625,8.068,24.6z M9.803,27.778c-0.275,0.086-0.413,0.137-0.413,0.152c-0.426,0.271-0.639,0.515-0.639,0.729
c0,0.613,0.154,1.005,0.463,1.175c0.008,0.098,0.36,0.146,1.058,0.146c0.766,0,1.163-0.382,1.192-1.146
c0.016-0.32-0.146-0.547-0.486-0.68c-0.264-0.262-0.499-0.413-0.706-0.454C10.002,27.71,9.846,27.735,9.803,27.778z"/>
<path d="M13.383,24.96c0-0.104,0.21-0.147,0.63-0.132c0.287-0.014,0.431,0.089,0.431,0.308c0.012,0,0.222,0.667,0.63,2.001
c0.088,0.229,0.146,0.343,0.176,0.343c0.434-0.533,0.669-0.8,0.706-0.8c0.063,0,0.356,0.279,0.882,0.838
c0.184,0,0.284-0.146,0.302-0.439c0.227-0.539,0.428-1.01,0.604-1.412c0.072-0.303,0.183-0.546,0.331-0.729
c0.559-0.029,0.838-0.021,0.838,0.023c0,0.24-0.221,0.916-0.662,2.027c-0.307,0.557-0.677,1.41-1.11,2.561
c-0.303,0.658-0.462,1.025-0.478,1.102c0,0.104-0.088,0.148-0.264,0.135c-0.529,0.014-0.794,0.006-0.794-0.023
c-0.148,0-0.267-0.247-0.354-0.741c-0.012,0-0.225-0.569-0.639-1.708c-0.49-1.186-0.748-1.847-0.773-1.983
C13.833,26.328,13.682,25.872,13.383,24.96z M15.838,27.605c-0.072,0.074-0.201,0.251-0.387,0.53c0,0.088,0.168,0.646,0.504,1.676
c0.168,0,0.252-0.088,0.252-0.264c0.32-0.709,0.48-1.18,0.48-1.412c-0.4-0.447-0.645-0.671-0.732-0.671L15.838,27.605z"/>
<path d="M20.455,24.96c0.178-0.016,0.267,0.072,0.267,0.264c0.082,0.248,0.3,1.277,0.653,3.088c0.254,0.902,0.389,1.354,0.404,1.354
c0.027,0,0.351-0.333,0.97-0.999c0.02-0.178-0.029-0.296-0.146-0.354c-0.131-0.115-0.324-0.351-0.58-0.706
c0-0.127,0.169-0.598,0.507-1.412c0.295-0.809,0.516-1.213,0.662-1.213c0.055-0.029,0.191-0.036,0.41-0.021
c0.068,0,0.302,0.411,0.7,1.233c0.035,0,0.211,0.295,0.527,0.885c0.098,0,0.14,0.078,0.126,0.234c0,0.129-0.353,0.557-1.058,1.283
c-0.033,0.078-0.014,0.16,0.059,0.246c0.594,0.721,0.927,1.081,0.999,1.081c0.027,0,0.162-0.419,0.404-1.257
c0.291-0.65,0.568-1.494,0.832-2.531c0.162-0.666,0.265-0.999,0.308-0.999c0.297-0.045,0.547-0.054,0.75-0.026
c0.018,0.176-0.085,0.655-0.308,1.438c-0.18,0.623-0.275,0.976-0.287,1.058c-0.207,0.807-0.428,1.513-0.662,2.118
c0,0.057-0.11,0.362-0.331,0.917c0,0.076-0.294,0.115-0.882,0.117c-0.094,0-0.253-0.168-0.478-0.504
c-0.549-0.605-0.86-0.966-0.935-1.081c-0.162,0.264-0.633,0.783-1.412,1.559c-0.631,0-0.946-0.042-0.946-0.126
c-0.021,0-0.103-0.411-0.243-1.233c-0.025,0-0.124-0.529-0.296-1.588c-0.02,0-0.222-0.824-0.606-2.473
c-0.033-0.088-0.042-0.176-0.026-0.264C19.837,25.007,20.043,24.978,20.455,24.96z M23.344,26.548
c-0.287,0.5-0.431,0.794-0.431,0.882c0.234,0.342,0.386,0.526,0.454,0.554c0.014-0.029,0.198-0.272,0.554-0.729
c0-0.055-0.126-0.319-0.378-0.794C23.434,26.464,23.367,26.493,23.344,26.548z"/>
<path d="M27.905,25.312c0-0.059,0.252-0.08,0.756-0.064c0.043,0,0.573,0.646,1.591,1.937c0.107-0.082,0.283-0.304,0.527-0.665
c0.166-0.027,0.249-0.018,0.249,0.029c0.297,0.334,0.449,0.501,0.457,0.501c0.104,0,0.339-0.245,0.706-0.735
c0.666-0.734,1.02-1.102,1.061-1.102c0.484-0.006,0.727,0.027,0.727,0.1c-0.01,0.051-0.438,0.521-1.283,1.412
c-0.486,0.564-0.729,0.858-0.729,0.882c0,0.08,0.378,0.669,1.134,1.767c0.008,0.059,0.301,0.47,0.879,1.233
c0,0.074-0.242,0.111-0.727,0.111c-0.143,0-0.429-0.39-0.858-1.169c-0.041-0.021-0.285-0.398-0.732-1.131
c-0.074-0.09-0.143-0.125-0.205-0.105c-0.332,0.42-0.558,0.63-0.677,0.63c-0.334-0.285-0.51-0.446-0.527-0.483
c-0.057,0-0.284,0.305-0.683,0.914c-0.221,0.205-0.405,0.45-0.554,0.735c-0.084,0.043-0.261,0.275-0.53,0.697
c-0.5,0-0.75-0.007-0.75-0.021c-0.01-0.211,0.071-0.388,0.243-0.53c0.209-0.398,0.815-1.163,1.819-2.294
c0-0.109-0.151-0.345-0.454-0.706c0-0.049-0.345-0.528-1.034-1.438C28.04,25.667,27.905,25.499,27.905,25.312z M30.662,27.605
l-0.059,0.117c-0.016,0.092,0.043,0.194,0.176,0.308c0.197-0.107,0.296-0.189,0.296-0.246c0-0.213-0.04-0.319-0.12-0.319
C30.76,27.465,30.662,27.512,30.662,27.605z"/>
<path d="M34.585,24.796c0-0.068,0.25-0.094,0.75-0.076c0.178,0,0.329,0.201,0.454,0.604c0.455,1.068,0.716,1.609,0.782,1.623
l0.176,0.108c0.83-1.092,1.301-1.737,1.412-1.937c0.18-0.246,0.355-0.369,0.527-0.369c0.441-0.014,0.662,0.002,0.662,0.047
c0,0.156-0.296,0.626-0.888,1.409c0,0.053-0.229,0.348-0.686,0.885c0,0.045-0.226,0.295-0.677,0.75
c-0.043,0-0.064,0.455-0.064,1.365c0.002,0.615,0.023,0.923,0.064,0.923c0.838,0,1.257,0.046,1.257,0.138
c0,0.377-0.007,0.565-0.021,0.565c0,0.049-0.412,0.073-1.236,0.073c-0.602-0.049-0.902-0.085-0.902-0.108
c0.027-0.525,0.034-0.908,0.021-1.148c-0.029,0-0.038-0.559-0.026-1.676c0-0.104-0.175-0.457-0.524-1.061
c0-0.025-0.304-0.613-0.911-1.764C34.696,25.073,34.64,24.956,34.585,24.796z"/>
<path d="M41.203,24.605c0.104-0.059,0.78-0.095,2.03-0.108c0.219-0.029,0.63-0.029,1.233,0c0-0.018,0.235-0.032,0.706-0.044
c0.162,0,0.243,0.11,0.243,0.331c0,0.49-0.114,0.96-0.343,1.409c-0.09,0.285-0.299,0.756-0.627,1.412
c0,0.049-0.32,0.755-0.961,2.118c-0.084,0.051-0.124,0.169-0.12,0.354c0.041,0.012,0.468,0.004,1.28-0.023
c0.49-0.02,0.735-0.012,0.735,0.023c0.023,0.504,0.014,0.756-0.029,0.756c-2.416,0.002-4.005-0.008-4.767-0.029
c-0.375,0.016-0.571,0.009-0.589-0.021c-0.063,0-0.094-0.177-0.094-0.53c0.383-0.75,0.574-1.162,0.574-1.236
c0.51-1.063,0.765-1.65,0.765-1.764c0.252-0.672,0.512-1.261,0.779-1.767c0-0.102-0.36-0.152-1.081-0.152
c-0.371,0.059-0.606,0.08-0.706,0.064c-0.063,0-0.1-0.205-0.111-0.615C40.122,24.681,40.482,24.621,41.203,24.605z M43.321,25.312
c-0.295,0.021-0.442,0.051-0.442,0.088c-0.152,0.273-0.328,0.686-0.527,1.236c-0.281,0.811-0.458,1.271-0.53,1.383
c-0.607,1.338-0.911,2.024-0.911,2.06c0,0.012,0.421,0.018,1.263,0.018c0.148-0.098,0.484-0.692,1.008-1.784
c0.445-1.277,0.782-2.101,1.011-2.47c0.1-0.176,0.133-0.333,0.1-0.472C43.893,25.317,43.569,25.298,43.321,25.312z"/>
<path d="M4.436,34.081c0.004-0.055,0.098-0.089,0.281-0.103c0.102,0.07,0.183,0.163,0.243,0.278
c-0.084,0.145-0.233,0.321-0.448,0.53c0,0.207,0.068,0.334,0.205,0.381c0.445,0.467,0.695,0.986,0.75,1.559
c-0.025,0.395-0.412,0.807-1.16,1.236c-0.27,0.162-0.603,0.243-0.999,0.243c-0.471-0.045-0.729-0.303-0.773-0.773
c0.014-0.561,0.35-1.325,1.008-2.294c0-0.168-0.078-0.252-0.234-0.252c-0.441-0.023-0.662,0.002-0.662,0.076
c-0.25,0.063-0.374,0.298-0.372,0.706c0.012,0.25,0.003,0.375-0.026,0.375c-0.285,0-0.428-0.066-0.428-0.199
c0-0.65,0.084-1.027,0.252-1.131c0.211-0.262,0.563-0.393,1.058-0.393c0.211,0.029,0.446,0.108,0.706,0.237
C3.89,34.559,4.09,34.399,4.436,34.081z M3.923,35.49l-0.088,0.108c-0.313,0.531-0.533,1.084-0.662,1.658
c0,0.279,0.162,0.419,0.486,0.419c0.73-0.354,1.172-0.67,1.324-0.949c-0.096-0.48-0.419-0.922-0.97-1.324L3.923,35.49z"/>
<path d="M8.241,34.775c0.088-0.045,0.201-0.045,0.34,0c0.08,0.1,0.151,0.217,0.214,0.352c0,0.053-0.199,0.21-0.598,0.472
c-0.396,0.311-0.587,0.624-0.571,0.94c0.869,0.012,1.354,0.079,1.456,0.202c0.453,0.209,0.695,0.612,0.727,1.21
c-0.096,0.949-0.279,1.502-0.551,1.658C9.09,39.783,8.854,39.87,8.552,39.87c-0.318,0-0.612-0.12-0.882-0.36
c-0.064,0-0.144,0.127-0.237,0.381c-0.008,0.045-0.224,0.055-0.647,0.029c-0.014,0-0.006-0.245,0.023-0.735
c-0.033,0-0.053-0.529-0.059-1.588l-0.141-0.117c-0.383,0.211-0.63,0.31-0.741,0.296c-0.123-0.125-0.185-0.302-0.185-0.53
c0-0.045,0.348-0.222,1.043-0.53c0.053,0,0.09-0.177,0.111-0.53c0.227-0.545,0.516-0.897,0.867-1.058
C7.887,34.955,8.065,34.838,8.241,34.775z M7.535,37.245c-0.043,0-0.05,0.353-0.021,1.058c0,0.297,0.14,0.532,0.419,0.706
c0.115,0.133,0.341,0.191,0.677,0.176c0.318-0.039,0.509-0.333,0.571-0.882c0.006-0.35-0.036-0.585-0.126-0.706
c-0.219-0.256-0.505-0.399-0.858-0.431C7.82,37.145,7.6,37.171,7.535,37.245z"/>
<path d="M10.717,35.487c0.232-0.102,0.615-0.152,1.148-0.152c0.688,0.133,1.031,0.302,1.031,0.507
c-0.092,0.334-0.2,0.501-0.325,0.501c-0.215-0.275-0.568-0.413-1.061-0.413c-0.662,0.064-0.993,0.271-0.993,0.618
c0.1,0.602,0.431,0.925,0.993,0.97c0.098,0,0.274-0.114,0.53-0.343c0.191,0.055,0.279,0.198,0.264,0.431
c-0.166,0.369-0.548,0.554-1.146,0.554c-0.709-0.141-1.099-0.678-1.169-1.611C9.99,35.946,10.232,35.593,10.717,35.487z"/>
<path d="M15.264,34.485c0.031-0.051,0.101-0.051,0.208,0c0.412,0.244,0.662,0.686,0.75,1.324c0,0.1,0.294,0.229,0.882,0.39
c0.088,0.02,0.139,0.096,0.152,0.229c-0.15,0.318-0.26,0.478-0.328,0.478c-0.244-0.117-0.421-0.176-0.53-0.176
c-0.072,0-0.105,0.193-0.1,0.58c0.023,0,0.035,0.529,0.035,1.588c-0.016,0.264-0.053,0.396-0.111,0.396
c-0.471,0-0.706-0.044-0.706-0.132c-0.008-0.09-0.066-0.169-0.176-0.237c-0.25,0.188-0.544,0.281-0.882,0.281
c-0.758-0.014-1.147-0.469-1.169-1.365c0-0.434,0.213-0.855,0.639-1.266c0.545-0.35,1.016-0.546,1.412-0.589
c0.066,0,0.096-0.088,0.088-0.264c-0.025-0.191-0.124-0.368-0.296-0.53c-0.029-0.217-0.002-0.394,0.082-0.53L15.264,34.485z
M14.941,36.779c-0.479,0.184-0.758,0.331-0.838,0.442c-0.162,0.066-0.243,0.331-0.243,0.794c0,0.367,0.14,0.594,0.419,0.68
c0.285-0.01,0.639-0.207,1.061-0.592c0.102,0,0.146-0.206,0.132-0.618c0-0.514-0.044-0.771-0.132-0.771
C15.088,36.732,14.955,36.754,14.941,36.779z"/>
<path d="M18.299,36.548c1.234,0.047,1.911,0.114,2.03,0.202c0.367,0.143,0.543,0.34,0.527,0.592
c-0.123,0.824-0.593,1.236-1.409,1.236c-0.666,0.014-1.078-0.083-1.236-0.29c-0.367-0.102-0.551-0.505-0.551-1.21
C17.77,36.771,17.982,36.595,18.299,36.548z M18.504,35.312c0.092-0.072,0.523-0.108,1.295-0.108
c0.559,0.027,0.875,0.299,0.949,0.814c0,0.092-0.198,0.168-0.595,0.229c-0.113-0.225-0.408-0.337-0.885-0.337
c-0.262,0.039-0.438,0.104-0.527,0.196c-0.125,0.01-0.36-0.045-0.706-0.164l-0.117-0.1C18.199,35.502,18.395,35.325,18.504,35.312z
M18.431,37.43c0.078,0.334,0.446,0.511,1.104,0.53c0.316,0.014,0.547-0.104,0.691-0.354c-0.002-0.145-0.026-0.22-0.073-0.226
c-0.656-0.02-1.068-0.047-1.236-0.082C18.593,37.298,18.431,37.342,18.431,37.43z"/>
<path d="M22.84,34.661c0.012-0.104,0.235-0.155,0.671-0.155c0.338,0.033,0.69,0.21,1.058,0.53c0.186,0.068,0.278,0.179,0.278,0.331
c-0.178,0.27-0.271,0.404-0.278,0.404c-0.123,0-0.299-0.093-0.527-0.278c-0.209-0.1-0.415-0.142-0.618-0.126
c-0.244,0.027-0.458,0.204-0.642,0.53c0.574,0.604,0.861,0.956,0.861,1.058c0.133,0.309,0.199,0.603,0.199,0.882
c0,0.133-0.081,0.191-0.243,0.176c-0.25,0-0.375-0.117-0.375-0.352c-0.033-0.443-0.29-0.804-0.771-1.081
c-0.207,0.613-0.311,1.032-0.311,1.257c0,0.191-0.073,0.287-0.22,0.287c-0.221,0-0.331-0.096-0.331-0.287
c0-0.084,0.103-0.613,0.308-1.588c0-0.051-0.184-0.228-0.551-0.53c0.139-0.318,0.271-0.478,0.398-0.478
c0.152,0.059,0.27,0.13,0.352,0.214C22.579,34.926,22.826,34.661,22.84,34.661z"/>
<path d="M26.944,34.96c0.236-0.029,0.472-0.029,0.706,0c0.426,0.078,0.69,0.162,0.794,0.252c0.309-0.08,0.544-0.12,0.706-0.12
c0.436,0.148,0.654,0.34,0.656,0.574c-0.082,0.195-0.183,0.293-0.302,0.293c-0.23-0.123-0.349-0.185-0.354-0.185
c-0.043,0-0.043,0.17,0,0.51c0.014,0.314-0.045,0.549-0.176,0.703c-0.039,0.09-0.02,0.179,0.059,0.267
c0.17,0.09,0.246,0.442,0.229,1.058c0,0.061-0.054,0.179-0.161,0.354c0.195,0.367,0.293,0.661,0.293,0.882
c0,0.479-0.492,0.81-1.477,0.993c-0.684,0-1.096-0.052-1.236-0.155c-0.34-0.078-0.563-0.181-0.671-0.308
c0.016-0.369,0.077-0.546,0.185-0.53c0.406,0.25,0.862,0.375,1.368,0.375c0.713-0.117,1.088-0.301,1.125-0.551
c-0.008-0.121-0.03-0.19-0.067-0.208c-0.146,0.094-0.616,0.141-1.409,0.141c-0.166,0-0.527-0.154-1.084-0.463
c-0.027-0.26,0.039-0.428,0.199-0.504c0.668,0.23,1.109,0.34,1.324,0.328c0.443-0.094,0.693-0.271,0.75-0.53
c-0.012-0.25-0.134-0.367-0.366-0.352c-0.342,0.113-0.764,0.172-1.266,0.176c0-0.016-0.235-0.016-0.706,0
c-0.465-0.039-0.7-0.451-0.706-1.236c0.074-0.945,0.457-1.504,1.148-1.676C26.505,35.017,26.651,34.987,26.944,34.96z
M26.646,35.666c-0.408,0.254-0.612,0.665-0.612,1.233c0.002,0.334,0.218,0.504,0.647,0.51c1.047-0.016,1.613-0.361,1.699-1.037
c0-0.467-0.272-0.739-0.817-0.817C27.264,35.555,26.958,35.592,26.646,35.666z"/>
<path d="M31.679,34.078c0.127-0.066,0.343-0.1,0.647-0.1c0.08,0,0.124,0.15,0.132,0.451c0,0.178-0.161,0.273-0.483,0.287
c-0.5,0.199-0.75,0.456-0.75,0.771c0.002,0.131,0.017,0.205,0.044,0.223c0.449-0.045,0.714-0.06,0.794-0.044
c0.707,0.199,1.165,0.552,1.374,1.058c0.113,0.16,0.162,0.396,0.146,0.706c-0.072,0.547-0.382,1.135-0.929,1.764
c-0.148,0.223-0.258,0.357-0.328,0.404c-0.084,0-0.241-0.135-0.472-0.404c0-0.127,0.157-0.314,0.472-0.563
c0.324-0.404,0.479-0.863,0.463-1.377c-0.127-0.525-0.398-0.813-0.814-0.861c-0.516,0.082-0.773,0.369-0.773,0.861
c-0.029,0.484-0.041,0.837-0.035,1.058c0,0.074-0.201,0.111-0.604,0.111c-0.104,0-0.155-0.096-0.155-0.287
c0.029-0.045,0.037-0.81,0.023-2.294c-0.016-0.588,0.02-0.882,0.105-0.882C30.733,34.548,31.114,34.254,31.679,34.078z"/>
<path d="M33.861,35.136c0-0.074,0.198-0.111,0.595-0.111c0.145,0,0.218,0.214,0.22,0.642c-0.025,0.131-0.187,0.189-0.483,0.176
c-0.236-0.002-0.354-0.061-0.354-0.176C33.854,35.666,33.861,35.489,33.861,35.136z M33.905,36.372c0-0.074,0.184-0.104,0.551-0.088
c0.104,0,0.155,0.382,0.155,1.146c0.029,0.328,0.036,0.534,0.021,0.618c0,0.088-0.176,0.125-0.527,0.111
c-0.176,0-0.265-0.243-0.267-0.729C33.865,36.725,33.888,36.372,33.905,36.372z M33.999,33.899c0-0.059,0.094-0.088,0.281-0.088
c0.15,0,0.246,0.089,0.287,0.267c-0.086,0.332-0.24,0.498-0.463,0.498c-0.148-0.053-0.216-0.219-0.202-0.498
C33.922,34.023,33.954,33.964,33.999,33.899z"/>
<path d="M35.317,36.548c0-0.074,0.184-0.104,0.551-0.088c0.074,0,0.108,0.206,0.103,0.618c0.006,1.059-0.012,1.588-0.053,1.588
c-0.135,0.434-0.338,0.786-0.609,1.058c-0.107,0.25-0.229,0.368-0.366,0.354c-0.182-0.109-0.274-0.286-0.278-0.53
c0.465-0.627,0.697-1.098,0.697-1.412C35.332,37.452,35.317,36.923,35.317,36.548z M35.37,34.078
c0.006-0.088,0.113-0.14,0.322-0.155c0.191,0.01,0.279,0.179,0.264,0.507c-0.07,0.191-0.217,0.287-0.439,0.287
c-0.152-0.045-0.229-0.199-0.229-0.463C35.327,34.158,35.354,34.1,35.37,34.078z M35.314,35.136c0.01-0.059,0.194-0.088,0.554-0.088
c0.074,0,0.111,0.206,0.111,0.618c0,0.162-0.037,0.243-0.111,0.243c-0.354,0-0.53-0.052-0.53-0.155
C35.309,35.674,35.301,35.468,35.314,35.136z"/>
<path d="M36.706,33.193c0-0.07,0.191-0.12,0.574-0.149c0.104,0,0.155,0.168,0.155,0.504c-0.029,1.158-0.022,1.835,0.021,2.03
c0.178,0.029,0.267-0.001,0.267-0.091c0.402-0.455,0.844-0.683,1.324-0.683c0.336,0,0.504,0.052,0.504,0.155
c0.002,0.336-0.049,0.504-0.152,0.504c-0.438,0-0.857,0.185-1.26,0.554c0,0.072,0.149,0.19,0.448,0.354
c0.113,0,0.392,0.646,0.835,1.939c-0.369,0.154-0.554,0.243-0.554,0.267c-0.043,0-0.194-0.324-0.454-0.973
c-0.217-0.459-0.359-0.702-0.428-0.729c-0.273-0.027-0.41-0.02-0.41,0.023c-0.01,0.648-0.05,0.973-0.12,0.973
c0,0.025-0.176,0.032-0.527,0.021c-0.088,0-0.125-0.271-0.111-0.814c-0.027-1.59-0.05-2.385-0.067-2.385
C36.723,34.672,36.708,34.172,36.706,33.193z"/>
<path d="M39.882,33.724c0.053-0.047,0.135-0.089,0.246-0.126c0.219,0,0.396,0.474,0.53,1.421c0.053,0,0.09,0.98,0.111,2.941
c-0.018,0.285-0.055,0.428-0.111,0.428c-0.387,0-0.58-0.025-0.58-0.076c-0.023-2.51-0.065-3.765-0.126-3.765
c-0.176-0.426-0.264-0.642-0.264-0.647C39.712,33.866,39.776,33.808,39.882,33.724z"/>
<path d="M41.874,35.312c0.066-0.043,0.316-0.05,0.75-0.021c0.449,0.119,0.803,0.338,1.061,0.656
c0.215,0.027,0.322-0.008,0.322-0.105c0.313-0.367,0.793-0.551,1.441-0.551c0.734,0.33,1.102,0.69,1.102,1.081
c0.016,0.668-0.074,1.139-0.27,1.412c-0.186,0.346-0.416,0.521-0.691,0.527c-0.195-0.146-0.293-0.264-0.293-0.352
c0.375-0.424,0.572-0.836,0.592-1.236c-0.061-0.352-0.325-0.543-0.794-0.574c-0.543,0.119-0.814,0.487-0.814,1.104
c0,0.322-0.022,0.483-0.067,0.483c-0.436,0.016-0.653-0.028-0.653-0.132c0-0.678-0.096-1.089-0.287-1.233
c-0.127-0.207-0.343-0.309-0.647-0.305c-0.357,0.014-0.563,0.232-0.618,0.656c0,0.264,0.181,0.617,0.542,1.061
c-0.094,0.244-0.186,0.384-0.275,0.419c-0.357-0.033-0.667-0.408-0.929-1.125c-0.014-0.736,0.001-1.109,0.044-1.119
C41.515,35.594,41.677,35.378,41.874,35.312z"/>
<path d="M47.877,35.312c0.17-0.088,0.479-0.132,0.926-0.132c1.002,0.182,1.509,0.696,1.521,1.544
c-0.035,0.586-0.189,1.086-0.463,1.5c-0.174,0.043-0.291,0.03-0.352-0.038c-0.168-0.063-0.244-0.196-0.229-0.401
c0.182-0.236,0.265-0.648,0.249-1.236c-0.033-0.426-0.334-0.639-0.902-0.639c-0.574,0-0.861,0.271-0.861,0.814
c0,0.365,0.076,0.659,0.229,0.882c0.035,0.27,0.011,0.407-0.073,0.413c-0.119,0.156-0.237,0.234-0.354,0.234
c-0.336-0.422-0.497-0.99-0.483-1.705C47.103,36.04,47.367,35.628,47.877,35.312z"/>
<path d="M2.701,42.265c0.277-0.104,0.709-0.155,1.295-0.155c0.549,0.141,0.976,0.545,1.28,1.213
c0.014,0.688-0.009,1.041-0.067,1.061c-0.125,0.514-0.353,0.771-0.683,0.771c-0.043,0.031-0.484,0.068-1.324,0.111
c-0.375,0.029-0.581,0.021-0.618-0.023c-0.393-0.189-0.672-0.594-0.838-1.213c0-0.627,0.113-1.039,0.34-1.236
C2.236,42.528,2.441,42.353,2.701,42.265z M3.231,42.792c-0.564,0.168-0.839,0.551-0.823,1.148c0.012,0.484,0.129,0.727,0.352,0.727
c0.662,0.012,1.074-0.003,1.236-0.044c0.471,0,0.706-0.169,0.706-0.507C4.694,43.265,4.4,42.787,3.82,42.684
C3.621,42.684,3.425,42.72,3.231,42.792z"/>
<path d="M5.751,42.071c0-0.031,0.184-0.047,0.551-0.047c0.088,0,0.125,0.191,0.111,0.574l0.064,0.132
c0.32-0.313,0.732-0.481,1.236-0.507c0.613,0.133,0.966,0.571,1.058,1.315c0.045,0,0.061,0.334,0.047,1.002
c-0.1,0.576-0.546,0.929-1.339,1.058c-0.578,0.143-0.867,0.261-0.867,0.354c0.063,0.207,0.352,0.56,0.867,1.058
c0.021,0.262-0.077,0.453-0.296,0.574c-0.195,0-0.431-0.201-0.706-0.604c-0.16-0.172-0.355-0.456-0.586-0.853
c0-0.066-0.099-0.089-0.296-0.067c-0.35,0.063-0.595,0.085-0.735,0.067c-0.033,0-0.072-0.177-0.117-0.53
c0-0.068,0.284-0.144,0.853-0.226c0.074,0,0.097-0.16,0.067-0.48C5.663,43.738,5.692,42.798,5.751,42.071z M7.066,43.129
c-0.018,0-0.107,0.059-0.27,0.176c-0.285,0.119-0.428,0.473-0.428,1.061c0,0.549,0.036,0.823,0.108,0.823
c0.393-0.068,0.589-0.107,0.589-0.117c0.74-0.107,1.11-0.52,1.11-1.236c0-0.463-0.154-0.74-0.463-0.832
C7.427,42.983,7.211,43.025,7.066,43.129z"/>
<path d="M11.669,41.893c0-0.059,0.25-0.088,0.75-0.088c0.072,0,0.102,0.147,0.088,0.442c-0.016,0.219-0.009,0.689,0.021,1.412
l0.067,0.132c0.328-0.246,0.505-0.369,0.53-0.369c0.219,0.207,0.328,0.345,0.328,0.413c0,0.105-0.177,0.282-0.53,0.53
c0,0.072-0.118,0.189-0.354,0.352c-0.057,0-0.085,0.353-0.085,1.058c0,0.414,0.166,0.768,0.498,1.061l0.067,0.176
c-0.215,0.336-0.366,0.504-0.454,0.504c-0.559-0.26-0.838-0.78-0.838-1.562c0-0.387-0.015-0.58-0.044-0.58
c-0.363,0.225-0.775,0.329-1.236,0.313c-0.502,0-0.854-0.396-1.058-1.189c-0.074,0-0.104-0.279-0.088-0.838
c0.25-1.045,0.809-1.567,1.676-1.567c0.252,0,0.429,0.029,0.53,0.088C11.621,42.174,11.665,42.078,11.669,41.893z M10.74,42.774
c-0.484,0.305-0.727,0.717-0.727,1.236c-0.016,0.537,0.197,0.897,0.639,1.081c0.258,0,0.564-0.125,0.92-0.375
c0.088,0,0.135-0.441,0.141-1.324c0.014-0.385-0.163-0.599-0.53-0.642C10.89,42.724,10.742,42.731,10.74,42.774z"/>
<path d="M14.235,42.136c0.213-0.016,0.373-0.023,0.48-0.023s0.161,0.008,0.161,0.023c0.008,0.195,0.059,0.303,0.152,0.322
c0.107-0.092,0.236-0.138,0.387-0.138c0.098,0,0.204,0.02,0.319,0.059c0.424,0.141,0.636,0.379,0.636,0.715
c0,0.086-0.014,0.179-0.041,0.278c-0.17,0.658-0.486,1.025-0.949,1.102c-0.01,0.002-0.019,0.003-0.026,0.003
c-0.115,0-0.173-0.133-0.173-0.398c0.457-0.154,0.686-0.449,0.686-0.885c0-0.176-0.162-0.264-0.486-0.264
c-0.338,0.012-0.507,0.395-0.507,1.148c0,0.461,0.029,0.813,0.088,1.058c0,0.135-0.096,0.202-0.287,0.202
c-0.111,0.01-0.201,0.015-0.27,0.015c-0.113,0-0.17-0.014-0.17-0.041c-0.023,0-0.054-0.617-0.091-1.852
c-0.004-0.07-0.006-0.145-0.006-0.223c0-0.17,0.01-0.36,0.029-0.571c-0.02-0.033-0.029-0.112-0.029-0.237
c0-0.059,0.002-0.127,0.006-0.205L14.235,42.136z"/>
<path d="M17.543,41.254c0.137-0.15,0.396-0.194,0.776-0.132c0.113,0.02,0.525,0.322,1.236,0.908c0.09,0.074,0.135,0.204,0.135,0.39
c0,0.023-0.001,0.046-0.003,0.067c-0.012,0.123-0.17,0.185-0.475,0.185c-0.025,0-0.049-0.002-0.07-0.006
c-0.242-0.721-0.575-1.081-0.999-1.081c-0.426,0.053-0.639,0.295-0.639,0.727c0,0.203,0.448,0.431,1.345,0.683
c0.455,0.229,0.683,0.648,0.683,1.26c-0.086,0.578-0.432,0.88-1.037,0.905c-0.814-0.023-1.285-0.223-1.412-0.598
c-0.1-0.037-0.149-0.307-0.149-0.809c0-0.01,0-0.02,0-0.029c0-0.057,0.092-0.233,0.275-0.53c0-0.189-0.05-0.307-0.149-0.352
c-0.072-0.033-0.108-0.236-0.108-0.609c0-0.006,0-0.011,0-0.015c0-0.078,0.002-0.164,0.006-0.258
C17.01,41.739,17.205,41.504,17.543,41.254z M17.824,43.372c-0.154,0.219-0.231,0.454-0.231,0.706
c0.021,0.352,0.272,0.527,0.753,0.527c0.02,0,0.04,0,0.062,0c0.324-0.033,0.486-0.252,0.486-0.656c0-0.016,0-0.032,0-0.05
c-0.256-0.365-0.506-0.563-0.75-0.595C17.931,43.281,17.824,43.304,17.824,43.372z"/>
<path d="M19.676,41.093c0-0.102,0.198-0.152,0.595-0.152c0.625,0.021,0.949,0.308,0.973,0.858c0,0.045,0.146,0.053,0.439,0.023
c0.061-0.029,0.188-0.037,0.384-0.023c0.041,0,0.064,0.177,0.07,0.53c0,0.088-0.269,0.132-0.806,0.132
c-0.133,0-0.199,0.25-0.199,0.75c0.021,0,0.046,0.294,0.073,0.882c0,0.148,0.101,0.223,0.302,0.223c0.063,0,0.195-0.191,0.398-0.574
c0.096-0.051,0.175-0.051,0.237,0c0.15,0.055,0.226,0.172,0.226,0.352c-0.232,0.596-0.52,0.92-0.861,0.973
c-0.613,0-0.922-0.206-0.926-0.618c-0.025-1.455-0.055-2.22-0.088-2.294c0-0.428-0.074-0.642-0.223-0.642
c-0.381-0.016-0.571-0.096-0.571-0.24L19.676,41.093z"/>
<path d="M23.628,42.136c0.16-0.033,0.253-0.033,0.278,0c0.207,0.186,0.301,0.372,0.281,0.56c-0.293,0.295-0.439,0.579-0.439,0.853
c0,0.662,0.265,0.993,0.794,0.993c0.396-0.006,0.712-0.22,0.946-0.642c0.016-0.396-0.016-0.632-0.094-0.706
c0-0.018-0.134-0.193-0.401-0.527c0.184-0.354,0.327-0.553,0.431-0.598c0.516,0.355,0.78,0.79,0.794,1.304
c-0.029,0.529-0.037,0.823-0.023,0.882c0.02,0.162,0.115,0.243,0.287,0.243c0.098,0,0.144,0.096,0.138,0.287
c-0.008,0.279-0.054,0.419-0.138,0.419c-0.457,0-0.712-0.081-0.765-0.243L25.6,44.819c-0.506,0.27-0.858,0.404-1.058,0.404
c-0.77,0-1.233-0.323-1.392-0.97c-0.088-0.098-0.129-0.392-0.123-0.882C23.111,42.888,23.312,42.476,23.628,42.136z"/>
<path d="M27.308,41.784c0.098-0.051,0.234-0.076,0.41-0.076c0.037,0,0.222,0.378,0.554,1.134c0.268,0.854,0.437,1.28,0.507,1.28
c0.246-0.658,0.422-1.001,0.527-1.028c0.332,0.141,0.5,0.292,0.504,0.454c0,0.078-0.269,0.666-0.806,1.764
c0.096,0.182,0.334,0.3,0.715,0.354c0.049,0,0.059,0.176,0.029,0.527c0,0.096-0.088,0.138-0.264,0.126
c-0.154,0-0.484-0.159-0.99-0.478c-0.061,0-0.268-0.471-0.621-1.412c0-0.039-0.22-0.687-0.659-1.942
c-0.014-0.037-0.059-0.213-0.135-0.527C27.122,41.87,27.198,41.812,27.308,41.784z"/>
<path d="M31.134,42.312c0.014-0.037,0.093-0.086,0.237-0.146c0.174,0.188,0.262,0.354,0.264,0.501
c-0.25,0.229-0.375,0.581-0.375,1.058c0.023,0.453,0.296,0.672,0.817,0.656c0.236,0,0.412-0.242,0.527-0.727
c0.061-0.057,0.237-0.085,0.53-0.085c0.135,0,0.202,0.11,0.202,0.331c0.148,0.441,0.493,0.662,1.034,0.662
c0.279-0.004,0.419-0.165,0.419-0.483c-0.025-0.66-0.291-1.072-0.797-1.236c0.176-0.336,0.36-0.504,0.554-0.504
c0.498,0.221,0.792,0.585,0.882,1.093c0.059,0,0.081,0.274,0.067,0.823c-0.076,0.574-0.451,0.949-1.125,1.125
c-0.59,0-1.012-0.198-1.266-0.595l-0.146-0.149c-0.434,0.35-0.728,0.524-0.882,0.524c-0.75-0.012-1.214-0.313-1.392-0.905
c-0.072-0.061-0.102-0.414-0.088-1.061C30.598,43.047,30.776,42.753,31.134,42.312z"/>
<path d="M36.577,41.96c0.377-0.029,0.583-0.013,0.618,0.05c0.131,0.098,0.248,0.228,0.352,0.39c0.104,0,0.28-0.127,0.53-0.381
c0.09-0.113,0.325-0.158,0.706-0.135c0.455,0.273,0.679,0.71,0.671,1.31c0,0.068-0.165,0.086-0.495,0.053
c-0.109-0.363-0.227-0.571-0.352-0.624c-0.303,0-0.446,0.19-0.431,0.571c0.072,0.129,0.392,0.553,0.958,1.271l0.103,0.141
c-0.15,0.207-0.36,0.306-0.63,0.296c-0.035,0-0.241-0.334-0.618-1.002c-0.148-0.211-0.296-0.316-0.442-0.316
c-0.008,0-0.302,0.41-0.882,1.23c-0.217,0.014-0.394-0.085-0.53-0.296c-0.029-0.156,0.03-0.283,0.179-0.381
c0.484-0.521,0.727-0.953,0.727-1.295c-0.045-0.279-0.17-0.419-0.375-0.419c-0.098,0.053-0.215,0.142-0.352,0.267
c-0.213-0.021-0.319-0.147-0.319-0.378C36.238,42.11,36.433,41.993,36.577,41.96z"/>
<path d="M40.685,41.96c0.207-0.031,0.34-0.021,0.398,0.029c0.072,0,0.102,0.166,0.088,0.498c0,0.021-0.154,0.14-0.463,0.354
c-0.012,0.426,0.113,0.767,0.375,1.022c0.07,0.146,0.196,0.276,0.378,0.39c0.09,0.188,0.199,0.281,0.328,0.281
c0.176-0.117,0.271-0.446,0.284-0.987c-0.09-0.336-0.126-0.521-0.108-0.557c0.012,0,0.129-0.087,0.352-0.261
c0.25,0.016,0.375,0.347,0.375,0.993c-0.139,0.688-0.509,1.394-1.11,2.118c-0.258,0.529-0.719,0.794-1.383,0.794
c-0.668-0.15-1.053-0.415-1.154-0.794c0.08-0.189,0.23-0.284,0.451-0.284c0.104,0.291,0.397,0.437,0.882,0.437
c0.529-0.092,0.794-0.378,0.794-0.858c0-0.273-0.265-0.646-0.794-1.119c-0.234-0.242-0.359-0.575-0.375-0.999
C40.08,42.463,40.308,42.11,40.685,41.96z"/>
<path d="M43.43,41.605c0-0.043,0.156-0.064,0.469-0.064c0.75,0.262,1.125,0.695,1.125,1.301c-0.02,0.281-0.276,0.705-0.771,1.271
c-0.135,0.109-0.193,0.244-0.176,0.404c0.225,0.029,0.46,0.009,0.706-0.062c0.541-0.002,0.812,0.048,0.812,0.149
c0.088,0.047,0.187,0.224,0.296,0.53c0,0.115-0.134,0.216-0.401,0.302c-0.135,0-0.224-0.101-0.267-0.302
c-0.018-0.074-0.164-0.1-0.439-0.076c-0.535,0.109-0.947,0.157-1.236,0.144c-0.205,0-0.308-0.14-0.308-0.419
c0-0.332,0.303-0.803,0.908-1.412c0.203-0.172,0.305-0.467,0.305-0.885c-0.078-0.219-0.263-0.328-0.554-0.328
c-0.285,0.018-0.428,0.187-0.428,0.507c0.184,0.17,0.268,0.302,0.252,0.396c-0.041,0.078-0.158,0.164-0.352,0.258
c-0.25-0.18-0.368-0.427-0.354-0.741C43.042,42.031,43.18,41.707,43.43,41.605z"/>
<g>
<path d="M2.38,49.734c0.258,0.016,0.513,0.009,0.765-0.021c0.799-0.016,1.505,0.014,2.118,0.088
c0.912,0.016,1.368,0.052,1.368,0.108c0.014,0.033,0.017,0.21,0.009,0.53c0,0.086-0.459,0.138-1.377,0.155
c0,0.033-0.706,0.077-2.118,0.132c-0.113,0.006-0.18,0.027-0.199,0.064c0,0.598,0.022,0.951,0.067,1.061
c0,0.059,0.456,0.088,1.368,0.088c0.387,0,0.58,0.029,0.58,0.088c0.039,0.109,0.039,0.286,0,0.53c0,0.043-0.312,0.058-0.935,0.044
c-0.588,0-0.882,0.007-0.882,0.021c-0.102,0-0.152,0.272-0.152,0.817c0,0.088,0.169,0.125,0.507,0.111
c0.939-0.016,1.409-0.011,1.409,0.015c0.068,0,0.091,0.193,0.067,0.58c0,0.102-0.434,0.146-1.301,0.132
c-0.412,0.008-0.618,0.022-0.618,0.044c-0.027,0-0.049,0.294-0.064,0.882c0,0.119,0.198,0.179,0.595,0.179
c0.104,0.025,0.574,0.025,1.412,0c0.523,0.012,0.905,0.004,1.146-0.023c0.252,0,0.378,0.066,0.378,0.199
c0.027,0.367,0.02,0.551-0.023,0.551c-0.146,0-0.617-0.022-1.412-0.067c-0.633,0.041-1.28,0.071-1.942,0.091
c-0.617-0.012-0.926-0.026-0.926-0.044c-0.074,0-0.104-0.295-0.088-0.885c0.01,0,0.01-0.882,0-2.646c0.008,0,0-0.706-0.023-2.118
c0-0.354,0.003-0.53,0.009-0.53C2.173,49.832,2.261,49.773,2.38,49.734z"/>
<path d="M7.384,50.264c0-0.104,0.21-0.147,0.63-0.132c0.287-0.014,0.431,0.089,0.431,0.308c0.012,0,0.222,0.667,0.63,2.001
c0.088,0.229,0.146,0.343,0.176,0.343c0.434-0.533,0.669-0.8,0.706-0.8c0.063,0,0.356,0.279,0.882,0.838
c0.184,0,0.284-0.146,0.302-0.439c0.227-0.539,0.428-1.01,0.604-1.412c0.072-0.303,0.183-0.546,0.331-0.729
c0.559-0.029,0.838-0.021,0.838,0.023c0,0.24-0.221,0.916-0.662,2.027c-0.307,0.557-0.677,1.41-1.11,2.561
c-0.303,0.658-0.462,1.025-0.478,1.102c0,0.104-0.088,0.148-0.264,0.135c-0.529,0.014-0.794,0.006-0.794-0.023
c-0.148,0-0.267-0.247-0.354-0.741c-0.012,0-0.225-0.569-0.639-1.708c-0.49-1.186-0.748-1.847-0.773-1.983
C7.834,51.632,7.683,51.176,7.384,50.264z M9.839,52.91c-0.072,0.074-0.201,0.251-0.387,0.53c0,0.088,0.168,0.646,0.504,1.676
c0.168,0,0.252-0.088,0.252-0.264c0.32-0.709,0.48-1.18,0.48-1.412c-0.4-0.447-0.645-0.671-0.732-0.671L9.839,52.91z"/>
<path d="M14.31,49.734c0.258,0.016,0.513,0.009,0.765-0.021c0.799-0.016,1.505,0.014,2.118,0.088
c0.912,0.016,1.368,0.052,1.368,0.108c0.014,0.033,0.017,0.21,0.009,0.53c0,0.086-0.459,0.138-1.377,0.155
c0,0.033-0.706,0.077-2.118,0.132c-0.113,0.006-0.18,0.027-0.199,0.064c0,0.598,0.022,0.951,0.067,1.061
c0,0.059,0.456,0.088,1.368,0.088c0.387,0,0.58,0.029,0.58,0.088c0.039,0.109,0.039,0.286,0,0.53c0,0.043-0.312,0.058-0.935,0.044
c-0.588,0-0.882,0.007-0.882,0.021c-0.102,0-0.152,0.272-0.152,0.817c0,0.088,0.169,0.125,0.507,0.111
c0.939-0.016,1.409-0.011,1.409,0.015c0.068,0,0.091,0.193,0.067,0.58c0,0.102-0.434,0.146-1.301,0.132
c-0.412,0.008-0.618,0.022-0.618,0.044c-0.027,0-0.049,0.294-0.064,0.882c0,0.119,0.198,0.179,0.595,0.179
c0.104,0.025,0.574,0.025,1.412,0c0.523,0.012,0.905,0.004,1.146-0.023c0.252,0,0.378,0.066,0.378,0.199
c0.027,0.367,0.02,0.551-0.023,0.551c-0.146,0-0.617-0.022-1.412-0.067c-0.633,0.041-1.28,0.071-1.942,0.091
c-0.617-0.012-0.926-0.026-0.926-0.044c-0.074,0-0.104-0.295-0.088-0.885c0.01,0,0.01-0.882,0-2.646c0.008,0,0-0.706-0.023-2.118
c0-0.354,0.003-0.53,0.009-0.53C14.103,49.832,14.191,49.773,14.31,49.734z"/>
<path d="M19.387,49.91c0.607,0.004,0.911,0.046,0.911,0.126c0.207,0.172,0.454,0.307,0.741,0.404
c0.756,0.521,1.402,0.934,1.939,1.236c0.102,0.107,0.267,0.208,0.495,0.302c0.074,0,0.1-0.16,0.076-0.48
c-0.006-1.059,0.011-1.588,0.05-1.588c0-0.029,0.193-0.036,0.58-0.021c0.104,0,0.155,0.242,0.155,0.727
c-0.029,0.654-0.044,1.184-0.044,1.588c0.057,1.146,0.085,1.911,0.085,2.294c-0.025,0-0.054,0.471-0.085,1.412
c0,0.088-0.214,0.132-0.642,0.132c-0.111,0-0.287-0.111-0.527-0.334c-0.186-0.063-0.539-0.297-1.061-0.703
c-0.047,0-0.518-0.277-1.412-0.832c-0.33-0.213-0.506-0.319-0.527-0.319c-0.059,0-0.088,0.45-0.088,1.351
c0.029,0.414,0.029,0.649,0,0.706c0,0.045-0.206,0.067-0.618,0.067c-0.125-0.006-0.191-0.028-0.199-0.067
c0.029-0.236,0.044-0.589,0.044-1.058c-0.029,0-0.015-0.471,0.044-1.412C19.295,51.108,19.323,49.931,19.387,49.91z M20.099,50.792
c0,0.033,0,0.269,0,0.706c0.023,0.076,0.023,0.43,0,1.061c0,0.346,0.096,0.522,0.287,0.53c0.139,0.014,0.433-0.104,0.882-0.354
c0.719-0.303,1.078-0.479,1.078-0.53c0-0.064-0.256-0.24-0.768-0.527c-0.383-0.146-0.574-0.235-0.574-0.267
C20.418,50.986,20.117,50.78,20.099,50.792z M23.079,52.734c-1.207,0.58-1.811,0.874-1.811,0.882c0,0.031,0.206,0.142,0.618,0.331
c0.814,0.648,1.344,0.994,1.588,1.037c0.059,0,0.088-0.573,0.088-1.72c0-0.396-0.088-0.599-0.264-0.606
C23.218,52.666,23.145,52.691,23.079,52.734z"/>
<path d="M28.466,50.088c0.139-0.051,0.462-0.068,0.97-0.053c0.047,0,0.459,0.387,1.236,1.16c0.4,0.398,0.636,0.598,0.706,0.598
c0.365-0.297,1.047-0.807,2.045-1.529c0.068-0.148,0.269-0.223,0.601-0.223c0.252,0.016,0.378,0.031,0.378,0.047
c0.057,0.994,0.085,1.759,0.085,2.294c0.059,0.141,0.081,0.346,0.067,0.615c-0.008,0-0.001,0.383,0.021,1.148
c-0.08,1.176-0.126,1.764-0.138,1.764c0,0.045-0.255,0.055-0.765,0.029c-0.074,0-0.111-0.539-0.111-1.617
c-0.014-0.736-0.021-1.56-0.021-2.47c0-0.51-0.015-0.765-0.044-0.765c-1.037,0.727-1.556,1.099-1.556,1.116
c0,0.127,0.175,0.304,0.524,0.53c0.199,0.189,0.299,0.308,0.299,0.354c-0.514,0.959-0.9,1.899-1.16,2.821
c0,0.133-0.135,0.199-0.404,0.199c-0.346,0-0.521-0.145-0.527-0.434c-0.543-1.119-0.879-1.864-1.008-2.235
c-0.049-0.09-0.066-0.158-0.053-0.205c0.191-0.213,0.521-0.497,0.99-0.853c0.066-0.088,0.09-0.157,0.07-0.208
c-0.35-0.285-0.703-0.595-1.061-0.929c-0.346-0.342-0.521-0.513-0.527-0.513c-0.029,0-0.037,0.255-0.023,0.765
c-0.031,0.035-0.053,0.977-0.064,2.824c0.01,0,0.024,0.471,0.044,1.412c0.043,0.094,0.058,0.164,0.044,0.211
c0,0.029-0.235,0.068-0.706,0.117c-0.148,0-0.223-0.109-0.223-0.328c0.035-0.398,0.05-0.722,0.044-0.97
c0.021,0,0.037-1.089,0.047-3.267c-0.016,0-0.023-0.411-0.023-1.233C28.26,50.165,28.341,50.106,28.466,50.088z M31.129,52.91
c-0.383,0.311-0.574,0.487-0.574,0.53c-0.1,0.061-0.137,0.178-0.111,0.352c0.449,0.941,0.691,1.412,0.727,1.412
c0.07,0.02,0.105-0.039,0.105-0.176c0.217-0.42,0.461-0.949,0.732-1.588c-0.146-0.184-0.356-0.396-0.63-0.636
C31.273,52.82,31.19,52.855,31.129,52.91z"/>
<path d="M37.244,50.264c0.059-0.104,0.456-0.155,1.192-0.155c0.826,0.105,1.439,0.451,1.84,1.037
c0.436,0.658,0.653,1.364,0.653,2.118c-0.182,1.23-0.689,2.054-1.523,2.47c-0.527,0.309-0.969,0.463-1.324,0.463
c-0.68-0.008-1.291-0.162-1.834-0.463c-0.678-0.459-1.066-1.312-1.166-2.558c-0.014-0.373,0.054-0.697,0.202-0.973
c0.189-0.42,0.534-0.898,1.034-1.436C36.757,50.506,37.066,50.338,37.244,50.264z M37.493,50.97
c-0.281,0.113-0.536,0.289-0.765,0.527c-0.553,0.463-0.858,0.993-0.917,1.591c0,0.553,0.085,0.964,0.255,1.233
c0.385,0.555,0.939,0.914,1.664,1.078c0.803,0.002,1.332-0.171,1.588-0.519c0.527-0.662,0.836-1.26,0.926-1.793
c0-0.482-0.073-0.807-0.22-0.973c-0.201-0.58-0.73-0.984-1.588-1.213C37.864,50.889,37.549,50.912,37.493,50.97z"/>
<path d="M43.463,49.204c0.113-0.039,0.437-0.045,0.97-0.018c0.793,0.197,1.197,0.438,1.213,0.724c0,0.383-0.228,0.814-0.683,1.295
c-0.033,0.057-0.181,0.154-0.442,0.293c0,0.045,0.276,0.163,0.829,0.354c0.287,0.158,0.427,0.511,0.419,1.058
c-0.059,0.314-0.21,0.579-0.454,0.794c-0.029,0.158,0.021,0.247,0.149,0.267c0.383,0.68,0.576,1.209,0.58,1.588
c0,0.354-0.037,0.53-0.111,0.53c-0.424,0.016-0.649,0.016-0.677,0c-0.078,0-0.153-0.412-0.226-1.236
c-0.127-0.604-0.414-0.897-0.861-0.882c-1,0.244-1.5,0.391-1.5,0.439c-0.059,0-0.084,0.383-0.076,1.148
c0.006,0.367-0.027,0.551-0.1,0.551c-0.236-0.029-0.472-0.029-0.706,0c-0.059,0-0.073-0.419-0.044-1.257
c0.021-1.471,0.036-2.206,0.044-2.206c0.014,0,0.021-0.735,0.021-2.206c0-0.555,0.11-0.832,0.331-0.832
C42.504,49.461,42.946,49.327,43.463,49.204z M43.463,52.204c0,0.012-0.235,0.071-0.706,0.179c-0.104,0-0.155,0.235-0.155,0.706
c-0.014,0.5,0.009,0.75,0.067,0.75c0-0.012,0.412-0.13,1.236-0.354c0.635-0.145,0.965-0.453,0.99-0.926
c0-0.271-0.154-0.426-0.463-0.463C43.818,52.095,43.495,52.131,43.463,52.204z M43.668,50.088c0,0.018-0.216,0.083-0.647,0.196
c-0.25,0-0.367,0.081-0.352,0.243c0.043,0.646,0.082,0.97,0.117,0.97c0.055,0.016,0.133,0.009,0.234-0.021
c0.836-0.359,1.388-0.764,1.655-1.213c0-0.07-0.11-0.129-0.331-0.176C44.08,50.057,43.854,50.057,43.668,50.088z"/>
<path d="M47.199,49.734c0.258,0.016,0.513,0.009,0.765-0.021c0.799-0.016,1.505,0.014,2.118,0.088
c0.912,0.016,1.368,0.052,1.368,0.108c0.014,0.033,0.017,0.21,0.009,0.53c0,0.086-0.459,0.138-1.377,0.155
c0,0.033-0.706,0.077-2.118,0.132c-0.113,0.006-0.18,0.027-0.199,0.064c0,0.598,0.022,0.951,0.067,1.061
c0,0.059,0.456,0.088,1.368,0.088c0.387,0,0.58,0.029,0.58,0.088c0.039,0.109,0.039,0.286,0,0.53c0,0.043-0.312,0.058-0.935,0.044
c-0.588,0-0.882,0.007-0.882,0.021c-0.102,0-0.152,0.272-0.152,0.817c0,0.088,0.169,0.125,0.507,0.111
c0.939-0.016,1.409-0.011,1.409,0.015c0.068,0,0.091,0.193,0.067,0.58c0,0.102-0.434,0.146-1.301,0.132
c-0.412,0.008-0.618,0.022-0.618,0.044c-0.027,0-0.049,0.294-0.064,0.882c0,0.119,0.198,0.179,0.595,0.179
c0.104,0.025,0.574,0.025,1.412,0c0.523,0.012,0.905,0.004,1.146-0.023c0.252,0,0.378,0.066,0.378,0.199
c0.027,0.367,0.02,0.551-0.023,0.551c-0.146,0-0.617-0.022-1.412-0.067c-0.633,0.041-1.28,0.071-1.942,0.091
c-0.617-0.012-0.926-0.026-0.926-0.044c-0.074,0-0.104-0.295-0.088-0.885c0.01,0,0.01-0.882,0-2.646c0.008,0,0-0.706-0.023-2.118
c0-0.354,0.003-0.53,0.009-0.53C46.992,49.832,47.08,49.773,47.199,49.734z"/>
<path d="M2.392,57.904c0.32-0.014,0.486-0.014,0.498,0c0.039,0,0.078,0.383,0.117,1.148c0.016,0.646,0.009,0.97-0.021,0.97
c0,0.471,0.016,0.706,0.047,0.706l0.152,0.152c0.613-0.381,0.966-0.571,1.058-0.571c0.309,0,0.779,0.188,1.412,0.565
c0.133,0,0.199-0.049,0.199-0.146c0.014-0.863-0.001-1.451-0.044-1.764c0-0.727,0.007-1.09,0.021-1.09
c0.488-0.014,0.732-0.004,0.732,0.029c0.057,0,0.077,0.589,0.062,1.767c0.016,0,0.023,0.705,0.023,2.115
c-0.041,1.061-0.087,1.591-0.138,1.591c-0.203,0.471-0.665,0.756-1.386,0.855c-0.07,0.061-0.481,0.084-1.233,0.07
c-0.785-0.115-1.285-0.365-1.5-0.75c-0.27-0.35-0.404-1.056-0.404-2.118c0.02-1.322,0.029-2.439,0.029-3.352
C2.017,57.989,2.142,57.929,2.392,57.904z M4.126,61.083c-0.275,0.086-0.413,0.137-0.413,0.152
c-0.426,0.271-0.639,0.515-0.639,0.729c0,0.613,0.154,1.005,0.463,1.175c0.008,0.098,0.36,0.146,1.058,0.146
c0.766,0,1.163-0.382,1.192-1.146c0.016-0.32-0.146-0.547-0.486-0.68c-0.264-0.262-0.499-0.413-0.706-0.454
C4.326,61.014,4.169,61.04,4.126,61.083z"/>
<path d="M9.362,57.734c0.037-0.045,0.166-0.062,0.387-0.05c0.633,0.252,1.104,0.523,1.412,0.814
c0.266,0.158,0.398,0.433,0.398,0.823c0,0.273-0.25,0.637-0.75,1.09c-0.52,0.445-0.829,0.671-0.929,0.677
c0,0.014-0.338,0.209-1.014,0.586c-0.176,0.063-0.264,0.337-0.264,0.823c-0.039,0.941-0.088,1.412-0.146,1.412
c0,0.029-0.216,0.066-0.647,0.111c-0.074,0-0.104-0.154-0.088-0.463c0-0.574-0.013-1.222-0.038-1.942
c0.025,0,0.038-0.471,0.038-1.412c-0.029-0.59-0.029-1.061,0-1.412c0-0.15,0.455-0.444,1.365-0.882
C9.25,57.82,9.342,57.761,9.362,57.734z M9.514,58.616c-0.506,0.141-0.759,0.259-0.759,0.354c-0.033,0.834-0.063,1.363-0.088,1.588
c0.002,0.043,0.068,0.064,0.199,0.064c0.221-0.154,0.456-0.286,0.706-0.396c0.574-0.49,0.861-0.792,0.861-0.905
C10.206,58.837,9.899,58.602,9.514,58.616z"/>
<path d="M13.879,57.734c0.037-0.045,0.166-0.062,0.387-0.05c0.633,0.252,1.104,0.523,1.412,0.814
c0.266,0.158,0.398,0.433,0.398,0.823c0,0.273-0.25,0.637-0.75,1.09c-0.52,0.445-0.829,0.671-0.929,0.677
c0,0.014-0.338,0.209-1.014,0.586c-0.176,0.063-0.264,0.337-0.264,0.823c-0.039,0.941-0.088,1.412-0.146,1.412
c0,0.029-0.216,0.066-0.647,0.111c-0.074,0-0.104-0.154-0.088-0.463c0-0.574-0.013-1.222-0.038-1.942
c0.025,0,0.038-0.471,0.038-1.412c-0.029-0.59-0.029-1.061,0-1.412c0-0.15,0.455-0.444,1.365-0.882
C13.768,57.82,13.86,57.761,13.879,57.734z M14.032,58.616c-0.506,0.141-0.759,0.259-0.759,0.354
c-0.033,0.834-0.063,1.363-0.088,1.588c0.002,0.043,0.068,0.064,0.199,0.064c0.221-0.154,0.456-0.286,0.706-0.396
c0.574-0.49,0.861-0.792,0.861-0.905C14.723,58.837,14.417,58.602,14.032,58.616z"/>
<path d="M17.137,57.734c0.258,0.016,0.513,0.009,0.765-0.021c0.799-0.016,1.505,0.014,2.118,0.088
c0.912,0.016,1.368,0.052,1.368,0.108c0.014,0.033,0.017,0.21,0.009,0.53c0,0.086-0.459,0.138-1.377,0.155
c0,0.033-0.706,0.077-2.118,0.132c-0.113,0.006-0.18,0.027-0.199,0.064c0,0.598,0.022,0.951,0.067,1.061
c0,0.059,0.456,0.088,1.368,0.088c0.387,0,0.58,0.029,0.58,0.088c0.039,0.109,0.039,0.286,0,0.53c0,0.043-0.312,0.058-0.935,0.044
c-0.588,0-0.882,0.007-0.882,0.021c-0.102,0-0.152,0.272-0.152,0.817c0,0.088,0.169,0.125,0.507,0.111
c0.939-0.016,1.409-0.011,1.409,0.015c0.068,0,0.091,0.193,0.067,0.58c0,0.102-0.434,0.146-1.301,0.132
c-0.412,0.008-0.618,0.022-0.618,0.044c-0.027,0-0.049,0.294-0.064,0.882c0,0.119,0.198,0.179,0.595,0.179
c0.104,0.025,0.574,0.025,1.412,0c0.523,0.012,0.905,0.004,1.146-0.023c0.252,0,0.378,0.066,0.378,0.199
c0.027,0.367,0.02,0.551-0.023,0.551c-0.146,0-0.617-0.022-1.412-0.067c-0.633,0.041-1.28,0.071-1.942,0.091
c-0.617-0.012-0.926-0.026-0.926-0.044c-0.074,0-0.104-0.295-0.088-0.885c0.01,0,0.01-0.882,0-2.646c0.008,0,0-0.706-0.023-2.118
c0-0.354,0.003-0.53,0.009-0.53C16.93,57.832,17.018,57.773,17.137,57.734z"/>
<path d="M23.919,57.204c0.113-0.039,0.437-0.045,0.97-0.018c0.793,0.197,1.197,0.438,1.213,0.724c0,0.383-0.228,0.814-0.683,1.295
c-0.033,0.057-0.181,0.154-0.442,0.293c0,0.045,0.276,0.163,0.829,0.354c0.287,0.158,0.427,0.511,0.419,1.058
c-0.059,0.314-0.21,0.579-0.454,0.794c-0.029,0.158,0.021,0.247,0.149,0.267c0.383,0.68,0.576,1.209,0.58,1.588
c0,0.354-0.037,0.53-0.111,0.53c-0.424,0.016-0.649,0.016-0.677,0c-0.078,0-0.153-0.412-0.226-1.236
c-0.127-0.604-0.414-0.897-0.861-0.882c-1,0.244-1.5,0.391-1.5,0.439c-0.059,0-0.084,0.383-0.076,1.148
c0.006,0.367-0.027,0.551-0.1,0.551c-0.236-0.029-0.472-0.029-0.706,0c-0.059,0-0.073-0.419-0.044-1.257
c0.021-1.471,0.036-2.206,0.044-2.206c0.014,0,0.021-0.735,0.021-2.206c0-0.555,0.11-0.832,0.331-0.832
C22.96,57.461,23.402,57.327,23.919,57.204z M23.919,60.204c0,0.012-0.235,0.071-0.706,0.179c-0.104,0-0.155,0.235-0.155,0.706
c-0.014,0.5,0.009,0.75,0.067,0.75c0-0.012,0.412-0.13,1.236-0.354c0.635-0.145,0.965-0.453,0.99-0.926
c0-0.271-0.154-0.426-0.463-0.463C24.274,60.095,23.951,60.131,23.919,60.204z M24.125,58.088c0,0.018-0.216,0.083-0.647,0.196
c-0.25,0-0.367,0.081-0.352,0.243c0.043,0.646,0.082,0.97,0.117,0.97c0.055,0.016,0.133,0.009,0.234-0.021
c0.836-0.359,1.388-0.764,1.655-1.213c0-0.07-0.11-0.129-0.331-0.176C24.536,58.057,24.31,58.057,24.125,58.088z"/>
<path d="M29.257,57.91c0.057-0.068,0.542-0.119,1.456-0.152c0.76,0.168,1.195,0.337,1.307,0.507c0.02,0.184-0.014,0.301-0.1,0.352
c-0.133,0.219-0.241,0.328-0.325,0.328c-0.484-0.189-1.014-0.279-1.588-0.27c-0.432,0.027-0.726,0.134-0.882,0.319
c-0.605,0.346-0.992,0.809-1.16,1.389c-0.035,0.1-0.046,0.394-0.032,0.882c0.207,0.98,0.781,1.635,1.723,1.963
c0.744,0.014,1.116,0.006,1.116-0.023c0.561-0.145,0.953-0.39,1.178-0.735c0.055,0,0.251,0.128,0.589,0.384
c0,0.225-0.196,0.485-0.589,0.782c-0.645,0.346-1.351,0.519-2.118,0.519c-0.582,0-0.876-0.037-0.882-0.111
c-0.631-0.127-1.227-0.759-1.787-1.896c-0.117-0.234-0.176-0.705-0.176-1.412c0.051-0.91,0.587-1.75,1.608-2.52
C28.804,58.115,29.025,58.013,29.257,57.91z"/>
<path d="M35.919,58.088c0.568-0.016,0.853-0.016,0.853,0c0.152,0,0.229,0.588,0.229,1.764c0.061,1.4,0.135,2.224,0.223,2.47
c0.02,0,0.078,0.471,0.176,1.412c0,0.133-0.287,0.199-0.861,0.199c-0.088,0-0.132-0.243-0.132-0.729
c0-0.252-0.015-0.378-0.044-0.378c-1.186-0.385-1.95-0.637-2.294-0.756c-0.115,0-0.211,0.378-0.287,1.134
c-0.145,0.604-0.226,0.905-0.243,0.905c-0.463-0.014-0.705-0.08-0.727-0.199c0-0.033,0.125-0.886,0.375-2.558
c0.133-0.854,0.284-1.647,0.454-2.382c0.063-0.529,0.146-0.794,0.252-0.794C33.892,58.163,34.568,58.133,35.919,58.088z
M35.744,61.088c-1.133,0.178-1.699,0.295-1.699,0.352c1.377,0.35,2.091,0.56,2.142,0.63l0.141-0.1
c0.008-0.633-0.039-0.949-0.141-0.949C35.891,61.054,35.744,61.077,35.744,61.088z M34.554,59.146
c-0.027,0-0.138,0.471-0.331,1.412c0,0.033,0.065,0.05,0.196,0.05c0.031,0,0.502-0.115,1.412-0.346c0.25,0,0.368-0.107,0.354-0.322
c-0.033-0.613-0.093-0.92-0.179-0.92C35.039,59.032,34.554,59.074,34.554,59.146z"/>
<path d="M40.332,57.91c0.131-0.043,0.425-0.043,0.882,0c0.381,0.02,0.705,0.161,0.973,0.425c0.414,0.205,0.624,0.476,0.63,0.812
c0.006,0.703-0.028,1.07-0.103,1.102c-0.16,0.311-0.396,0.466-0.706,0.466c-0.303,0-0.852-0.11-1.646-0.331
c-0.107,0-0.146-0.099-0.117-0.296c0.029-0.324,0.147-0.486,0.354-0.486c0.117,0,0.528,0.099,1.233,0.296
c0.178,0.014,0.267-0.001,0.267-0.044c0.014-0.363-0.026-0.599-0.12-0.706c-0.246-0.338-0.589-0.507-1.028-0.507
c-0.416,0-0.852,0.11-1.307,0.331c-0.32,0.213-0.48,0.507-0.48,0.882c0.014,0.59,0.668,0.984,1.963,1.184
c0.725,0.174,1.195,0.471,1.412,0.891c0.104,0.141,0.154,0.508,0.152,1.102c-0.148,0.523-0.729,0.913-1.74,1.169
c-0.785,0-1.256-0.044-1.412-0.132c-0.518-0.139-0.937-0.543-1.257-1.213c-0.016-0.377-0.009-0.565,0.021-0.565
c0.178-0.248,0.413-0.376,0.706-0.384c0.697,0.088,1.228,0.235,1.591,0.442c0.25,0.025,0.367,0.096,0.352,0.211
c-0.096,0.227-0.154,0.34-0.176,0.34c-0.451-0.191-0.863-0.287-1.236-0.287c-0.172,0-0.268,0.081-0.287,0.243
c0.096,0.426,0.604,0.639,1.523,0.639c0.41,0,0.719-0.213,0.926-0.639c0.016-0.504-0.058-0.778-0.22-0.823
c0-0.053-0.5-0.19-1.5-0.413c-0.771-0.1-1.213-0.364-1.324-0.794c-0.221-0.299-0.331-0.622-0.331-0.97
c0-0.611,0.287-1.102,0.861-1.471C39.27,58.247,39.652,58.089,40.332,57.91z"/>
<path d="M44.243,57.734c0.258,0.016,0.513,0.009,0.765-0.021c0.799-0.016,1.505,0.014,2.118,0.088
c0.912,0.016,1.368,0.052,1.368,0.108c0.014,0.033,0.017,0.21,0.009,0.53c0,0.086-0.459,0.138-1.377,0.155
c0,0.033-0.706,0.077-2.118,0.132c-0.113,0.006-0.18,0.027-0.199,0.064c0,0.598,0.022,0.951,0.067,1.061
c0,0.059,0.456,0.088,1.368,0.088c0.387,0,0.58,0.029,0.58,0.088c0.039,0.109,0.039,0.286,0,0.53c0,0.043-0.312,0.058-0.935,0.044
c-0.588,0-0.882,0.007-0.882,0.021c-0.102,0-0.152,0.272-0.152,0.817c0,0.088,0.169,0.125,0.507,0.111
c0.939-0.016,1.409-0.011,1.409,0.015c0.068,0,0.091,0.193,0.067,0.58c0,0.102-0.434,0.146-1.301,0.132
c-0.412,0.008-0.618,0.022-0.618,0.044c-0.027,0-0.049,0.294-0.064,0.882c0,0.119,0.198,0.179,0.595,0.179
c0.104,0.025,0.574,0.025,1.412,0c0.523,0.012,0.905,0.004,1.146-0.023c0.252,0,0.378,0.066,0.378,0.199
c0.027,0.367,0.02,0.551-0.023,0.551c-0.146,0-0.617-0.022-1.412-0.067c-0.633,0.041-1.28,0.071-1.942,0.091
c-0.617-0.012-0.926-0.026-0.926-0.044c-0.074,0-0.104-0.295-0.088-0.885c0.01,0,0.01-0.882,0-2.646c0.008,0,0-0.706-0.023-2.118
c0-0.354,0.003-0.53,0.009-0.53C44.036,57.832,44.124,57.773,44.243,57.734z"/>
</g>
<g>
<path d="M5.566,67.81c0.004-0.055,0.098-0.089,0.281-0.103c0.102,0.07,0.183,0.163,0.243,0.278
c-0.084,0.145-0.233,0.321-0.448,0.53c0,0.207,0.068,0.334,0.205,0.381c0.445,0.467,0.695,0.986,0.75,1.559
c-0.025,0.395-0.412,0.807-1.16,1.236c-0.27,0.162-0.603,0.243-0.999,0.243c-0.471-0.045-0.729-0.303-0.773-0.773
c0.014-0.561,0.35-1.325,1.008-2.294c0-0.168-0.078-0.252-0.234-0.252c-0.441-0.023-0.662,0.002-0.662,0.076
c-0.25,0.063-0.374,0.298-0.372,0.706c0.012,0.25,0.003,0.375-0.026,0.375c-0.285,0-0.428-0.066-0.428-0.199
c0-0.65,0.084-1.027,0.252-1.131c0.211-0.262,0.563-0.393,1.058-0.393c0.211,0.029,0.446,0.108,0.706,0.237
C5.021,68.287,5.221,68.128,5.566,67.81z M5.054,69.219l-0.088,0.108c-0.313,0.531-0.533,1.084-0.662,1.658
c0,0.279,0.162,0.419,0.486,0.419c0.73-0.354,1.172-0.67,1.324-0.949c-0.096-0.48-0.419-0.922-0.97-1.324L5.054,69.219z"/>
<path d="M8.101,69.04c0.17-0.088,0.479-0.132,0.926-0.132c1.002,0.182,1.509,0.696,1.521,1.544c-0.035,0.586-0.189,1.086-0.463,1.5
c-0.174,0.043-0.291,0.03-0.352-0.038c-0.168-0.063-0.244-0.196-0.229-0.401c0.182-0.236,0.265-0.648,0.249-1.236
c-0.033-0.426-0.334-0.639-0.902-0.639c-0.574,0-0.861,0.271-0.861,0.814c0,0.365,0.076,0.659,0.229,0.882
c0.035,0.27,0.011,0.407-0.073,0.413c-0.119,0.156-0.237,0.234-0.354,0.234c-0.336-0.422-0.497-0.99-0.483-1.705
C7.326,69.769,7.591,69.356,8.101,69.04z"/>
<path d="M12.908,68.214c0.031-0.051,0.101-0.051,0.208,0c0.412,0.244,0.662,0.686,0.75,1.324c0,0.1,0.294,0.229,0.882,0.39
c0.088,0.02,0.139,0.096,0.152,0.229c-0.15,0.318-0.26,0.478-0.328,0.478c-0.244-0.117-0.421-0.176-0.53-0.176
c-0.072,0-0.105,0.193-0.1,0.58c0.023,0,0.035,0.529,0.035,1.588c-0.016,0.264-0.053,0.396-0.111,0.396
c-0.471,0-0.706-0.044-0.706-0.132c-0.008-0.09-0.066-0.169-0.176-0.237c-0.25,0.188-0.544,0.281-0.882,0.281
c-0.758-0.014-1.147-0.469-1.169-1.365c0-0.434,0.213-0.855,0.639-1.266c0.545-0.35,1.016-0.546,1.412-0.589
c0.066,0,0.096-0.088,0.088-0.264c-0.025-0.191-0.124-0.368-0.296-0.53c-0.029-0.217-0.002-0.394,0.082-0.53L12.908,68.214z
M12.586,70.508c-0.479,0.184-0.758,0.331-0.838,0.442c-0.162,0.066-0.243,0.331-0.243,0.794c0,0.367,0.14,0.594,0.419,0.68
c0.285-0.01,0.639-0.207,1.061-0.592c0.102,0,0.146-0.206,0.132-0.618c0-0.514-0.044-0.771-0.132-0.771
C12.732,70.461,12.6,70.482,12.586,70.508z"/>
<path d="M18.905,70.276c1.234,0.047,1.911,0.114,2.03,0.202c0.367,0.143,0.543,0.34,0.527,0.592
c-0.123,0.824-0.593,1.236-1.409,1.236c-0.666,0.014-1.078-0.083-1.236-0.29c-0.367-0.102-0.551-0.505-0.551-1.21
C18.376,70.5,18.589,70.323,18.905,70.276z M19.11,69.04c0.092-0.072,0.523-0.108,1.295-0.108c0.559,0.027,0.875,0.299,0.949,0.814
c0,0.092-0.198,0.168-0.595,0.229c-0.113-0.225-0.408-0.337-0.885-0.337c-0.262,0.039-0.438,0.104-0.527,0.196
c-0.125,0.01-0.36-0.045-0.706-0.164l-0.117-0.1C18.806,69.23,19.001,69.054,19.11,69.04z M19.037,71.158
c0.078,0.334,0.446,0.511,1.104,0.53c0.316,0.014,0.547-0.104,0.691-0.354c-0.002-0.145-0.026-0.22-0.073-0.226
c-0.656-0.02-1.068-0.047-1.236-0.082C19.199,71.026,19.037,71.07,19.037,71.158z"/>
<path d="M22.629,67.982c0.137-0.15,0.396-0.194,0.776-0.132c0.113,0.02,0.525,0.322,1.236,0.908c0.09,0.074,0.135,0.204,0.135,0.39
c0,0.023-0.001,0.046-0.003,0.067c-0.012,0.123-0.17,0.185-0.475,0.185c-0.025,0-0.049-0.002-0.07-0.006
c-0.242-0.721-0.575-1.081-0.999-1.081c-0.426,0.053-0.639,0.295-0.639,0.727c0,0.203,0.448,0.431,1.345,0.683
c0.455,0.229,0.683,0.648,0.683,1.26c-0.086,0.578-0.432,0.88-1.037,0.905c-0.814-0.023-1.285-0.223-1.412-0.598
c-0.1-0.037-0.149-0.307-0.149-0.809c0-0.01,0-0.02,0-0.029c0-0.057,0.092-0.233,0.275-0.53c0-0.189-0.05-0.307-0.149-0.352
c-0.072-0.033-0.108-0.236-0.108-0.609c0-0.006,0-0.011,0-0.015c0-0.078,0.002-0.164,0.006-0.258
C22.096,68.468,22.291,68.232,22.629,67.982z M22.91,70.101c-0.154,0.219-0.231,0.454-0.231,0.706
c0.021,0.352,0.272,0.527,0.753,0.527c0.02,0,0.04,0,0.062,0c0.324-0.033,0.486-0.252,0.486-0.656c0-0.016,0-0.032,0-0.05
c-0.256-0.365-0.506-0.563-0.75-0.595C23.017,70.01,22.91,70.032,22.91,70.101z"/>
<path d="M25.354,68.8c0-0.031,0.184-0.047,0.551-0.047c0.088,0,0.125,0.191,0.111,0.574l0.064,0.132
c0.32-0.313,0.732-0.481,1.236-0.507c0.613,0.133,0.966,0.571,1.058,1.315c0.045,0,0.061,0.334,0.047,1.002
c-0.1,0.576-0.546,0.929-1.339,1.058c-0.578,0.143-0.867,0.261-0.867,0.354c0.063,0.207,0.352,0.56,0.867,1.058
c0.021,0.262-0.077,0.453-0.296,0.574c-0.195,0-0.431-0.201-0.706-0.604c-0.16-0.172-0.355-0.456-0.586-0.853
c0-0.066-0.099-0.089-0.296-0.067c-0.35,0.063-0.595,0.085-0.735,0.067c-0.033,0-0.072-0.177-0.117-0.53
c0-0.068,0.284-0.144,0.853-0.226c0.074,0,0.097-0.16,0.067-0.48C25.266,70.467,25.295,69.526,25.354,68.8z M26.669,69.857
c-0.018,0-0.107,0.059-0.27,0.176c-0.285,0.119-0.428,0.473-0.428,1.061c0,0.549,0.036,0.823,0.108,0.823
c0.393-0.068,0.589-0.107,0.589-0.117c0.74-0.107,1.11-0.52,1.11-1.236c0-0.463-0.154-0.74-0.463-0.832
C27.029,69.712,26.813,69.754,26.669,69.857z"/>
<path d="M29.335,70.276c1.234,0.047,1.911,0.114,2.03,0.202c0.367,0.143,0.543,0.34,0.527,0.592
c-0.123,0.824-0.593,1.236-1.409,1.236c-0.666,0.014-1.078-0.083-1.236-0.29c-0.367-0.102-0.551-0.505-0.551-1.21
C28.806,70.5,29.019,70.323,29.335,70.276z M29.54,69.04c0.092-0.072,0.523-0.108,1.295-0.108c0.559,0.027,0.875,0.299,0.949,0.814
c0,0.092-0.198,0.168-0.595,0.229c-0.113-0.225-0.408-0.337-0.885-0.337c-0.262,0.039-0.438,0.104-0.527,0.196
c-0.125,0.01-0.36-0.045-0.706-0.164l-0.117-0.1C29.235,69.23,29.431,69.054,29.54,69.04z M29.467,71.158
c0.078,0.334,0.446,0.511,1.104,0.53c0.316,0.014,0.547-0.104,0.691-0.354c-0.002-0.145-0.026-0.22-0.073-0.226
c-0.656-0.02-1.068-0.047-1.236-0.082C29.629,71.026,29.467,71.07,29.467,71.158z"/>
<path d="M33.041,69.216c0.232-0.102,0.615-0.152,1.148-0.152c0.688,0.133,1.031,0.302,1.031,0.507
c-0.092,0.334-0.2,0.501-0.325,0.501c-0.215-0.275-0.568-0.413-1.061-0.413c-0.662,0.064-0.993,0.271-0.993,0.618
c0.1,0.602,0.431,0.925,0.993,0.97c0.098,0,0.274-0.114,0.53-0.343c0.191,0.055,0.279,0.198,0.264,0.431
c-0.166,0.369-0.548,0.554-1.146,0.554c-0.709-0.141-1.099-0.678-1.169-1.611C32.314,69.675,32.557,69.321,33.041,69.216z"/>
<path d="M35.71,68.864c0-0.074,0.198-0.111,0.595-0.111c0.145,0,0.218,0.214,0.22,0.642c-0.025,0.131-0.187,0.189-0.483,0.176
c-0.236-0.002-0.354-0.061-0.354-0.176C35.702,69.395,35.71,69.218,35.71,68.864z M35.754,70.101c0-0.074,0.184-0.104,0.551-0.088
c0.104,0,0.155,0.382,0.155,1.146c0.029,0.328,0.036,0.534,0.021,0.618c0,0.088-0.176,0.125-0.527,0.111
c-0.176,0-0.265-0.243-0.267-0.729C35.714,70.453,35.736,70.101,35.754,70.101z M35.848,67.628c0-0.059,0.094-0.088,0.281-0.088
c0.15,0,0.246,0.089,0.287,0.267c-0.086,0.332-0.24,0.498-0.463,0.498c-0.148-0.053-0.216-0.219-0.202-0.498
C35.771,67.752,35.803,67.692,35.848,67.628z"/>
<path d="M39.639,67.81c0.004-0.055,0.098-0.089,0.281-0.103c0.102,0.07,0.183,0.163,0.243,0.278
c-0.084,0.145-0.233,0.321-0.448,0.53c0,0.207,0.068,0.334,0.205,0.381c0.445,0.467,0.695,0.986,0.75,1.559
c-0.025,0.395-0.412,0.807-1.16,1.236c-0.27,0.162-0.603,0.243-0.999,0.243c-0.471-0.045-0.729-0.303-0.773-0.773
c0.014-0.561,0.35-1.325,1.008-2.294c0-0.168-0.078-0.252-0.234-0.252c-0.441-0.023-0.662,0.002-0.662,0.076
c-0.25,0.063-0.374,0.298-0.372,0.706c0.012,0.25,0.003,0.375-0.026,0.375c-0.285,0-0.428-0.066-0.428-0.199
c0-0.65,0.084-1.027,0.252-1.131c0.211-0.262,0.563-0.393,1.058-0.393c0.211,0.029,0.446,0.108,0.706,0.237
C39.093,68.287,39.293,68.128,39.639,67.81z M39.126,69.219l-0.088,0.108c-0.313,0.531-0.533,1.084-0.662,1.658
c0,0.279,0.162,0.419,0.486,0.419c0.73-0.354,1.172-0.67,1.324-0.949c-0.096-0.48-0.419-0.922-0.97-1.324L39.126,69.219z"/>
<path d="M41.086,67.452c0.053-0.047,0.135-0.089,0.246-0.126c0.219,0,0.396,0.474,0.53,1.421c0.053,0,0.09,0.98,0.111,2.941
c-0.018,0.285-0.055,0.428-0.111,0.428c-0.387,0-0.58-0.025-0.58-0.076c-0.023-2.51-0.065-3.765-0.126-3.765
c-0.176-0.426-0.264-0.642-0.264-0.647C40.916,67.595,40.98,67.536,41.086,67.452z"/>
<path d="M42.346,67.452c0.053-0.047,0.135-0.089,0.246-0.126c0.219,0,0.396,0.474,0.53,1.421c0.053,0,0.09,0.98,0.111,2.941
c-0.018,0.285-0.055,0.428-0.111,0.428c-0.387,0-0.58-0.025-0.58-0.076c-0.023-2.51-0.065-3.765-0.126-3.765
c-0.176-0.426-0.264-0.642-0.264-0.647C42.176,67.595,42.24,67.536,42.346,67.452z"/>
<path d="M44.203,68.688c0.207-0.031,0.34-0.021,0.398,0.029c0.072,0,0.102,0.166,0.088,0.498c0,0.021-0.154,0.14-0.463,0.354
c-0.012,0.426,0.113,0.767,0.375,1.022c0.07,0.146,0.196,0.276,0.378,0.39c0.09,0.188,0.199,0.281,0.328,0.281
c0.176-0.117,0.271-0.446,0.284-0.987c-0.09-0.336-0.126-0.521-0.108-0.557c0.012,0,0.129-0.087,0.352-0.261
c0.25,0.016,0.375,0.347,0.375,0.993c-0.139,0.688-0.509,1.394-1.11,2.118c-0.258,0.529-0.719,0.794-1.383,0.794
c-0.668-0.15-1.053-0.415-1.154-0.794c0.08-0.189,0.23-0.284,0.451-0.284c0.104,0.291,0.397,0.437,0.882,0.437
c0.529-0.092,0.794-0.378,0.794-0.858c0-0.273-0.265-0.646-0.794-1.119c-0.234-0.242-0.359-0.575-0.375-0.999
C43.599,69.191,43.826,68.839,44.203,68.688z"/>
<path d="M2.868,74.452c0.053-0.047,0.135-0.089,0.246-0.126c0.219,0,0.396,0.474,0.53,1.421c0.053,0,0.09,0.98,0.111,2.941
c-0.018,0.285-0.055,0.428-0.111,0.428c-0.387,0-0.58-0.025-0.58-0.076c-0.023-2.51-0.065-3.765-0.126-3.765
c-0.176-0.426-0.264-0.642-0.264-0.647C2.698,74.595,2.763,74.536,2.868,74.452z"/>
<path d="M5.092,75.993c0.277-0.104,0.709-0.155,1.295-0.155c0.549,0.141,0.976,0.545,1.28,1.213
c0.014,0.688-0.009,1.041-0.067,1.061c-0.125,0.514-0.353,0.771-0.683,0.771c-0.043,0.031-0.484,0.068-1.324,0.111
c-0.375,0.029-0.581,0.021-0.618-0.023c-0.393-0.189-0.672-0.594-0.838-1.213c0-0.627,0.113-1.039,0.34-1.236
C4.627,76.257,4.832,76.081,5.092,75.993z M5.622,76.521c-0.564,0.168-0.839,0.551-0.823,1.148
c0.012,0.484,0.129,0.727,0.352,0.727c0.662,0.012,1.074-0.003,1.236-0.044c0.471,0,0.706-0.169,0.706-0.507
c-0.008-0.852-0.302-1.329-0.882-1.433C6.012,76.412,5.815,76.448,5.622,76.521z"/>
<path d="M8.798,76.04c0.014-0.037,0.093-0.086,0.237-0.146c0.174,0.188,0.262,0.354,0.264,0.501
c-0.25,0.229-0.375,0.581-0.375,1.058c0.023,0.453,0.296,0.672,0.817,0.656c0.236,0,0.412-0.242,0.527-0.727
c0.061-0.057,0.237-0.085,0.53-0.085c0.135,0,0.202,0.11,0.202,0.331c0.148,0.441,0.493,0.662,1.034,0.662
c0.279-0.004,0.419-0.165,0.419-0.483c-0.025-0.66-0.291-1.072-0.797-1.236c0.176-0.336,0.36-0.504,0.554-0.504
c0.498,0.221,0.792,0.585,0.882,1.093c0.059,0,0.081,0.274,0.067,0.823c-0.076,0.574-0.451,0.949-1.125,1.125
c-0.59,0-1.012-0.198-1.266-0.595l-0.146-0.149c-0.434,0.35-0.728,0.524-0.882,0.524c-0.75-0.012-1.214-0.313-1.392-0.905
c-0.072-0.061-0.102-0.414-0.088-1.061C8.262,76.775,8.44,76.481,8.798,76.04z"/>
<path d="M14.241,77.276c1.234,0.047,1.911,0.114,2.03,0.202c0.367,0.143,0.543,0.34,0.527,0.592
c-0.123,0.824-0.593,1.236-1.409,1.236c-0.666,0.014-1.078-0.083-1.236-0.29c-0.367-0.102-0.551-0.505-0.551-1.21
C13.712,77.5,13.925,77.323,14.241,77.276z M14.446,76.04c0.092-0.072,0.523-0.108,1.295-0.108
c0.559,0.027,0.875,0.299,0.949,0.814c0,0.092-0.198,0.168-0.595,0.229c-0.113-0.225-0.408-0.337-0.885-0.337
c-0.262,0.039-0.438,0.104-0.527,0.196c-0.125,0.01-0.36-0.045-0.706-0.164l-0.117-0.1C14.142,76.23,14.337,76.054,14.446,76.04z
M14.373,78.158c0.078,0.334,0.446,0.511,1.104,0.53c0.316,0.014,0.547-0.104,0.691-0.354c-0.002-0.145-0.026-0.22-0.073-0.226
c-0.656-0.02-1.068-0.047-1.236-0.082C14.535,78.026,14.373,78.07,14.373,78.158z"/>
<path d="M17.596,75.864c0.213-0.016,0.373-0.023,0.48-0.023s0.161,0.008,0.161,0.023c0.008,0.195,0.059,0.303,0.152,0.322
c0.107-0.092,0.236-0.138,0.387-0.138c0.098,0,0.204,0.02,0.319,0.059c0.424,0.141,0.636,0.379,0.636,0.715
c0,0.086-0.014,0.179-0.041,0.278c-0.17,0.658-0.486,1.025-0.949,1.102c-0.01,0.002-0.019,0.003-0.026,0.003
c-0.115,0-0.173-0.133-0.173-0.398c0.457-0.154,0.686-0.449,0.686-0.885c0-0.176-0.162-0.264-0.486-0.264
c-0.338,0.012-0.507,0.395-0.507,1.148c0,0.461,0.029,0.813,0.088,1.058c0,0.135-0.096,0.202-0.287,0.202
c-0.111,0.01-0.201,0.015-0.27,0.015c-0.113,0-0.17-0.014-0.17-0.041c-0.023,0-0.054-0.617-0.091-1.852
c-0.004-0.07-0.006-0.145-0.006-0.223c0-0.17,0.01-0.36,0.029-0.571c-0.02-0.033-0.029-0.112-0.029-0.237
c0-0.059,0.002-0.127,0.006-0.205L17.596,75.864z"/>
<path d="M20.886,76.216c0.232-0.102,0.615-0.152,1.148-0.152c0.688,0.133,1.031,0.302,1.031,0.507
c-0.092,0.334-0.2,0.501-0.325,0.501c-0.215-0.275-0.568-0.413-1.061-0.413c-0.662,0.064-0.993,0.271-0.993,0.618
c0.1,0.602,0.431,0.925,0.993,0.97c0.098,0,0.274-0.114,0.53-0.343c0.191,0.055,0.279,0.198,0.264,0.431
c-0.166,0.369-0.548,0.554-1.146,0.554c-0.709-0.141-1.099-0.678-1.169-1.611C20.159,76.675,20.401,76.321,20.886,76.216z"/>
<path d="M26.071,74.81c0.004-0.055,0.098-0.089,0.281-0.103c0.102,0.07,0.183,0.163,0.243,0.278
c-0.084,0.145-0.233,0.321-0.448,0.53c0,0.207,0.068,0.334,0.205,0.381c0.445,0.467,0.695,0.986,0.75,1.559
c-0.025,0.395-0.412,0.807-1.16,1.236c-0.27,0.162-0.603,0.243-0.999,0.243c-0.471-0.045-0.729-0.303-0.773-0.773
c0.014-0.561,0.35-1.325,1.008-2.294c0-0.168-0.078-0.252-0.234-0.252c-0.441-0.023-0.662,0.002-0.662,0.076
c-0.25,0.063-0.374,0.298-0.372,0.706c0.012,0.25,0.003,0.375-0.026,0.375c-0.285,0-0.428-0.066-0.428-0.199
c0-0.65,0.084-1.027,0.252-1.131c0.211-0.262,0.563-0.393,1.058-0.393c0.211,0.029,0.446,0.108,0.706,0.237
C25.525,75.287,25.726,75.128,26.071,74.81z M25.559,76.219l-0.088,0.108c-0.313,0.531-0.533,1.084-0.662,1.658
c0,0.279,0.162,0.419,0.486,0.419c0.73-0.354,1.172-0.67,1.324-0.949c-0.096-0.48-0.419-0.922-0.97-1.324L25.559,76.219z"/>
<path d="M28.225,74.982c0.137-0.15,0.396-0.194,0.776-0.132c0.113,0.02,0.525,0.322,1.236,0.908c0.09,0.074,0.135,0.204,0.135,0.39
c0,0.023-0.001,0.046-0.003,0.067c-0.012,0.123-0.17,0.185-0.475,0.185c-0.025,0-0.049-0.002-0.07-0.006
c-0.242-0.721-0.575-1.081-0.999-1.081c-0.426,0.053-0.639,0.295-0.639,0.727c0,0.203,0.448,0.431,1.345,0.683
c0.455,0.229,0.683,0.648,0.683,1.26c-0.086,0.578-0.432,0.88-1.037,0.905c-0.814-0.023-1.285-0.223-1.412-0.598
c-0.1-0.037-0.149-0.307-0.149-0.809c0-0.01,0-0.02,0-0.029c0-0.057,0.092-0.233,0.275-0.53c0-0.189-0.05-0.307-0.149-0.352
c-0.072-0.033-0.108-0.236-0.108-0.609c0-0.006,0-0.011,0-0.015c0-0.078,0.002-0.164,0.006-0.258
C27.691,75.468,27.887,75.232,28.225,74.982z M28.506,77.101c-0.154,0.219-0.231,0.454-0.231,0.706
c0.021,0.352,0.272,0.527,0.753,0.527c0.02,0,0.04,0,0.062,0c0.324-0.033,0.486-0.252,0.486-0.656c0-0.016,0-0.032,0-0.05
c-0.256-0.365-0.506-0.563-0.75-0.595C28.612,77.01,28.506,77.032,28.506,77.101z"/>
<path d="M31.4,77.276c1.234,0.047,1.911,0.114,2.03,0.202c0.367,0.143,0.543,0.34,0.527,0.592
c-0.123,0.824-0.593,1.236-1.409,1.236c-0.666,0.014-1.078-0.083-1.236-0.29c-0.367-0.102-0.551-0.505-0.551-1.21
C30.871,77.5,31.084,77.323,31.4,77.276z M31.605,76.04c0.092-0.072,0.523-0.108,1.295-0.108c0.559,0.027,0.875,0.299,0.949,0.814
c0,0.092-0.198,0.168-0.595,0.229c-0.113-0.225-0.408-0.337-0.885-0.337c-0.262,0.039-0.438,0.104-0.527,0.196
c-0.125,0.01-0.36-0.045-0.706-0.164l-0.117-0.1C31.301,76.23,31.496,76.054,31.605,76.04z M31.532,78.158
c0.078,0.334,0.446,0.511,1.104,0.53c0.316,0.014,0.547-0.104,0.691-0.354c-0.002-0.145-0.026-0.22-0.073-0.226
c-0.656-0.02-1.068-0.047-1.236-0.082C31.694,78.026,31.532,78.07,31.532,78.158z"/>
<path d="M37.025,74.821c0-0.102,0.198-0.152,0.595-0.152c0.625,0.021,0.949,0.308,0.973,0.858c0,0.045,0.146,0.053,0.439,0.023
c0.061-0.029,0.188-0.037,0.384-0.023c0.041,0,0.064,0.177,0.07,0.53c0,0.088-0.269,0.132-0.806,0.132
c-0.133,0-0.199,0.25-0.199,0.75c0.021,0,0.046,0.294,0.073,0.882c0,0.148,0.101,0.223,0.302,0.223
c0.063,0,0.195-0.191,0.398-0.574c0.096-0.051,0.175-0.051,0.237,0c0.15,0.055,0.226,0.172,0.226,0.352
c-0.232,0.596-0.52,0.92-0.861,0.973c-0.613,0-0.922-0.206-0.926-0.618c-0.025-1.455-0.055-2.22-0.088-2.294
c0-0.428-0.074-0.642-0.223-0.642c-0.381-0.016-0.571-0.096-0.571-0.24L37.025,74.821z"/>
<path d="M41.019,75.993c0.277-0.104,0.709-0.155,1.295-0.155c0.549,0.141,0.976,0.545,1.28,1.213
c0.014,0.688-0.009,1.041-0.067,1.061c-0.125,0.514-0.353,0.771-0.683,0.771c-0.043,0.031-0.484,0.068-1.324,0.111
c-0.375,0.029-0.581,0.021-0.618-0.023c-0.393-0.189-0.672-0.594-0.838-1.213c0-0.627,0.113-1.039,0.34-1.236
C40.554,76.257,40.759,76.081,41.019,75.993z M41.549,76.521c-0.564,0.168-0.839,0.551-0.823,1.148
c0.012,0.484,0.129,0.727,0.352,0.727c0.662,0.012,1.074-0.003,1.236-0.044c0.471,0,0.706-0.169,0.706-0.507
c-0.008-0.852-0.302-1.329-0.882-1.433C41.938,76.412,41.742,76.448,41.549,76.521z"/>
<path d="M44.795,75.993c0.277-0.104,0.709-0.155,1.295-0.155c0.549,0.141,0.976,0.545,1.28,1.213
c0.014,0.688-0.009,1.041-0.067,1.061c-0.125,0.514-0.353,0.771-0.683,0.771c-0.043,0.031-0.484,0.068-1.324,0.111
c-0.375,0.029-0.581,0.021-0.618-0.023c-0.393-0.189-0.672-0.594-0.838-1.213c0-0.627,0.113-1.039,0.34-1.236
C44.33,76.257,44.535,76.081,44.795,75.993z M45.325,76.521c-0.564,0.168-0.839,0.551-0.823,1.148
c0.012,0.484,0.129,0.727,0.352,0.727c0.662,0.012,1.074-0.003,1.236-0.044c0.471,0,0.706-0.169,0.706-0.507
c-0.008-0.852-0.302-1.329-0.882-1.433C45.715,76.412,45.519,76.448,45.325,76.521z"/>
</g>
</svg>
