<?xml version="1.0" encoding="utf-8"?>
<!-- Generator: Adobe Illustrator 22.0.1, SVG Export Plug-In . SVG Version: 6.00 Build 0)  -->
<svg version="1.1" xmlns="http://www.w3.org/2000/svg" xmlns:xlink="http://www.w3.org/1999/xlink" x="0px" y="0px"
width="470.333px" height="262.333px" viewBox="0 0 470.333 262.333" enable-background="new 0 0 470.333 262.333"
xml:space="preserve">
<g id="Layer_1">
<rect y="40" fill="#FFFFFF" stroke="#C7C8CA" stroke-width="0.25" stroke-miterlimit="10" width="36" height="36"/>
<rect x="36" y="40" fill="#FFFFFF" stroke="#C7C8CA" stroke-width="0.25" stroke-miterlimit="10" width="36" height="36"/>
<rect x="72" y="40" fill="#FFFFFF" stroke="#C7C8CA" stroke-width="0.25" stroke-miterlimit="10" width="36" height="36"/>
<rect x="108" y="40" fill="#FFFFFF" stroke="#C7C8CA" stroke-width="0.25" stroke-miterlimit="10" width="36" height="36"/>
<rect x="144" y="40" fill="#FFFFFF" stroke="#C7C8CA" stroke-width="0.25" stroke-miterlimit="10" width="36" height="36"/>
<rect x="180" y="40" fill="#FFFFFF" stroke="#C7C8CA" stroke-width="0.25" stroke-miterlimit="10" width="36" height="36"/>
<rect x="216" y="40" fill="#FFFFFF" stroke="#C7C8CA" stroke-width="0.25" stroke-miterlimit="10" width="36" height="36"/>
<rect x="252" y="40" fill="#FFFFFF" stroke="#C7C8CA" stroke-width="0.25" stroke-miterlimit="10" width="36" height="36"/>
<rect x="288" y="40" fill="#FFFFFF" stroke="#C7C8CA" stroke-width="0.25" stroke-miterlimit="10" width="36" height="36"/>
<rect x="324" y="40" fill="#FFFFFF" stroke="#C7C8CA" stroke-width="0.25" stroke-miterlimit="10" width="36" height="36"/>
<rect x="360" y="40" fill="#FFFFFF" stroke="#C7C8CA" stroke-width="0.25" stroke-miterlimit="10" width="36" height="36"/>
<rect x="396" y="40" fill="#FFFFFF" stroke="#C7C8CA" stroke-width="0.25" stroke-miterlimit="10" width="36" height="36"/>
<rect x="432" y="40" fill="#FFFFFF" stroke="#C7C8CA" stroke-width="0.25" stroke-miterlimit="10" width="36" height="36"/>
<rect y="76" fill="#FFFFFF" stroke="#C7C8CA" stroke-width="0.25" stroke-miterlimit="10" width="36" height="36"/>
<rect x="36" y="76" fill="#FFFFFF" stroke="#C7C8CA" stroke-width="0.25" stroke-miterlimit="10" width="36" height="36"/>
<rect x="72" y="76" fill="#FFFFFF" stroke="#C7C8CA" stroke-width="0.25" stroke-miterlimit="10" width="36" height="36"/>
<rect x="108" y="76" fill="#FFFFFF" stroke="#C7C8CA" stroke-width="0.25" stroke-miterlimit="10" width="36" height="36"/>
<rect x="144" y="76" fill="#FFFFFF" stroke="#C7C8CA" stroke-width="0.25" stroke-miterlimit="10" width="36" height="36"/>
<rect x="180" y="76" fill="#FFFFFF" stroke="#C7C8CA" stroke-width="0.25" stroke-miterlimit="10" width="36" height="36"/>
<rect x="216" y="76" fill="#FFFFFF" stroke="#C7C8CA" stroke-width="0.25" stroke-miterlimit="10" width="36" height="36"/>
<rect x="252" y="76" fill="#FFFFFF" stroke="#C7C8CA" stroke-width="0.25" stroke-miterlimit="10" width="36" height="36"/>
<rect x="288" y="76" fill="#FFFFFF" stroke="#C7C8CA" stroke-width="0.25" stroke-miterlimit="10" width="36" height="36"/>
<rect x="324" y="76" fill="#FFFFFF" stroke="#C7C8CA" stroke-width="0.25" stroke-miterlimit="10" width="36" height="36"/>
<rect x="360" y="76" fill="#FFFFFF" stroke="#C7C8CA" stroke-width="0.25" stroke-miterlimit="10" width="36" height="36"/>
<rect x="396" y="76" fill="#FFFFFF" stroke="#C7C8CA" stroke-width="0.25" stroke-miterlimit="10" width="36" height="36"/>
<rect x="432" y="76" fill="#FFFFFF" stroke="#C7C8CA" stroke-width="0.25" stroke-miterlimit="10" width="36" height="36"/>
<rect y="121" fill="#FFFFFF" stroke="#C7C8CA" stroke-width="0.25" stroke-miterlimit="10" width="36" height="36"/>
<rect x="36" y="121" fill="#FFFFFF" stroke="#C7C8CA" stroke-width="0.25" stroke-miterlimit="10" width="36" height="36"/>
<rect x="72" y="121" fill="#FFFFFF" stroke="#C7C8CA" stroke-width="0.25" stroke-miterlimit="10" width="36" height="36"/>
<rect x="108" y="121" fill="#FFFFFF" stroke="#C7C8CA" stroke-width="0.25" stroke-miterlimit="10" width="36" height="36"/>
<rect x="144" y="121" fill="#FFFFFF" stroke="#C7C8CA" stroke-width="0.25" stroke-miterlimit="10" width="36" height="36"/>
<rect x="180" y="121" fill="#FFFFFF" stroke="#C7C8CA" stroke-width="0.25" stroke-miterlimit="10" width="36" height="36"/>
<rect x="216" y="121" fill="#FFFFFF" stroke="#C7C8CA" stroke-width="0.25" stroke-miterlimit="10" width="36" height="36"/>
<rect x="252" y="121" fill="#FFFFFF" stroke="#C7C8CA" stroke-width="0.25" stroke-miterlimit="10" width="36" height="36"/>
<rect x="288" y="121" fill="#FFFFFF" stroke="#C7C8CA" stroke-width="0.25" stroke-miterlimit="10" width="36" height="36"/>
<rect x="324" y="121" fill="#FFFFFF" stroke="#C7C8CA" stroke-width="0.25" stroke-miterlimit="10" width="36" height="36"/>
<rect x="360" y="121" fill="#FFFFFF" stroke="#C7C8CA" stroke-width="0.25" stroke-miterlimit="10" width="36" height="36"/>
<rect x="396" y="121" fill="#FFFFFF" stroke="#C7C8CA" stroke-width="0.25" stroke-miterlimit="10" width="36" height="36"/>
<rect x="432" y="121" fill="#FFFFFF" stroke="#C7C8CA" stroke-width="0.25" stroke-miterlimit="10" width="36" height="36"/>
<rect y="157" fill="#FFFFFF" stroke="#C7C8CA" stroke-width="0.25" stroke-miterlimit="10" width="36" height="36"/>
<rect x="36" y="157" fill="#FFFFFF" stroke="#C7C8CA" stroke-width="0.25" stroke-miterlimit="10" width="36" height="36"/>
<rect x="72" y="157" fill="#FFFFFF" stroke="#C7C8CA" stroke-width="0.25" stroke-miterlimit="10" width="36" height="36"/>
<rect x="108" y="157" fill="#FFFFFF" stroke="#C7C8CA" stroke-width="0.25" stroke-miterlimit="10" width="36" height="36"/>
<rect x="144" y="157" fill="#FFFFFF" stroke="#C7C8CA" stroke-width="0.25" stroke-miterlimit="10" width="36" height="36"/>
<rect x="180" y="157" fill="#FFFFFF" stroke="#C7C8CA" stroke-width="0.25" stroke-miterlimit="10" width="36" height="36"/>
<rect x="216" y="157" fill="#FFFFFF" stroke="#C7C8CA" stroke-width="0.25" stroke-miterlimit="10" width="36" height="36"/>
<rect x="252" y="157" fill="#FFFFFF" stroke="#C7C8CA" stroke-width="0.25" stroke-miterlimit="10" width="36" height="36"/>
<rect x="288" y="157" fill="#FFFFFF" stroke="#C7C8CA" stroke-width="0.25" stroke-miterlimit="10" width="36" height="36"/>
<rect x="324" y="157" fill="#FFFFFF" stroke="#C7C8CA" stroke-width="0.25" stroke-miterlimit="10" width="36" height="36"/>
<rect x="360" y="157" fill="#FFFFFF" stroke="#C7C8CA" stroke-width="0.25" stroke-miterlimit="10" width="36" height="36"/>
<rect x="396" y="157" fill="#FFFFFF" stroke="#C7C8CA" stroke-width="0.25" stroke-miterlimit="10" width="36" height="36"/>
<rect x="432" y="157" fill="#FFFFFF" stroke="#C7C8CA" stroke-width="0.25" stroke-miterlimit="10" width="36" height="36"/>
</g>
<g id="Layer_2">
<g>
<path d="M10.881,52.524c2.263-0.104,3.604,0.86,4.023,2.896c0,1.776-0.287,3.709-0.86,5.799c0.857,0.987,1.202,2.433,1.036,4.338
c0,0.623-1.612,0.854-4.837,0.694c-3.972-0.086-5.957-0.318-5.957-0.694c-0.222-2.337-0.167-3.752,0.167-4.246
c0.592,0,0.86-0.999,0.805-2.997c-0.29-0.352-0.512-1.316-0.666-2.895c0.241-1.159,0.675-1.81,1.304-1.952
c1.011,0,1.496,0.2,1.452,0.601c-0.222,0.358-0.25,1.773-0.083,4.246c-0.722,1.499-1.015,2.948-0.879,4.348
c0.191,1.418,0.993,2.127,2.405,2.127c1.788-0.685,2.682-1.875,2.682-3.571c-1.091-1.936-1.711-2.904-1.859-2.904
c0.592,0,0.801-1.464,0.629-4.394L10.881,52.524z"/>
</g>
<g>
<path d="M39.657,45.282c0-0.592,0.746-0.888,2.238-0.888c1.085,0,1.653,2.226,1.702,6.678c0.444,0,0.617,0.965,0.518,2.896
c-0.74,2.22-1.039,5.602-0.897,10.147l-1.323,0.878c-0.66,0-1.171-4.64-1.535-13.921C39.854,47.354,39.62,45.423,39.657,45.282z
M47.13,52.524c0.481-0.616,1.634-0.903,3.459-0.86c1.4,0.228,2.047,2.445,1.942,6.65c-0.179,1.16-0.342,1.893-0.49,2.202
c-1.054,0-1.582-0.25-1.582-0.75c0.222-3.287-0.219-5.001-1.323-5.143C47.898,53.224,47.229,52.524,47.13,52.524z"/>
</g>
<g>
<path d="M77.701,52.524c0.105-0.419,2.584-0.588,7.437-0.508l0.953,0.508l-0.953,1.212c-0.333-0.746-1.782-0.996-4.347-0.749
c-1.597,1.221-2.396,3.965-2.396,8.232c0.093,2.202,1.375,3.302,3.848,3.302c2.756-1.258,4.211-1.877,4.366-1.859
c0.006,2.658-1.933,3.99-5.818,3.996c-3.916-0.715-5.871-3.497-5.865-8.343C75.339,55.133,76.264,53.203,77.701,52.524z"/>
</g>
<g>
<path d="M121.138,52.524l1.452-1.249c0.475,0,0.675,1.381,0.601,4.144c0.635,0,0.919,0.755,0.851,2.266
c-0.327,0.309-0.74,1.002-1.239,2.081c0,0.302,0.61,1.267,1.832,2.896c0.068,0.438,0.123,1.403,0.167,2.895
c0,0.29-2.67,0.509-8.01,0.657c-1.554,0-2.64-0.7-3.256-2.1c-1.406-0.469-2.014-2.402-1.822-5.8
c0.364-1.387,1.091-2.081,2.183-2.081c0.209,5.081,0.694,7.622,1.452,7.622c0.814,0.426,2.263,0.506,4.348,0.241
c1.825-0.241,2.738-1.684,2.738-4.329c-0.407-1.054-0.524-2.503-0.352-4.347C121.526,55.031,121.212,54.066,121.138,52.524z
M121.138,51.072c0.031,0,0.031,0.459,0,1.378V51.072z"/>
</g>
<g>
<path d="M150.284,52.524c0.653-0.395,2.938-0.472,6.854-0.231c0.364,0,0.546,0.558,0.546,1.674c-0.672,0.277-1.335,0-1.989-0.833
c-2.313-0.222-3.469,0.055-3.469,0.833c-1.079,1.159-1.529,4.058-1.351,8.695c0.21,0.943,1.332,1.375,3.367,1.295
c1.998-1.153,3.447-1.73,4.347-1.73c0.142,2.313-0.342,3.469-1.452,3.469c-0.765,0.666-2.214,0.98-4.347,0.943
c-3.639-0.561-5.458-2.852-5.458-6.873C147.432,55.457,148.415,53.042,150.284,52.524z"/>
</g>
<g>
<path d="M187.532,45.282c0.444-0.703,1.832-0.975,4.163-0.814c0.789,0.203,1.415,0.956,1.877,2.257
c-2.941,0.604-4.412,1.572-4.412,2.904c0,0.296,0.244,1.742,0.731,4.338c-0.61,0.808-0.86,3.706-0.75,8.695
c0.241,1.479,0.549,2.445,0.925,2.895c-0.913,0.432-2.303,0.626-4.172,0.583c-1.023,0-1.504-0.234-1.443-0.703
c1.301-0.247,1.949-2.621,1.942-7.123c-0.308-3.737-0.302-7.116,0.019-10.138C186.586,46.722,186.959,45.756,187.532,45.282z"/>
</g>
<g>
<path d="M220.063,69.904c0.056-0.765,0.666-1.243,1.832-1.434c1.456,1.813,3.389,2.784,5.8,2.914c0,1.116-1.449,1.674-4.348,1.674
C221.158,73.059,220.063,72.007,220.063,69.904z M223.292,52.524c1.153-0.043,1.729-0.043,1.729,0
c0.056,0.87-0.222,2.319-0.833,4.348c-0.086,4.717,0.598,7.076,2.054,7.076c0,0.123,1.933,0.33,5.799,0.62
c0.629,0,0.817,0.814,0.564,2.442c0,0.795-0.672,1.193-2.017,1.193c-1.671-1.123-4.085-1.582-7.243-1.378
c-1.246,0-1.868-0.903-1.868-2.71c-0.167-6.802-0.028-10.208,0.416-10.221L223.292,52.524z M229.952,52.524
c0.253-0.376,0.95-0.583,2.09-0.62c0.975,0.364,1.456,1.067,1.443,2.109l-1.443,1.388
C230.648,54.994,229.952,54.035,229.952,52.524z"/>
</g>
<g>
<path d="M256.729,45.282c0.685-0.327,1.561-0.327,2.627,0c0.722,4.273,1.063,7.168,1.027,8.686c-0.494,0-0.673,2.898-0.537,8.695
c0.043,1.671,0.312,2.636,0.805,2.895c0,0.647-1.399,0.922-4.199,0.823l-0.98-0.823c1.066-0.561,1.585-5.871,1.554-15.928
c-0.475-2.004-0.666-3.209-0.573-3.617L256.729,45.282z M263.658,52.524c2.3-0.185,3.638,0.296,4.014,1.443
c0.296,0.179,0.42,0.82,0.37,1.924c-0.147,0-0.632,0.919-1.452,2.756c-0.147-1.332-1.063-2.892-2.747-4.68
C263.806,53.363,263.744,52.882,263.658,52.524z M266.192,64.114c0-0.358,0.616-0.469,1.85-0.333c0.21,1.319,0.21,1.979,0,1.979
c-1.77,0.117-2.654,0.049-2.654-0.204L266.192,64.114z"/>
</g>
<g>
<path d="M294.746,45.282c1.381-0.093,2.063,0.422,2.044,1.544c-0.925,2.171-1.387,3.586-1.387,4.246
c0.314,0.611,0.36,3.509,0.139,8.695c-0.056,3.577,0.749,5.507,2.414,5.791c0,0.629-1.835,0.857-5.504,0.685l-0.823-0.685
c1.166-1.215,1.732-4.594,1.702-10.138c-0.087-2.898,0.296-4.348,1.146-4.348c-0.653,0-1.061-1.449-1.221-4.347
C293.51,45.8,294.006,45.318,294.746,45.282z"/>
</g>
<g>
<path d="M329.47,52.524c0-0.561,0.626-0.786,1.878-0.675c0.845,0.561,1.227,3.2,1.146,7.917
c-0.271,8.541-1.618,12.925-4.042,13.153c-1.326,0.062-1.988,0.021-1.988-0.12c-0.234-1.585-0.056-2.377,0.536-2.377
c1.652-1.523,2.479-3.626,2.479-6.308c-0.123-5.463-0.296-8.846-0.518-10.147L329.47,52.524z M329.867,45.282
c1.924-0.161,2.886,0.321,2.886,1.443c-0.16,0.697-0.629,1.499-1.405,2.405c-1.382,0-2.072-0.801-2.072-2.405L329.867,45.282z"/>
</g>
<g>
<path d="M367.042,43.83c0.765-0.013,1.085,1.437,0.962,4.347c-0.086,4.656,0.66,7.344,2.238,8.066
c0.352,0,0.836,1.696,1.452,5.087c-2.67,0-4.267,1.409-4.791,4.227c-0.333,0.432-1.15,0.675-2.451,0.73l-1.322-0.73
c1.189,0,1.735-1.93,1.637-5.791c0.357-6.758,0.456-10.138,0.296-10.138c-0.462-2.121-0.666-3.613-0.61-4.477
C364.538,44.271,365.401,43.83,367.042,43.83z M374.192,65.557l0.397-0.722c0.975,0.198,1.458,0.441,1.452,0.731
C374.809,65.684,374.192,65.681,374.192,65.557z M374.571,52.524c1.092-0.086,1.638-0.086,1.638,0c0,1.03-0.54,1.545-1.619,1.545
C374.393,54.069,374.387,53.554,374.571,52.524z"/>
</g>
<g>
<path d="M401.164,45.282c1.283-0.234,2.198-0.234,2.747,0c0.604,0,0.897,0.53,0.879,1.591c-0.309,0.253-0.352,3.586-0.129,9.999
c-0.303,1.727-0.354,4.141-0.157,7.243c0.523,1.134,0.619,1.711,0.286,1.729c-0.875,0.469-2.321,0.561-4.338,0.277
c-0.395-0.265-0.395-0.749,0-1.452c0.518-0.104,0.743-2.704,0.675-7.797c0.013-6.666-0.212-9.999-0.675-9.999
C400.402,46.164,400.641,45.633,401.164,45.282z"/>
</g>
<g>
<path d="M437.267,52.524c0.049-0.339,0.742-0.521,2.081-0.545l1.378,0.545c-0.703,5.433-1.045,9.296-1.026,11.59l0.527,1.443
c0,0.462-1.259,0.645-3.774,0.545l-0.786-0.545c1.122-0.487,1.646-3.382,1.572-8.686
C436.967,54.423,436.977,52.974,437.267,52.524z M446.571,52.524c1.937,0.66,3.392,0.882,4.366,0.666l0.971,0.777
c-0.986,0.438-2.275,1.551-3.866,3.339c-0.986-0.524-1.479-1.637-1.479-3.339L446.571,52.524z M452.011,52.524
c0.024-0.074,0.823-0.074,2.396,0c0,1.049-0.314,1.53-0.943,1.443C453.019,53.862,452.534,53.381,452.011,52.524z M455.821,61.219
c0.752-0.419,1.128-0.419,1.128,0c0.876,1.924,1.286,3.401,1.23,4.431c-1.375,0.321-2.54,0.29-3.496-0.092
C454.646,62.739,455.025,61.293,455.821,61.219z"/>
</g>
<g>
<path d="M4.369,88.524c1.394-0.345,2.482-0.345,3.265,0c0.468,0,0.585,1.449,0.352,4.348c-0.364,0-0.562,1.93-0.592,5.791
c0.549,1.443,0.95,2.408,1.203,2.895c-0.494,0.352-1.875,0.41-4.144,0.176c-0.124,0,0.265-1.989,1.166-5.966
c0-1.227-0.441-3.16-1.323-5.799L4.369,88.524z M14.127,98.662l0.462-1.434c0.45,0,0.934,1.456,1.452,4.366
c0,0.265-0.968,0.397-2.904,0.397l-1.203-0.435C13.396,100.225,14.127,99.26,14.127,98.662z M12.87,88.524
c0.345-0.364,1.403-0.438,3.172-0.222c0.5,0.345,0.675,1.384,0.527,3.117c-0.222,0.352-0.882,2.278-1.979,5.781
c-0.98-4.822-1.656-7.233-2.025-7.233L12.87,88.524z"/>
</g>
<g>
<path d="M43.283,88.524c0-0.018,0.438-0.018,1.313,0c-1.332,1.573-1.97,4.471-1.915,8.695c0.598,2.455,1.785,3.697,3.561,3.728
c1.72,0,3.629-1.243,5.726-3.728c0.012-1.394-0.66-3.327-2.017-5.799c-0.129-1.529,0.083-2.294,0.638-2.294
c1.659,0.438,2.615,1.687,2.868,3.746c-0.895,1.684-1.341,3.133-1.341,4.347c0.154,2.849-0.355,4.317-1.526,4.403
c-1.116,0.728-3.049,1.07-5.799,1.027c-3.707-0.808-5.535-3.585-5.485-8.334C40.027,90.831,41.353,88.9,43.283,88.524z"/>
</g>
<g>
<path d="M75.5,88.524c0-0.709,1.283-1.008,3.848-0.897c0.938,0,1.335,0.78,1.193,2.34c-0.845,2.676-1.218,5.574-1.119,8.695
c0.129,1.301,0.515,2.266,1.156,2.895c-0.647,0-0.916,1.933-0.805,5.799c-0.432,1.147-1.539,1.721-3.321,1.721
c-1.123-0.161-1.606-0.888-1.452-2.183c1.252-1.554,1.807-3.814,1.665-6.78C76.486,100.114,76.098,96.251,75.5,88.524z
M80.975,88.524c1.782-0.66,3.17-0.9,4.163-0.721c2.498,0.24,3.946,1.998,4.347,5.272c0.229,1.875,0.04,3.256-0.564,4.144
c0,1.684-0.777,2.726-2.331,3.126l-1.267-0.231c0.685-2.683,0.937-4.616,0.758-5.8C86.081,90.979,84.379,89.048,80.975,88.524z"/>
</g>
<g>
<path d="M118.501,88.524c0.432-0.832,2.278-1.162,5.541-0.989c0.592,0,0.826,1.295,0.703,3.885
c-0.111,2.109-0.614,5.007-1.508,8.695c-0.043,3.342,0.225,5.291,0.805,5.846c-1.258,0.376-1.887,0.357-1.887-0.056
c0.049-2.189-0.29-3.284-1.018-3.284c-5.698-0.117-8.547-0.953-8.547-2.506c-0.647-0.666-0.956-2.599-0.925-5.8
c0.234-2.201,0.977-3.811,2.229-4.828c0.987,0,1.471,0.185,1.452,0.555c-0.66,1.345-0.956,3.737-0.888,7.178
c0.228,2.27,1.973,3.358,5.235,3.265c1.548-0.863,2.322-1.952,2.322-3.265c-0.043-4.298-0.336-6.447-0.879-6.447
C120.139,89.273,119.26,88.524,118.501,88.524z"/>
</g>
<g>
<path d="M148.554,88.524c0.703-0.61,2.599-0.854,5.688-0.73c0.826,0,1.159,0.725,0.999,2.174c-2.22,0.69-3.33,2.624-3.33,5.799
c-0.277,1.345-0.629,2.31-1.055,2.896c0,1.091,0.823,2.056,2.47,2.895c-0.728,0.598-2.408,1.082-5.041,1.452
c-1.061-0.117-1.637-0.601-1.729-1.452c1.535-2.035,2.235-4.449,2.1-7.243c-0.481-1.579-0.762-3.028-0.842-4.347
C148.005,89.208,148.252,88.728,148.554,88.524z"/>
</g>
<g>
<path d="M190.529,89.967c0.833-0.413,1.554-0.413,2.165,0c0.518,0,0.706,3.382,0.564,10.147c0,1.449-2.935,2.152-8.806,2.109
c-0.771,0-1.063-1.187-0.879-3.561l0.879-1.11c1.677,2.393,3.124,3.589,4.338,3.589c1.745-0.66,2.559-1.967,2.442-3.922
c-1.246-1.671-1.869-2.639-1.869-2.904C190.141,92.273,190.529,90.824,190.529,89.967z M185.285,88.524
c1.375-0.252,2.063,0.025,2.063,0.833c0.21,0.771-0.274,1.745-1.452,2.923c-1.042,0-1.563-0.771-1.563-2.313
C184.517,89.264,184.834,88.783,185.285,88.524z"/>
</g>
<g>
<path d="M222.209,85.629l1.138-0.666c1.141,1.116,1.739,1.819,1.794,2.109c-0.752,2.492-1.079,5.39-0.98,8.695
c-0.129,2.695,0.164,4.144,0.879,4.348c0.857,0.376,1.4,0.857,1.628,1.443c-0.376,0.709-1.483,0.987-3.321,0.833
c-2.004-0.228-3.083-4.369-3.237-12.422C220.11,88.802,220.81,87.355,222.209,85.629z"/>
</g>
<g>
<path d="M256.249,88.524c2.065-0.172,3.099,0.164,3.099,1.008c-0.154,6.709,0.326,10.064,1.442,10.064
c1.222,0.647,2.189,0.971,2.904,0.971c1.702-0.95,2.667-1.644,2.896-2.081c1.659,0,2.488,1.023,2.488,3.071
c-3.564,0.333-6.327,0.706-8.288,1.119c-2.657,0-3.986-2.787-3.986-8.362c-0.13,0-0.475-1.449-1.036-4.347L256.249,88.524z"/>
</g>
<g>
<path d="M291.602,88.524c0-0.61,1.248-0.826,3.746-0.647c1.104,0.426,1.742,2.091,1.914,4.995
c0.352,1.264,1.163,1.896,2.433,1.896c1.018,0,1.526,0.817,1.526,2.451c0,1.295-0.512,2.741-1.535,4.338
c-1.246,0.24-1.927,0.24-2.044,0c-1.616-3.978-3.46-7.841-5.531-11.59L291.602,88.524z M303.145,88.524
c0.543-0.339,1.19-0.339,1.942,0c-0.049,0.845-0.397,1.551-1.045,2.119C303.302,90.643,303.003,89.937,303.145,88.524z"/>
</g>
<g>
<path d="M327.962,88.524c0.432-0.24,1.305-0.24,2.618,0c0.856,1.462,1.285,2.427,1.285,2.896c-0.296,1.054-0.28,2.02,0.046,2.895
l-0.563,0.768c0-1.942-0.484-2.914-1.452-2.914C328.606,90.8,327.962,89.585,327.962,88.524z M331.911,95.767l0.879-0.685
c1.733,1.381,2.6,2.575,2.6,3.58c-0.006,1.584-0.389,2.766-1.147,3.542c-1.442,0-2.164-0.697-2.164-2.09
c0-0.845-0.244-1.819-0.73-2.923L331.911,95.767z M336.796,91.419l0.342-1.184c3.836,3.059,5.994,5.387,6.475,6.983
c0.05,2.282-0.176,3.422-0.675,3.422c-1.868,0.006-2.834-0.728-2.896-2.201c-0.314-0.241-0.314-1.24,0-2.997
c-2.078,0-3.046-0.555-2.904-1.665l0.703-0.906C337.199,92.742,336.851,92.258,336.796,91.419z"/>
</g>
<g>
<path d="M371.676,91.419c0.025,2.874,1.595,5.771,4.709,8.695l1.035,1.443c0,0.376-1.427,0.497-4.282,0.361
c-0.703,0-1.184-0.752-1.443-2.257c-0.351-0.863-0.835-1.467-1.452-1.813c-1.855,0-2.686,1.237-2.488,3.709
c-0.783,0.635-1.884,0.953-3.302,0.953c-1.098,0-1.582-0.385-1.452-1.156c3.86-3.083,5.79-5.839,5.79-8.269
C370.714,92.474,371.676,91.919,371.676,91.419z M374.118,88.524c0.277-0.104,0.629-0.104,1.055,0
C374.747,88.907,374.396,88.907,374.118,88.524z"/>
</g>
<g>
<path d="M404.753,104.461c0.197-0.197,0.263,0.768,0.194,2.895c-0.339,1.388-1.837,2.054-4.495,1.998
c-0.709-0.148-1.076-0.814-1.101-1.998C399.475,106.789,401.275,105.824,404.753,104.461z M400.175,88.524
c0.925-0.302,1.991-0.302,3.2,0c0.506,0,0.857,1.93,1.055,5.791c2.004,1.844,3.006,3.293,3.006,4.348
c-0.123,2.103-0.521,3.552-1.193,4.347c-1.418-1.572-2.568-4.471-3.45-8.695C401.047,91.373,400.175,89.443,400.175,88.524z
M410.969,88.524c1.782-0.167,2.674-0.167,2.674,0c-0.426,1.067-1.138,1.548-2.137,1.443L410.969,88.524z"/>
</g>
<g>
<path d="M444.25,88.524c0.406-0.24,1.199-0.24,2.377,0c0,1.351-0.805,2.8-2.414,4.348c-0.234,1.375-1.742,3.305-4.523,5.791
c-0.173,1.646,0.194,2.469,1.101,2.469c0.395,0,1.844-0.552,4.348-1.655c1.585,0,2.377,0.693,2.377,2.081
c-0.246,0.629-1.52,0.891-3.82,0.786c-0.709-0.357-3.123-0.401-7.242-0.129l-1.202-0.657c0-0.204,1.267-2.134,3.802-5.791
c0.629-2.165,1.692-3.657,3.19-4.477C443.414,89.446,444.083,88.524,444.25,88.524z M436.165,88.524
c0-0.283,0.577-0.425,1.73-0.425c0.432,0,0.49,0.623,0.176,1.869C436.875,90.035,436.239,89.554,436.165,88.524z"/>
</g>
<g>
<path d="M4.526,137.872c0-0.247,1.905-0.45,5.716-0.61c1.085,0.388,1.711,1.557,1.877,3.505c-0.339,1.93-0.685,2.896-1.036,2.896
c0.789,0,1.079,0.965,0.869,2.895c-0.191,0.58-2.691,0.866-7.501,0.86c-0.919,0-1.378-0.768-1.378-2.303
C3.826,140.286,4.31,137.872,4.526,137.872z M7.644,140.767c-0.647,0.204-1.101,0.688-1.36,1.452
c-0.197,1.93,0.08,2.896,0.833,2.896c1.807,0.086,2.75-0.398,2.831-1.452c-0.278-1.289-0.571-2.254-0.879-2.896
C9.068,140.428,8.593,140.428,7.644,140.767z"/>
</g>
<g>
<path d="M41.673,133.524c1.363,0.962,2.473,1.443,3.33,1.443c0,0.074,1.557,1.042,4.671,2.904
c0.037,1.338-0.142,2.007-0.537,2.007c-0.795,0-1.761-0.629-2.895-1.887c-2.405,0-3.589,1.89-3.552,5.67
c0,0.364,1.184,1.338,3.552,2.923c-0.068,0.469-1.033,0.73-2.896,0.786c-2.38-0.191-3.641-2.393-3.783-6.604
c0.555-2.812,0.851-4.84,0.888-6.086L41.673,133.524z"/>
</g>
<g>
<path d="M79.098,136.419c1.128-0.031,1.693,0.281,1.693,0.934c1.844-0.24,2.91-0.068,3.2,0.518c0,0.685-0.583,1.027-1.748,1.027
l-1.452-0.759c-1.604,0.401-2.39,2.242-2.359,5.522c0.012,0.555,0.798,0.835,2.359,0.841c1.659-0.629,2.658-0.909,2.997-0.841
l0.647,1.452c-0.345,2.029-2.232,2.994-5.661,2.895c-2.788-0.308-4.178-2.238-4.172-5.791
C74.941,138.778,76.44,136.845,79.098,136.419z"/>
</g>
<g>
<path d="M113.599,136.419c0.105-0.444,0.688-0.712,1.748-0.805c0.407,0,0.611,0.752,0.611,2.257
c-1.123,1.381-1.736,3.312-1.841,5.791c0.734,0.265,2.109,0.092,4.125-0.518c1.967,0.271,2.932,0.977,2.895,2.118
c-0.703,1.967-2.904,2.883-6.604,2.747c-1.171,0-2.365-1.93-3.58-5.791C110.954,138.969,111.835,137.036,113.599,136.419z"/>
</g>
<g>
<path d="M148.388,137.872c0.678-0.95,1.665-1.431,2.959-1.443c0,0.69,1.471,1.171,4.412,1.443
c-0.037,0.438-0.064,1.403-0.083,2.895c-1.924-1.449-2.886-2.235-2.886-2.358c-1.4,1.474-2.078,3.225-2.035,5.254
c0,0.339,0.678,0.508,2.035,0.508c0.049,0,1.017-0.561,2.904-1.683c0.672,0.783,1.027,1.659,1.063,2.627
c-0.518,1.893-2.321,2.824-5.411,2.793c-3.077-0.006-4.603-1.902-4.579-5.689C147.256,139.321,147.795,137.872,148.388,137.872z"
/>
</g>
<g>
<path d="M187.255,132.072c1.258-0.265,1.887-0.265,1.887,0c0.241,1.542,0.105,2.507-0.407,2.896
c-0.401,0.542-0.743,1.511-1.027,2.904c0.426,0,0.614,2.414,0.564,7.243c0,1.455-1.273,2.183-3.82,2.183
c-0.69,0-1.011-0.728-0.962-2.183c0.296,0,0.429-2.415,0.398-7.243c0.419-2.898,0.857-4.348,1.313-4.348
C185.436,132.76,186.12,132.275,187.255,132.072z"/>
</g>
<g>
<path d="M221.627,139.314c0-0.265,1.539-0.389,4.616-0.37l1.452-0.786c0.974,1.079,1.455,1.952,1.443,2.618
c-3.164,0.419-4.745,0.9-4.745,1.443c0.357,1.221,1.458,1.789,3.302,1.702c1.924,0.284,2.886,1.163,2.886,2.636
c-0.179,1.184-1.625,1.772-4.338,1.767c0-0.124-1.93-0.41-5.791-0.86c-0.413,0-0.549-0.783-0.407-2.349
c0.271-2.898,0.669-4.348,1.193-4.348L221.627,139.314z"/>
</g>
<g>
<path d="M257.72,132.072c0.666-0.185,1.689,1.169,3.07,4.061c0.21,1.19-0.117,2.25-0.98,3.182c0.13,2.898,0.021,4.348-0.323,4.348
c0,0.678,0.715,1.643,2.146,2.895c-0.333,0.79-1.578,1.107-3.736,0.953c-0.962-0.197-1.539-0.515-1.73-0.953
c0-4.829,0.216-7.243,0.647-7.243c-0.4,0-0.521-2.02-0.36-6.059L257.72,132.072z"/>
</g>
<g>
<path d="M292.979,133.524c0.499-0.425,1.227-0.425,2.183,0c0.241,0,0.303,1.566,0.186,4.699c0.11,3.496,0.406,6.274,0.888,8.334
c-0.66,1.135-1.921,1.677-3.783,1.628c-1.246,0-1.779-1.508-1.601-4.523c0.666-2.097,1.2-5.263,1.601-9.5L292.979,133.524z"/>
</g>
<g>
<path d="M329.84,133.524c0-0.037,0.509-0.037,1.526,0c0,0.98-0.173,2.43-0.519,4.348c0.42,2.09,0.586,4.369,0.5,6.835
c0.271,3.595,0.352,5.661,0.24,6.197c-1.049,2.88-2.578,4.32-4.588,4.32c-1.042,0-1.526-0.642-1.452-1.924
c0-0.185,0.813-1.465,2.441-3.839c0.154-1.456,0.457-2.423,0.907-2.904c-0.426,0-0.574-2.485-0.444-7.456
c0.216-1.634,0.49-2.528,0.823-2.682l-0.573-1.452L329.84,133.524z"/>
</g>
<g>
<path d="M365.109,132.072l0.786-1.35c1.979,2.929,2.969,6.277,2.969,10.045c-0.45,4.434-1.439,6.651-2.969,6.651l-1.443,0.5
c-0.999,0-1.474-0.935-1.425-2.803C363.693,136.419,364.388,132.072,365.109,132.072z"/>
</g>
<g>
<path d="M401.738,126.282c1.184-0.056,1.757,0.91,1.72,2.895c0.241,6.413,0.336,11.242,0.287,14.485
c0.111,0.277,0.324,1.242,0.639,2.895c-0.111,0.654-1.422,0.931-3.932,0.833c-0.642,0-0.82-0.759-0.536-2.275
c0.647-1.172,0.906-5.035,0.776-11.59c0.303-0.376,0.533-1.341,0.694-2.895c-0.395-0.031-0.604-0.999-0.629-2.904L401.738,126.282
z"/>
</g>
<g>
<path d="M437.627,137.872c2.109-0.364,3.163-0.728,3.163-1.091l1.055,1.091c-0.13,0.481-0.962,0.749-2.497,0.805
c-0.074,0,0.019,2.146,0.277,6.438l0.666,1.443c-0.537,0.407-1.816,0.512-3.839,0.314c-0.259,0-0.197-1.07,0.185-3.209
c-0.203,0-0.265-1.573-0.185-4.718L437.627,137.872z M442.964,137.872c1.844-0.537,4.018-0.728,6.521-0.574
c0.733,0.703,0.965,1.859,0.693,3.469c0,1.085-0.795,1.569-2.387,1.452c-1.683-1.936-3.092-2.904-4.227-2.904L442.964,137.872z
M444.231,146.557c0.518-0.419,1.208-0.419,2.071,0C445.439,146.853,444.749,146.853,444.231,146.557z"/>
</g>
<g>
<path d="M6.126,172.419c0-0.728,1.372-1.098,4.116-1.11c1.399,0.049,2.1,0.903,2.1,2.562c0,1.517-0.7,2.275-2.1,2.275
c-1.696,0.099-2.578,0.305-2.646,0.62c0.697,3.86,1.566,5.791,2.608,5.791c-0.425,0.987-2.343,1.431-5.753,1.332
c-1.208,0-1.693-0.715-1.452-2.146c0.469-0.209,0.965-2.833,1.489-7.872C5.538,173.064,6.083,172.58,6.126,172.419z"/>
</g>
<g>
<path d="M41.359,173.872c0.037-0.284,0.857-0.284,2.46,0c-0.629,0-1.221,1.93-1.776,5.791c0.419,1.375,1.819,2.063,4.2,2.063
c0.808-0.308,1.156-1.477,1.045-3.506c-0.068-2.337-0.644-3.786-1.729-4.347c1.542-0.29,2.47-0.29,2.784,0
c0.999,0.555,1.449,2.485,1.351,5.791c-0.025,2.183-2.14,3.61-6.346,4.282c-3.182-0.425-4.76-2.334-4.736-5.726
C39.148,175.802,40.063,174.353,41.359,173.872z"/>
</g>
<g>
<path d="M83.593,172.419c2.023,1.461,3.021,2.568,2.997,3.32c-0.271,0.913-0.271,2.359,0,4.338
c-0.284,2.707-2.698,4.061-7.243,4.061c-2.325,0-3.487-1.492-3.487-4.477c0.055,0,0.252-1.101,0.592-3.302
c1.023,3.558,1.989,5.337,2.895,5.337c2.257,0,3.41-1.159,3.459-3.478c-0.037-1.659-0.657-3.108-1.859-4.347
C81.626,173.002,82.508,172.518,83.593,172.419z"/>
</g>
<g>
<path d="M118.945,173.872c0-0.426,0.731-0.5,2.192-0.222c0.185,0,0.185,1.739,0,5.217c-0.222,0.629-0.12,1.378,0.305,2.248
c0,2.898-0.382,4.347-1.147,4.347c0,1.283-0.2,1.924-0.601,1.924c-0.284,0-0.373-0.641-0.268-1.924
c0-1.202-2.325-1.853-6.975-1.951c-0.894-0.247-1.301-1.529-1.221-3.848c0.715-2.417,1.122-3.626,1.221-3.626
c0.728,0,0.987,0.728,0.777,2.183c0.222,1.906,1.409,2.815,3.562,2.729C118.227,180.738,118.945,178.379,118.945,173.872z"/>
</g>
<g>
<path d="M148.489,172.419c0-0.586,1.434-0.768,4.301-0.546c0.783,0,1.134,1.147,1.054,3.441c-1.356,0.401-2.044,1.85-2.063,4.348
c0,0.29,0.336,1.282,1.008,2.978c-1.345,1.116-2.791,1.733-4.338,1.85c-1.486-0.345-2.229-0.99-2.229-1.933
c0.413-1.128,0.801-4.024,1.166-8.686C147.888,173.045,148.255,172.561,148.489,172.419z"/>
</g>
<g>
<path d="M184.249,173.872c0-0.549,1.033-0.69,3.099-0.426c0.197-0.123,1.163-0.28,2.896-0.472c1.091,0,1.634,1.264,1.628,3.792
c-0.229,4.088-0.771,6.133-1.628,6.133c-1.826,0.469-3.755,0.675-5.791,0.62c-0.993,0-1.477-0.879-1.452-2.636
c0.777-1.529,1.166-2.901,1.166-4.116C184.011,175.502,184.039,174.538,184.249,173.872z M185.257,178.219
c0.457,2.097,1.153,3.216,2.09,3.358c1.375,0,2.063-0.638,2.063-1.915c-1.375-1.233-2.063-2.05-2.063-2.452
C185.984,177.291,185.288,177.627,185.257,178.219z"/>
</g>
<g>
<path d="M219.601,173.872c0-0.962,0.765-1.443,2.294-1.443c1.893,0,2.833,0.962,2.821,2.886c-0.056,2.035,0.453,3.561,1.526,4.579
c0.074,1.252,0.055,2.14-0.056,2.664c-1.659,0.999-3.164,1.483-4.514,1.452c-2.042,0-3.034-2.414-2.979-7.243
C218.695,175.688,218.997,174.723,219.601,173.872z"/>
</g>
<g>
<path d="M256.082,173.872c0-0.407,0.604-0.385,1.813,0.065c0.314,0,0.595,1.908,0.842,5.726c0,1.116,0.684,1.699,2.053,1.748
c1.468-0.08,2.161-1.144,2.081-3.191c-0.795-2.263-1.192-3.712-1.192-4.347c0-0.401,0.672-0.524,2.016-0.37
c1.055,0.29,1.555,1.378,1.499,3.265c0,2.898,0.317,4.348,0.952,4.348c0.056,1.492-0.28,2.238-1.008,2.238
c-2.837-0.099-4.767,0.062-5.79,0.481c-2.56,0-3.839-1.872-3.839-5.615C255.7,175.321,255.891,173.872,256.082,173.872z"/>
</g>
<g>
<path d="M291.759,172.419c2.22-0.284,3.416-0.188,3.589,0.287c0.277,0.327,1.242,0.527,2.895,0.601
c1.073-0.672,2.115-0.968,3.127-0.888c0.246,1.585,0.133,2.55-0.343,2.895c-1.936,0.53-2.864,1.138-2.784,1.822
c0.111,1.159,0.392,2.001,0.842,2.525c-0.259,2.393-1.023,3.589-2.294,3.589c-2.17,0-4.039-3.126-5.605-9.379L291.759,172.419z
M296.457,175.314c0.093,0.364,0.45,0.364,1.073,0C296.907,174.926,296.55,174.926,296.457,175.314z"/>
</g>
<g>
<path d="M327.888,173.872c0-0.623,0.669-0.91,2.008-0.86c1.165,0.216,2.13,1.055,2.895,2.516c1.086,0,1.569-0.124,1.452-0.37
l-0.86-1.286c0-0.697,0.771-1.03,2.313-0.999c1.104,0.352,1.708,1.649,1.813,3.894c-1.209,1.03-1.813,2.667-1.813,4.912
c0,0.919-0.968,1.381-2.904,1.388c-1.048,0-1.529-0.345-1.442-1.036c0.179-0.561,0.179-1.224,0-1.989
C329.288,180.041,328.135,177.985,327.888,173.872z M336.009,182.557l1.129-0.777l1.082,0.777
C337.517,182.761,336.78,182.761,336.009,182.557z"/>
</g>
<g>
<path d="M370.03,172.419c1.227-0.012,1.781,0.604,1.664,1.85c-0.672,0.962-1.005,2.279-0.999,3.95
c0,0.833,0.895,1.798,2.683,2.896l0.823,1.443c0,0.524-0.835,0.786-2.507,0.786c-1.936-0.327-2.904-0.814-2.904-1.461
c-0.136,0-1.581,0.61-4.338,1.832c-1.289,0-1.934-0.385-1.934-1.156c2.8-3.157,4.32-5.571,4.561-7.243
c-0.444-0.53-1.113-1.011-2.007-1.443c0-0.752,0.758-1.07,2.275-0.953C369.136,172.993,370.03,172.826,370.03,172.419z"/>
</g>
<g>
<path d="M407.038,172.419c1.362-0.049,2.044,0.435,2.044,1.452c-0.876,1.93-1.714,2.895-2.516,2.895
c0.813,0,1.189,1.128,1.128,3.386c-0.382,1.875-1.501,3.16-3.357,3.857c0,0.87-0.813,1.486-2.441,1.85
c-1.259-0.895-1.822-3.441-1.693-7.641c1.129-1.893,1.693-3.052,1.693-3.478c0.172,0.012,0.773,0.203,1.804,0.573
c-0.154,2.202,0.209,3.302,1.091,3.302c0.753,0,1.129-0.617,1.129-1.85l-0.916-1.452
C405.57,173.384,406.249,172.419,407.038,172.419z"/>
</g>
<g>
<path d="M442.03,172.419c1.227-0.019,1.837,0.947,1.831,2.895c-1.122,2.633-2.146,3.95-3.071,3.95
c-1.128,0.24-1.609,0.931-1.442,2.072c1.609,0,2.574-0.314,2.895-0.943c1.801-0.129,2.701,0.111,2.701,0.722
c0.037,1.702-0.863,2.553-2.701,2.553c-0.82-0.357-2.75-0.429-5.79-0.213c-1.116,0-1.601-0.481-1.452-1.443
c1.948-2.306,2.914-3.62,2.896-3.94c0-0.468-0.607-1.868-1.822-4.199c0.043-0.956,1.134-1.304,3.274-1.045
C441.136,172.907,442.03,172.771,442.03,172.419z"/>
</g>
<path d="M8.25,204.027c0-0.525,0.663-0.789,1.989-0.789c0.965,0,1.469,1.979,1.513,5.937c0.395,0,0.548,0.857,0.46,2.573
c-0.658,1.974-0.924,4.98-0.798,9.02l-1.176,0.781c-0.586,0-1.041-4.125-1.365-12.374C8.426,205.869,8.217,204.154,8.25,204.027z
M14.894,210.466c0.428-0.548,1.453-0.803,3.075-0.765c1.244,0.202,1.82,2.173,1.727,5.911c-0.159,1.031-0.304,1.683-0.436,1.957
c-0.937,0-1.406-0.222-1.406-0.666c0.197-2.922-0.195-4.445-1.176-4.571C15.576,211.088,14.981,210.466,14.894,210.466z"/>
<path d="M27.687,213.039c1.211-0.044,1.817,0.387,1.817,1.291c-0.778,1.716-1.524,2.573-2.236,2.573
c0.724,0,1.058,1.003,1.003,3.01c-0.34,1.666-1.334,2.809-2.984,3.428c0,0.773-0.724,1.321-2.171,1.645
c-1.118-0.795-1.62-3.059-1.504-6.791c1.003-1.683,1.504-2.713,1.504-3.092c0.154,0.012,0.688,0.181,1.604,0.51
c-0.137,1.957,0.187,2.936,0.97,2.936c0.668,0,1.003-0.548,1.003-1.645l-0.814-1.291C26.382,213.897,26.985,213.039,27.687,213.039
z"/>
<path d="M53.964,210.466c0-0.499,0.556-0.699,1.669-0.601c0.751,0.499,1.091,2.845,1.02,7.038
c-0.241,7.592-1.439,11.489-3.593,11.691c-1.179,0.055-1.768,0.02-1.768-0.106c-0.208-1.409-0.049-2.113,0.477-2.113
c1.469-1.354,2.204-3.223,2.204-5.607c-0.11-4.856-0.263-7.862-0.46-9.02L53.964,210.466z M54.317,204.027
c1.71-0.142,2.565,0.285,2.565,1.283c-0.143,0.619-0.559,1.332-1.25,2.138c-1.228,0-1.842-0.713-1.842-2.138L54.317,204.027z"/>
<path d="M61.594,214.33c0.033-0.252,0.762-0.252,2.187,0c-0.559,0-1.085,1.716-1.579,5.146c0.373,1.223,1.617,1.834,3.733,1.834
c0.718-0.274,1.027-1.313,0.929-3.116c-0.06-2.077-0.573-3.365-1.537-3.864c1.37-0.258,2.195-0.258,2.475,0
c0.888,0.493,1.288,2.209,1.2,5.146c-0.022,1.94-1.902,3.21-5.64,3.807c-2.828-0.378-4.231-2.074-4.209-5.089
C59.628,216.046,60.442,214.758,61.594,214.33z"/>
<path d="M70.473,213.039c1.973-0.252,3.037-0.167,3.19,0.255c0.247,0.291,1.104,0.469,2.574,0.534
c0.954-0.597,1.88-0.86,2.779-0.789c0.219,1.409,0.118,2.267-0.304,2.573c-1.721,0.472-2.546,1.012-2.475,1.62
c0.099,1.03,0.348,1.778,0.748,2.244c-0.23,2.127-0.91,3.19-2.039,3.19c-1.93,0-3.59-2.779-4.982-8.337L70.473,213.039z
M74.65,215.612c0.082,0.324,0.4,0.324,0.954,0C75.05,215.268,74.732,215.268,74.65,215.612z"/>
<path d="M81.334,214.33c0.603-0.844,1.48-1.271,2.631-1.283c0,0.614,1.308,1.042,3.922,1.283c-0.033,0.389-0.058,1.247-0.074,2.573
c-1.71-1.288-2.565-1.986-2.565-2.097c-1.244,1.311-1.847,2.867-1.809,4.67c0,0.302,0.603,0.452,1.809,0.452
c0.044,0,0.904-0.498,2.582-1.496c0.598,0.696,0.913,1.475,0.946,2.335c-0.46,1.683-2.064,2.511-4.81,2.483
c-2.735-0.006-4.092-1.691-4.07-5.057C80.328,215.618,80.808,214.33,81.334,214.33z"/>
<path d="M89.367,216.903c0-0.57,1.203-0.85,3.609-0.839c0.943,2.297,1.414,3.864,1.414,4.703c0.033,2.478-1.296,4.33-3.987,5.559
c-1.628,0.12-2.442-0.444-2.442-1.694c-0.187-3.437-0.121-5.155,0.197-5.155C88.366,218.425,88.77,217.566,89.367,216.903z"/>
<path d="M118.809,214.33c1.875-0.323,2.812-0.646,2.812-0.971l0.938,0.971c-0.115,0.428-0.855,0.666-2.22,0.715
c-0.066,0,0.017,1.908,0.247,5.723l0.592,1.283c-0.477,0.361-1.614,0.455-3.412,0.279c-0.23,0-0.176-0.951,0.164-2.854
c-0.181,0-0.235-1.397-0.164-4.193L118.809,214.33z M123.553,214.33c1.639-0.477,3.571-0.646,5.796-0.51
c0.652,0.625,0.858,1.652,0.617,3.083c0,0.965-0.707,1.396-2.121,1.291c-1.497-1.721-2.749-2.582-3.757-2.582L123.553,214.33z
M124.68,222.051c0.46-0.373,1.074-0.373,1.842,0C125.754,222.313,125.14,222.313,124.68,222.051z"/>
<path d="M139.068,213.039c1.211-0.044,1.817,0.387,1.817,1.291c-0.778,1.716-1.524,2.573-2.236,2.573
c0.724,0,1.058,1.003,1.003,3.01c-0.34,1.666-1.334,2.809-2.984,3.428c0,0.773-0.724,1.321-2.171,1.645
c-1.118-0.795-1.62-3.059-1.504-6.791c1.003-1.683,1.504-2.713,1.504-3.092c0.154,0.012,0.688,0.181,1.604,0.51
c-0.137,1.957,0.187,2.936,0.97,2.936c0.668,0,1.003-0.548,1.003-1.645l-0.814-1.291
C137.763,213.897,138.366,213.039,139.068,213.039z"/>
<path d="M170.212,214.33c0-0.378,0.65-0.444,1.949-0.197c0.165,0,0.165,1.546,0,4.637c-0.197,0.56-0.107,1.226,0.271,1.998
c0,2.576-0.34,3.864-1.02,3.864c0,1.141-0.178,1.71-0.535,1.71c-0.252,0-0.332-0.569-0.238-1.71c0-1.068-2.066-1.646-6.199-1.734
c-0.795-0.22-1.157-1.359-1.085-3.421c0.636-2.148,0.998-3.223,1.085-3.223c0.646,0,0.877,0.646,0.69,1.94
c0.197,1.693,1.252,2.502,3.166,2.426C169.574,220.434,170.212,218.337,170.212,214.33z"/>
<path d="M176.987,214.33c0-0.362,0.537-0.343,1.611,0.058c0.28,0,0.529,1.696,0.749,5.089c0,0.992,0.608,1.511,1.825,1.555
c1.305-0.071,1.921-1.018,1.85-2.837c-0.707-2.012-1.061-3.3-1.061-3.864c0-0.356,0.597-0.466,1.792-0.329
c0.938,0.258,1.381,1.226,1.332,2.902c0,2.576,0.282,3.864,0.847,3.864c0.049,1.327-0.25,1.99-0.896,1.99
c-2.521-0.088-4.237,0.055-5.147,0.427c-2.275,0-3.412-1.663-3.412-4.99C176.647,215.618,176.817,214.33,176.987,214.33z"/>
<path d="M188.086,210.466c0.444-0.379,1.091-0.379,1.94,0c0.214,0,0.269,1.393,0.165,4.177c0.099,3.107,0.362,5.577,0.79,7.408
c-0.587,1.008-1.708,1.49-3.363,1.446c-1.107,0-1.582-1.34-1.422-4.021c0.592-1.863,1.066-4.678,1.422-8.443L188.086,210.466z"/>
<path d="M192.797,213.039c0-0.521,1.274-0.683,3.823-0.485c0.696,0,1.008,1.02,0.938,3.059c-1.206,0.356-1.817,1.645-1.833,3.864
c0,0.258,0.298,1.141,0.896,2.647c-1.195,0.992-2.48,1.541-3.856,1.645c-1.321-0.307-1.981-0.88-1.981-1.718
c0.367-1.004,0.712-3.577,1.036-7.721C192.263,213.596,192.588,213.165,192.797,213.039z"/>
<path d="M201.076,209.175l0.699-1.2c1.76,2.604,2.64,5.58,2.64,8.929c-0.4,3.941-1.28,5.912-2.64,5.912l-1.282,0.443
c-0.888,0-1.31-0.83-1.266-2.491C199.818,213.039,200.435,209.175,201.076,209.175z"/>
<path d="M212.784,213.039c1.211-0.044,1.817,0.387,1.817,1.291c-0.778,1.716-1.524,2.573-2.236,2.573
c0.724,0,1.058,1.003,1.003,3.01c-0.34,1.666-1.334,2.809-2.984,3.428c0,0.773-0.724,1.321-2.171,1.645
c-1.118-0.795-1.62-3.059-1.504-6.791c1.003-1.683,1.504-2.713,1.504-3.092c0.154,0.012,0.688,0.181,1.604,0.51
c-0.137,1.957,0.187,2.936,0.97,2.936c0.668,0,1.003-0.548,1.003-1.645l-0.814-1.291
C211.479,213.897,212.083,213.039,212.784,213.039z"/>
<path d="M237.976,214.33c0-0.488,0.918-0.614,2.754-0.378c0.175-0.11,1.033-0.25,2.574-0.42c0.97,0,1.452,1.124,1.447,3.371
c-0.203,3.634-0.685,5.451-1.447,5.451c-1.623,0.417-3.338,0.601-5.147,0.551c-0.883,0-1.313-0.781-1.291-2.343
c0.69-1.359,1.036-2.579,1.036-3.659C237.765,215.78,237.789,214.922,237.976,214.33z M238.872,218.194
c0.405,1.863,1.025,2.858,1.858,2.984c1.222,0,1.833-0.567,1.833-1.702c-1.222-1.096-1.833-1.822-1.833-2.179
C239.519,217.369,238.899,217.668,238.872,218.194z"/>
<path d="M246.412,214.33c0-0.855,0.679-1.283,2.039-1.283c1.683,0,2.519,0.855,2.508,2.565c-0.049,1.81,0.403,3.166,1.356,4.07
c0.066,1.112,0.05,1.902-0.049,2.368c-1.475,0.888-2.812,1.317-4.013,1.29c-1.814,0-2.697-2.146-2.647-6.438
C245.605,215.944,245.874,215.086,246.412,214.33z"/>
<path d="M254.567,214.33c0-0.362,0.537-0.343,1.611,0.058c0.28,0,0.529,1.696,0.748,5.089c0,0.992,0.608,1.511,1.825,1.555
c1.305-0.071,1.922-1.018,1.851-2.837c-0.707-2.012-1.061-3.3-1.061-3.864c0-0.356,0.597-0.466,1.792-0.329
c0.938,0.258,1.382,1.226,1.332,2.902c0,2.576,0.282,3.864,0.847,3.864c0.05,1.327-0.249,1.99-0.896,1.99
c-2.521-0.088-4.237,0.055-5.147,0.427c-2.274,0-3.412-1.663-3.412-4.99C254.228,215.618,254.397,214.33,254.567,214.33z"/>
<path d="M266.218,213.039c0.093-0.395,0.611-0.633,1.554-0.715c0.362,0,0.543,0.668,0.543,2.006
c-0.998,1.228-1.543,2.943-1.637,5.146c0.652,0.236,1.875,0.083,3.667-0.46c1.749,0.241,2.606,0.869,2.574,1.883
c-0.625,1.748-2.582,2.563-5.871,2.441c-1.041,0-2.102-1.715-3.182-5.146C263.866,215.306,264.65,213.587,266.218,213.039z"/>
<path d="M282.645,213.039c1.212-0.044,1.817,0.387,1.817,1.291c-0.778,1.716-1.523,2.573-2.236,2.573
c0.724,0,1.058,1.003,1.003,3.01c-0.34,1.666-1.335,2.809-2.984,3.428c0,0.773-0.724,1.321-2.171,1.645
c-1.118-0.795-1.619-3.059-1.504-6.791c1.003-1.683,1.504-2.713,1.504-3.092c0.153,0.012,0.688,0.181,1.604,0.51
c-0.137,1.957,0.187,2.936,0.97,2.936c0.669,0,1.004-0.548,1.004-1.645l-0.814-1.291
C281.34,213.897,281.943,213.039,282.645,213.039z"/>
<path d="M308.823,214.33c0.033-0.252,0.762-0.252,2.187,0c-0.559,0-1.085,1.716-1.578,5.146c0.373,1.223,1.617,1.834,3.732,1.834
c0.719-0.274,1.028-1.313,0.93-3.116c-0.061-2.077-0.573-3.365-1.538-3.864c1.37-0.258,2.195-0.258,2.476,0
c0.888,0.493,1.287,2.209,1.2,5.146c-0.022,1.94-1.902,3.21-5.641,3.807c-2.828-0.378-4.231-2.074-4.21-5.089
C306.858,216.046,307.672,214.758,308.823,214.33z"/>
<path d="M320.811,209.175c1.118-0.235,1.677-0.235,1.677,0c0.214,1.37,0.094,2.229-0.361,2.573
c-0.356,0.482-0.66,1.343-0.913,2.582c0.379,0,0.546,2.146,0.502,6.438c0,1.294-1.132,1.94-3.396,1.94
c-0.614,0-0.899-0.646-0.855-1.94c0.264,0,0.381-2.146,0.354-6.438c0.373-2.576,0.762-3.864,1.168-3.864
C319.193,209.786,319.802,209.355,320.811,209.175z"/>
<path d="M348.115,204.027c1.053-0.049,1.563,0.809,1.529,2.574c0.214,5.7,0.299,9.992,0.255,12.875
c0.099,0.247,0.288,1.104,0.567,2.574c-0.099,0.581-1.264,0.827-3.494,0.739c-0.57,0-0.729-0.674-0.477-2.022
c0.575-1.041,0.806-4.476,0.69-10.302c0.269-0.335,0.474-1.192,0.616-2.573c-0.351-0.028-0.537-0.889-0.559-2.582L348.115,204.027z
"/>
<path d="M353.353,214.33c0.603-0.844,1.479-1.271,2.631-1.283c0,0.614,1.308,1.042,3.922,1.283
c-0.033,0.389-0.058,1.247-0.074,2.573c-1.71-1.288-2.565-1.986-2.565-2.097c-1.244,1.311-1.847,2.867-1.809,4.67
c0,0.302,0.604,0.452,1.809,0.452c0.044,0,0.905-0.498,2.582-1.496c0.598,0.696,0.913,1.475,0.945,2.335
c-0.46,1.683-2.063,2.511-4.81,2.483c-2.735-0.006-4.092-1.691-4.069-5.057C352.347,215.618,352.826,214.33,353.353,214.33z"/>
<path d="M367.38,213.039c1.091-0.011,1.584,0.537,1.479,1.645c-0.598,0.854-0.894,2.025-0.888,3.511
c0,0.74,0.795,1.598,2.384,2.573l0.732,1.283c0,0.466-0.743,0.698-2.229,0.698c-1.721-0.29-2.582-0.724-2.582-1.299
c-0.12,0-1.405,0.543-3.855,1.628c-1.146,0-1.719-0.343-1.719-1.027c2.488-2.807,3.84-4.953,4.054-6.438
c-0.395-0.471-0.989-0.898-1.784-1.282c0-0.669,0.674-0.951,2.022-0.847C366.585,213.549,367.38,213.4,367.38,213.039z"/>
<path d="M373.191,210.466c0.443-0.379,1.091-0.379,1.94,0c0.214,0,0.269,1.393,0.164,4.177c0.099,3.107,0.362,5.577,0.789,7.408
c-0.586,1.008-1.707,1.49-3.362,1.446c-1.107,0-1.581-1.34-1.423-4.021c0.592-1.863,1.066-4.678,1.423-8.443L373.191,210.466z"/>
<path d="M380.221,213.039c1.003-0.027,1.504,0.249,1.504,0.83c1.64-0.214,2.588-0.06,2.846,0.461c0,0.608-0.519,0.912-1.555,0.912
l-1.291-0.674c-1.425,0.356-2.124,1.992-2.096,4.908c0.011,0.493,0.709,0.743,2.096,0.748c1.475-0.559,2.363-0.808,2.664-0.748
l0.576,1.291c-0.308,1.804-1.984,2.661-5.032,2.573c-2.478-0.273-3.714-1.989-3.708-5.146
C376.526,215.136,377.858,213.417,380.221,213.039z"/>
<path d="M387.687,214.33c0.033-0.252,0.762-0.252,2.187,0c-0.559,0-1.085,1.716-1.578,5.146c0.373,1.223,1.617,1.834,3.732,1.834
c0.719-0.274,1.028-1.313,0.93-3.116c-0.061-2.077-0.573-3.365-1.538-3.864c1.37-0.258,2.195-0.258,2.476,0
c0.888,0.493,1.287,2.209,1.2,5.146c-0.022,1.94-1.902,3.21-5.641,3.807c-2.828-0.378-4.231-2.074-4.21-5.089
C385.722,216.046,386.535,214.758,387.687,214.33z"/>
<path d="M398.227,215.612c0-0.235,1.367-0.345,4.103-0.329l1.291-0.698c0.866,0.959,1.294,1.734,1.283,2.327
c-2.813,0.372-4.219,0.8-4.219,1.282c0.318,1.085,1.297,1.59,2.936,1.513c1.71,0.252,2.565,1.033,2.565,2.344
c-0.159,1.052-1.444,1.575-3.856,1.57c0-0.11-1.716-0.365-5.146-0.765c-0.367,0-0.488-0.696-0.362-2.089
c0.241-2.576,0.595-3.864,1.061-3.864L398.227,215.612z"/>
<path d="M411.382,213.039c0-0.521,1.274-0.683,3.822-0.485c0.696,0,1.009,1.02,0.938,3.059c-1.206,0.356-1.816,1.645-1.833,3.864
c0,0.258,0.299,1.141,0.896,2.647c-1.194,0.992-2.479,1.541-3.855,1.645c-1.321-0.307-1.981-0.88-1.981-1.718
c0.367-1.004,0.712-3.577,1.036-7.721C410.847,213.596,411.173,213.165,411.382,213.039z"/>
<path d="M419.143,214.33c0-0.22,1.694-0.4,5.081-0.543c0.965,0.346,1.521,1.385,1.669,3.116c-0.301,1.716-0.608,2.573-0.921,2.573
c0.702,0,0.96,0.858,0.773,2.574c-0.17,0.515-2.393,0.77-6.668,0.765c-0.817,0-1.226-0.683-1.226-2.048
C418.521,216.476,418.951,214.33,419.143,214.33z M421.913,216.903c-0.575,0.181-0.978,0.611-1.208,1.291
c-0.176,1.716,0.071,2.573,0.74,2.573c1.605,0.077,2.444-0.354,2.516-1.291c-0.247-1.146-0.507-2.003-0.781-2.573
C423.18,216.602,422.758,216.602,421.913,216.903z"/>
<path d="M434.436,213.039c1.797,1.299,2.686,2.283,2.663,2.952c-0.241,0.811-0.241,2.096,0,3.855
c-0.252,2.406-2.397,3.609-6.438,3.609c-2.066,0-3.1-1.326-3.1-3.979c0.05,0,0.225-0.979,0.526-2.935
c0.909,3.162,1.768,4.744,2.573,4.744c2.006,0,3.031-1.031,3.075-3.092c-0.033-1.475-0.584-2.763-1.652-3.864
C432.687,213.557,433.471,213.127,434.436,213.039z"/>
<path d="M442.09,209.175c0.592-0.164,1.502,1.039,2.729,3.609c0.187,1.058-0.104,2.001-0.871,2.828
c0.115,2.576,0.02,3.864-0.288,3.864c0,0.604,0.636,1.461,1.908,2.574c-0.296,0.701-1.403,0.983-3.322,0.847
c-0.854-0.176-1.367-0.458-1.537-0.847c0-4.292,0.191-6.438,0.575-6.438c-0.356,0-0.463-1.795-0.32-5.385L442.09,209.175z"/>
<path d="M455.828,213.039c1.212-0.044,1.817,0.387,1.817,1.291c-0.778,1.716-1.523,2.573-2.236,2.573
c0.724,0,1.058,1.003,1.003,3.01c-0.34,1.666-1.335,2.809-2.984,3.428c0,0.773-0.724,1.321-2.171,1.645
c-1.118-0.795-1.619-3.059-1.504-6.791c1.003-1.683,1.504-2.713,1.504-3.092c0.153,0.012,0.688,0.181,1.604,0.51
c-0.137,1.957,0.187,2.936,0.97,2.936c0.669,0,1.004-0.548,1.004-1.645l-0.814-1.291
C454.523,213.897,455.127,213.039,455.828,213.039z"/>
<path d="M8.456,243.73c0-0.554,0.594-0.809,1.784-0.765c1.036,0.191,1.894,0.938,2.574,2.236c0.965,0,1.395-0.109,1.291-0.329
l-0.765-1.143c0-0.619,0.685-0.915,2.055-0.888c0.981,0.312,1.519,1.466,1.612,3.461c-1.075,0.916-1.612,2.371-1.612,4.366
c0,0.816-0.86,1.228-2.582,1.233c-0.932,0-1.359-0.308-1.283-0.921c0.159-0.499,0.159-1.088,0-1.768
C9.7,249.215,8.675,247.387,8.456,243.73z M15.675,251.451l1.003-0.691l0.962,0.691C17.015,251.632,16.36,251.632,15.675,251.451z"
/>
<path d="M20.065,243.73c0.033-0.252,0.762-0.252,2.187,0c-0.559,0-1.085,1.716-1.579,5.146c0.373,1.223,1.617,1.834,3.733,1.834
c0.718-0.274,1.027-1.313,0.929-3.116c-0.06-2.077-0.573-3.365-1.537-3.864c1.37-0.258,2.195-0.258,2.475,0
c0.888,0.493,1.288,2.209,1.2,5.146c-0.022,1.94-1.902,3.21-5.64,3.807c-2.828-0.378-4.231-2.074-4.209-5.089
C18.1,245.446,18.914,244.158,20.065,243.73z"/>
<path d="M31.049,242.439c0-0.646,1.22-0.976,3.659-0.986c1.244,0.044,1.866,0.803,1.866,2.277c0,1.349-0.622,2.022-1.866,2.022
c-1.508,0.088-2.292,0.271-2.352,0.551c0.619,3.432,1.392,5.147,2.318,5.147c-0.378,0.877-2.083,1.271-5.114,1.184
c-1.075,0-1.505-0.636-1.291-1.907c0.417-0.187,0.858-2.519,1.324-6.997C30.525,243.013,31.011,242.582,31.049,242.439z"/>
<path d="M60.853,243.73c0-0.22,1.694-0.4,5.082-0.543c0.964,0.346,1.521,1.385,1.669,3.116c-0.302,1.716-0.608,2.573-0.921,2.573
c0.702,0,0.959,0.858,0.773,2.574c-0.17,0.515-2.393,0.77-6.668,0.765c-0.817,0-1.225-0.683-1.225-2.048
C60.231,245.876,60.661,243.73,60.853,243.73z M63.624,246.304c-0.576,0.181-0.979,0.611-1.208,1.291
c-0.176,1.716,0.071,2.573,0.74,2.573c1.606,0.077,2.445-0.354,2.516-1.291c-0.247-1.146-0.507-2.003-0.781-2.573
C64.89,246.002,64.468,246.002,63.624,246.304z"/>
<path d="M97.071,242.439c1.798,1.299,2.686,2.283,2.664,2.952c-0.241,0.811-0.241,2.096,0,3.855
c-0.252,2.406-2.398,3.609-6.438,3.609c-2.066,0-3.1-1.326-3.1-3.979c0.049,0,0.225-0.979,0.526-2.935
c0.91,3.162,1.768,4.744,2.573,4.744c2.006,0,3.031-1.031,3.075-3.092c-0.033-1.475-0.584-2.763-1.653-3.864
C95.322,242.957,96.106,242.527,97.071,242.439z"/>
<path d="M103.632,242.439c0-0.521,1.274-0.683,3.823-0.485c0.696,0,1.008,1.02,0.938,3.059c-1.206,0.356-1.817,1.645-1.833,3.864
c0,0.258,0.298,1.141,0.896,2.647c-1.195,0.992-2.48,1.541-3.856,1.645c-1.321-0.307-1.981-0.88-1.981-1.718
c0.367-1.004,0.712-3.577,1.036-7.721C103.098,242.996,103.423,242.565,103.632,242.439z"/>
<path d="M111.796,239.866c0.444-0.379,1.091-0.379,1.94,0c0.214,0,0.269,1.393,0.165,4.177c0.099,3.107,0.362,5.577,0.79,7.408
c-0.587,1.008-1.708,1.49-3.363,1.446c-1.107,0-1.582-1.34-1.422-4.021c0.592-1.863,1.066-4.678,1.422-8.443L111.796,239.866z"/>
<path d="M121.432,242.439c1.091-0.017,1.633,0.842,1.628,2.573c-0.998,2.341-1.907,3.511-2.729,3.511
c-1.003,0.214-1.431,0.828-1.283,1.842c1.431,0,2.289-0.279,2.574-0.839c1.6-0.114,2.401,0.099,2.401,0.642
c0.033,1.513-0.768,2.27-2.401,2.27c-0.729-0.318-2.445-0.381-5.147-0.189c-0.992,0-1.422-0.428-1.291-1.282
c1.732-2.05,2.59-3.218,2.573-3.503c0-0.416-0.54-1.66-1.62-3.732c0.039-0.85,1.009-1.159,2.911-0.93
C120.637,242.872,121.432,242.752,121.432,242.439z"/>
<path d="M125.428,243.73c0.603-0.844,1.48-1.271,2.631-1.283c0,0.614,1.308,1.042,3.922,1.283
c-0.033,0.389-0.058,1.247-0.074,2.573c-1.71-1.288-2.565-1.986-2.565-2.097c-1.244,1.311-1.847,2.867-1.809,4.67
c0,0.302,0.603,0.452,1.809,0.452c0.044,0,0.904-0.498,2.582-1.496c0.598,0.696,0.913,1.475,0.946,2.335
c-0.46,1.683-2.064,2.511-4.81,2.483c-2.735-0.006-4.092-1.691-4.07-5.057C124.422,245.019,124.901,243.73,125.428,243.73z"/>
<path d="M135.647,237.293c0-0.658,0.474-0.987,1.422-0.987c0.866,2.275,1.293,4.374,1.283,6.298
c-0.104,0.34,0.052,2.861,0.469,7.564c0,1.688-0.584,2.699-1.751,3.034c-1.611,0-2.417-0.584-2.417-1.751
c0.186-3.163,0.134-5.312-0.156-6.446c0.191,0,0.252-1.713,0.181-5.139C135.297,238.583,135.62,237.726,135.647,237.293z"/>
<path d="M165.351,239.46c1.136-0.303,1.704-0.303,1.704,0c-0.303,1.665-0.912,2.873-1.827,3.623
c-0.087,3.33,0.432,5.342,1.557,6.035c0,0.401,0.37,1.267,1.11,2.598l-1.21,0.887l-1.202-0.887
c-0.272,0.499-1.077,0.797-2.413,0.895c-1.259-0.468-1.845-2.437-1.757-5.904C162.884,241.875,164.23,239.46,165.351,239.46z
M165.428,249.118c0,0.288,0.239,0.288,0.717,0C165.667,248.893,165.428,248.893,165.428,249.118z"/>
<path d="M169.605,244.293c0-0.802,0.637-1.202,1.912-1.202c1.578,0,2.361,0.802,2.351,2.404c-0.046,1.696,0.377,2.968,1.272,3.815
c0.062,1.044,0.046,1.783-0.046,2.221c-1.382,0.832-2.636,1.235-3.762,1.21c-1.701,0-2.528-2.012-2.482-6.035
C168.85,245.807,169.102,245.002,169.605,244.293z"/>
<path d="M178.616,239.46c0.555-0.154,1.408,0.974,2.559,3.384c0.175,0.992-0.098,1.876-0.817,2.651
c0.108,2.416,0.018,3.623-0.27,3.623c0,0.565,0.596,1.37,1.789,2.413c-0.278,0.657-1.316,0.922-3.114,0.794
c-0.802-0.165-1.282-0.43-1.441-0.794c0-4.024,0.18-6.036,0.54-6.036c-0.334,0-0.434-1.683-0.301-5.049L178.616,239.46z"/>
<path d="M185.954,244.293c0.565-0.791,1.387-1.192,2.467-1.202c0,0.575,1.226,0.977,3.677,1.202
c-0.031,0.365-0.054,1.169-0.07,2.413c-1.603-1.208-2.405-1.863-2.405-1.966c-1.167,1.229-1.732,2.688-1.696,4.378
c0,0.283,0.565,0.424,1.696,0.424c0.041,0,0.848-0.468,2.42-1.402c0.56,0.652,0.855,1.382,0.886,2.188
c-0.432,1.578-1.935,2.354-4.509,2.328c-2.564-0.005-3.836-1.585-3.816-4.74C185.011,245.501,185.461,244.293,185.954,244.293z"/>
<path d="M220.023,243.083c1.686,1.218,2.518,2.141,2.498,2.767c-0.226,0.761-0.226,1.966,0,3.615
c-0.236,2.256-2.248,3.384-6.035,3.384c-1.938,0-2.906-1.243-2.906-3.73c0.046,0,0.211-0.917,0.493-2.752
c0.853,2.966,1.657,4.448,2.413,4.448c1.88,0,2.841-0.967,2.883-2.898c-0.031-1.383-0.547-2.59-1.549-3.623
C218.384,243.568,219.119,243.165,220.023,243.083z"/>
<path d="M226.175,243.083c0-0.488,1.194-0.64,3.584-0.455c0.653,0,0.945,0.956,0.879,2.867c-1.131,0.334-1.704,1.542-1.719,3.623
c0,0.242,0.28,1.069,0.84,2.482c-1.12,0.93-2.325,1.443-3.615,1.541c-1.238-0.287-1.857-0.824-1.857-1.61
c0.344-0.94,0.668-3.354,0.971-7.238C225.673,243.604,225.979,243.201,226.175,243.083z"/>
<path d="M233.829,240.67c0.417-0.354,1.022-0.354,1.819,0c0.2,0,0.251,1.306,0.154,3.916c0.092,2.914,0.339,5.229,0.74,6.945
c-0.55,0.945-1.601,1.397-3.153,1.356c-1.038,0-1.482-1.257-1.333-3.77c0.555-1.747,1-4.386,1.333-7.916L233.829,240.67z"/>
<path d="M242.862,243.083c1.022-0.016,1.531,0.789,1.526,2.412c-0.935,2.194-1.788,3.292-2.559,3.292
c-0.94,0.2-1.341,0.775-1.202,1.727c1.341,0,2.145-0.263,2.413-0.786c1.5-0.108,2.25,0.092,2.25,0.601
c0.031,1.419-0.719,2.128-2.25,2.128c-0.684-0.298-2.292-0.357-4.826-0.178c-0.93,0-1.333-0.4-1.21-1.202
c1.624-1.922,2.428-3.017,2.413-3.283c0-0.391-0.506-1.558-1.519-3.5c0.036-0.797,0.945-1.087,2.729-0.871
C242.117,243.489,242.862,243.376,242.862,243.083z"/>
<path d="M246.608,244.293c0.565-0.791,1.387-1.192,2.467-1.202c0,0.575,1.226,0.977,3.677,1.202
c-0.031,0.365-0.054,1.169-0.069,2.413c-1.604-1.208-2.405-1.863-2.405-1.966c-1.167,1.229-1.732,2.688-1.696,4.378
c0,0.283,0.565,0.424,1.696,0.424c0.041,0,0.848-0.468,2.421-1.402c0.56,0.652,0.855,1.382,0.886,2.188
c-0.432,1.578-1.935,2.354-4.509,2.328c-2.564-0.005-3.836-1.585-3.816-4.74C245.666,245.501,246.115,244.293,246.608,244.293z"/>
<path d="M274.257,244.293c0-0.519,0.558-0.758,1.673-0.717c0.971,0.18,1.775,0.879,2.412,2.097c0.904,0,1.308-0.103,1.21-0.309
l-0.717-1.071c0-0.581,0.643-0.858,1.928-0.832c0.919,0.293,1.423,1.374,1.511,3.245c-1.008,0.857-1.511,2.223-1.511,4.093
c0,0.766-0.808,1.151-2.421,1.156c-0.874,0-1.274-0.288-1.202-0.863c0.148-0.468,0.148-1.021,0-1.657
C275.423,249.435,274.462,247.721,274.257,244.293z M281.024,251.531l0.94-0.647l0.901,0.647
C282.28,251.7,281.667,251.7,281.024,251.531z"/>
<path d="M284.446,244.293c0-0.205,1.588-0.375,4.764-0.509c0.904,0.324,1.427,1.298,1.565,2.922
c-0.283,1.608-0.57,2.412-0.863,2.412c0.657,0,0.898,0.805,0.725,2.413c-0.16,0.482-2.243,0.722-6.252,0.717
c-0.766,0-1.148-0.64-1.148-1.92C283.863,246.305,284.267,244.293,284.446,244.293z M287.044,246.706
c-0.539,0.169-0.917,0.572-1.133,1.21c-0.164,1.608,0.066,2.412,0.693,2.412c1.506,0.072,2.292-0.331,2.359-1.21
c-0.231-1.074-0.476-1.878-0.732-2.412C288.231,246.423,287.836,246.423,287.044,246.706z"/>
<path d="M292.664,244.293c0-0.457,0.86-0.575,2.582-0.354c0.164-0.103,0.969-0.233,2.412-0.394c0.91,0,1.362,1.054,1.356,3.161
c-0.189,3.406-0.642,5.11-1.356,5.11c-1.521,0.391-3.129,0.563-4.825,0.517c-0.827,0-1.23-0.732-1.21-2.197
c0.647-1.274,0.972-2.418,0.972-3.43C292.466,245.652,292.489,244.848,292.664,244.293z M293.504,247.916
c0.38,1.747,0.961,2.68,1.742,2.798c1.146,0,1.719-0.532,1.719-1.596c-1.146-1.027-1.719-1.708-1.719-2.043
C294.11,247.143,293.529,247.423,293.504,247.916z"/>
<path d="M320.96,244.293c0-0.205,1.588-0.375,4.764-0.509c0.904,0.324,1.427,1.298,1.565,2.922
c-0.283,1.608-0.57,2.412-0.863,2.412c0.657,0,0.898,0.805,0.725,2.413c-0.16,0.482-2.243,0.722-6.252,0.717
c-0.766,0-1.148-0.64-1.148-1.92C320.377,246.305,320.78,244.293,320.96,244.293z M323.558,246.706
c-0.539,0.169-0.917,0.572-1.133,1.21c-0.164,1.608,0.066,2.412,0.693,2.412c1.506,0.072,2.292-0.331,2.359-1.21
c-0.231-1.074-0.476-1.878-0.732-2.412C324.745,246.423,324.35,246.423,323.558,246.706z"/>
<path d="M351.168,243.083c0.94-0.025,1.41,0.233,1.41,0.778c1.536-0.2,2.426-0.057,2.667,0.432c0,0.57-0.485,0.855-1.457,0.855
l-1.21-0.632c-1.336,0.334-1.991,1.868-1.966,4.602c0.011,0.463,0.666,0.696,1.966,0.701c1.383-0.523,2.215-0.758,2.497-0.701
l0.54,1.21c-0.288,1.691-1.86,2.495-4.718,2.413c-2.322-0.257-3.481-1.865-3.476-4.825
C347.704,245.049,348.953,243.438,351.168,243.083z"/>
<path d="M357.442,243.083c0-0.488,1.194-0.64,3.584-0.455c0.652,0,0.945,0.956,0.879,2.867c-1.131,0.334-1.703,1.542-1.719,3.623
c0,0.242,0.279,1.069,0.84,2.482c-1.12,0.93-2.325,1.443-3.615,1.541c-1.238-0.287-1.857-0.824-1.857-1.61
c0.345-0.94,0.668-3.354,0.972-7.238C356.941,243.604,357.247,243.201,357.442,243.083z"/>
<path d="M364.718,244.293c0-0.205,1.588-0.375,4.764-0.509c0.904,0.324,1.427,1.298,1.565,2.922
c-0.283,1.608-0.57,2.412-0.863,2.412c0.657,0,0.898,0.805,0.725,2.413c-0.16,0.482-2.243,0.722-6.252,0.717
c-0.766,0-1.148-0.64-1.148-1.92C364.135,246.305,364.538,244.293,364.718,244.293z M367.315,246.706
c-0.539,0.169-0.917,0.572-1.133,1.21c-0.164,1.608,0.066,2.412,0.693,2.412c1.506,0.072,2.292-0.331,2.359-1.21
c-0.231-1.074-0.476-1.878-0.732-2.412C368.503,246.423,368.107,246.423,367.315,246.706z"/>
<path d="M379.056,243.083c1.686,1.218,2.518,2.141,2.497,2.767c-0.227,0.761-0.227,1.966,0,3.615
c-0.236,2.256-2.248,3.384-6.035,3.384c-1.938,0-2.906-1.243-2.906-3.73c0.046,0,0.211-0.917,0.493-2.752
c0.854,2.966,1.657,4.448,2.413,4.448c1.881,0,2.842-0.967,2.883-2.898c-0.031-1.383-0.548-2.59-1.55-3.623
C377.416,243.568,378.15,243.165,379.056,243.083z"/>
<path d="M391.127,243.083c1.686,1.218,2.518,2.141,2.497,2.767c-0.227,0.761-0.227,1.966,0,3.615
c-0.236,2.256-2.248,3.384-6.035,3.384c-1.938,0-2.906-1.243-2.906-3.73c0.046,0,0.211-0.917,0.493-2.752
c0.854,2.966,1.657,4.448,2.413,4.448c1.881,0,2.842-0.967,2.883-2.898c-0.031-1.383-0.548-2.59-1.55-3.623
C389.487,243.568,390.222,243.165,391.127,243.083z"/>
<path d="M402.734,243.083c1.136-0.041,1.703,0.362,1.703,1.21c-0.729,1.608-1.428,2.413-2.096,2.413c0.678,0,0.991,0.94,0.94,2.82
c-0.319,1.563-1.252,2.634-2.799,3.215c0,0.725-0.678,1.238-2.034,1.542c-1.049-0.746-1.519-2.868-1.411-6.367
c0.94-1.578,1.411-2.544,1.411-2.898c0.144,0.011,0.645,0.17,1.503,0.478c-0.129,1.835,0.175,2.752,0.909,2.752
c0.627,0,0.94-0.514,0.94-1.541l-0.763-1.211C401.512,243.887,402.076,243.083,402.734,243.083z"/>
<path d="M428.856,239.46c1.048-0.221,1.572-0.221,1.572,0c0.2,1.285,0.087,2.089-0.339,2.413c-0.334,0.452-0.619,1.259-0.855,2.42
c0.354,0,0.511,2.012,0.47,6.035c0,1.213-1.062,1.819-3.184,1.819c-0.575,0-0.843-0.606-0.802-1.819
c0.247,0,0.357-2.012,0.332-6.035c0.35-2.415,0.714-3.623,1.095-3.623C427.34,240.033,427.911,239.63,428.856,239.46z"/>
<path d="M434.522,244.293c0.03-0.236,0.714-0.236,2.05,0c-0.523,0-1.018,1.608-1.479,4.825c0.35,1.146,1.516,1.719,3.499,1.719
c0.674-0.257,0.964-1.23,0.871-2.921c-0.057-1.947-0.537-3.155-1.441-3.623c1.285-0.241,2.059-0.241,2.32,0
c0.833,0.463,1.208,2.071,1.125,4.825c-0.021,1.819-1.783,3.009-5.287,3.569c-2.651-0.354-3.967-1.945-3.947-4.771
C432.68,245.901,433.443,244.693,434.522,244.293z"/>
<path d="M444.82,243.083c0-0.606,1.144-0.915,3.43-0.925c1.167,0.041,1.75,0.753,1.75,2.135c0,1.265-0.583,1.896-1.75,1.896
c-1.413,0.082-2.147,0.254-2.204,0.517c0.58,3.217,1.305,4.825,2.174,4.825c-0.354,0.822-1.953,1.192-4.795,1.109
c-1.007,0-1.41-0.596-1.21-1.788c0.391-0.175,0.804-2.361,1.241-6.56C444.329,243.62,444.784,243.217,444.82,243.083z"/>
<path d="M452.373,244.293c0-0.802,0.637-1.202,1.912-1.202c1.577,0,2.36,0.802,2.351,2.404c-0.046,1.696,0.378,2.968,1.271,3.815
c0.062,1.044,0.047,1.783-0.046,2.221c-1.383,0.832-2.636,1.235-3.762,1.21c-1.701,0-2.528-2.012-2.481-6.035
C451.618,245.807,451.869,245.002,452.373,244.293z"/>
<path d="M461.462,244.293c1.5-0.113,2.25,0.288,2.25,1.202c-0.195,1.188-0.118,1.781,0.231,1.781
c0.868,1.429,1.271,2.605,1.21,3.53c-0.185,2.204-0.989,3.62-2.412,4.247c-1.254,0-1.904-0.771-1.95-2.313
c0.205-1.352,0.301-3.767,0.285-7.246L461.462,244.293z M461.261,234.635c0.072-0.309,0.565-0.55,1.48-0.725
c0.4,0,1.187,0.643,2.358,1.927c-0.139,1.224-0.925,1.835-2.358,1.835c0-0.252-0.578-0.863-1.734-1.835L461.261,234.635z"/>
<g>
<path d="M12.025,16.489c2.359,1.705,3.525,2.997,3.496,3.874c-0.316,1.065-0.316,2.752,0,5.061
c-0.331,3.159-3.147,4.738-8.45,4.738c-2.712,0-4.068-1.741-4.068-5.223c0.065,0,0.295-1.284,0.691-3.853
c1.194,4.151,2.32,6.227,3.377,6.227c2.633,0,3.979-1.353,4.036-4.058c-0.043-1.935-0.766-3.626-2.169-5.072
C9.73,17.169,10.759,16.604,12.025,16.489z"/>
<path d="M22.093,4.662c1.381-0.065,2.05,1.061,2.007,3.377c0.28,7.482,0.392,13.115,0.334,16.899
c0.129,0.324,0.377,1.45,0.745,3.377c-0.13,0.763-1.659,1.086-4.586,0.971c-0.749,0-0.957-0.885-0.626-2.654
c0.755-1.367,1.058-5.874,0.906-13.522c0.353-0.438,0.623-1.564,0.81-3.377c-0.46-0.036-0.705-1.166-0.734-3.389L22.093,4.662z"/>
<path d="M28.611,18.184c0-0.475,0.705-0.45,2.115,0.075c0.367,0,0.694,2.227,0.982,6.68c0,1.302,0.798,1.982,2.396,2.04
c1.712-0.094,2.521-1.334,2.428-3.723c-0.928-2.64-1.392-4.331-1.392-5.072c0-0.468,0.784-0.611,2.353-0.432
c1.23,0.338,1.813,1.608,1.748,3.809c0,3.381,0.371,5.072,1.111,5.072c0.065,1.741-0.327,2.611-1.176,2.611
c-3.309-0.115-5.561,0.072-6.755,0.561c-2.985,0-4.478-2.183-4.478-6.55C28.165,19.874,28.388,18.184,28.611,18.184z"/>
<path d="M42.326,18.184c0-0.64,1.205-0.806,3.615-0.497c0.23-0.144,1.356-0.327,3.378-0.55c1.273,0,1.906,1.475,1.899,4.424
c-0.267,4.77-0.899,7.155-1.899,7.155c-2.13,0.547-4.381,0.788-6.755,0.723c-1.159,0-1.723-1.025-1.694-3.076
c0.906-1.784,1.36-3.385,1.36-4.802C42.049,20.086,42.082,18.96,42.326,18.184z M43.502,23.255
c0.532,2.446,1.345,3.752,2.438,3.917c1.604,0,2.407-0.745,2.407-2.234c-1.604-1.439-2.407-2.392-2.407-2.86
C44.351,22.173,43.538,22.565,43.502,23.255z"/>
<path d="M83.808,16.489c0-0.849,1.601-1.28,4.802-1.295c1.633,0.058,2.45,1.054,2.45,2.989c0,1.77-0.817,2.654-2.45,2.654
c-1.979,0.115-3.007,0.356-3.086,0.723c0.813,4.504,1.827,6.755,3.043,6.755c-0.496,1.151-2.734,1.669-6.712,1.554
c-1.41,0-1.975-0.834-1.694-2.504c0.547-0.244,1.126-3.306,1.737-9.183C83.121,17.241,83.757,16.676,83.808,16.489z"/>
<path d="M95.3,18.184c0.792-1.108,1.942-1.669,3.453-1.684c0,0.806,1.716,1.367,5.147,1.684c-0.043,0.511-0.075,1.637-0.097,3.377
c-2.244-1.69-3.367-2.608-3.367-2.751c-1.633,1.719-2.424,3.762-2.374,6.129c0,0.396,0.791,0.593,2.374,0.593
c0.058,0,1.187-0.654,3.389-1.964c0.784,0.914,1.198,1.936,1.241,3.065c-0.604,2.208-2.708,3.295-6.313,3.259
c-3.59-0.007-5.37-2.219-5.342-6.637C93.98,19.874,94.61,18.184,95.3,18.184z"/>
<path d="M106.545,18.184c0-0.727,0.78-1.061,2.342-1.004c1.359,0.252,2.485,1.23,3.377,2.936c1.266,0,1.831-0.144,1.694-0.432
l-1.004-1.5c0-0.813,0.899-1.202,2.698-1.166c1.288,0.41,1.993,1.924,2.115,4.543c-1.41,1.202-2.115,3.112-2.115,5.73
c0,1.072-1.13,1.611-3.389,1.619c-1.223,0-1.784-0.403-1.684-1.208c0.209-0.655,0.209-1.428,0-2.32
C108.178,25.381,106.833,22.982,106.545,18.184z M116.02,28.316l1.316-0.906l1.263,0.906
C117.779,28.554,116.919,28.554,116.02,28.316z"/>
<path d="M148.231,16.489c0-0.684,1.673-0.896,5.018-0.637c0.914,0,1.324,1.338,1.23,4.014c-1.583,0.468-2.385,2.159-2.407,5.072
c0,0.338,0.392,1.497,1.176,3.475c-1.568,1.302-3.255,2.021-5.061,2.158c-1.734-0.403-2.601-1.154-2.601-2.255
c0.482-1.316,0.935-4.694,1.359-10.133C147.53,17.219,147.958,16.655,148.231,16.489z"/>
<path d="M159.389,18.184c0.043-0.331,1-0.331,2.87,0c-0.733,0-1.424,2.252-2.072,6.755c0.489,1.604,2.122,2.406,4.899,2.406
c0.942-0.359,1.349-1.723,1.219-4.09c-0.079-2.727-0.752-4.417-2.018-5.072c1.799-0.338,2.881-0.338,3.249,0
c1.166,0.647,1.69,2.899,1.575,6.755c-0.029,2.547-2.496,4.212-7.403,4.996c-3.712-0.496-5.554-2.723-5.525-6.68
C156.81,20.436,157.878,18.745,159.389,18.184z"/>
<path d="M173.223,18.184c2.46-0.424,3.69-0.849,3.69-1.273l1.23,1.273c-0.151,0.561-1.123,0.874-2.914,0.938
c-0.086,0,0.022,2.504,0.324,7.511l0.777,1.683c-0.626,0.475-2.119,0.597-4.479,0.367c-0.302,0-0.23-1.248,0.216-3.745
c-0.237,0-0.31-1.834-0.216-5.504L173.223,18.184z M179.45,18.184c2.151-0.626,4.687-0.849,7.608-0.669
c0.856,0.82,1.125,2.169,0.809,4.047c0,1.267-0.928,1.831-2.784,1.694c-1.964-2.259-3.608-3.389-4.932-3.389L179.45,18.184z
M180.928,28.316c0.604-0.489,1.41-0.489,2.417,0C182.338,28.662,181.532,28.662,180.928,28.316z"/>
<path d="M192.215,18.184c0-0.288,2.223-0.525,6.669-0.712c1.266,0.453,1.996,1.817,2.19,4.09
c-0.396,2.252-0.798,3.378-1.208,3.378c0.921,0,1.259,1.126,1.014,3.377c-0.223,0.676-3.14,1.011-8.751,1.004
c-1.072,0-1.608-0.896-1.608-2.687C191.398,21,191.963,18.184,192.215,18.184z M195.852,21.561
c-0.755,0.237-1.284,0.802-1.586,1.694c-0.23,2.252,0.093,3.378,0.971,3.378c2.108,0.101,3.208-0.464,3.302-1.694
c-0.324-1.503-0.666-2.629-1.025-3.378C197.514,21.166,196.959,21.166,195.852,21.561z"/>
<path d="M205.91,16.489c0-0.849,1.601-1.28,4.802-1.295c1.633,0.058,2.45,1.054,2.45,2.989c0,1.77-0.817,2.654-2.45,2.654
c-1.979,0.115-3.007,0.356-3.086,0.723c0.813,4.504,1.827,6.755,3.043,6.755c-0.496,1.151-2.734,1.669-6.712,1.554
c-1.41,0-1.975-0.834-1.694-2.504c0.547-0.244,1.126-3.306,1.737-9.183C205.223,17.241,205.859,16.676,205.91,16.489z"/>
</g>
</g>
</svg>
