<?xml version="1.0" encoding="utf-8"?>
<svg version="1.1" id="Layer_1" xmlns="http://www.w3.org/2000/svg" xmlns:xlink="http://www.w3.org/1999/xlink" x="0px" y="0px"
	 width="697.032px" height="376.992px" viewBox="0 0 697.032 376.992" enable-background="new 0 0 697.032 376.992"
	 xml:space="preserve">
<title>same case pr curve</title>
<path fill="none" stroke="#CCCCCC" stroke-miterlimit="10" d="M188.519,15.5v303.994"/>
<path fill="none" stroke="#CCCCCC" stroke-miterlimit="10" d="M312.517,15.5v303.994"/>
<path fill="none" stroke="#CCCCCC" stroke-miterlimit="10" d="M435.514,15.5v303.994"/>
<path fill="none" stroke="#CCCCCC" stroke-miterlimit="10" d="M559.511,15.5v303.994"/>
<path fill="none" stroke="#CCCCCC" stroke-miterlimit="10" d="M683.509,15.5v303.994"/>
<path fill="none" stroke="#333333" stroke-miterlimit="10" d="M66.522,319.493h616.987"/>
<path fill="none" stroke="#CCCCCC" stroke-miterlimit="10" d="M66.522,243.495h616.987"/>
<path fill="none" stroke="#CCCCCC" stroke-miterlimit="10" d="M66.522,167.496h616.987"/>
<path fill="none" stroke="#CCCCCC" stroke-miterlimit="10" d="M66.522,91.498h616.987"/>
<path fill="none" stroke="#CCCCCC" stroke-miterlimit="10" d="M66.522,15.5h616.987"/>
<g>
	<path fill="none" stroke="#4285F4" stroke-width="4" stroke-miterlimit="10" d="M66.472,15.917h6.15v60.725l2.05-10.12l2.05-7.229
		l2.049-5.423l2.05-4.218l2.049-3.373l2.05-2.76l2.049-2.3l2.056-1.946l2.052-1.674l2.045-1.44l2.05-1.266l2.05-1.118l2.05-0.989
		l2.049-0.89l2.049-0.8l2.056-0.722l2.049-0.659v12.6l2.05-1.1l2.049-1.011l2.049-0.935l2.05-0.865l2.049-0.8l2.05-0.747l2.055-0.7
		l2.05-0.653l2.049-0.613l2.049-0.574l2.05-0.544l2.049-0.51l2.049-0.479l2.05-0.459v7.561l2.055-0.617l2.05-0.583l2.049-0.555
		l2.05-0.529l2.049-0.5l2.049-0.483l2.05-0.458l2.049-0.44l2.056-0.422l2.049-0.4v5.8l2.049-0.495l2.05-0.476l2.049-0.459l2.05-0.44
		l2.049-0.425l2.052-0.405l2.056-0.4l2.049-0.379l2.05-0.368l2.049-0.355l2.049-0.343l2.05-0.334l2.049-0.319l2.05-0.313l2.055-0.3
		l2.05-0.292l2.049-0.282l2.049-0.276l2.05-0.268l2.049-0.258l2.05-0.252l2.049-0.243l2.055-0.236l2.05-0.234l2.049-0.225
		l2.05-0.219l2.049-0.212l2.049-0.207l2.05-0.2l2.049-0.2l2.056-0.192l2.049-0.188l2.05-0.182l2.049-0.179l2.049-0.173l2.05-0.17
		l2.049-0.167l2.049-0.161l2.056-0.161l2.049-0.155l2.05-0.152l2.049-0.146l2.05-0.145l2.049-0.143l2.049-0.14l2.05-0.133
		l2.055-0.134l2.05-0.13l2.049-0.128l2.049-0.128l2.05-0.121l2.049-0.121l2.05-0.116l2.049-0.118l2.056-0.113l2.049-0.109
		l2.049-0.109l2.05-0.11l2.049-0.1l2.049-0.1l2.05-0.1l2.049-0.1l2.056-0.1l2.049-0.094l2.05-0.094l2.049-0.094l2.049-0.091
		l2.05-0.088l2.049-0.088l2.05-0.088l2.055-0.085l2.049-0.082l2.05-0.082l2.049-0.082l2.05-0.079l2.049-0.079l2.049-0.076
		l2.05-0.076l2.055-0.076l2.05-0.073l2.049-0.073l2.05-0.072l2.049-0.07l2.049-0.067l2.05-0.07l2.049-0.067l2.056-0.066l2.049-0.064
		l2.049-0.064l2.05-0.064l2.049-0.064l2.05-0.06l2.049-0.061l2.049-0.061l2.056-0.057l2.049-0.058l2.05-0.058l2.049-0.057
		l2.049-0.055l2.05-0.055l2.049-0.054l2.05-0.055l2.055-0.052l2.05-0.054l2.049-0.052l2.049-0.049l2.05-0.051l2.049-0.049v1.874
		l2.049-0.061l2.056-0.061l2.049-0.057l2.05-0.061l2.049-0.058l2.05-0.055l2.049-0.057l2.049-0.055l2.05-0.055l2.055-0.054
		l2.05-0.052l2.049-0.054l2.049-0.052l2.05-0.052l2.049-0.051l2.05-0.049l2.049-0.052l2.056-0.048l2.049-0.049l2.049-0.048
		l2.05-0.049l2.049-0.045l2.049-0.049l2.05-0.046l2.049-0.045l2.056-0.046l2.049-0.042l2.05-0.046v1.58l2.049-0.054l2.049-0.049
		l2.05-0.052l2.049-0.051l2.05-0.049l2.055-0.048l2.049-0.049l2.05-0.049l2.049-0.048l2.05-0.046l2.049-0.048l2.049-0.046v2.929
		l2.05-0.06l2.055-0.058l2.05-0.058l2.049-0.061l2.05-0.057v1.412l2.049-0.064l2.049-0.064l2.05-0.061v1.376l2.049-0.067
		l2.056-0.067l2.049-0.067l2.049-0.066v1.342l2.05-0.073v1.324l2.049-0.079l2.05-0.073l2.049-0.076l2.049-0.076v6.328l2.056-0.1
		l2.049-0.1l2.05-0.1v1.218l2.049-0.1l2.049-0.1l2.05-0.1l2.049-0.1v1.187l2.05-0.1l2.055-0.1l2.05-0.1v1.162l2.049-0.1v1.151
		l2.049-0.109v1.135l2.05-0.109l2.049-0.112l2.049-0.11l2.05-0.109l2.055-0.109v1.108l2.05-0.112l2.049-0.11l2.05-0.109L538,43.417
		l2.049-0.107l2.05-0.109l2.049-0.106l2.056-0.1l2.049-0.107v1.066l2.049-0.109l2.05-0.107v1.041l2.049-0.109v1.035l2.05-0.112
		l2.049-0.11l2.049-0.112v1.02l2.056-0.112l2.049-0.112l2.05-0.113l2.049-0.109l2.05-0.109l2.049-0.11v0.993l2.049-0.112l2.05-0.109
		l2.055-0.11v0.975l2.05-0.112l2.049-0.11l2.049-0.112v5.66l2.05-0.128v3.632l2.049-0.137l2.05-0.134l2.049-0.136l2.056-0.134v1.761
		l2.049-0.139l2.049-0.137v2.581l2.05-0.143v4.181l2.049-0.155l2.049-0.152v7.157l2.05-0.167v1.533l2.049-0.173l2.056-0.17v0.756
		l2.049-0.173v14.842l2.05-0.2v1.971l2.049-0.2v8.155l2.049-0.218v2.981l2.05-0.221v4.035l2.049-0.228v7.1l2.049-0.24v8.605
		l2.056-0.246l2.049-0.246l2.05-0.246v5.643l2.049-0.249v8.307l2.05-0.258v12.134l2.049-0.265v8.7l2.049-0.267v8.478l2.05-0.271
		v17.751l2.055-0.267v2.544l2.05-0.267v16.624l2.049-0.258v4.591l2.049-0.255v1.457l2.05-0.252v3.568l2.049-0.246v3.076l2.05-0.243
		v3.054l2.049-0.243v6.726l2.056-0.234v19.423l2.049-0.206v0.389l2.049-0.207v13.281l2.05-0.182v6.5l2.049-0.17v8.091l2.049-0.154
		v3.485l2.05-0.149v0.125l2.049-0.146v2.472l2.056-0.143v0.03l2.049-0.142v0.221l2.05-0.139v6.306l2.049-0.124v0.042"/>
</g>
<text transform="matrix(1 0 0 1 323.016 364.9922)" font-family="sans-serif" font-size="24px">Recall</text>
<text transform="matrix(6.123105e-17 -1 1 6.123105e-17 26.0448 221.9732)" font-family="sans-serif" font-size="24px">Precision</text>
<text transform="matrix(1 0 0 1 177 340)" fill="#7F7F7F" font-family="sans-serif" font-size="14px">0.2</text>
<text transform="matrix(1 0 0 1 304 340)" fill="#7F7F7F" font-family="sans-serif" font-size="14px">0.4</text>
<text transform="matrix(1 0 0 1 425 340)" fill="#7F7F7F" font-family="sans-serif" font-size="14px">0.6</text>
<text transform="matrix(1 0 0 1 550 340)" fill="#7F7F7F" font-family="sans-serif" font-size="14px">0.8</text>
<text transform="matrix(1 0 0 1 672 340)" fill="#7F7F7F" font-family="sans-serif" font-size="14px">1.0</text>
<text transform="matrix(1 0 0 1 34.5 323.5)" fill="#7F7F7F" font-family="sans-serif" font-size="14px">0.00</text>
<text transform="matrix(1 0 0 1 34.5 247.5)" fill="#7F7F7F" font-family="sans-serif" font-size="14px">0.25</text>
<text transform="matrix(1 0 0 1 34.5 171.5)" fill="#7F7F7F" font-family="sans-serif" font-size="14px">0.50</text>
<text transform="matrix(1 0 0 1 34.5 96.5)" fill="#7F7F7F" font-family="sans-serif" font-size="14px">0.75</text>
<text transform="matrix(1 0 0 1 34.5 20.5)" fill="#7F7F7F" font-family="sans-serif" font-size="14px">1.00</text>
</svg>
