<svg version="1.1" viewBox="0.0 0.0 1057.0 654.0" fill="none" stroke="none" stroke-linecap="square" stroke-miterlimit="10" width="1057" height="654" xmlns:xlink="http://www.w3.org/1999/xlink" xmlns="http://www.w3.org/2000/svg">
<path fill="#ffffff" d="M0 0L1057.0 0L1057.0 654.0L0 654.0L0 0Z" fill-rule="nonzero"/>
<path stroke="#cccccc" stroke-width="1.0" stroke-linecap="butt" d="M297.5 74.5L297.5 600.5" fill-rule="nonzero"/>
<path stroke="#cccccc" stroke-width="1.0" stroke-linecap="butt" d="M535.5 74.5L535.5 600.5" fill-rule="nonzero"/>
<path stroke="#cccccc" stroke-width="1.0" stroke-linecap="butt" d="M773.5 74.5L773.5 600.5" fill-rule="nonzero"/>
<path stroke="#cccccc" stroke-width="1.0" stroke-linecap="butt" d="M1011.5 74.5L1011.5 600.5" fill-rule="nonzero"/>
<path stroke="#333333" stroke-width="1.0" stroke-linecap="butt" d="M59.5 600.5L1024.5 600.5" fill-rule="nonzero"/>
<path stroke="#cccccc" stroke-width="1.0" stroke-linecap="butt" d="M59.5 468.5L1024.5 468.5" fill-rule="nonzero"/>
<path stroke="#cccccc" stroke-width="1.0" stroke-linecap="butt" d="M59.5 337.5L1024.5 337.5" fill-rule="nonzero"/>
<path stroke="#cccccc" stroke-width="1.0" stroke-linecap="butt" d="M59.5 205.5L1024.5 205.5" fill-rule="nonzero"/>
<path stroke="#cccccc" stroke-width="1.0" stroke-linecap="butt" d="M59.5 74.5L1024.5 74.5" fill-rule="nonzero"/>
<clipPath id="id_0">
<path d="M59.7 74.0L1024.3 74.0L1024.3 600.3L59.7 600.3L59.7 74.0Z" clip-rule="nonzero"/>
</clipPath>
<path stroke="#4285f4" stroke-width="2.0" stroke-linecap="butt" clip-path="url(#id_0)" d="M59.7 -535.86646L60.708775 -125.427704L62.31711 188.60498L63.925438 191.80067L65.52996 200.62831L67.13829 207.92177L68.74663 205.90393L70.35496 211.23378L71.96329 211.01588L73.57162 211.43694L75.18471 214.04474L76.79304 214.50052L78.401375 213.24898L80.009705 214.33105L81.618034 217.12413L83.226364 220.69612L84.834694 220.67403L86.44303 223.04816L88.05136 223.04764L89.65969 222.15292L91.27278 223.66551L92.88111 224.23338L94.48944 223.43657L96.09777 224.0897L97.70611 225.26283L99.31444 224.06708L100.92277 224.57443L102.5311 224.10391L104.13943 224.42075L105.75252 226.70331L107.35514 225.8186L108.96347 226.38226L110.5718 226.4928L112.18014 226.5491L113.78847 225.86807L115.3968 226.01596L117.00513 227.17224L118.61346 224.67126L120.221794 225.87914L121.83488 226.1707L123.443214 226.8291L125.051544 227.37645L126.659874 226.05017L128.2682 226.99489L129.87654 227.34488L131.48486 227.22594L133.0932 229.01851L134.70152 226.90436L136.30986 227.10068L137.92296 227.4754L139.53128 227.38171L141.13962 228.77061L142.74794 227.73222L144.35628 228.85167L145.96461 228.9385L147.57294 228.99956L149.18127 226.24069L150.7896 229.4106L152.4027 229.49165L154.00816 231.7479L155.6165 239.02821L157.22482 237.63719L158.83316 240.59554L160.4415 243.90121L162.04982 249.83263L163.65816 253.40356L165.26648 259.40286L166.87482 265.22372L168.4879 268.85098L170.09624 271.78302L171.70457 277.0981L173.3129 281.54694L174.92123 287.60413L176.52956 291.58716L178.1379 295.62018L179.74623 299.78165L181.35455 302.47894L182.96765 306.3404L184.57597 310.0266L186.18431 315.2433L187.79263 320.2163L189.40097 323.84512L191.00931 327.184L192.61763 330.50177L194.22597 333.22958L195.83429 335.3227L197.44072 336.6937L199.05382 338.72733L200.66214 341.0562L202.27048 342.14038L203.87881 343.4377L205.48714 345.3266L207.09547 347.2518L208.7038 347.87653L210.31213 348.58124L211.92047 349.59595L213.5288 351.67694L215.14189 352.11377L216.75021 353.78793L218.35855 353.48636L219.96687 354.20264L221.57521 356.59625L223.18355 357.76096L224.79187 358.9925L226.4002 358.94144L228.00853 359.96667L229.61877 360.60614L231.2271 361.30505L232.83543 362.8287L234.44376 363.14764L236.0521 365.71704L237.66043 364.6397L239.26875 366.94278L240.87709 367.207L242.48541 367.7954L244.09375 368.43695L245.70683 370.1927L247.31517 369.81482L248.92351 371.11426L250.53183 372.22684L252.14017 370.9232L253.74849 372.27527L255.35683 372.46158L256.96515 372.9826L258.5735 374.06836L260.18658 373.56784L261.79492 374.77887L263.40323 375.29938L265.01157 374.87888L266.6199 375.57043L268.22348 376.7241L269.83182 376.76828L271.44016 377.5051L273.04846 376.4504L274.6568 378.2893L276.2699 379.09033L277.87823 379.61716L279.48654 378.98294L281.09488 378.81927L282.70322 379.6603L284.31155 379.97556L285.9199 380.10608L287.5282 380.3645L289.13654 381.46762L290.74487 381.51395L292.35797 381.49023L293.9663 380.8434L295.57462 381.62814L297.18295 382.8044L298.7913 382.876L300.39963 382.8639L302.00797 383.12808L303.61627 382.6581L305.2246 383.8665L306.8377 384.53488L308.44604 384.10333L310.05435 384.10806L311.6627 384.39752L313.27103 384.80908L314.87936 385.42804L316.4877 384.47437L318.096 386.2243L319.70435 384.9117L321.31268 385.5796L322.92578 386.07907L324.53412 386.25168L326.14243 387.4285L327.75076 386.52957L329.3591 386.48535L330.96744 386.52905L332.57578 387.10797L334.18408 387.32324L335.79242 386.6543L337.40076 385.80487L339.01385 387.24167L340.62216 387.6464L342.2305 388.74423L343.83884 387.36743L345.4448 388.36847L347.05313 388.11954L348.66144 388.61426L350.26978 388.79056L351.8781 388.5537L352.78696 388.59424L353.59113 388.63214L354.3953 389.35843L355.19946 389.51685L356.00363 390.6963L356.8078 390.7621L357.61197 391.6547L358.41614 389.73157L359.22028 390.49786L360.02444 391.44415L360.8291 391.86993L361.63327 392.07834L362.43744 390.65894L363.2416 392.2636L364.04575 392.82202L364.8466 379.624L365.65076 382.5544L366.45493 382.7439L367.2591 385.64014L368.06754 385.5333L368.87027 386.488L369.67444 388.8732L370.4786 387.40744L371.28278 388.02426L372.08694 388.56058L372.8911 389.03528L373.69528 388.30478L374.49945 389.8679L375.3036 390.54523L376.10825 390.7247L376.9124 390.21368L377.7137 389.78946L378.51788 390.3942L379.32205 390.68365L380.12622 390.6442L380.9304 391.38153L381.73456 391.69995L382.53873 391.20047L383.34286 391.98468L384.15134 391.331L384.9555 391.90942L385.75967 392.55307L386.5638 392.1389L387.3637 392.13992L388.16788 393.15884L388.97205 392.86465L389.7762 391.66153L390.58038 392.11624L391.38882 392.6631L392.193 394.0588L392.99716 395.07248L393.80133 393.9946L394.60547 395.70456L395.40964 393.24515L396.2138 393.91568L397.01797 394.81354L397.82214 393.76303L398.6263 395.45718L399.43094 395.43036L400.2351 394.39932L401.03928 396.37192L401.84344 395.73718L402.6476 395.96088L403.45178 394.92194L404.25595 395.57614L405.06012 396.2693L405.8643 397.0845L406.67273 396.89767L407.4769 395.4793L408.28107 395.70087L409.08524 397.96396L409.88937 395.86035L410.69354 396.74295L411.4977 396.8898L412.30188 397.3366L413.10605 397.4566L413.91022 396.6356L414.71484 396.66452L415.519 397.79977L416.32318 397.67136L417.12735 398.0929L417.93152 398.16132L418.7357 400.21127L419.53986 397.96185L420.34402 398.39764L421.1482 397.5645L421.95093 397.18503L422.75937 397.98343L423.56354 398.87024L424.3677 399.5718L425.17188 399.16498L425.97604 399.11603L426.78018 398.72552L427.58435 400.3602L428.38852 399.48444L429.1927 399.28183L429.99734 399.58707L430.8015 400.13654L431.60565 400.25494L432.40982 398.575L433.214 399.08447L434.01816 400.28336L434.82233 400.2497L435.6265 400.96442L436.43066 398.70395L437.23483 399.2076L438.04327 400.0655L438.84744 400.73492L439.6516 399.98392L440.45578 400.4581L441.25995 401.3186L442.0641 400.14444L442.86826 400.766L443.67242 400.97018L444.4766 401.18597L445.28076 401.65543L446.08542 401.51755L446.88956 399.6839L447.69373 401.6328L448.4979 402.5033L449.30206 401.22702L450.10623 401.87173L450.9104 401.73965L451.71457 401.2444L452.51874 401.73123L453.32718 401.93332L454.13135 401.48596L454.93552 402.4133L455.7397 400.81967L456.54385 402.3012L457.348 403.908L458.15216 401.6107L458.95633 402.04016L459.7605 402.63962L460.56467 401.64755L461.36932 404.67902L462.17346 403.91537L462.97763 402.84854L463.7818 403.41855L464.58597 403.2138L465.39014 402.2412L466.19382 402.8696L466.998 403.63852L467.80215 401.84753L468.6106 402.98383L469.41476 403.55118L470.21893 404.22272L471.0231 404.73376L471.82727 403.77747L472.63144 404.00272L473.4356 403.85748L474.23978 404.38483L475.04395 404.1638L475.84808 404.03168L476.65274 403.6959L477.4569 405.32584L478.26108 404.03482L479.06192 403.81433L479.86606 403.38748L480.67023 404.84375L481.4744 404.82428L482.27856 403.55853L483.08273 403.57748L483.8869 404.5869L484.69534 404.43903L485.4995 405.0369L486.30368 405.109L487.10785 405.43057L487.91202 403.48328L488.7162 405.18112L489.52036 405.05692L490.3245 404.86743L491.12866 404.0417L491.93332 405.94742L492.7375 405.63373L493.54166 404.9327L494.34583 405.60742L495.14996 406.17056L495.95413 405.51846L496.7583 405.94162L497.56247 406.01163L498.36664 405.86478L499.1708 406.10318L499.97925 405.31744L500.78342 405.5353L501.5876 407.04315L502.39175 406.2253L503.19592 406.67792L504.0001 406.5195L504.80426 406.48212L505.6084 405.98846L506.41257 405.14374L507.21722 405.72162L508.0214 406.2937L508.82556 407.85526L509.62973 406.23846L510.43387 406.80582L511.23804 407.32104L512.04224 405.59006L512.8464 408.9047L513.6506 406.94266L514.4509 409.12943L515.25934 409.91098L516.06354 408.37155L516.8677 408.73996L517.6719 407.7779L518.476 408.07315L519.28015 408.98575L520.08435 409.37888L520.8885 409.3668L521.6927 409.31204L522.4968 408.24893L523.3015 408.63837L524.10565 409.51257L524.9098 410.38623L525.714 409.02206L526.5181 410.8741L527.3223 408.06577L528.12646 408.34103L528.93066 409.77362L529.7348 410.2515L530.5433 408.76996L531.3474 409.4589L532.1516 409.0231L532.95575 408.66208L533.75995 410.50726L534.5641 408.8547L535.3682 408.6226L536.1724 409.9399L536.97656 410.33832L537.78076 409.83728L538.5854 409.89993L539.3895 408.24628L540.1937 409.5252L540.99786 409.2373L541.80206 407.84473L542.6062 410.81305L543.4104 408.96783L544.21454 410.40042L545.01874 408.59628L545.8229 409.69098L546.63135 409.131L547.4355 409.3015L548.2397 410.90094L549.0438 409.86728L549.84796 409.56888L550.65216 410.35675L551.4563 410.26306L552.2605 407.9284L553.06464 409.61993L553.8693 409.70465L554.67346 410.2657L555.4776 409.77045L556.2818 410.4099L557.08594 408.9026L557.89014 410.57306L558.6943 408.1805L559.4985 410.3636L560.3026 409.30258L561.1068 409.3068L561.9152 410.0415L562.7194 410.01834L563.52356 409.4194L564.32776 410.78146L565.1319 410.3857L565.93604 408.77417L566.74023 410.35202L567.5444 410.25674L568.3486 410.01782L569.1532 409.9157L569.95734 409.7236L570.76154 409.84467L571.5657 408.8973L572.3699 409.68518L573.174 409.6636L573.9782 410.87778L574.78235 409.4236L575.58655 409.45572L576.3907 409.71783L577.1925 411.11725L577.99664 409.38416L578.8008 411.142L579.605 409.36942L580.4091 410.61462L581.2133 410.73096L582.01746 410.32516L582.82166 409.98993L583.6258 410.7115L584.43 410.94147L585.2384 410.7941L586.0426 410.87042L586.84674 410.57147L587.65094 411.04306L588.4551 409.56046L589.2592 408.8689L590.0634 409.56363L590.86755 411.15778L591.67175 411.04358L592.4764 412.15143L593.2805 411.32358L594.0847 410.63306L594.88885 409.91257L595.69305 411.21674L596.4972 411.17776L597.3014 410.31042L598.1055 410.56622L598.9097 409.86572L599.71387 410.66412L600.52234 409.95676L601.3265 411.16672L602.1307 411.49304L602.9348 409.9778L603.739 412.4493L604.54315 410.91464L605.3473 411.14093L606.1515 410.72568L606.9556 410.9341L607.7603 410.7899L608.56445 412.25723L609.3686 411.2662L610.1728 410.52673L610.9769 410.31674L611.7811 411.11725L612.58527 411.4004L613.38947 410.2678L614.1936 411.0425L614.9978 411.0162L615.8062 411.2962L616.6104 410.24677L617.41455 410.3962L618.21875 410.972L619.0229 410.8599L619.827 412.1367L620.6312 411.2462L621.43536 410.89883L622.23956 411.3562L623.0437 410.38043L623.8483 409.9978L624.6525 411.99774L625.45667 410.61884L626.26086 411.65988L627.065 411.24197L627.8692 410.88147L628.67334 411.34778L629.47754 410.58252L630.2817 411.70145L631.09015 411.54565L631.8943 412.76825L632.6985 411.70197L633.49884 409.37152L634.3001 410.78305L635.1043 412.7551L635.90845 411.2904L636.71265 411.2583L637.5168 411.73672L638.321 410.0678L639.1294 411.95093L639.9336 411.73672L640.73773 412.05142L641.54193 411.68988L642.34607 412.0867L643.1502 412.8472L643.9544 411.3562L644.75854 411.79935L645.56274 412.45773L646.3669 412.13406L647.1716 411.8204L647.9757 411.60303L648.77985 411.85672L649.58405 411.52094L650.3882 411.15936L651.1924 413.20773L651.9965 412.4867L652.8007 412.69406L653.60486 411.71198L654.4133 412.1688L655.21747 411.55408L656.02167 411.96722L656.8258 412.1567L657.63 411.74512L658.43414 412.30774L659.2383 412.383L660.0425 412.3946L660.8466 411.80356L661.6508 412.2646L662.45544 412.2072L663.2596 412.23932L664.0638 412.00406L664.8679 412.4488L665.6721 411.42987L666.47485 412.42932L667.279 413.87558L668.0832 413.193L668.88354 407.98157L669.69196 408.84628L670.49615 409.20627L671.3003 409.75992L672.1045 410.67096L672.9086 409.67203L673.7128 410.57413L674.51697 409.5873L675.32117 410.04886L676.1253 410.3157L676.9295 410.1194L677.73224 411.0941L678.5364 410.1636L679.3405 410.802L680.1447 410.7762L680.94885 411.05252L681.75305 409.57834L682.5572 410.24097L683.3614 410.41992L684.1655 410.87094L684.9697 410.68094L685.77814 410.08624L686.58234 411.06146L687.3865 412.12775L688.1907 410.38095L688.9948 410.75464L689.79895 411.02252L690.60315 411.38303L691.4073 410.3999L692.2115 410.45465L693.0161 410.3099L693.8203 410.63568L694.62445 411.0162L695.4286 411.87933L696.2328 411.06253L697.0369 410.4636L697.8411 410.9557L698.64386 405.48373L699.448 404.67798L700.2522 407.6179L701.0606 407.20844L701.8648 407.9484L702.66895 407.01263L703.47314 407.92944L704.2773 408.0521L705.0786 410.45886L705.88275 410.27466L706.68695 411.0183L707.4911 410.3999L708.2957 411.2041L709.0999 411.5062L709.90405 410.75833L710.70825 411.3862L711.5124 408.7305L712.3161 408.88416L713.12024 411.04147L713.92444 409.13785L714.7286 409.0368L715.5328 409.62784L716.3384 409.77466L717.1425 409.33624L717.94666 410.18466L718.75085 410.0136L719.555 410.31885L720.3592 409.9057L721.1624 410.99463L721.96655 410.41937L722.77075 410.6299L723.5749 410.72726L724.38 411.02936L725.18414 411.05463L725.9841 402.91382L726.7882 404.5806L727.5924 406.97842L728.39655 407.71524L729.20074 407.79578L730.0049 408.68732L730.809 408.00366L731.617 409.43677L732.4212 408.5847L733.22534 409.91992L734.02954 408.95416L734.8337 409.8499L735.6379 409.8478L736.442 409.77573L737.24615 410.20517L738.05035 410.0299L738.8545 411.11884L739.6596 409.6357L740.4638 410.48044L741.26794 410.78622L742.07214 410.4978L742.8763 411.8325L743.6805 411.5846L744.4846 411.88196L745.2888 411.6267L746.09296 411.192L746.8971 411.57513L747.7051 410.8841L748.5093 411.9588L749.3134 412.22565L750.1176 412.24985L750.92175 412.15143L751.7259 412.77246L752.5301 412.54984L753.3342 413.13562L754.1384 413.2751L754.94354 413.1093L755.7477 412.43195L756.5519 413.23404L757.356 412.60196L758.1602 412.8414L758.9577 412.47565L759.76184 413.64087L760.56604 413.60614L761.3702 414.8445L762.1744 414.06506L762.9795 412.76038L763.7836 414.82397L764.5878 413.82718L765.39197 413.19455L766.19617 414.25296L767.0003 415.35556L767.80444 414.544L768.60864 414.82083L769.4128 415.12555L770.22076 415.38922L771.0221 415.41977L771.8234 415.2766L772.62756 415.03134L773.4317 415.1187L774.2359 415.6708L775.04004 415.77185L775.84424 414.87134L776.6484 415.4529L777.4526 415.09607L778.26056 414.88977L779.0647 416.04712L779.86884 416.51868L780.67303 414.91083L781.4772 416.23975L782.2814 416.01923L783.0855 415.89975L783.8897 415.98184L784.69385 415.7945L785.49805 416.4892L786.2988 414.79398L787.103 417.18234L787.90717 417.16077L788.71136 417.16602L789.5155 416.29077L790.3197 416.72076L791.12384 416.56918L791.92804 417.836L792.7322 417.7102L793.5373 418.02338L794.3415 417.97705L795.1456 417.1939L795.94977 417.69125L796.75397 417.84915L797.5581 417.7818L798.3623 417.27023L799.16644 417.65863L799.97064 417.17603L800.7748 418.43494L801.58276 417.63916L802.3869 418.29758L803.1911 419.3007L803.99524 419.09912L804.79944 418.3039L805.5979 417.70074L806.40204 419.43805L807.20624 418.7507L808.0104 418.46494L808.8155 418.35913L809.6196 417.72653L810.4238 420.07224L811.22797 418.78333L812.03217 418.5244L812.8363 418.30283L813.6405 419.75595L814.44464 420.08908L815.24884 419.35754L816.053 418.40442L816.86096 419.56857L817.6651 418.12863L818.4693 419.05176L819.27344 419.61227L820.07764 418.62808L820.8818 419.587L821.686 419.74963L822.4901 420.51855L823.2943 420.4091L824.0956 420.26013L824.9007 420.38275L825.7049 419.98856L826.50903 419.397L827.31323 420.02963L828.1174 420.6854L828.9215 420.68854L829.7257 420.11594L830.52985 420.09015L831.33405 420.42856L832.142 420.47906L832.94617 420.58646L833.75037 420.39328L834.5545 420.96274L835.35864 421.4522L836.16284 421.658L836.967 421.49747L837.7712 421.68115L838.57245 421.05328L839.37665 421.6338L840.18463 421.92957L840.9888 421.55432L841.79297 421.13538L842.5971 419.6791L843.4013 419.7749L844.20544 422.34796L845.0096 421.70114L845.8138 421.2038L846.6179 421.09274L847.4221 421.9864L848.22723 422.12482L849.0314 421.98273L849.8356 422.3285L850.6397 420.6891L851.4439 422.2927L852.24805 421.67062L853.0489 421.76273L853.853 421.2401L854.6572 421.1459L855.4652 422.22165L856.26935 422.04007L857.07355 421.47958L857.8777 422.95425L858.6818 421.43274L859.486 423.2453L860.29016 421.95273L861.09436 422.92795L861.8956 421.41116L862.6998 422.56113L863.50494 422.4569L864.3091 422.92636L865.1133 421.97534L865.9174 422.07535L866.72064 422.83322L867.52484 423.2906L868.329 423.0127L869.1332 423.0069L869.9373 422.3643L870.7453 422.80795L871.54944 423.20847L872.35364 423.53214L873.1578 422.73428L873.962 423.63794L874.7661 422.79428L875.57025 422.59637L876.37445 423.37582L877.1786 423.67426L877.9828 423.95898L878.7879 423.7637L879.59204 423.28372L880.3929 421.97113L881.1971 422.61902L882.0012 424.0232L882.8054 423.73267L883.60956 423.4732L884.4137 424.64844L885.2179 424.55157L886.02203 423.66898L886.83 424.30106L887.6342 423.51584L888.43835 423.8637L889.24255 425.2663L890.0467 423.929L890.8508 424.51843L891.655 425.1842L892.45917 424.54684L893.26337 424.5958L894.0685 424.27213L894.8726 424.84738L895.6768 425.3142L896.48096 424.33527L897.28516 424.69263L898.0893 425.18L898.8935 423.8937L899.69763 424.42L900.5018 423.12164L901.3045 424.90738L902.1125 424.7574L902.9167 424.68686L903.7208 425.2163L904.525 424.34055L905.32916 424.53107L906.13336 425.2984L906.9375 425.9731L907.74164 424.24106L908.54584 425.88522L909.35095 425.81998L910.1551 425.24L910.9593 426.1884L911.7634 425.81628L912.5676 424.72842L913.37177 426.0968L914.17596 426.4973L914.9801 425.6084L915.7843 426.64838L916.58844 426.05997L917.3964 426.62943L918.20056 425.70157L919.00476 425.84576L919.8056 425.80682L920.60974 425.96628L921.4139 425.33682L922.2181 426.56415L923.0222 426.581L923.8264 426.70154L924.63055 425.40366L925.43805 426.15048L926.24225 424.86264L927.0464 425.7026L927.8506 426.1831L928.6547 426.2884L929.4589 426.8647L930.26306 427.43466L931.0672 426.60312L931.8714 426.34573L932.677 426.47836L933.48114 426.57364L934.28534 426.89624L935.0895 427.66043L935.8937 427.6657L936.6978 426.85416L937.50195 426.56363L938.30615 426.23312L939.1103 427.55148L939.9145 427.04047L940.7172 427.12518L941.52136 427.66992L942.32556 427.37045L943.1297 426.25363L943.9339 426.26996L944.73804 427.2515L945.54224 426.9752L946.3464 426.23416L947.1505 426.7952L947.9547 427.16888L948.7627 427.13467L949.56683 427.73572L950.37103 427.50992L951.1752 427.3457L951.9793 426.97467L952.7835 427.56412L953.58765 427.60098L954.39185 427.562L955.196 427.13098L956.0002 428.6141L956.8043 428.24673L957.6085 427.55518L958.41266 427.97095L959.21686 427.6615L960.021 428.34146L960.82513 427.9941L961.62933 428.0294L962.4335 428.50305L963.2377 428.0578L964.0433 428.03622L964.8474 428.06253L965.6516 427.76044L966.45575 429.0062L967.2599 428.3883L968.0641 429.2262L968.8682 428.88672L969.6724 429.0309L970.47656 428.14673L971.28406 428.57672L972.08826 428.8546L972.8924 429.39566L973.6966 428.93988L974.50073 428.9067L975.3049 428.51727L976.1091 428.17307L976.9132 429.10883L977.71405 428.55148L978.51825 428.43042L979.32623 428.66937L980.1304 429.32196L980.9345 430.00458L981.7387 429.6109L982.54285 428.17883L983.34705 429.51093L984.1512 428.72568L984.9554 428.63568L985.7595 429.0341L986.56036 428.62198L987.3655 429.70407L988.1697 430.14352L988.9738 429.28143L989.77795 428.42673L990.58215 429.8593L991.3863 429.16144L1007.4163 429.98407L1008.2205 431.16086L1009.02466 430.09668L1009.83264 430.1388L1010.6368 430.75613L1011.441 430.2314L1012.2451 430.18985L1013.0493 431.29456L1013.85345 430.18246L1014.65765 429.36932L1015.4618 430.253L1016.2659 430.18143L1017.06586 433.21817L1017.871 435.56863L1018.6718 435.1039L1019.47595 436.04755L1020.28015 434.8555L1021.0843 434.46234L1021.8884 435.1255L1022.6926 435.52548L1023.49585 434.42233L1024.3 435.16074" fill-rule="nonzero"/>
<path stroke="#db4437" stroke-width="2.0" stroke-linecap="butt" clip-path="url(#id_0)" d="M59.7 -1076.556L60.708775 -142.69244L62.31711 181.49889L63.925438 189.94336L65.52996 198.27364L67.13829 205.14186L68.74663 206.38655L70.35496 210.88063L71.96329 209.96698L73.57162 211.75166L75.18471 214.67052L76.79304 215.0084L78.401375 216.39204L80.009705 215.69522L81.618034 217.66832L83.226364 220.02194L84.834694 220.78928L86.44303 222.57712L88.05136 223.25763L89.65969 222.39186L91.27278 224.18286L92.88111 224.05708L94.48944 223.67393L96.09777 224.34338L97.70611 224.43654L99.31444 225.86124L100.92277 224.4539L102.5311 224.48285L104.13943 226.257L105.75252 226.78331L107.35514 225.98386L108.96347 225.99123L110.5718 226.05228L112.18014 227.02751L113.78847 226.95015L115.3968 225.62071L117.00513 227.07857L118.61346 225.57124L120.221794 226.1907L121.83488 226.97226L123.443214 226.7933L125.051544 226.71753L126.659874 225.42598L128.2682 226.7391L129.87654 226.98804L131.48486 227.39961L133.0932 226.23227L134.70152 227.12909L136.30986 225.81282L137.92296 226.96068L139.53128 227.01067L141.13962 226.0407L142.74794 226.2149L144.35628 225.75177L145.96461 225.88438L147.57294 226.61174L149.18127 226.34491L150.7896 225.78229L152.4027 226.09596L154.00816 228.94536L155.6165 243.82437L157.22482 247.89742L158.83316 254.12775L160.4415 257.19766L162.04982 261.07806L163.65816 262.2649L165.26648 267.1221L166.87482 268.90573L168.4879 269.65045L170.09624 272.38773L171.70457 273.42874L173.3129 274.7003L174.92123 276.37497L176.52956 275.55606L178.1379 280.34906L179.74623 280.65958L181.35455 282.55902L182.96765 284.2979L184.57597 284.51895L186.18431 287.40518L187.79263 290.20352L189.40097 291.57874L191.00931 293.9555L192.61763 295.646L194.22597 297.7575L195.83429 298.99274L197.44072 301.64053L199.05382 304.03363L200.66214 305.74725L202.27048 307.15036L203.87881 308.40823L205.48714 309.23874L207.09547 310.10135L208.7038 311.93286L210.31213 314.5512L211.92047 315.22223L213.5288 318.11847L215.14189 318.41687L216.75021 318.54163L218.35855 319.4158L219.96687 321.01785L221.57521 321.73206L223.18355 323.78778L224.79187 324.28406L226.4002 325.60193L228.00853 326.54504L229.61877 327.54556L231.2271 327.83133L232.83543 328.935L234.44376 330.10388L236.0521 329.6555L237.66043 331.737L239.26875 330.3618L240.87709 332.1128L242.48541 333.688L244.09375 334.3085L245.70683 335.27954L247.31517 335.15955L248.92351 335.6332L250.53183 337.06528L252.14017 337.21106L253.74849 336.98895L255.35683 339.23047L256.96515 338.73468L258.5735 339.72308L260.18658 340.6157L261.79492 340.82147L263.40323 340.6078L265.01157 341.2341L266.6199 342.18353L268.22348 342.21143L269.83182 342.41772L271.44016 343.6498L273.04846 342.8993L274.6568 344.23926L276.2699 343.7898L277.87823 344.9203L279.48654 344.11978L281.09488 345.79395L282.70322 346.41446L284.31155 345.39185L285.9199 346.1908L287.5282 346.51498L289.13654 346.44498L290.74487 347.48547L292.35797 347.76074L293.9663 348.02652L295.57462 348.51755L297.18295 348.05704L298.7913 349.35648L300.39963 349.19174L302.00797 350.55853L303.61627 349.7875L305.2246 349.3986L306.8377 350.35696L308.44604 349.77487L310.05435 350.8338L311.6627 349.6591L313.27103 351.6906L314.87936 351.39062L316.4877 350.90485L318.096 353.14636L319.70435 351.92062L321.31268 351.43326L322.92578 352.62057L324.53412 353.4616L326.14243 353.0106L327.75076 353.30426L329.3591 353.21005L330.96744 353.25583L332.57578 352.75848L334.18408 354.7458L335.79242 354.06107L337.40076 353.41846L339.01385 353.5595L340.62216 354.99368L342.2305 354.71368L343.83884 354.9242L345.4448 356.26678L347.05313 355.43365L348.66144 355.53525L350.26978 355.18472L351.8781 355.12262L352.78696 357.22256L353.59113 357.14572L354.3953 357.61835L355.19946 356.14206L356.00363 358.58987L356.8078 358.95883L357.61197 357.65045L358.41614 357.82623L359.22028 357.32413L360.02444 358.79303L360.8291 358.5104L361.63327 359.35617L362.43744 357.7115L363.2416 358.15305L364.04575 357.77255L364.8466 348.36755L365.65076 352.28375L366.45493 350.7101L367.2591 352.56165L368.06754 354.6837L368.87027 353.89L369.67444 356.40363L370.4786 355.6268L371.28278 355.0579L372.08694 356.0289L372.8911 355.52472L373.69528 355.40262L374.49945 357.57202L375.3036 357.3852L376.10825 356.73572L376.9124 357.95938L377.7137 357.4836L378.51788 357.91043L379.32205 357.09467L380.12622 358.4878L380.9304 358.2178L381.73456 359.1546L382.53873 360.17877L383.34286 362.42188L384.15134 358.77042L384.9555 359.26935L385.75967 359.4009L386.5638 361.15244L387.3637 360.37878L388.16788 360.84192L388.97205 362.6866L389.7762 362.99713L390.58038 360.9177L391.38882 363.1708L392.193 362.82397L392.99716 361.71664L393.80133 363.75604L394.60547 361.28137L395.40964 362.86713L396.2138 364.8939L397.01797 363.7376L397.82214 364.7876L398.6263 364.4055L399.43094 364.21497L400.2351 362.71765L401.03928 364.47867L401.84344 365.366L402.6476 364.30655L403.45178 364.42392L404.25595 364.57706L405.06012 366.31754L405.8643 365.13336L406.67273 366.0865L407.4769 365.32126L408.28107 365.56653L409.08524 365.23022L409.88937 362.4966L410.69354 365.8623L411.4977 366.27808L412.30188 367.24173L413.10605 367.12646L413.91022 367.55066L414.71484 366.61963L415.519 366.28598L416.32318 367.02173L417.12735 366.7328L417.93152 368.44434L418.7357 368.08853L419.53986 369.16534L420.34402 367.16174L421.1482 367.5254L421.95093 366.4086L422.75937 368.07382L423.56354 368.16592L424.3677 367.778L425.17188 369.91745L425.97604 368.96747L426.78018 369.0759L427.58435 369.68164L428.38852 368.678L429.1927 369.52692L429.99734 369.09747L430.8015 369.7948L431.60565 367.52173L432.40982 370.42163L433.214 369.54272L434.01816 368.90695L434.82233 370.08795L435.6265 370.5148L436.43066 371.00266L437.23483 370.45795L438.04327 369.85587L438.84744 371.74844L439.6516 372.17578L440.45578 371.83316L441.25995 371.429L442.0641 371.62317L442.86826 371.21582L443.67242 371.54422L444.4766 371.29636L445.28076 371.88528L446.08542 371.87738L446.88956 371.17056L447.69373 372.01736L448.4979 370.9453L449.30206 371.80948L450.10623 371.3816L450.9104 372.5542L451.71457 372.35947L452.51874 373.0647L453.32718 372.43893L454.13135 373.2642L454.93552 372.62787L455.7397 372.1779L456.54385 373.92047L457.348 372.76947L458.15216 375.34253L458.95633 373.80048L459.7605 373.1368L460.56467 375.00623L461.36932 374.6015L462.17346 373.8105L462.97763 373.6926L463.7818 374.01678L464.58597 373.74942L465.39014 374.4552L466.19382 374.0731L466.998 374.1168L467.80215 374.49045L468.6106 375.73883L469.41476 373.83997L470.21893 375.02835L471.0231 374.9715L471.82727 375.42886L472.63144 375.3036L473.4356 376.38672L474.23978 376.48407L475.04395 375.10254L475.84808 375.46832L476.65274 375.51727L477.4569 375.74884L478.26108 374.63467L479.06192 375.44833L479.86606 375.04306L480.67023 376.15936L481.4744 376.15305L482.27856 373.76944L483.08273 375.7741L483.8869 376.1462L484.69534 376.7546L485.4995 375.45676L486.30368 376.863L487.10785 376.15305L487.91202 376.7567L488.7162 375.6378L489.52036 375.85147L490.3245 377.45615L491.12866 377.543L491.93332 376.7404L492.7375 375.92883L493.54166 378.23877L494.34583 375.4373L495.14996 377.04565L495.95413 377.70404L496.7583 377.33194L497.56247 376.05884L498.36664 378.91928L499.1708 377.39984L499.97925 377.89667L500.78342 377.603L501.5876 376.40988L502.39175 376.85248L503.19592 377.18774L504.0001 377.47354L504.80426 378.0714L505.6084 377.37827L506.41257 378.2335L507.21722 377.61984L508.0214 378.42087L508.82556 379.94818L509.62973 378.4619L510.43387 378.68192L511.23804 378.07404L512.04224 377.79193L512.8464 378.6435L513.6506 378.72876L514.4509 381.33078L515.25934 379.94397L516.06354 379.88873L516.8677 380.31503L517.6719 380.5008L518.476 379.74557L519.28015 378.3556L520.08435 379.87766L520.8885 380.21396L521.6927 380.20502L522.4968 379.2961L523.3015 380.21555L524.10565 380.21976L524.9098 380.26028L525.714 379.12347L526.5181 380.13397L527.3223 379.60242L528.12646 381.52972L528.93066 379.47137L529.7348 379.8203L530.5433 379.12875L531.3474 379.57663L532.1516 381.58234L532.95575 380.04977L533.75995 380.77344L534.5641 380.86395L535.3682 380.3829L536.1724 379.61978L536.97656 380.41345L537.78076 380.6345L538.5854 380.89288L539.3895 381.005L540.1937 380.25714L540.99786 381.08078L541.80206 383.23547L542.6062 380.2287L543.4104 381.05237L544.21454 379.204L545.01874 380.31555L545.8229 379.4324L546.63135 380.19766L547.4355 381.6776L548.2397 381.47446L549.0438 382.69757L549.84796 381.84024L550.65216 382.03918L551.4563 379.08295L552.2605 380.0282L553.06464 382.05182L553.8693 382.60336L554.67346 381.10867L555.4776 381.5771L556.2818 380.64764L557.08594 380.9171L557.89014 379.53137L558.6943 380.67816L559.4985 381.96918L560.3026 381.97128L561.1068 381.31763L561.9152 381.74445L562.7194 380.3866L563.52356 381.6034L564.32776 380.89975L565.1319 380.73343L565.93604 381.5455L566.74023 379.3461L567.5444 381.16867L568.3486 381.10657L569.1532 380.7629L569.95734 380.70764L570.76154 381.20605L571.5657 382.5118L572.3699 382.28076L573.174 380.9071L573.9782 381.79077L574.78235 382.05917L575.58655 382.44916L576.3907 381.9792L577.1925 380.83606L577.99664 380.88394L578.8008 381.43552L579.605 381.6734L580.4091 381.75656L581.2133 382.09076L582.01746 380.995L582.82166 382.79916L583.6258 382.5223L584.43 382.38812L585.2384 382.02444L586.0426 381.67654L586.84674 381.30026L587.65094 381.2892L588.4551 382.1418L589.2592 382.12497L590.0634 381.9139L590.86755 382.4681L591.67175 381.73972L592.4764 382.5902L593.2805 382.23602L594.0847 383.0902L594.88885 383.1102L595.69305 382.5997L596.4972 382.60654L597.3014 381.9792L598.1055 382.41074L598.9097 383.01547L599.71387 381.98022L600.52234 381.6955L601.3265 380.88815L602.1307 382.02548L602.9348 381.64078L603.739 381.65286L604.54315 382.5844L605.3473 382.62283L606.1515 381.28445L606.9556 384.5133L607.7603 382.85126L608.56445 383.0823L609.3686 384.37543L610.1728 383.97595L610.9769 382.64337L611.7811 381.55603L612.58527 383.28546L613.38947 383.8407L614.1936 383.01495L614.9978 382.77338L615.8062 381.87445L616.6104 382.74127L617.41455 383.2744L618.21875 383.44913L619.0229 380.31238L619.827 383.60492L620.6312 383.15073L621.43536 383.20547L622.23956 382.88547L623.0437 382.47916L623.8483 382.94232L624.6525 383.03336L625.45667 382.766L626.26086 383.36914L627.065 383.46072L627.8692 383.3144L628.67334 383.55966L629.47754 382.66495L630.2817 382.91495L631.09015 383.03177L631.8943 382.95496L632.6985 383.71808L633.49884 382.726L634.3001 382.94916L635.1043 384.20807L635.90845 382.02866L636.71265 384.34805L637.5168 383.0223L638.321 383.35492L639.1294 383.3865L639.9336 383.19916L640.73773 382.05075L641.54193 384.30438L642.34607 382.88916L643.1502 382.446L643.9544 383.19125L644.75854 383.85492L645.56274 384.62067L646.3669 382.91864L647.1716 383.6423L647.9757 383.55704L648.77985 384.12805L649.58405 384.11176L650.3882 383.80386L651.1924 384.35333L651.9965 383.57965L652.8007 382.90756L653.60486 383.1102L654.4133 383.106L655.21747 382.5202L656.02167 383.8165L656.8258 383.82123L657.63 383.64545L658.43414 383.98334L659.2383 385.6717L660.0425 383.9349L660.8466 383.56912L661.6508 384.24542L662.45544 382.5818L663.2596 384.67804L664.0638 384.08176L664.8679 384.05438L665.6721 383.4802L666.47485 382.72495L667.279 385.63327L668.0832 385.73486L668.88354 380.84448L669.69196 381.24026L670.49615 381.95917L671.3003 383.0202L672.1045 381.5092L672.9086 381.4034L673.7128 383.47018L674.51697 382.6839L675.32117 383.47546L676.1253 381.57657L676.9295 383.03705L677.73224 382.9939L678.5364 382.1092L679.3405 383.106L680.1447 381.63446L680.94885 381.1734L681.75305 382.716L682.5572 382.05182L683.3614 382.86548L684.1655 382.3439L684.9697 384.2386L685.77814 383.6165L686.58234 383.7128L687.3865 382.25864L688.1907 382.2234L688.9948 383.6002L689.79895 383.59018L690.60315 382.886L691.4073 383.34073L692.2115 384.28436L693.0161 383.09494L693.8203 384.72858L694.62445 384.0407L695.4286 383.52704L696.2328 383.51913L697.0369 383.03336L697.8411 381.99023L698.64386 379.43137L699.448 377.63824L700.2522 380.52554L701.0606 378.25244L701.8648 380.3045L702.66895 379.934L703.47314 380.3324L704.2773 379.7703L705.0786 383.17966L705.88275 383.7023L706.68695 383.67545L707.4911 383.61072L708.2957 383.69702L709.0999 384.21384L709.90405 383.70755L710.70825 383.69913L711.5124 384.63858L712.3161 382.4018L713.12024 382.17233L713.92444 381.89917L714.7286 383.72388L715.5328 383.3286L716.3384 383.6249L717.1425 383.64282L717.94666 383.1065L718.75085 382.53653L719.555 384.2328L720.3592 383.77228L721.1624 384.27228L721.96655 384.63226L722.77075 385.75854L723.5749 385.08435L724.38 384.98856L725.18414 385.52643L725.9841 376.55515L726.7882 378.65927L727.5924 381.75815L728.39655 380.64658L729.20074 381.41867L730.0049 381.9834L730.809 384.0249L731.617 383.79492L732.4212 382.1876L733.22534 382.81335L734.02954 384.01913L734.8337 383.82806L735.6379 384.6812L736.442 384.90173L737.24615 384.09174L738.05035 385.4717L738.8545 385.0396L739.6596 383.9723L740.4638 385.5559L741.26794 383.97018L742.07214 384.58856L742.8763 387.12692L743.6805 385.49854L744.4846 386.0817L745.2888 387.5711L746.09296 387.6743L746.8971 386.39746L747.7051 386.73587L748.5093 386.08063L749.3134 387.71796L750.1176 387.3027L750.92175 386.15115L751.7259 387.6743L752.5301 387.42953L753.3342 387.34692L754.1384 387.56216L754.94354 388.01004L755.7477 385.94327L756.5519 388.12952L757.356 388.35846L758.1602 387.94583L758.9577 387.42587L759.76184 388.63528L760.56604 388.2269L761.3702 388.66214L762.1744 389.07632L762.9795 388.67792L763.7836 388.46426L764.5878 388.0132L765.39197 388.51584L766.19617 389.95105L767.0003 387.91162L767.80444 389.52213L768.60864 388.97476L769.4128 388.18478L770.22076 389.44107L771.0221 389.42633L771.8234 390.34314L772.62756 389.1074L773.4317 389.5995L774.2359 390.8468L775.04004 390.7626L775.84424 390.25366L776.6484 390.72522L777.4526 389.91843L778.26056 389.86053L779.0647 390.91364L779.86884 391.91467L780.67303 390.7726L781.4772 389.82526L782.2814 391.6652L783.0855 389.88736L783.8897 391.20944L784.69385 390.52945L785.49805 390.26157L786.2988 390.5242L787.103 391.73468L787.90717 391.93835L788.71136 391.2826L789.5155 392.01202L790.3197 392.02625L791.12384 390.34735L791.92804 392.29675L792.7322 392.7194L793.5373 392.17572L794.3415 392.56888L795.1456 391.43628L795.94977 392.4636L796.75397 391.5252L797.5581 392.26254L798.3623 391.7152L799.16644 392.1273L799.97064 393.97357L800.7748 391.7531L801.58276 393.44885L802.3869 393.86725L803.1911 392.7794L803.99524 393.0241L804.79944 393.42252L805.5979 392.42413L806.40204 393.1783L807.20624 392.25626L808.0104 393.43674L808.8155 393.29306L809.6196 392.38464L810.4238 392.98676L811.22797 394.28302L812.03217 394.27356L812.8363 393.50095L813.6405 393.52832L814.44464 393.89252L815.24884 395.02142L816.053 394.60144L816.86096 393.9704L817.6651 393.94302L818.4693 394.48145L819.27344 393.542L820.07764 393.46777L820.8818 395.20193L821.686 393.9783L822.4901 393.99725L823.2943 394.32935L824.0956 394.92194L824.9007 394.76196L825.7049 395.01932L826.50903 395.09088L827.31323 395.01038L828.1174 394.8046L828.9215 394.04935L829.7257 394.8888L830.52985 394.90564L831.33405 395.23404L832.142 395.8098L832.94617 394.5825L833.75037 393.2699L834.5545 394.5067L835.35864 394.61722L836.16284 395.93192L836.967 395.59457L837.7712 396.01245L838.57245 395.71088L839.37665 395.98822L840.18463 396.0272L840.9888 396.3077L841.79297 396.1214L842.5971 395.97876L843.4013 394.62827L844.20544 395.64297L845.0096 396.88452L845.8138 396.12982L846.6179 395.1667L847.4221 396.27982L848.22723 395.60352L849.0314 397.04874L849.8356 396.2919L850.6397 396.88083L851.4439 396.27716L852.24805 397.47714L853.0489 395.96823L853.853 396.77716L854.6572 397.37714L855.4652 396.55978L856.26935 396.90927L857.07355 397.8624L857.8777 397.58554L858.6818 397.00293L859.486 397.38345L860.29016 397.06348L861.09436 395.92612L861.8956 397.7087L862.6998 396.02454L863.50494 396.6035L864.3091 397.49344L865.1133 397.01242L865.9174 397.61502L866.72064 398.16608L867.52484 397.4966L868.329 397.524L869.1332 397.1861L869.9373 397.81818L870.7453 398.65973L871.54944 396.64453L872.35364 398.86237L873.1578 398.19763L873.962 398.91763L874.7661 398.07343L875.57025 397.93292L876.37445 398.1324L877.1786 397.6687L877.9828 398.44342L878.7879 398.2303L879.59204 398.23975L880.3929 397.66083L881.1971 398.08292L882.0012 397.88977L882.8054 398.88974L883.60956 397.53134L884.4137 398.8034L885.2179 398.555L886.02203 398.2792L886.83 398.86606L887.6342 398.9192L888.43835 398.99026L889.24255 398.77026L890.0467 398.76025L890.8508 398.95026L891.655 399.22867L892.45917 399.72232L893.26337 399.2234L894.0685 398.76764L894.8726 399.2618L895.6768 399.45972L896.48096 399.46707L897.28516 399.47446L898.0893 399.72128L898.8935 399.73495L899.69763 399.86813L900.5018 399.48233L901.3045 398.28027L902.1125 399.55603L902.9167 400.33914L903.7208 399.82916L904.525 399.6997L905.32916 399.61917L906.13336 401.03546L906.9375 399.6755L907.74164 399.55865L908.54584 401.05493L909.35095 399.90128L910.1551 399.95602L910.9593 399.6639L911.7634 400.07864L912.5676 399.99652L913.37177 401.28018L914.17596 400.9665L914.9801 401.5565L915.7843 400.22546L916.58844 401.47543L917.3964 400.72284L918.20056 400.07074L919.00476 400.6123L919.8056 399.95654L920.60974 401.54596L921.4139 400.83652L922.2181 401.19754L923.0222 400.81705L923.8264 400.736L924.63055 400.56546L925.43805 400.24863L926.24225 400.41232L927.0464 401.3086L927.8506 401.41492L928.6547 401.10544L929.4589 401.51175L930.26306 400.9749L931.0672 401.0044L931.8714 401.84753L932.677 401.37964L933.48114 399.77234L934.28534 402.1649L935.0895 401.5086L935.8937 400.99915L936.6978 401.40332L937.50195 401.29703L938.30615 402.74225L939.1103 401.88596L939.9145 402.20383L940.7172 401.1028L941.52136 400.6065L942.32556 401.45596L943.1297 401.66016L943.9339 401.34598L944.73804 400.78177L945.54224 402.35962L946.3464 401.08386L947.1505 402.49066L947.9547 402.51382L948.7627 403.00223L949.56683 402.5996L950.37103 401.8728L951.1752 401.6528L951.9793 401.50174L952.7835 403.6122L953.58765 402.5954L954.39185 401.8407L955.196 402.74594L956.0002 402.99225L956.8043 401.98175L957.6085 403.39117L958.41266 402.63962L959.21686 401.47543L960.021 402.72278L960.82513 402.2896L961.62933 403.34695L962.4335 402.61963L963.2377 403.0517L964.0433 403.29327L964.8474 403.178L965.6516 402.5354L966.45575 402.01437L967.2599 402.77594L968.0641 403.71484L968.8682 403.2396L969.6724 404.06747L970.47656 404.08905L971.28406 403.16434L972.08826 403.46802L972.8924 403.44485L973.6966 403.31644L974.50073 402.6733L975.3049 403.88748L976.1091 404.54694L976.9132 403.92957L977.71405 403.28644L978.51825 403.5817L979.32623 403.94852L980.1304 404.71902L980.9345 404.27115L981.7387 403.578L982.54285 403.2154L983.34705 404.6485L984.1512 403.91904L984.9554 404.36377L985.7595 405.319L986.56036 403.1296L987.3655 403.79272L988.1697 405.13586L988.9738 404.05484L989.77795 404.2885L990.58215 405.05692L991.3863 404.3664L1007.4163 404.29324L1008.2205 405.04007L1009.02466 404.52957L1009.83264 404.43008L1010.6368 405.58374L1011.441 405.679L1012.2451 405.20743L1013.0493 405.3569L1013.85345 405.6969L1014.65765 404.80167L1015.4618 405.24637L1016.2659 405.379L1017.06586 409.65784L1017.871 410.16833L1018.6718 410.32834L1019.47595 411.0841L1020.28015 409.7215L1021.0843 410.6878L1021.8884 410.72147L1022.6926 410.75674L1023.49585 410.56992L1024.3 410.8041" fill-rule="nonzero"/>
<path fill="#757575" d="M52.7625 601.15936Q52.7625 603.0656 52.10625 604.0031Q51.465626 604.925 50.075 604.925Q48.715626 604.925 48.059376 604.01874Q47.403126 603.1125 47.371876 601.3L47.371876 599.8625Q47.371876 597.97186 48.0125 597.0656Q48.66875 596.14374 50.059376 596.14374Q51.434376 596.14374 52.090626 597.03436Q52.746876 597.90936 52.7625 599.7531L52.7625 601.15936ZM51.66875 599.675Q51.66875 598.3 51.278126 597.675Q50.903126 597.03436 50.059376 597.03436Q49.23125 597.03436 48.840626 597.675Q48.465626 598.3 48.465626 599.59686L48.465626 601.33124Q48.465626 602.70624 48.85625 603.3781Q49.2625 604.03436 50.075 604.03436Q50.871876 604.03436 51.2625 603.40936Q51.653126 602.78436 51.66875 601.45624L51.66875 599.675Z" fill-rule="nonzero"/>
<path fill="#757575" d="M45.996876 473.225L40.403126 473.225L40.403126 472.44376L43.35625 469.1625Q44.0125 468.4125 44.2625 467.95938Q44.5125 467.49063 44.5125 466.99063Q44.5125 466.31876 44.10625 465.89688Q43.715626 465.45938 43.028126 465.45938Q42.23125 465.45938 41.778126 465.92813Q41.325 466.38126 41.325 467.20938L40.246876 467.20938Q40.246876 466.02188 40.996876 465.30313Q41.7625 464.56876 43.028126 464.56876Q44.23125 464.56876 44.91875 465.19376Q45.60625 465.81876 45.60625 466.86563Q45.60625 468.11563 43.996876 469.86563L41.715626 472.33438L45.996876 472.33438L45.996876 473.225ZM47.903126 468.94376L48.340626 464.69376L52.715626 464.69376L52.715626 465.69376L49.2625 465.69376L48.996876 468.02188Q49.6375 467.64688 50.434376 467.64688Q51.590626 467.64688 52.278126 468.42813Q52.965626 469.19376 52.965626 470.50626Q52.965626 471.81876 52.246876 472.58438Q51.54375 473.35 50.2625 473.35Q49.1375 473.35 48.41875 472.725Q47.7 472.08438 47.60625 470.975L48.621876 470.975Q48.73125 471.70938 49.153126 472.08438Q49.575 472.45938 50.2625 472.45938Q51.0125 472.45938 51.45 471.94376Q51.8875 471.42813 51.8875 470.52188Q51.8875 469.6625 51.41875 469.14688Q50.95 468.63126 50.16875 468.63126Q49.465626 468.63126 49.059376 468.92813L48.778126 469.1625L47.903126 468.94376Z" fill-rule="nonzero"/>
<path fill="#757575" d="M40.903126 337.36874L41.340626 333.11874L45.715626 333.11874L45.715626 334.11874L42.2625 334.11874L41.996876 336.44687Q42.6375 336.07187 43.434376 336.07187Q44.590626 336.07187 45.278126 336.85312Q45.965626 337.61874 45.965626 338.93124Q45.965626 340.24374 45.246876 341.00937Q44.54375 341.775 43.2625 341.775Q42.1375 341.775 41.41875 341.15Q40.7 340.50937 40.60625 339.4L41.621876 339.4Q41.73125 340.13437 42.153126 340.50937Q42.575 340.88437 43.2625 340.88437Q44.0125 340.88437 44.45 340.36874Q44.8875 339.85312 44.8875 338.94687Q44.8875 338.0875 44.41875 337.57187Q43.95 337.05624 43.16875 337.05624Q42.465626 337.05624 42.059376 337.35312L41.778126 337.5875L40.903126 337.36874ZM52.7625 338.00937Q52.7625 339.91562 52.10625 340.85312Q51.465626 341.775 50.075 341.775Q48.715626 341.775 48.059376 340.86874Q47.403126 339.9625 47.371876 338.15L47.371876 336.7125Q47.371876 334.82187 48.0125 333.91562Q48.66875 332.99374 50.059376 332.99374Q51.434376 332.99374 52.090626 333.88437Q52.746876 334.75937 52.7625 336.60312L52.7625 338.00937ZM51.66875 336.525Q51.66875 335.15 51.278126 334.525Q50.903126 333.88437 50.059376 333.88437Q49.23125 333.88437 48.840626 334.525Q48.465626 335.15 48.465626 336.44687L48.465626 338.18124Q48.465626 339.55624 48.85625 340.22812Q49.2625 340.88437 50.075 340.88437Q50.871876 340.88437 51.2625 340.25937Q51.653126 339.63437 51.66875 338.30624L51.66875 336.525Z" fill-rule="nonzero"/>
<path fill="#757575" d="M45.91875 202.15312L42.3875 210.075L41.246876 210.075L44.7625 202.43437L40.153126 202.43437L40.153126 201.54375L45.91875 201.54375L45.91875 202.15312ZM47.903126 205.79375L48.340626 201.54375L52.715626 201.54375L52.715626 202.54375L49.2625 202.54375L48.996876 204.87187Q49.6375 204.49687 50.434376 204.49687Q51.590626 204.49687 52.278126 205.27812Q52.965626 206.04375 52.965626 207.35625Q52.965626 208.66875 52.246876 209.43437Q51.54375 210.2 50.2625 210.2Q49.1375 210.2 48.41875 209.575Q47.7 208.93437 47.60625 207.825L48.621876 207.825Q48.73125 208.55937 49.153126 208.93437Q49.575 209.30937 50.2625 209.30937Q51.0125 209.30937 51.45 208.79375Q51.8875 208.27812 51.8875 207.37187Q51.8875 206.5125 51.41875 205.99687Q50.95 205.48125 50.16875 205.48125Q49.465626 205.48125 49.059376 205.77812L48.778126 206.0125L47.903126 205.79375Z" fill-rule="nonzero"/>
<path fill="#757575" d="M36.965626 78.5L35.8875 78.5L35.8875 71.28125L33.7 72.078125L33.7 71.09375L36.809376 69.921875L36.965626 69.921875L36.965626 78.5ZM45.7625 74.859375Q45.7625 76.765625 45.10625 77.703125Q44.465626 78.625 43.075 78.625Q41.715626 78.625 41.059376 77.71875Q40.403126 76.8125 40.371876 75.0L40.371876 73.5625Q40.371876 71.671875 41.0125 70.765625Q41.66875 69.84375 43.059376 69.84375Q44.434376 69.84375 45.090626 70.734375Q45.746876 71.609375 45.7625 73.453125L45.7625 74.859375ZM44.66875 73.375Q44.66875 72.0 44.278126 71.375Q43.903126 70.734375 43.059376 70.734375Q42.23125 70.734375 41.840626 71.375Q41.465626 72.0 41.465626 73.296875L41.465626 75.03125Q41.465626 76.40625 41.85625 77.078125Q42.2625 77.734375 43.075 77.734375Q43.871876 77.734375 44.2625 77.109375Q44.653126 76.484375 44.66875 75.15625L44.66875 73.375ZM52.7625 74.859375Q52.7625 76.765625 52.10625 77.703125Q51.465626 78.625 50.075 78.625Q48.715626 78.625 48.059376 77.71875Q47.403126 76.8125 47.371876 75.0L47.371876 73.5625Q47.371876 71.671875 48.0125 70.765625Q48.66875 69.84375 50.059376 69.84375Q51.434376 69.84375 52.090626 70.734375Q52.746876 71.609375 52.7625 73.453125L52.7625 74.859375ZM51.66875 73.375Q51.66875 72.0 51.278126 71.375Q50.903126 70.734375 50.059376 70.734375Q49.23125 70.734375 48.840626 71.375Q48.465626 72.0 48.465626 73.296875L48.465626 75.03125Q48.465626 76.40625 48.85625 77.078125Q49.2625 77.734375 50.075 77.734375Q50.871876 77.734375 51.2625 77.109375Q51.653126 76.484375 51.66875 75.15625L51.66875 73.375Z" fill-rule="nonzero"/>
<path fill="#757575" d="M277.8091 614.01874L278.2466 609.76874L282.6216 609.76874L282.6216 610.76874L279.1685 610.76874L278.90286 613.09686Q279.5435 612.72186 280.34036 612.72186Q281.4966 612.72186 282.1841 613.5031Q282.8716 614.26874 282.8716 615.58124Q282.8716 616.89374 282.15286 617.65936Q281.44974 618.425 280.1685 618.425Q279.0435 618.425 278.32474 617.8Q277.606 617.15936 277.51224 616.05L278.52786 616.05Q278.63724 616.78436 279.0591 617.15936Q279.481 617.53436 280.1685 617.53436Q280.9185 617.53436 281.356 617.01874Q281.7935 616.5031 281.7935 615.59686Q281.7935 614.7375 281.32474 614.22186Q280.856 613.70624 280.07474 613.70624Q279.3716 613.70624 278.96536 614.0031L278.6841 614.2375L277.8091 614.01874ZM289.6685 614.65936Q289.6685 616.5656 289.01224 617.5031Q288.3716 618.425 286.981 618.425Q285.6216 618.425 284.96536 617.51874Q284.3091 616.6125 284.27786 614.8L284.27786 613.3625Q284.27786 611.47186 284.9185 610.5656Q285.57474 609.64374 286.96536 609.64374Q288.34036 609.64374 288.9966 610.53436Q289.65286 611.40936 289.6685 613.2531L289.6685 614.65936ZM288.57474 613.175Q288.57474 611.8 288.1841 611.175Q287.8091 610.53436 286.96536 610.53436Q286.13724 610.53436 285.7466 611.175Q285.3716 611.8 285.3716 613.09686L285.3716 614.83124Q285.3716 616.20624 285.76224 616.8781Q286.1685 617.53436 286.981 617.53436Q287.77786 617.53436 288.1685 616.90936Q288.5591 616.28436 288.57474 614.95624L288.57474 613.175ZM296.6685 614.65936Q296.6685 616.5656 296.01224 617.5031Q295.3716 618.425 293.981 618.425Q292.6216 618.425 291.96536 617.51874Q291.3091 616.6125 291.27786 614.8L291.27786 613.3625Q291.27786 611.47186 291.9185 610.5656Q292.57474 609.64374 293.96536 609.64374Q295.34036 609.64374 295.9966 610.53436Q296.65286 611.40936 296.6685 613.2531L296.6685 614.65936ZM295.57474 613.175Q295.57474 611.8 295.1841 611.175Q294.8091 610.53436 293.96536 610.53436Q293.13724 610.53436 292.7466 611.175Q292.3716 611.8 292.3716 613.09686L292.3716 614.83124Q292.3716 616.20624 292.76224 616.8781Q293.1685 617.53436 293.981 617.53436Q294.77786 617.53436 295.1685 616.90936Q295.5591 616.28436 295.57474 614.95624L295.57474 613.175ZM303.6685 614.65936Q303.6685 616.5656 303.01224 617.5031Q302.3716 618.425 300.981 618.425Q299.6216 618.425 298.96536 617.51874Q298.3091 616.6125 298.27786 614.8L298.27786 613.3625Q298.27786 611.47186 298.9185 610.5656Q299.57474 609.64374 300.96536 609.64374Q302.34036 609.64374 302.9966 610.53436Q303.65286 611.40936 303.6685 613.2531L303.6685 614.65936ZM302.57474 613.175Q302.57474 611.8 302.1841 611.175Q301.8091 610.53436 300.96536 610.53436Q300.13724 610.53436 299.7466 611.175Q299.3716 611.8 299.3716 613.09686L299.3716 614.83124Q299.3716 616.20624 299.76224 616.8781Q300.1685 617.53436 300.981 617.53436Q301.77786 617.53436 302.1685 616.90936Q302.5591 616.28436 302.57474 614.95624L302.57474 613.175ZM310.6685 614.65936Q310.6685 616.5656 310.01224 617.5031Q309.3716 618.425 307.981 618.425Q306.6216 618.425 305.96536 617.51874Q305.3091 616.6125 305.27786 614.8L305.27786 613.3625Q305.27786 611.47186 305.9185 610.5656Q306.57474 609.64374 307.96536 609.64374Q309.34036 609.64374 309.9966 610.53436Q310.65286 611.40936 310.6685 613.2531L310.6685 614.65936ZM309.57474 613.175Q309.57474 611.8 309.1841 611.175Q308.8091 610.53436 307.96536 610.53436Q307.13724 610.53436 306.7466 611.175Q306.3716 611.8 306.3716 613.09686L306.3716 614.83124Q306.3716 616.20624 306.76224 616.8781Q307.1685 617.53436 307.981 617.53436Q308.77786 617.53436 309.1685 616.90936Q309.5591 616.28436 309.57474 614.95624L309.57474 613.175ZM317.6685 614.65936Q317.6685 616.5656 317.01224 617.5031Q316.3716 618.425 314.981 618.425Q313.6216 618.425 312.96536 617.51874Q312.3091 616.6125 312.27786 614.8L312.27786 613.3625Q312.27786 611.47186 312.9185 610.5656Q313.57474 609.64374 314.96536 609.64374Q316.34036 609.64374 316.9966 610.53436Q317.65286 611.40936 317.6685 613.2531L317.6685 614.65936ZM316.57474 613.175Q316.57474 611.8 316.1841 611.175Q315.8091 610.53436 314.96536 610.53436Q314.13724 610.53436 313.7466 611.175Q313.3716 611.8 313.3716 613.09686L313.3716 614.83124Q313.3716 616.20624 313.76224 616.8781Q314.1685 617.53436 314.981 617.53436Q315.77786 617.53436 316.1685 616.90936Q316.5591 616.28436 316.57474 614.95624L316.57474 613.175Z" fill-rule="nonzero"/>
<path fill="#757575" d="M515.2904 618.3L514.2123 618.3L514.2123 611.08124L512.0248 611.8781L512.0248 610.89374L515.13416 609.72186L515.2904 609.72186L515.2904 618.3ZM524.0873 614.65936Q524.0873 616.5656 523.431 617.5031Q522.7904 618.425 521.3998 618.425Q520.0404 618.425 519.38416 617.51874Q518.7279 616.6125 518.69666 614.8L518.69666 613.3625Q518.69666 611.47186 519.3373 610.5656Q519.9935 609.64374 521.38416 609.64374Q522.75916 609.64374 523.4154 610.53436Q524.07166 611.40936 524.0873 613.2531L524.0873 614.65936ZM522.9935 613.175Q522.9935 611.8 522.6029 611.175Q522.2279 610.53436 521.38416 610.53436Q520.556 610.53436 520.1654 611.175Q519.7904 611.8 519.7904 613.09686L519.7904 614.83124Q519.7904 616.20624 520.181 616.8781Q520.5873 617.53436 521.3998 617.53436Q522.19666 617.53436 522.5873 616.90936Q522.9779 616.28436 522.9935 614.95624L522.9935 613.175ZM531.0873 614.65936Q531.0873 616.5656 530.431 617.5031Q529.7904 618.425 528.3998 618.425Q527.0404 618.425 526.38416 617.51874Q525.7279 616.6125 525.69666 614.8L525.69666 613.3625Q525.69666 611.47186 526.3373 610.5656Q526.9935 609.64374 528.38416 609.64374Q529.75916 609.64374 530.4154 610.53436Q531.07166 611.40936 531.0873 613.2531L531.0873 614.65936ZM529.9935 613.175Q529.9935 611.8 529.6029 611.175Q529.2279 610.53436 528.38416 610.53436Q527.556 610.53436 527.1654 611.175Q526.7904 611.8 526.7904 613.09686L526.7904 614.83124Q526.7904 616.20624 527.181 616.8781Q527.5873 617.53436 528.3998 617.53436Q529.19666 617.53436 529.5873 616.90936Q529.9779 616.28436 529.9935 614.95624L529.9935 613.175ZM538.0873 614.65936Q538.0873 616.5656 537.431 617.5031Q536.7904 618.425 535.3998 618.425Q534.0404 618.425 533.38416 617.51874Q532.7279 616.6125 532.69666 614.8L532.69666 613.3625Q532.69666 611.47186 533.3373 610.5656Q533.9935 609.64374 535.38416 609.64374Q536.75916 609.64374 537.4154 610.53436Q538.07166 611.40936 538.0873 613.2531L538.0873 614.65936ZM536.9935 613.175Q536.9935 611.8 536.6029 611.175Q536.2279 610.53436 535.38416 610.53436Q534.556 610.53436 534.1654 611.175Q533.7904 611.8 533.7904 613.09686L533.7904 614.83124Q533.7904 616.20624 534.181 616.8781Q534.5873 617.53436 535.3998 617.53436Q536.19666 617.53436 536.5873 616.90936Q536.9779 616.28436 536.9935 614.95624L536.9935 613.175ZM545.0873 614.65936Q545.0873 616.5656 544.431 617.5031Q543.7904 618.425 542.3998 618.425Q541.0404 618.425 540.38416 617.51874Q539.7279 616.6125 539.69666 614.8L539.69666 613.3625Q539.69666 611.47186 540.3373 610.5656Q540.9935 609.64374 542.38416 609.64374Q543.75916 609.64374 544.4154 610.53436Q545.07166 611.40936 545.0873 613.2531L545.0873 614.65936ZM543.9935 613.175Q543.9935 611.8 543.6029 611.175Q543.2279 610.53436 542.38416 610.53436Q541.556 610.53436 541.1654 611.175Q540.7904 611.8 540.7904 613.09686L540.7904 614.83124Q540.7904 616.20624 541.181 616.8781Q541.5873 617.53436 542.3998 617.53436Q543.19666 617.53436 543.5873 616.90936Q543.9779 616.28436 543.9935 614.95624L543.9935 613.175ZM552.0873 614.65936Q552.0873 616.5656 551.431 617.5031Q550.7904 618.425 549.3998 618.425Q548.0404 618.425 547.38416 617.51874Q546.7279 616.6125 546.69666 614.8L546.69666 613.3625Q546.69666 611.47186 547.3373 610.5656Q547.9935 609.64374 549.38416 609.64374Q550.75916 609.64374 551.4154 610.53436Q552.07166 611.40936 552.0873 613.2531L552.0873 614.65936ZM550.9935 613.175Q550.9935 611.8 550.6029 611.175Q550.2279 610.53436 549.38416 610.53436Q548.556 610.53436 548.1654 611.175Q547.7904 611.8 547.7904 613.09686L547.7904 614.83124Q547.7904 616.20624 548.181 616.8781Q548.5873 617.53436 549.3998 617.53436Q550.19666 617.53436 550.5873 616.90936Q550.9779 616.28436 550.9935 614.95624L550.9935 613.175ZM559.0873 614.65936Q559.0873 616.5656 558.431 617.5031Q557.7904 618.425 556.3998 618.425Q555.0404 618.425 554.38416 617.51874Q553.7279 616.6125 553.69666 614.8L553.69666 613.3625Q553.69666 611.47186 554.3373 610.5656Q554.9935 609.64374 556.38416 609.64374Q557.75916 609.64374 558.4154 610.53436Q559.07166 611.40936 559.0873 613.2531L559.0873 614.65936ZM557.9935 613.175Q557.9935 611.8 557.6029 611.175Q557.2279 610.53436 556.38416 610.53436Q555.556 610.53436 555.1654 611.175Q554.7904 611.8 554.7904 613.09686L554.7904 614.83124Q554.7904 616.20624 555.181 616.8781Q555.5873 617.53436 556.3998 617.53436Q557.19666 617.53436 557.5873 616.90936Q557.9779 616.28436 557.9935 614.95624L557.9935 613.175Z" fill-rule="nonzero"/>
<path fill="#757575" d="M753.2092 618.3L752.1311 618.3L752.1311 611.08124L749.9436 611.8781L749.9436 610.89374L753.053 609.72186L753.2092 609.72186L753.2092 618.3ZM757.1467 614.01874L757.5842 609.76874L761.9592 609.76874L761.9592 610.76874L758.5061 610.76874L758.2405 613.09686Q758.8811 612.72186 759.678 612.72186Q760.8342 612.72186 761.5217 613.5031Q762.2092 614.26874 762.2092 615.58124Q762.2092 616.89374 761.4905 617.65936Q760.78735 618.425 759.5061 618.425Q758.3811 618.425 757.66235 617.8Q756.9436 617.15936 756.84985 616.05L757.8655 616.05Q757.97485 616.78436 758.3967 617.15936Q758.8186 617.53436 759.5061 617.53436Q760.2561 617.53436 760.6936 617.01874Q761.1311 616.5031 761.1311 615.59686Q761.1311 614.7375 760.66235 614.22186Q760.1936 613.70624 759.41235 613.70624Q758.7092 613.70624 758.303 614.0031L758.0217 614.2375L757.1467 614.01874ZM769.0061 614.65936Q769.0061 616.5656 768.34985 617.5031Q767.7092 618.425 766.3186 618.425Q764.9592 618.425 764.303 617.51874Q763.6467 616.6125 763.6155 614.8L763.6155 613.3625Q763.6155 611.47186 764.2561 610.5656Q764.91235 609.64374 766.303 609.64374Q767.678 609.64374 768.3342 610.53436Q768.9905 611.40936 769.0061 613.2531L769.0061 614.65936ZM767.91235 613.175Q767.91235 611.8 767.5217 611.175Q767.1467 610.53436 766.303 610.53436Q765.47485 610.53436 765.0842 611.175Q764.7092 611.8 764.7092 613.09686L764.7092 614.83124Q764.7092 616.20624 765.09985 616.8781Q765.5061 617.53436 766.3186 617.53436Q767.1155 617.53436 767.5061 616.90936Q767.8967 616.28436 767.91235 614.95624L767.91235 613.175ZM776.0061 614.65936Q776.0061 616.5656 775.34985 617.5031Q774.7092 618.425 773.3186 618.425Q771.9592 618.425 771.303 617.51874Q770.6467 616.6125 770.6155 614.8L770.6155 613.3625Q770.6155 611.47186 771.2561 610.5656Q771.91235 609.64374 773.303 609.64374Q774.678 609.64374 775.3342 610.53436Q775.9905 611.40936 776.0061 613.2531L776.0061 614.65936ZM774.91235 613.175Q774.91235 611.8 774.5217 611.175Q774.1467 610.53436 773.303 610.53436Q772.47485 610.53436 772.0842 611.175Q771.7092 611.8 771.7092 613.09686L771.7092 614.83124Q771.7092 616.20624 772.09985 616.8781Q772.5061 617.53436 773.3186 617.53436Q774.1155 617.53436 774.5061 616.90936Q774.8967 616.28436 774.91235 614.95624L774.91235 613.175ZM783.0061 614.65936Q783.0061 616.5656 782.34985 617.5031Q781.7092 618.425 780.3186 618.425Q778.9592 618.425 778.303 617.51874Q777.6467 616.6125 777.6155 614.8L777.6155 613.3625Q777.6155 611.47186 778.2561 610.5656Q778.91235 609.64374 780.303 609.64374Q781.678 609.64374 782.3342 610.53436Q782.9905 611.40936 783.0061 613.2531L783.0061 614.65936ZM781.91235 613.175Q781.91235 611.8 781.5217 611.175Q781.1467 610.53436 780.303 610.53436Q779.47485 610.53436 779.0842 611.175Q778.7092 611.8 778.7092 613.09686L778.7092 614.83124Q778.7092 616.20624 779.09985 616.8781Q779.5061 617.53436 780.3186 617.53436Q781.1155 617.53436 781.5061 616.90936Q781.8967 616.28436 781.91235 614.95624L781.91235 613.175ZM790.0061 614.65936Q790.0061 616.5656 789.34985 617.5031Q788.7092 618.425 787.3186 618.425Q785.9592 618.425 785.303 617.51874Q784.6467 616.6125 784.6155 614.8L784.6155 613.3625Q784.6155 611.47186 785.2561 610.5656Q785.91235 609.64374 787.303 609.64374Q788.678 609.64374 789.3342 610.53436Q789.9905 611.40936 790.0061 613.2531L790.0061 614.65936ZM788.91235 613.175Q788.91235 611.8 788.5217 611.175Q788.1467 610.53436 787.303 610.53436Q786.47485 610.53436 786.0842 611.175Q785.7092 611.8 785.7092 613.09686L785.7092 614.83124Q785.7092 616.20624 786.09985 616.8781Q786.5061 617.53436 787.3186 617.53436Q788.1155 617.53436 788.5061 616.90936Q788.8967 616.28436 788.91235 614.95624L788.91235 613.175ZM797.0061 614.65936Q797.0061 616.5656 796.34985 617.5031Q795.7092 618.425 794.3186 618.425Q792.9592 618.425 792.303 617.51874Q791.6467 616.6125 791.6155 614.8L791.6155 613.3625Q791.6155 611.47186 792.2561 610.5656Q792.91235 609.64374 794.303 609.64374Q795.678 609.64374 796.3342 610.53436Q796.9905 611.40936 797.0061 613.2531L797.0061 614.65936ZM795.91235 613.175Q795.91235 611.8 795.5217 611.175Q795.1467 610.53436 794.303 610.53436Q793.47485 610.53436 793.0842 611.175Q792.7092 611.8 792.7092 613.09686L792.7092 614.83124Q792.7092 616.20624 793.09985 616.8781Q793.5061 617.53436 794.3186 617.53436Q795.1155 617.53436 795.5061 616.90936Q795.8967 616.28436 795.91235 614.95624L795.91235 613.175Z" fill-rule="nonzero"/>
<path fill="#757575" d="M993.1593 618.3L987.56555 618.3L987.56555 617.51874L990.5187 614.2375Q991.1749 613.4875 991.4249 613.03436Q991.6749 612.5656 991.6749 612.0656Q991.6749 611.39374 991.2687 610.97186Q990.87805 610.53436 990.19055 610.53436Q989.3937 610.53436 988.94055 611.0031Q988.4874 611.45624 988.4874 612.28436L987.4093 612.28436Q987.4093 611.09686 988.1593 610.3781Q988.9249 609.64374 990.19055 609.64374Q991.3937 609.64374 992.0812 610.26874Q992.7687 610.89374 992.7687 611.9406Q992.7687 613.1906 991.1593 614.9406L988.87805 617.40936L993.1593 617.40936L993.1593 618.3ZM999.9249 614.65936Q999.9249 616.5656 999.2687 617.5031Q998.62805 618.425 997.2374 618.425Q995.87805 618.425 995.2218 617.51874Q994.56555 616.6125 994.5343 614.8L994.5343 613.3625Q994.5343 611.47186 995.1749 610.5656Q995.8312 609.64374 997.2218 609.64374Q998.5968 609.64374 999.25305 610.53436Q999.9093 611.40936 999.9249 613.2531L999.9249 614.65936ZM998.8312 613.175Q998.8312 611.8 998.44055 611.175Q998.06555 610.53436 997.2218 610.53436Q996.3937 610.53436 996.00305 611.175Q995.62805 611.8 995.62805 613.09686L995.62805 614.83124Q995.62805 616.20624 996.0187 616.8781Q996.4249 617.53436 997.2374 617.53436Q998.0343 617.53436 998.4249 616.90936Q998.81555 616.28436 998.8312 614.95624L998.8312 613.175ZM1006.9249 614.65936Q1006.9249 616.5656 1006.2687 617.5031Q1005.62805 618.425 1004.2374 618.425Q1002.87805 618.425 1002.2218 617.51874Q1001.56555 616.6125 1001.5343 614.8L1001.5343 613.3625Q1001.5343 611.47186 1002.1749 610.5656Q1002.8312 609.64374 1004.2218 609.64374Q1005.5968 609.64374 1006.25305 610.53436Q1006.9093 611.40936 1006.9249 613.2531L1006.9249 614.65936ZM1005.8312 613.175Q1005.8312 611.8 1005.44055 611.175Q1005.06555 610.53436 1004.2218 610.53436Q1003.3937 610.53436 1003.00305 611.175Q1002.62805 611.8 1002.62805 613.09686L1002.62805 614.83124Q1002.62805 616.20624 1003.0187 616.8781Q1003.4249 617.53436 1004.2374 617.53436Q1005.0343 617.53436 1005.4249 616.90936Q1005.81555 616.28436 1005.8312 614.95624L1005.8312 613.175ZM1013.9249 614.65936Q1013.9249 616.5656 1013.2687 617.5031Q1012.62805 618.425 1011.2374 618.425Q1009.87805 618.425 1009.2218 617.51874Q1008.56555 616.6125 1008.5343 614.8L1008.5343 613.3625Q1008.5343 611.47186 1009.1749 610.5656Q1009.8312 609.64374 1011.2218 609.64374Q1012.5968 609.64374 1013.25305 610.53436Q1013.9093 611.40936 1013.9249 613.2531L1013.9249 614.65936ZM1012.8312 613.175Q1012.8312 611.8 1012.44055 611.175Q1012.06555 610.53436 1011.2218 610.53436Q1010.3937 610.53436 1010.00305 611.175Q1009.62805 611.8 1009.62805 613.09686L1009.62805 614.83124Q1009.62805 616.20624 1010.0187 616.8781Q1010.4249 617.53436 1011.2374 617.53436Q1012.0343 617.53436 1012.4249 616.90936Q1012.81555 616.28436 1012.8312 614.95624L1012.8312 613.175ZM1020.9249 614.65936Q1020.9249 616.5656 1020.2687 617.5031Q1019.62805 618.425 1018.2374 618.425Q1016.87805 618.425 1016.2218 617.51874Q1015.56555 616.6125 1015.5343 614.8L1015.5343 613.3625Q1015.5343 611.47186 1016.1749 610.5656Q1016.8312 609.64374 1018.2218 609.64374Q1019.5968 609.64374 1020.25305 610.53436Q1020.9093 611.40936 1020.9249 613.2531L1020.9249 614.65936ZM1019.8312 613.175Q1019.8312 611.8 1019.44055 611.175Q1019.06555 610.53436 1018.2218 610.53436Q1017.3937 610.53436 1017.00305 611.175Q1016.62805 611.8 1016.62805 613.09686L1016.62805 614.83124Q1016.62805 616.20624 1017.0187 616.8781Q1017.4249 617.53436 1018.2374 617.53436Q1019.0343 617.53436 1019.4249 616.90936Q1019.81555 616.28436 1019.8312 614.95624L1019.8312 613.175ZM1027.9249 614.65936Q1027.9249 616.5656 1027.2687 617.5031Q1026.628 618.425 1025.2374 618.425Q1023.87805 618.425 1023.2218 617.51874Q1022.56555 616.6125 1022.5343 614.8L1022.5343 613.3625Q1022.5343 611.47186 1023.1749 610.5656Q1023.8312 609.64374 1025.2218 609.64374Q1026.5968 609.64374 1027.253 610.53436Q1027.9093 611.40936 1027.9249 613.2531L1027.9249 614.65936ZM1026.8312 613.175Q1026.8312 611.8 1026.4406 611.175Q1026.0656 610.53436 1025.2218 610.53436Q1024.3937 610.53436 1024.003 611.175Q1023.62805 611.8 1023.62805 613.09686L1023.62805 614.83124Q1023.62805 616.20624 1024.0187 616.8781Q1024.4249 617.53436 1025.2374 617.53436Q1026.0343 617.53436 1026.4249 616.90936Q1026.8156 616.28436 1026.8312 614.95624L1026.8312 613.175ZM1034.9249 614.65936Q1034.9249 616.5656 1034.2687 617.5031Q1033.628 618.425 1032.2374 618.425Q1030.878 618.425 1030.2218 617.51874Q1029.5656 616.6125 1029.5343 614.8L1029.5343 613.3625Q1029.5343 611.47186 1030.1749 610.5656Q1030.8312 609.64374 1032.2218 609.64374Q1033.5968 609.64374 1034.253 610.53436Q1034.9093 611.40936 1034.9249 613.2531L1034.9249 614.65936ZM1033.8312 613.175Q1033.8312 611.8 1033.4406 611.175Q1033.0656 610.53436 1032.2218 610.53436Q1031.3937 610.53436 1031.003 611.175Q1030.628 611.8 1030.628 613.09686L1030.628 614.83124Q1030.628 616.20624 1031.0187 616.8781Q1031.4249 617.53436 1032.2374 617.53436Q1033.0343 617.53436 1033.4249 616.90936Q1033.8156 616.28436 1033.8312 614.95624L1033.8312 613.175Z" fill-rule="nonzero"/>
</svg>
