<?xml version="1.0" encoding="utf-8"?>
<!-- Generator: Adobe Illustrator 22.0.1, SVG Export Plug-In . SVG Version: 6.00 Build 0)  -->
<svg version="1.1" id="Layer_1" xmlns="http://www.w3.org/2000/svg" xmlns:xlink="http://www.w3.org/1999/xlink" x="0px" y="0px"
width="470.667px" height="267.666px" viewBox="0 0 470.667 267.666" enable-background="new 0 0 470.667 267.666"
xml:space="preserve">
<g id="Layer_1_1_">
<rect y="42.333" fill="#FFFFFF" stroke="#C7C8CA" stroke-width="0.25" stroke-miterlimit="10" width="36" height="36"/>
<rect x="36" y="42.333" fill="#FFFFFF" stroke="#C7C8CA" stroke-width="0.25" stroke-miterlimit="10" width="36" height="36"/>
<rect x="72" y="42.333" fill="#FFFFFF" stroke="#C7C8CA" stroke-width="0.25" stroke-miterlimit="10" width="36" height="36"/>
<rect x="108" y="42.333" fill="#FFFFFF" stroke="#C7C8CA" stroke-width="0.25" stroke-miterlimit="10" width="36" height="36"/>
<rect x="144" y="42.333" fill="#FFFFFF" stroke="#C7C8CA" stroke-width="0.25" stroke-miterlimit="10" width="36" height="36"/>
<rect x="180" y="42.333" fill="#FFFFFF" stroke="#C7C8CA" stroke-width="0.25" stroke-miterlimit="10" width="36" height="36"/>
<rect x="216" y="42.333" fill="#FFFFFF" stroke="#C7C8CA" stroke-width="0.25" stroke-miterlimit="10" width="36" height="36"/>
<rect x="252" y="42.333" fill="#FFFFFF" stroke="#C7C8CA" stroke-width="0.25" stroke-miterlimit="10" width="36" height="36"/>
<rect x="288" y="42.333" fill="#FFFFFF" stroke="#C7C8CA" stroke-width="0.25" stroke-miterlimit="10" width="36" height="36"/>
<rect x="324" y="42.333" fill="#FFFFFF" stroke="#C7C8CA" stroke-width="0.25" stroke-miterlimit="10" width="36" height="36"/>
<rect x="360" y="42.333" fill="#FFFFFF" stroke="#C7C8CA" stroke-width="0.25" stroke-miterlimit="10" width="36" height="36"/>
<rect x="396" y="42.333" fill="#FFFFFF" stroke="#C7C8CA" stroke-width="0.25" stroke-miterlimit="10" width="36" height="36"/>
<rect x="432" y="42.333" fill="#FFFFFF" stroke="#C7C8CA" stroke-width="0.25" stroke-miterlimit="10" width="36" height="36"/>
<rect y="78.333" fill="#FFFFFF" stroke="#C7C8CA" stroke-width="0.25" stroke-miterlimit="10" width="36" height="36"/>
<rect x="36" y="78.333" fill="#FFFFFF" stroke="#C7C8CA" stroke-width="0.25" stroke-miterlimit="10" width="36" height="36"/>
<rect x="72" y="78.333" fill="#FFFFFF" stroke="#C7C8CA" stroke-width="0.25" stroke-miterlimit="10" width="36" height="36"/>
<rect x="108" y="78.333" fill="#FFFFFF" stroke="#C7C8CA" stroke-width="0.25" stroke-miterlimit="10" width="36" height="36"/>
<rect x="144" y="78.333" fill="#FFFFFF" stroke="#C7C8CA" stroke-width="0.25" stroke-miterlimit="10" width="36" height="36"/>
<rect x="180" y="78.333" fill="#FFFFFF" stroke="#C7C8CA" stroke-width="0.25" stroke-miterlimit="10" width="36" height="36"/>
<rect x="216" y="78.333" fill="#FFFFFF" stroke="#C7C8CA" stroke-width="0.25" stroke-miterlimit="10" width="36" height="36"/>
<rect x="252" y="78.333" fill="#FFFFFF" stroke="#C7C8CA" stroke-width="0.25" stroke-miterlimit="10" width="36" height="36"/>
<rect x="288" y="78.333" fill="#FFFFFF" stroke="#C7C8CA" stroke-width="0.25" stroke-miterlimit="10" width="36" height="36"/>
<rect x="324" y="78.333" fill="#FFFFFF" stroke="#C7C8CA" stroke-width="0.25" stroke-miterlimit="10" width="36" height="36"/>
<rect x="360" y="78.333" fill="#FFFFFF" stroke="#C7C8CA" stroke-width="0.25" stroke-miterlimit="10" width="36" height="36"/>
<rect x="396" y="78.333" fill="#FFFFFF" stroke="#C7C8CA" stroke-width="0.25" stroke-miterlimit="10" width="36" height="36"/>
<rect x="432" y="78.333" fill="#FFFFFF" stroke="#C7C8CA" stroke-width="0.25" stroke-miterlimit="10" width="36" height="36"/>
<rect y="123.333" fill="#FFFFFF" stroke="#C7C8CA" stroke-width="0.25" stroke-miterlimit="10" width="36" height="36"/>
<rect x="36" y="123.333" fill="#FFFFFF" stroke="#C7C8CA" stroke-width="0.25" stroke-miterlimit="10" width="36" height="36"/>
<rect x="72" y="123.333" fill="#FFFFFF" stroke="#C7C8CA" stroke-width="0.25" stroke-miterlimit="10" width="36" height="36"/>
<rect x="108" y="123.333" fill="#FFFFFF" stroke="#C7C8CA" stroke-width="0.25" stroke-miterlimit="10" width="36" height="36"/>
<rect x="144" y="123.333" fill="#FFFFFF" stroke="#C7C8CA" stroke-width="0.25" stroke-miterlimit="10" width="36" height="36"/>
<rect x="180" y="123.333" fill="#FFFFFF" stroke="#C7C8CA" stroke-width="0.25" stroke-miterlimit="10" width="36" height="36"/>
<rect x="216" y="123.333" fill="#FFFFFF" stroke="#C7C8CA" stroke-width="0.25" stroke-miterlimit="10" width="36" height="36"/>
<rect x="252" y="123.333" fill="#FFFFFF" stroke="#C7C8CA" stroke-width="0.25" stroke-miterlimit="10" width="36" height="36"/>
<rect x="288" y="123.333" fill="#FFFFFF" stroke="#C7C8CA" stroke-width="0.25" stroke-miterlimit="10" width="36" height="36"/>
<rect x="324" y="123.333" fill="#FFFFFF" stroke="#C7C8CA" stroke-width="0.25" stroke-miterlimit="10" width="36" height="36"/>
<rect x="360" y="123.333" fill="#FFFFFF" stroke="#C7C8CA" stroke-width="0.25" stroke-miterlimit="10" width="36" height="36"/>
<rect x="396" y="123.333" fill="#FFFFFF" stroke="#C7C8CA" stroke-width="0.25" stroke-miterlimit="10" width="36" height="36"/>
<rect x="432" y="123.333" fill="#FFFFFF" stroke="#C7C8CA" stroke-width="0.25" stroke-miterlimit="10" width="36" height="36"/>
<rect y="159.333" fill="#FFFFFF" stroke="#C7C8CA" stroke-width="0.25" stroke-miterlimit="10" width="36" height="36"/>
<rect x="36" y="159.333" fill="#FFFFFF" stroke="#C7C8CA" stroke-width="0.25" stroke-miterlimit="10" width="36" height="36"/>
<rect x="72" y="159.333" fill="#FFFFFF" stroke="#C7C8CA" stroke-width="0.25" stroke-miterlimit="10" width="36" height="36"/>
<rect x="108" y="159.333" fill="#FFFFFF" stroke="#C7C8CA" stroke-width="0.25" stroke-miterlimit="10" width="36" height="36"/>
<rect x="144" y="159.333" fill="#FFFFFF" stroke="#C7C8CA" stroke-width="0.25" stroke-miterlimit="10" width="36" height="36"/>
<rect x="180" y="159.333" fill="#FFFFFF" stroke="#C7C8CA" stroke-width="0.25" stroke-miterlimit="10" width="36" height="36"/>
<rect x="216" y="159.333" fill="#FFFFFF" stroke="#C7C8CA" stroke-width="0.25" stroke-miterlimit="10" width="36" height="36"/>
<rect x="252" y="159.333" fill="#FFFFFF" stroke="#C7C8CA" stroke-width="0.25" stroke-miterlimit="10" width="36" height="36"/>
<rect x="288" y="159.333" fill="#FFFFFF" stroke="#C7C8CA" stroke-width="0.25" stroke-miterlimit="10" width="36" height="36"/>
<rect x="324" y="159.333" fill="#FFFFFF" stroke="#C7C8CA" stroke-width="0.25" stroke-miterlimit="10" width="36" height="36"/>
<rect x="360" y="159.333" fill="#FFFFFF" stroke="#C7C8CA" stroke-width="0.25" stroke-miterlimit="10" width="36" height="36"/>
<rect x="396" y="159.333" fill="#FFFFFF" stroke="#C7C8CA" stroke-width="0.25" stroke-miterlimit="10" width="36" height="36"/>
<rect x="432" y="159.333" fill="#FFFFFF" stroke="#C7C8CA" stroke-width="0.25" stroke-miterlimit="10" width="36" height="36"/>
</g>
<g>
<path d="M9.153,55.405c3.348-0.783,5.343-1.174,5.984-1.174c2.67,0.018,4.005,1.859,4.005,5.522
c-0.136,3.792,0.135,6.69,0.814,8.695c0,1.542-1.123,2.313-3.367,2.313c0-0.179-2.414-0.198-7.243-0.056
c-2.275-0.413-3.422-2.13-3.441-5.152C6.548,58.787,7.63,55.405,9.153,55.405z M9.68,58.3l-0.24,1.452
c0.357,2.103,0.435,3.552,0.231,4.347c-0.049,2.726,0.808,4.261,2.572,4.606c1.72,0.068,2.879-0.502,3.478-1.711
c0.198-2.898,0.034-4.348-0.49-4.348c0.049-3.577-0.946-5.479-2.987-5.707C10.534,56.94,9.68,57.394,9.68,58.3z"/>
</g>
<g>
<path d="M42.369,49.615c0.345-0.493,0.854-0.762,1.526-0.805c1.128,0,1.693,1.233,1.693,3.7c0.16,0.154-0.025,4.501-0.555,13.042
c0,2.3,1.554,3.401,4.662,3.302c2.849-1.542,4.239-5.06,4.171-10.554c-2.016-0.845-2.926-1.955-2.729-3.33
c2.078-0.056,3.204,0.573,3.376,1.887c1.067,0.463,1.641,3.361,1.721,8.695c-0.931,3.126-2.63,4.767-5.097,4.921
c-6.074,0.074-9.111-0.12-9.111-0.583C42.119,69.89,42.233,63.132,42.369,49.615z"/>
</g>
<g>
<path d="M80.737,55.405c0.826-0.055,1.24,0.429,1.24,1.452c-0.913,0.919-1.329,3.817-1.249,8.695
c0.931,2.017,2.103,3.111,3.515,3.284c1.554,0,3.487-1.403,5.799-4.208c0.66,0.234,1.036,1.023,1.128,2.368
c-0.703,2.541-3.496,3.789-8.38,3.746c-3.712-0.715-5.535-3.895-5.467-9.537C77.657,57.363,78.794,55.43,80.737,55.405z
M87.878,55.405c1.757-0.142,2.636,0.823,2.636,2.896l-0.472,0.897C88.494,58.914,87.773,57.649,87.878,55.405z"/>
</g>
<g>
<path d="M118.707,53.962c0.093,1.93-0.12,2.895-0.638,2.895c-0.975,1.894-1.431,4.308-1.369,7.243
c0.253,2.831,1.918,4.767,4.995,5.809c-1.548,0.401-2.997,0.589-4.348,0.564c-2.713-0.863-4.101-3.472-4.162-7.825
C114.098,56.857,115.938,53.962,118.707,53.962z M125.968,61.205c1.246-0.129,1.875,1.801,1.887,5.791
c-0.062,1.813-0.185,2.784-0.37,2.914c-1.202,0.172-2.269,0.167-3.2-0.019c-0.062-1.733,0.41-3.179,1.415-4.338
C125.916,63.511,126.005,62.062,125.968,61.205z M125.811,51.058c1.251-0.247,1.877-0.247,1.877,0
c0.173,1.979,0.105,3.231-0.204,3.755c-1.844,0.209-2.766-0.074-2.766-0.851C124.707,52.026,125.071,51.058,125.811,51.058z"/>
</g>
<g>
<path d="M153.061,55.405c0-0.086,0.771-0.086,2.313,0c0,1.19-0.361,2.155-1.082,2.896c-0.549,0.678-0.802,3.095-0.759,7.251
c0.506,2.029,1.893,3.043,4.163,3.043c2.368-0.913,3.484-2.896,3.348-5.948c-0.999-3.095-1.498-5.025-1.498-5.791
c0.66-0.388,1.569-0.388,2.729,0c0.993,0,1.424,2.415,1.295,7.243c0.056,3.595-0.453,5.393-1.526,5.393
c-0.993,0.864-3.41,1.273-7.251,1.23c-3.361-0.364-5.032-3.537-5.014-9.518C149.826,58.3,150.921,56.367,153.061,55.405z"/>
</g>
<g>
<path d="M188.996,48.163c1.776-0.093,2.664,0.392,2.664,1.452c-1.171,3.268-1.757,5.198-1.757,5.79
c0.228,1.215,0.287,3.629,0.176,7.243c-0.142,5.05-0.385,7.576-0.731,7.576c-1.646,0.16-2.469,0.049-2.469-0.333
c-0.086,0-0.229-3.58-0.426-10.739c-0.457-1.079-0.552-2.809-0.287-5.189C186.468,50.669,187.411,48.736,188.996,48.163z"/>
</g>
<g>
<path d="M223.396,55.405c0.321-0.524,1.452-0.786,3.395-0.786l0.971,0.786c-1.561,1.918-2.34,4.332-2.34,7.243
c0,3.792,1.424,5.698,4.273,5.716c1.985,0,3.725-1.421,5.217-4.264c-0.302-0.425-0.364-1.391-0.185-2.895l0.758-0.98
c0.562,0,0.814,0.808,0.759,2.423c0.129,3.866,0.154,5.8,0.074,5.8c0,1.424-0.758,2.71-2.275,3.857
c-1.455-1.252-2.904-1.877-4.347-1.877c-1.166,0.314-2.615,0.413-4.348,0.296c-2.744-1.597-4.073-4.77-3.986-9.518
C222.014,57.856,222.693,55.923,223.396,55.405z"/>
</g>
<g>
<path d="M259.081,49.615c0.685-0.234,1.089-0.234,1.212,0c0.74,0.894,1.172,5.723,1.295,14.485c0,4.132-0.564,6.197-1.692,6.197
c-0.938,0-1.406-1.101-1.406-3.302c0.185-6.759,0.08-10.138-0.314-10.138C258.113,52.029,258.415,49.615,259.081,49.615z
M267.101,55.405c2.245-0.092,3.367,0.392,3.367,1.452l-0.426,1.36C268.84,58.217,267.859,57.28,267.101,55.405z M269.839,61.205
c0.117-0.419,0.268-0.419,0.453,0c0,0.777,0.44,1.742,1.322,2.895c0.457,3.515,0.645,5.445,0.564,5.791
c-0.24,0.592-0.952,0.906-2.137,0.943c-1.271,0-1.865-0.795-1.785-2.386C268.775,64.112,269.302,61.698,269.839,61.205z"/>
</g>
<g>
<path d="M295.433,48.163c1.313-0.093,1.952,0.617,1.915,2.127c-0.303,1.19-0.367,3.86-0.194,8.01
c-0.007,4.952,0.059,8.879,0.194,11.784c-0.5,0.462-1.465,0.549-2.896,0.259c-0.185,0-0.237-6.91-0.157-20.729
C294.399,48.881,294.779,48.397,295.433,48.163z"/>
</g>
<g>
<path d="M331.488,49.615c0-0.271,0.629-0.271,1.887,0c-0.642,2.158-0.962,3.607-0.962,4.347c0.086,2.238,0.419,3.685,0.999,4.338
c-0.024,6.765,0.006,10.147,0.093,10.147c0.253,1.584,0.2,3.043-0.157,4.375c-0.604,1.344-1.569,2.017-2.896,2.017
c-0.302,0-0.302-1.65,0-4.949c0.567-1.166,0.854-5.029,0.86-11.59C331.59,57.301,331.648,54.406,331.488,49.615z"/>
</g>
<g>
<path d="M367.849,48.163c1.153-0.019,1.73,0.946,1.73,2.895c-0.154,1.961-0.037,5.824,0.351,11.59
c-0.308,4.829-0.699,7.243-1.174,7.243c-0.487,0.413-1.145,0.413-1.971,0c-0.475,0-0.629-5.793-0.463-17.38
C366.446,50.512,366.955,49.063,367.849,48.163z M375.119,55.405c0-0.561,0.975-0.749,2.923-0.564
c0.136,1.332-0.349,1.998-1.452,1.998C375.684,56.765,375.193,56.287,375.119,55.405z M376.507,66.995
c1.085-0.154,1.597,0.404,1.535,1.674c-1.055,0-1.582-0.074-1.582-0.222L376.507,66.995z"/>
</g>
<g>
<path d="M403.729,48.163c1.202-0.031,1.788,0.934,1.758,2.895c-0.24,0.943-0.306,4.326-0.194,10.147
c-0.08,1.659-0.062,4.619,0.056,8.88c-0.709,0.407-1.675,0.453-2.896,0.139c-0.259-7.566-0.357-14.436-0.296-20.608
C402.181,49.022,402.705,48.539,403.729,48.163z"/>
</g>
<g>
<path d="M438.045,55.405c0.247-0.728,1.348-1.091,3.303-1.091c0.006,0.481,0.971,0.725,2.895,0.731
c0.876-0.549,2.325-0.737,4.348-0.564c0.519,0.58,2.933,0.786,7.242,0.62c2.195,0,3.293,1.067,3.293,3.201
c-0.432,0.24-1.045,0.012-1.84-0.685c0-0.389-0.969-0.54-2.905-0.453c-2.188,0.432-3.403,1.779-3.644,4.042
c-0.433,0-0.513,2.414-0.241,7.243c-0.191,1.005-0.826,1.616-1.905,1.831c-0.839,0-1.258-0.61-1.258-1.831
c0.765-3.54,1.042-6.438,0.832-8.695c0-1.023-1.307-2.106-3.922-3.247c-1.893,0.555-2.839,2.602-2.839,6.142
c-0.111,0.259-0.13,2.42-0.056,6.484c0,0.709-0.953,0.962-2.858,0.759c0.314-2.608,0.419-5.988,0.314-10.138
C438.205,58.186,437.953,56.737,438.045,55.405z"/>
</g>
<g>
<path d="M7.738,89.962c1.536-0.068,2.932,0.413,4.19,1.443c-1.844,2.134-2.735,6.481-2.673,13.042c0,1.153-0.694,1.634-2.081,1.443
c-0.759,0-1.104-3.863-1.036-11.59C6.107,91.408,6.64,89.962,7.738,89.962z M14.555,91.405c0-0.647,0.678-0.968,2.035-0.962
c1.998,0.056,2.963,1.44,2.895,4.153c-0.851,0.043-1.332,0.728-1.443,2.053c-1.073,0-1.609-0.783-1.609-2.349
C15.298,92.37,14.672,91.405,14.555,91.405z"/>
</g>
<g>
<path d="M52.035,91.405c1.893-0.08,3.043,0.546,3.45,1.878c0.512,0,0.712,2.272,0.602,6.817c0.142,3.417-0.894,5.347-3.108,5.791
c-1.4,0.647-3.463,0.928-6.188,0.842c-3.392-0.82-5.087-3.515-5.087-8.084c0.092-4.458,1.307-6.771,3.644-6.938l0.805,1.147
c-0.888,1.166-1.332,3.58-1.332,7.243c0.296,3.083,1.92,4.625,4.875,4.625c2.473-1.073,3.761-3.099,3.866-6.077
c0-0.882-0.669-2.812-2.007-5.791L52.035,91.405z"/>
</g>
<g>
<path d="M78.258,91.405c0.222-0.918,1.252-1.335,3.089-1.249c0.783,0,1.147,0.9,1.092,2.701c-0.623,3.83-0.907,6.728-0.851,8.695
c0.031,1.616,0.916,2.424,2.655,2.424c4.082-0.173,6.135-2.914,6.16-8.223c-1.492-2.744-2.238-4.193-2.238-4.348
c0.068-0.475,0.694-0.752,1.877-0.833c1.937,3.077,2.901,4.847,2.896,5.31c0.067,5.655-0.975,8.991-3.126,10.008
c-0.555,0.697-2.896,1.181-7.021,1.452c-0.346,0-0.518,1.449-0.518,4.347c-0.105,1.474-1.378,2.294-3.82,2.46
c-1.227,0-1.837-0.82-1.832-2.46c1.468-3.502,2.202-7.366,2.202-11.59C78.378,95.364,78.19,92.466,78.258,91.405z"/>
</g>
<g>
<path d="M115.784,91.405c1.036-0.395,2.022-0.395,2.96,0c-1.178,3.269-1.767,5.202-1.767,5.8c-0.031,4.989,1.542,7.483,4.717,7.483
c2.46-0.617,3.69-2.63,3.69-6.04c0.253-3.737,0.472-5.605,0.657-5.605l1.443-0.129c0.537,1.801,0.734,5.162,0.592,10.083
c-0.173,3.866-0.737,5.799-1.693,5.799c-0.136,0.419-0.459,0.419-0.971,0c-1.289-1.369-2.528-2.053-3.718-2.053
c-4.501,0.031-7.024-1.218-7.566-3.746c-0.425-1.092-0.57-3.021-0.435-5.791C113.965,94.251,114.662,92.318,115.784,91.405z
M125.885,91.405c0-0.111,0.555-0.111,1.665,0l-0.065,1.055C126.418,92.459,125.885,92.108,125.885,91.405z"/>
</g>
<g>
<path d="M151.377,89.962c1.172-0.172,2.31,0.484,3.414,1.97c1.134,0.37,1.619,0.718,1.452,1.045
c-1.548,0.395-2.316,4.699-2.303,12.913c-0.173,0.505-0.854,0.805-2.044,0.897c-0.851-0.197-1.369-0.496-1.554-0.897
c0.123-7.727,0.059-11.59-0.194-11.59C149.974,91.408,150.384,89.962,151.377,89.962z"/>
</g>
<g>
<path d="M187.488,91.405c0-0.549,2.55-0.73,7.649-0.545c1.492,0.284,2.46,1.915,2.904,4.893c0.037,0,0.373,2.414,1.008,7.243
c-0.395,2.454-2.18,3.681-5.355,3.681c-5.026-0.222-7.539-0.965-7.539-2.229c-0.29-1.233-0.25-3.167,0.12-5.8
c-0.031-3.94,0.028-5.911,0.176-5.911L187.488,91.405z M189.496,94.3c-0.099,0-0.527,1.933-1.286,5.799
c0,3.059,0.86,4.792,2.581,5.198c1.887-0.29,3.215-1.538,3.986-3.746c0-5.556-0.845-8.429-2.534-8.621
C190.713,93.172,189.797,93.628,189.496,94.3z"/>
</g>
<g>
<path d="M223.766,85.615c0-0.043,0.527-0.043,1.582,0c0.894,3.583,1.298,5.997,1.212,7.242c-0.148,6.944-0.071,10.416,0.231,10.416
c1.214,0.894,1.699,1.902,1.452,3.024c0,0.419-0.965,0.583-2.896,0.49c-1.868,0-2.802-2.713-2.802-8.14
c0.067-2.51-0.262-4.924-0.99-7.243C222.042,87.545,222.779,85.615,223.766,85.615z"/>
</g>
<g>
<path d="M258.572,91.405l1.323-1.063c1.332,0,1.951,1.32,1.858,3.959c-0.228,0.469-0.308,2.886-0.24,7.251
c0.357,2.307,1.751,3.459,4.181,3.459c1.949-0.678,3.309-2.799,4.079-6.364c-0.468-3.102-0.675-5.032-0.619-5.791l0.888-1.239
c1.153,0,1.696,1.378,1.628,4.135c-0.696,1.579-1.045,2.543-1.045,2.895c0.647,0.857,0.935,2.34,0.86,4.449
c0,2.208-0.966,3.312-2.896,3.312c-4.655,0.271-7.07,0.339-7.242,0.203c-2.06-0.728-3.09-2.898-3.09-6.512
c0.16-0.123,0.226-2.898,0.194-8.325L258.572,91.405z"/>
</g>
<g>
<path d="M293.897,91.405c0-0.549,0.666-0.823,1.998-0.823c0.413,0,1.233,2.689,2.46,8.066c0.32,0.537,0.949,1.28,1.887,2.229
l1.452-0.74c0.586,0,0.769,1.437,0.546,4.311c-0.006,1.208-1.023,1.689-3.052,1.443c-0.297,0-1.986-3.863-5.069-11.59
C293.848,94.208,293.773,93.243,293.897,91.405z M304.886,91.405c0.919-0.425,1.539-0.425,1.859,0
c0.043,2.442-0.675,4.443-2.155,6.003c-0.709,0-0.999-1.036-0.869-3.108C304.27,92.37,304.657,91.405,304.886,91.405z"/>
</g>
<g>
<path d="M330.313,89.962c2.417-0.062,3.626,2.353,3.626,7.243c0,0.943,1.252,1.724,3.755,2.34
c-0.117,4.643-1.085,6.965-2.904,6.965c-1.486,0-2.229-1.171-2.229-3.515c-0.025-1.19-1.018-4.57-2.979-10.138
C329.509,90.927,329.752,89.962,330.313,89.962z M338.536,92.857c0.062-0.74,0.746-1.184,2.054-1.332
c1.19,0.487,1.674,1.689,1.452,3.607c-0.364,0.703-0.848,1.313-1.452,1.831C339.221,96.964,338.536,95.595,338.536,92.857z
M342.948,100.1c0.056-0.456,0.719-0.777,1.989-0.962c0.888,0,1.508,1.286,1.859,3.857c-1.006,2.029-1.625,3.043-1.859,3.043
c-1.48,0-2.35-1.014-2.608-3.043C342.601,102.292,342.807,101.327,342.948,100.1z"/>
</g>
<g>
<path d="M366.378,91.405c0.173-0.703,1.162-0.921,2.97-0.657c0.179,0,0.851,1.184,2.017,3.552c0.653,0.277,1.174,0.277,1.563,0
c1.067-2.664,2.772-3.993,5.115-3.987c0.364,0.61,0.364,1.489,0,2.636c-2.393,1.184-3.629,3.083-3.709,5.698
c0.229,1.745,1.542,3.678,3.94,5.8c0.246,1.227,0.17,1.84-0.231,1.84c-1.794,0-3.006-1.097-3.635-3.292
c-0.438-0.734-1.644-0.956-3.617-0.666c-0.197,0-1.162,1.31-2.895,3.931c-1.955,0.228-2.92,0.086-2.896-0.426
c2.923-3.243,4.508-6.12,4.754-8.63c0-0.943-0.992-2.393-2.978-4.348C366.517,91.976,366.385,91.491,366.378,91.405z"/>
</g>
<g>
<path d="M402.406,89.962c2.065-0.012,3.099,0.953,3.099,2.895c-0.271,3.022-0.809,4.533-1.609,4.533
c-2.035-2.387-3-4.492-2.896-6.318L402.406,89.962z M412.081,91.405c0.463-0.666,1.116-1.021,1.961-1.063
c0.796,0,1.116,0.838,0.962,2.516c-1.023,1.93-1.785,2.896-2.284,2.896c0,2.22-0.9,5.118-2.701,8.695
c0,1.061-1.076,3.505-3.229,7.335c-0.536,0.993-1.708,1.443-3.515,1.351c-0.813-0.05-1.089-0.762-0.823-2.137
c2.368-2.017,3.552-3.234,3.552-3.654c-0.475-3.256-0.693-5.781-0.656-7.576c2.473,0,3.709-0.373,3.709-1.119
c2.041-1.93,3.157-2.895,3.349-2.895C411.967,95.617,411.859,94.167,412.081,91.405z"/>
</g>
<g>
<path d="M447.813,89.962c1.672-0.024,2.572,0.457,2.701,1.443c0,1.499-1.125,3.056-3.376,4.671
c-3.003,4.612-4.551,6.919-4.644,6.919c0,1.246,0.583,1.868,1.748,1.868c1.351-0.29,2.8-0.382,4.348-0.277l1.239,1.304
c0,0.265-2.827,0.49-8.481,0.675c-2.714,0.068-4.07-0.157-4.07-0.675c0-0.728,1.169-2.658,3.506-5.791
c0.549-1.689,1.742-3.623,3.58-5.799c-0.407-0.938-0.447-1.749-0.121-2.433C444.563,90.979,445.753,90.344,447.813,89.962z"/>
</g>
<g>
<path d="M8.191,140.752c0.975-0.124,1.542-0.124,1.702,0c-0.284,2.898-0.24,4.347,0.129,4.347
c-0.203,0.907-0.425,1.872-0.666,2.896c0.179,0.66,1.141,0.999,2.886,1.017c0.352-0.352,1.316-0.432,2.895-0.24
c0.357,0.376,0.357,0.9,0,1.572c-2.097,1.116-4.511,1.606-7.243,1.471c-1.727,0-2.559-1.754-2.497-5.263
C5.842,142.686,6.773,140.752,8.191,140.752z M12.039,140.752c0-0.074,0.524-0.074,1.572,0
C12.563,140.863,12.039,140.863,12.039,140.752z M13.232,142.205l0.462-1.424c1.005,0,1.486,0.58,1.443,1.739
C13.867,142.716,13.232,142.611,13.232,142.205z"/>
</g>
<g>
<path d="M43.59,136.405c0.45-0.252,1.036,0.124,1.757,1.128c1.141,0.882,2.057,1.471,2.748,1.767
c-2.257,1.406-3.386,3.823-3.386,7.251c0,1.53,1.178,2.544,3.534,3.043c0,0.099,0.965,0.533,2.895,1.304
c-1.856,0.752-3.786,1.085-5.791,0.999c-2.688,0-4.033-2.75-4.033-8.251C41.783,138.819,42.542,136.405,43.59,136.405z"/>
</g>
<g>
<path d="M79.21,140.752c0.604-0.574,1.317-0.91,2.137-1.008c3.873,0.542,5.803,1.375,5.791,2.498
c-1.93,0.253-2.895-0.062-2.895-0.944c-1.523-0.148-2.285,0.154-2.285,0.907c-1.295,0.561-1.909,2.491-1.841,5.791
c0.092,0.74,0.983,1.178,2.673,1.313c1.023,0,2.473-1.101,4.347-3.302c0.475,0.425,0.66,1.572,0.555,3.441
c-0.783,1.733-2.898,2.568-6.346,2.506c-2.281-0.376-3.73-2.186-4.347-5.43C77.062,143.835,77.798,141.912,79.21,140.752z"/>
</g>
<g>
<path d="M113.897,142.205c0.308-0.82,0.974-1.273,1.998-1.36l1.036,1.36c-0.678,0-0.98,1.93-0.906,5.791
c1.486,1.332,2.892,1.998,4.218,1.998l0.888,0.897c0,0.45-1.261,0.666-3.783,0.647c-2.621-0.209-3.943-2.84-3.968-7.89
L113.897,142.205z M116.58,139.3c0.888-0.222,1.924-0.222,3.108,0c-1.326,1.394-2.106,2.09-2.34,2.09l-1.193-0.638L116.58,139.3z
M121.121,139.3c1.16-0.259,1.832-0.706,2.017-1.341c1.276,0.259,1.89,2.155,1.841,5.688c-0.635,2.01-1.28,2.979-1.933,2.904
c-1.042-3.792-2.066-5.726-3.071-5.799C120.135,140.586,120.517,140.102,121.121,139.3z"/>
</g>
<g>
<path d="M151.581,140.752c1.276-0.234,2.1-0.234,2.47,0c0.124,0.845-0.228,2.778-1.054,5.799c0,1.819,0.598,2.729,1.794,2.729
c1.899,0,2.849-0.91,2.849-2.729c0-1.708,0.5-2.843,1.499-3.404c0.82,1.196,1.23,2.812,1.23,4.847c0,2.571-2.34,3.857-7.021,3.857
c-2.849-0.284-4.23-2.535-4.144-6.752C149.419,143.176,150.212,141.727,151.581,140.752z"/>
</g>
<g>
<path d="M188.247,134.962c1.696-0.167,2.544,0.324,2.544,1.471c0.098,2.343-0.447,3.783-1.637,4.32
c-0.043,0,0.151,3.379,0.583,10.138c-0.271,0.721-1.366,1.023-3.284,0.906c-0.487,0-0.647-1.267-0.481-3.801
c-0.148-7.727,0.209-11.59,1.073-11.59C187.075,135.585,187.476,135.104,188.247,134.962z"/>
</g>
<g>
<path d="M223.081,149.447c0-0.494,0.755-0.604,2.266-0.333c2.72,0.16,4.168-0.117,4.348-0.833c2.651,0.136,3.978,1.489,3.978,4.061
c-1.123,3.737-2.448,5.605-3.978,5.605c-2.01-0.302-2.979-0.768-2.904-1.397c1.079-1.208,1.563-2.161,1.452-2.858
c-3.225-1.474-4.838-2.408-4.838-2.803L223.081,149.447z M224.959,139.3c0.999-0.228,1.499,0.256,1.499,1.452
c-0.864,0.69-1.721,1.656-2.572,2.895c-0.333-1.079-0.33-2.149,0.009-3.209L224.959,139.3z M229.417,140.752
c0.413-0.105,0.505,0,0.277,0.314L229.417,140.752z M230.462,142.205l0.675-0.731l0.777,0.731
C231.366,142.42,230.882,142.42,230.462,142.205z"/>
</g>
<g>
<path d="M259.59,136.405c0.759-0.167,1.825,0.947,3.2,3.339c0.08,1.64-0.176,2.46-0.768,2.46c0.043,2.035-0.166,4.449-0.629,7.243
l0.879,1.443c0,0.882-1.273,1.208-3.82,0.98c-0.722,0-1.055-2.741-0.999-8.223c0.222-4.526,0.555-6.789,0.999-6.789L259.59,136.405
z"/>
</g>
<g>
<path d="M295.303,129.163c1.382-0.074,2.063,0.61,2.045,2.053c0,0.863-0.42,2.112-1.258,3.746
c0.598,0.635,0.888,5.945,0.869,15.928c0,0.567-0.836,0.777-2.507,0.629c-0.383,0-0.515-3.589-0.397-10.767
c0.228-3.188,0.219-6.567-0.028-10.138C294.052,129.77,294.477,129.286,295.303,129.163z"/>
</g>
<g>
<path d="M330.378,130.615c0.056-0.241,0.562-0.475,1.518-0.703c0.771,0,1.058,1.199,0.86,3.598c-0.396,0-0.568,0.965-0.519,2.895
c0.555,0,0.765,1.934,0.629,5.8c-0.136,0-0.185,1.93-0.147,5.791c-0.21,0.327-0.361,1.292-0.453,2.895
c0.456,0,0.684,0.968,0.684,2.904c-0.296,2.337-1.128,3.506-2.497,3.506l-0.832-0.611c1.189-2.904,1.698-5.318,1.525-7.242
c-0.733-1.573-1.058-5.436-0.971-11.59C330.261,137.857,330.329,135.443,330.378,130.615z"/>
</g>
<g>
<path d="M366.184,134.962c0.26-0.561,0.83-0.928,1.712-1.101c0.999,0,1.482,0.466,1.452,1.396c-0.136,2.855,0.2,5.652,1.008,8.39
c-0.382,5.069-1.202,7.767-2.46,8.094c-1.678,0-2.517-1.73-2.517-5.189C365.379,144.85,365.647,140.987,366.184,134.962z"/>
</g>
<g>
<path d="M401.989,130.615c0.037-0.882,0.673-1.363,1.906-1.443c1.023,0,1.508,1.156,1.452,3.468
c-0.524,1.308-0.676,2.563-0.453,3.765c0.32,0,0.468,3.863,0.443,11.59c0,2.633-0.48,3.949-1.442,3.949
c-1.419,0-2.128-0.833-2.128-2.497c-0.043-4.773,0.021-10.085,0.194-15.938C401.925,132.209,401.935,131.244,401.989,130.615z"/>
</g>
<g>
<path d="M438.332,140.752c0.104-0.685,1.11-0.959,3.016-0.823c1.474-0.327,2.438-0.219,2.895,0.324l0.769,0.5
c-1.752,0.37-2.794,3.268-3.127,8.695l0.49,1.443c-0.179,0.518-1.005,0.786-2.479,0.805c-1.209,0-1.813-0.75-1.813-2.248
c-0.271-2.941-0.339-5.356-0.203-7.243L438.332,140.752z M446.139,142.205c0-0.666,0.817-0.956,2.451-0.87
c1.147,0.167,1.828,0.457,2.044,0.87c0,0.635-1.165,0.953-3.496,0.953L446.139,142.205z"/>
</g>
<g>
<path d="M7.636,175.3c2.257-0.37,4.276-0.555,6.059-0.555c0.986,0.592,1.467,1.298,1.443,2.118c0,0.598-1.449,1.175-4.347,1.73
c-1.018,0-1.468,2.285-1.351,6.854c0.185,1.344,0.154,2.017-0.093,2.017c-0.111,0.419-1.076,0.536-2.895,0.352
c-0.573,0-0.833-2.723-0.777-8.168C5.977,177.335,6.631,175.886,7.636,175.3z"/>
</g>
<g>
<path d="M43.683,176.752c0.721-0.364,1.757-0.389,3.108-0.074c2.664-0.234,4.134,0.274,4.412,1.526
c0.943,3.681,1.406,5.704,1.387,6.068c0,2.38-2.414,3.546-7.243,3.496c-2.756-0.339-4.082-2.562-3.977-6.669
C41.444,179.62,42.215,178.171,43.683,176.752z M46.134,178.205c-1.24,0.875-1.875,2.325-1.906,4.347
c0,1.751,0.82,2.716,2.46,2.896c2.343,0.024,3.74-1.909,4.19-5.8c-1.863-1.844-3.225-2.766-4.088-2.766L46.134,178.205z"/>
</g>
<g>
<path d="M84.807,173.857c0.271-0.037,1.048-0.475,2.331-1.313c1.449,0,2.174,2.368,2.174,7.104
c-0.567,1.653-0.808,2.633-0.722,2.941c0.228,0,0.564,1.434,1.008,4.301c-0.765,1.257-3.515,1.85-8.251,1.776
c-2.374-0.21-3.53-2.732-3.468-7.566c0.043-3.219,1.199-4.871,3.468-4.958l0.953,0.61c-1.351,0.129-1.989,2.543-1.915,7.243
c0.524,0.838,1.81,1.187,3.857,1.045c1.732-0.32,2.556-1.634,2.47-3.94c-1.967-2.898-3.204-4.347-3.709-4.347
c-0.055-1.394,0.358-2.09,1.24-2.09L84.807,173.857z"/>
</g>
<g>
<path d="M124.183,175.3c1.239-0.117,1.917,0.367,2.035,1.452c-0.598,3.194-1.572,5.127-2.923,5.799
c-0.006,2.017,0.425,3.025,1.295,3.025c0.148,1.098,0.148,2.532,0,4.301c-0.623,1.449-1.588,2.174-2.895,2.174
c-0.37-2.522-1.338-3.789-2.904-3.802c-3.059-0.69-4.588-2.109-4.588-4.255c0.104,0,0.188-1.366,0.25-4.098
c0.357,0,0.469,0.885,0.333,2.654c2.072,1.986,3.469,2.951,4.19,2.896c1.295-0.191,2.587-1.156,3.876-2.896
c-0.863,0-1.249-1.776-1.156-5.328C121.695,176.83,122.524,176.188,124.183,175.3z M115.414,176.752
c0.29-0.561,0.935-0.947,1.933-1.156l1.203,1.156c-0.993,0.555-1.877,1.797-2.655,3.728c-0.882,0-1.215-0.758-0.999-2.275
L115.414,176.752z"/>
</g>
<g>
<path d="M151.793,172.405c0-0.123,0.54-0.123,1.619,0c0,0.66,0.777,1.625,2.331,2.896c0.352,0.549,0.518,1.045,0.5,1.489
c-0.241,0.869-1.088,1.822-2.544,2.858c-0.419,1.56-0.521,3.493-0.305,5.8c0.382,1.289,0.367,1.933-0.046,1.933
c-2.152,0.223-3.259,0.059-3.32-0.49c-0.111-7.727,0.16-11.59,0.814-11.59C151.044,173.74,151.362,172.775,151.793,172.405z"/>
</g>
<g>
<path d="M186.822,176.752c0-0.457,0.842-0.602,2.525-0.435l1.425,0.435c0,0.66-1.045,2.593-3.136,5.799
c0,1.967,0.675,2.932,2.026,2.896c1.924,0,3.003-1.449,3.237-4.348l0.795-1.175c1.406,0,2.057,1.841,1.952,5.522
c-0.173,1.652-2.272,2.46-6.299,2.423c-2.559-0.086-3.838-0.894-3.838-2.423C185.706,179.651,186.144,176.752,186.822,176.752z
M190.836,176.752c1.215-0.253,1.875-0.253,1.979,0C192.711,177.178,192.051,177.178,190.836,176.752z"/>
</g>
<g>
<path d="M222.313,173.857c0.241-0.616,0.768-0.956,1.582-1.017c2.041,0.172,3.006,1.579,2.896,4.218
c-0.747,0-1.12,1.347-1.12,4.042c0.117,2.257,0.688,4.187,1.711,5.791c-0.617,0.765-1.779,1.144-3.487,1.138
c-1.35,0-2.025-2.31-2.025-6.929C221.875,176.296,222.023,173.882,222.313,173.857z"/>
</g>
<g>
<path d="M259.35,176.752c0.419-0.352,0.73-0.352,0.934,0c0.191,5.796,0.567,8.695,1.129,8.695c0.117,0.752,0.799,1.233,2.044,1.443
c-1.233,0.444-2.42,0.644-3.561,0.601c-1.252,0-1.878-2.13-1.878-6.392C258.146,178.202,258.591,176.752,259.35,176.752z
M266.444,176.752c0.376-0.327,1.091-0.293,2.146,0.102c0.364,0,0.364,1.958,0,5.874l-0.823,1.268c0.616,0,0.891,0.577,0.823,1.729
c0,0.906-1.23,1.295-3.69,1.166c0.136-0.9,0.712-1.865,1.729-2.895c0.006-0.598-0.305-2.578-0.935-5.938L266.444,176.752z"/>
</g>
<g>
<path d="M294.425,175.3c1.319,0.191,1.979,1.64,1.979,4.347c0.752,1.924,1.547,2.886,2.386,2.886c0.852,0,1.675-1.927,2.47-5.781
c0.796-0.98,1.446-1.465,1.952-1.452c0.542,0,0.771,0.968,0.685,2.904c0,1.412-1.252,4.307-3.756,8.686
c-1.399,0.308-2.43,0.308-3.089,0c-1.918-3.151-3.201-6.53-3.849-10.138L294.425,175.3z"/>
</g>
<g>
<path d="M329.62,176.752l0.832-1.036c1.252,0,2.087,1.794,2.507,5.383c0.327,0.654,0.938,1.132,1.831,1.434
c0.716-0.814,1.199-1.662,1.452-2.543c0.537,0.043,0.66,0.897,0.37,2.562c-0.049,3.293-1.138,4.939-3.265,4.939
C332.139,187.491,330.896,183.912,329.62,176.752z M336.279,178.205l1.415-0.851c0.29,0.469,0.29,1.403,0,2.803
C336.807,179.854,336.335,179.204,336.279,178.205z M343.393,179.647c0.444-0.012,0.555,1.921,0.333,5.8
c-0.247,1.283-1.292,1.899-3.136,1.85c-0.642,0-0.869-1.582-0.685-4.745C339.905,181.103,341.067,180.135,343.393,179.647z"/>
</g>
<g>
<path d="M366.406,176.752c0.24-0.586,0.736-0.9,1.489-0.943c0.641,0,1.605,0.838,2.895,2.516c0.574-1.424,2.022-2.137,4.348-2.137
c0.309,0.259,0.309,0.752,0,1.48c-1.252,1.887-1.878,3.515-1.878,4.884c1.77,2.115,2.655,3.562,2.655,4.338
c-0.278,0.388-1.073,0.388-2.387,0c-0.845-1.03-1.758-1.81-2.738-2.34c-1.072,0-2.038,0.79-2.895,2.368
c-1.079,0.376-1.974,0.367-2.683-0.028c2.232-3.86,3.502-5.791,3.811-5.791c0.056-1.239-0.32-1.859-1.128-1.859
C367.068,178.13,366.572,177.301,366.406,176.752z"/>
</g>
<g>
<path d="M402.092,176.752c0.974-0.124,1.461,0.361,1.461,1.452l-1.101,0.833C402.125,179.037,402.005,178.275,402.092,176.752z
M409.445,176.752c1.251-0.173,1.877-0.173,1.877,0c0.087,1.566-0.369,3.98-1.368,7.243c0,1.831-1.536,3.688-4.606,5.568
c-2.085,0-3.108-2.337-3.071-7.012c0-1.356,0.059-2.035,0.176-2.035l1.443-0.361c0.968,1.733,1.452,2.846,1.452,3.339
c1.874-0.049,2.84-0.968,2.895-2.757C409.044,179.216,409.445,177.887,409.445,176.752z"/>
</g>
<g>
<path d="M442.698,176.752c0.222-0.592,1.221-0.879,2.996-0.86c1.042,0.043,1.616,0.33,1.721,0.86
c-0.123,1.276-1.665,3.256-4.625,5.938l-0.925,1.305c0,0.765,1.758,1.147,5.272,1.147c0.543,0,0.814,0.583,0.814,1.748
c0,0.678-3.167,0.941-9.5,0.787c-0.975,0-1.458-0.275-1.452-0.824c0-1.147,1.193-3.064,3.58-5.753
C441.887,178.202,442.593,176.752,442.698,176.752z"/>
</g>
<g>
<path d="M12.374,211.181c1.007-0.384,1.966-0.384,2.877,0c-1.145,3.178-1.718,5.057-1.718,5.639
c-0.03,4.85,1.499,7.274,4.586,7.274c2.392-0.599,3.588-2.557,3.588-5.872c0.246-3.633,0.458-5.449,0.638-5.449l1.403-0.126
c0.522,1.75,0.713,5.018,0.576,9.802c-0.168,3.759-0.716,5.639-1.646,5.639c-0.132,0.407-0.447,0.407-0.944,0
c-1.253-1.331-2.458-1.996-3.615-1.996c-4.376,0.029-6.829-1.185-7.356-3.643c-0.414-1.061-0.555-2.938-0.423-5.629
C10.604,213.947,11.282,212.067,12.374,211.181z M22.193,211.181c0-0.108,0.54-0.108,1.619,0l-0.063,1.025
C22.712,212.206,22.193,211.864,22.193,211.181z"/>
<path d="M30.26,215.407c0.408-0.342,0.71-0.342,0.908,0c0.186,5.636,0.552,8.453,1.097,8.453c0.114,0.731,0.776,1.199,1.987,1.402
c-1.199,0.432-2.353,0.627-3.462,0.585c-1.217,0-1.826-2.071-1.826-6.214C29.091,216.816,29.522,215.407,30.26,215.407z
M37.157,215.407c0.366-0.318,1.061-0.285,2.086,0.099c0.354,0,0.354,1.903,0,5.711l-0.8,1.231c0.599,0,0.866,0.561,0.8,1.682
c0,0.882-1.196,1.259-3.588,1.133c0.132-0.875,0.692-1.813,1.682-2.814c0.006-0.581-0.296-2.506-0.908-5.773L37.157,215.407z"/>
<path d="M45.161,215.407c0.947-0.12,1.499-0.12,1.655,0c-0.276,2.817-0.234,4.227,0.126,4.227
c-0.198,0.881-0.414,1.819-0.647,2.814c0.174,0.642,1.109,0.972,2.806,0.989c0.342-0.342,1.28-0.42,2.814-0.233
c0.348,0.365,0.348,0.875,0,1.528c-2.038,1.085-4.385,1.562-7.041,1.43c-1.679,0-2.488-1.705-2.428-5.116
C42.876,217.286,43.782,215.407,45.161,215.407z M48.902,215.407c0-0.072,0.509-0.072,1.528,0
C49.411,215.515,48.902,215.515,48.902,215.407z M50.062,216.819l0.45-1.386c0.977,0,1.445,0.564,1.403,1.691
C50.679,217.316,50.062,217.215,50.062,216.819z"/>
<path d="M56.042,211.181c0-0.12,0.524-0.12,1.574,0c0,0.642,0.755,1.579,2.266,2.814c0.342,0.534,0.504,1.017,0.486,1.448
c-0.234,0.845-1.058,1.771-2.473,2.778c-0.408,1.517-0.507,3.396-0.297,5.639c0.372,1.253,0.357,1.88-0.045,1.88
c-2.092,0.216-3.168,0.057-3.229-0.478c-0.108-7.512,0.156-11.268,0.792-11.268C55.313,212.479,55.622,211.54,56.042,211.181z"/>
<path d="M63.056,212.592c0.234-0.599,0.747-0.929,1.538-0.988c1.984,0.167,2.922,1.534,2.814,4.101c-0.726,0-1.088,1.31-1.088,3.93
c0.114,2.194,0.668,4.07,1.664,5.629c-0.6,0.744-1.73,1.112-3.39,1.106c-1.313,0-1.97-2.245-1.97-6.735
C62.63,214.964,62.774,212.616,63.056,212.592z"/>
<path d="M74.359,215.407c0.216-0.576,1.187-0.854,2.914-0.837c1.013,0.042,1.571,0.321,1.673,0.837
c-0.12,1.241-1.619,3.165-4.497,5.773l-0.899,1.268c0,0.743,1.709,1.115,5.126,1.115c0.528,0,0.792,0.566,0.792,1.699
c0,0.66-3.079,0.915-9.235,0.765c-0.948,0-1.418-0.267-1.412-0.8c0-1.115,1.16-2.979,3.48-5.594
C73.571,216.816,74.257,215.407,74.359,215.407z"/>
<path d="M104.313,205.551c0.054-0.233,0.545-0.462,1.475-0.684c0.749,0,1.028,1.166,0.836,3.498c-0.383,0-0.551,0.938-0.503,2.815
c0.54,0,0.743,1.879,0.611,5.639c-0.132,0-0.18,1.876-0.144,5.629c-0.204,0.318-0.351,1.256-0.441,2.814
c0.444,0,0.666,0.941,0.666,2.824c-0.288,2.272-1.097,3.408-2.428,3.408l-0.81-0.594c1.157-2.823,1.651-5.171,1.484-7.041
c-0.713-1.529-1.028-5.285-0.944-11.269C104.2,212.592,104.266,210.245,104.313,205.551z"/>
<path d="M111.211,215.407c0.702-0.354,1.708-0.378,3.021-0.072c2.59-0.228,4.02,0.267,4.29,1.484
c0.917,3.579,1.367,5.545,1.349,5.898c0,2.314-2.347,3.447-7.042,3.399c-2.68-0.329-3.969-2.491-3.867-6.483
C109.035,218.194,109.784,216.786,111.211,215.407z M113.594,216.819c-1.205,0.851-1.823,2.26-1.853,4.227
c0,1.702,0.797,2.641,2.392,2.814c2.278,0.024,3.636-1.855,4.074-5.639c-1.811-1.792-3.136-2.688-3.975-2.688L113.594,216.819z"/>
<path d="M123.432,215.407c0.587-0.558,1.28-0.885,2.077-0.98c3.765,0.527,5.642,1.337,5.629,2.428
c-1.876,0.246-2.814-0.06-2.814-0.917c-1.481-0.144-2.221,0.15-2.221,0.882c-1.259,0.545-1.856,2.422-1.79,5.629
c0.09,0.72,0.956,1.146,2.599,1.277c0.995,0,2.404-1.07,4.227-3.211c0.462,0.414,0.642,1.529,0.54,3.346
c-0.761,1.685-2.818,2.497-6.169,2.437c-2.218-0.365-3.627-2.125-4.227-5.278C121.342,218.404,122.059,216.534,123.432,215.407z"/>
<path d="M133.701,209.777c0.252-0.545,0.807-0.902,1.664-1.07c0.971,0,1.441,0.453,1.412,1.358
c-0.132,2.775,0.195,5.494,0.98,8.156c-0.372,4.928-1.169,7.551-2.392,7.869c-1.631,0-2.446-1.682-2.446-5.045
C132.918,219.391,133.179,215.635,133.701,209.777z"/>
<path d="M163.862,213.995c1.283,0.186,1.925,1.595,1.925,4.227c0.731,1.87,1.504,2.806,2.32,2.806c0.828,0,1.628-1.873,2.401-5.62
c0.773-0.953,1.406-1.424,1.897-1.412c0.527,0,0.749,0.941,0.666,2.824c0,1.372-1.217,4.188-3.651,8.443
c-1.361,0.301-2.362,0.301-3.003,0c-1.865-3.063-3.112-6.349-3.741-9.855L163.862,213.995z"/>
<path d="M177.666,215.407c1.241-0.228,2.042-0.228,2.401,0c0.12,0.821-0.222,2.701-1.025,5.639c0,1.769,0.582,2.652,1.745,2.652
c1.847,0,2.77-0.884,2.77-2.652c0-1.661,0.485-2.764,1.457-3.31c0.797,1.163,1.196,2.733,1.196,4.712c0,2.5-2.275,3.75-6.826,3.75
c-2.77-0.275-4.113-2.464-4.029-6.564C175.565,217.763,176.335,216.354,177.666,215.407z"/>
<path d="M190.4,213.995c2.194-0.359,4.158-0.539,5.89-0.539c0.959,0.575,1.427,1.262,1.403,2.059c0,0.582-1.409,1.143-4.227,1.682
c-0.989,0-1.427,2.222-1.313,6.664c0.18,1.307,0.15,1.96-0.09,1.96c-0.108,0.408-1.046,0.521-2.814,0.342
c-0.558,0-0.81-2.646-0.756-7.94C188.787,215.974,189.422,214.564,190.4,213.995z"/>
<path d="M199.976,216.819c0.3-0.798,0.947-1.238,1.943-1.322l1.007,1.322c-0.659,0-0.953,1.876-0.881,5.629
c1.445,1.295,2.812,1.942,4.101,1.942l0.863,0.872c0,0.438-1.226,0.647-3.678,0.63c-2.548-0.204-3.834-2.761-3.858-7.671
L199.976,216.819z M202.584,213.995c0.864-0.216,1.871-0.216,3.022,0c-1.289,1.355-2.047,2.032-2.275,2.032l-1.16-0.62
L202.584,213.995z M207,213.995c1.127-0.252,1.781-0.687,1.96-1.304c1.241,0.252,1.837,2.095,1.79,5.53
c-0.617,1.955-1.244,2.896-1.879,2.824c-1.013-3.688-2.008-5.567-2.985-5.639C206.041,215.245,206.412,214.774,207,213.995z"/>
<path d="M216.37,215.407c0-0.443,0.818-0.585,2.455-0.423l1.385,0.423c0,0.642-1.016,2.521-3.048,5.639
c0,1.912,0.656,2.851,1.969,2.814c1.871,0,2.92-1.409,3.147-4.227l0.773-1.143c1.367,0,2,1.79,1.897,5.369
c-0.168,1.606-2.209,2.392-6.124,2.356c-2.488-0.084-3.732-0.87-3.732-2.356C215.285,218.225,215.71,215.407,216.37,215.407z
M220.272,215.407c1.181-0.246,1.823-0.246,1.925,0C222.095,215.82,221.454,215.82,220.272,215.407z"/>
<path d="M250.083,205.551c0.335-0.479,0.83-0.74,1.484-0.782c1.097,0,1.646,1.199,1.646,3.597c0.156,0.15-0.023,4.377-0.54,12.681
c0,2.236,1.51,3.306,4.532,3.21c2.77-1.499,4.123-4.919,4.057-10.261c-1.961-0.821-2.846-1.9-2.652-3.237
c2.02-0.054,3.113,0.558,3.281,1.834c1.037,0.45,1.596,3.268,1.674,8.454c-0.906,3.039-2.559,4.634-4.955,4.784
c-5.906,0.071-8.859-0.117-8.859-0.567C249.84,225.263,249.952,218.692,250.083,205.551z"/>
<path d="M265.263,211.181c0.239-0.708,1.31-1.062,3.21-1.062c0.006,0.468,0.944,0.705,2.814,0.711
c0.852-0.534,2.261-0.717,4.227-0.549c0.504,0.563,2.852,0.765,7.042,0.603c2.134,0,3.201,1.037,3.201,3.111
c-0.42,0.233-1.017,0.012-1.789-0.665c0-0.378-0.941-0.525-2.824-0.441c-2.128,0.42-3.31,1.73-3.543,3.931
c-0.42,0-0.498,2.347-0.234,7.041c-0.186,0.978-0.803,1.57-1.853,1.78c-0.815,0-1.223-0.594-1.223-1.78
c0.743-3.441,1.013-6.259,0.81-8.453c0-0.995-1.271-2.048-3.813-3.156c-1.84,0.539-2.761,2.529-2.761,5.971
c-0.107,0.252-0.126,2.354-0.054,6.304c0,0.689-0.926,0.936-2.778,0.737c0.306-2.535,0.407-5.821,0.306-9.855
C265.418,213.885,265.172,212.476,265.263,211.181z"/>
<path d="M289.462,209.777c2.35-0.06,3.524,2.287,3.524,7.042c0,0.917,1.218,1.676,3.651,2.274
c-0.114,4.515-1.055,6.771-2.823,6.771c-1.445,0-2.168-1.139-2.168-3.417c-0.023-1.157-0.989-4.442-2.896-9.856
C288.679,210.716,288.916,209.777,289.462,209.777z M297.456,212.592c0.06-0.719,0.726-1.15,1.996-1.295
c1.157,0.474,1.628,1.644,1.412,3.508c-0.354,0.684-0.824,1.276-1.412,1.78C298.122,216.585,297.456,215.254,297.456,212.592z
M301.746,219.634c0.054-0.443,0.698-0.756,1.933-0.936c0.864,0,1.466,1.25,1.808,3.75c-0.977,1.973-1.579,2.959-1.808,2.959
c-1.438,0-2.284-0.986-2.535-2.959C301.407,221.765,301.607,220.827,301.746,219.634z"/>
<path d="M334.219,223.86c0-0.479,0.734-0.588,2.203-0.324c2.644,0.156,4.053-0.113,4.227-0.809
c2.578,0.132,3.867,1.447,3.867,3.947c-1.092,3.633-2.38,5.45-3.867,5.45c-1.954-0.294-2.896-0.747-2.823-1.358
c1.049-1.175,1.52-2.102,1.411-2.778c-3.135-1.434-4.703-2.342-4.703-2.726L334.219,223.86z M336.044,213.995
c0.972-0.222,1.457,0.249,1.457,1.412c-0.839,0.671-1.673,1.609-2.5,2.814c-0.323-1.049-0.32-2.089,0.009-3.12L336.044,213.995z
M340.379,215.407c0.401-0.103,0.491,0,0.27,0.306L340.379,215.407z M341.395,216.819l0.657-0.711l0.755,0.711
C342.273,217.029,341.803,217.029,341.395,216.819z"/>
<path d="M351.466,205.551c0.036-0.857,0.653-1.325,1.853-1.402c0.995,0,1.466,1.124,1.412,3.372c-0.51,1.271-0.656,2.491-0.44,3.66
c0.312,0,0.455,3.756,0.432,11.268c0,2.561-0.468,3.84-1.403,3.84c-1.379,0-2.068-0.81-2.068-2.428
c-0.042-4.641,0.021-9.806,0.189-15.495C351.403,207.101,351.412,206.162,351.466,205.551z"/>
<path d="M357.194,215.407c0.947-0.12,1.421,0.351,1.421,1.412l-1.07,0.809C357.227,217.628,357.11,216.888,357.194,215.407z
M364.343,215.407c1.218-0.168,1.826-0.168,1.826,0c0.084,1.522-0.36,3.87-1.331,7.041c0,1.78-1.493,3.585-4.479,5.414
c-2.026,0-3.021-2.272-2.985-6.816c0-1.319,0.057-1.979,0.171-1.979l1.402-0.351c0.941,1.685,1.412,2.767,1.412,3.246
c1.822-0.048,2.761-0.941,2.814-2.68C363.953,217.802,364.343,216.51,364.343,215.407z"/>
<path d="M376.402,212.592c0.264-0.035,1.02-0.461,2.267-1.276c1.408,0,2.113,2.302,2.113,6.906
c-0.552,1.606-0.786,2.561-0.702,2.859c0.222,0,0.549,1.395,0.98,4.182c-0.743,1.224-3.417,1.799-8.021,1.728
c-2.309-0.204-3.433-2.656-3.372-7.356c0.042-3.13,1.166-4.736,3.372-4.82l0.927,0.594c-1.313,0.126-1.934,2.473-1.862,7.041
c0.51,0.815,1.76,1.154,3.75,1.017c1.685-0.312,2.485-1.589,2.401-3.831c-1.912-2.817-3.114-4.227-3.606-4.227
c-0.054-1.355,0.348-2.032,1.205-2.032L376.402,212.592z"/>
<path d="M389.64,211.181c0.738-0.162,1.775,0.92,3.112,3.246c0.077,1.595-0.171,2.393-0.747,2.393
c0.042,1.978-0.161,4.325-0.611,7.041l0.854,1.402c0,0.857-1.238,1.176-3.714,0.954c-0.702,0-1.025-2.665-0.972-7.995
c0.216-4.4,0.54-6.601,0.972-6.601L389.64,211.181z"/>
<path d="M420.206,209.777c1.648-0.162,2.474,0.314,2.474,1.43c0.096,2.278-0.436,3.679-1.592,4.2c-0.042,0,0.146,3.285,0.566,9.855
c-0.264,0.702-1.328,0.996-3.192,0.882c-0.474,0-0.63-1.232-0.468-3.696c-0.144-7.512,0.204-11.268,1.043-11.268
C419.067,210.383,419.457,209.915,420.206,209.777z"/>
<path d="M426.33,204.139c1.343-0.071,2.005,0.594,1.987,1.997c0,0.839-0.407,2.053-1.223,3.642
c0.581,0.618,0.863,5.779,0.845,15.485c0,0.552-0.813,0.756-2.437,0.612c-0.372,0-0.501-3.489-0.387-10.468
c0.222-3.1,0.213-6.385-0.027-9.856C425.113,204.729,425.526,204.259,426.33,204.139z"/>
<path d="M431.087,215.407c0.233-0.569,0.716-0.875,1.447-0.917c0.624,0,1.562,0.814,2.815,2.445
c0.558-1.385,1.966-2.077,4.227-2.077c0.3,0.252,0.3,0.731,0,1.438c-1.218,1.835-1.826,3.418-1.826,4.749
c1.721,2.056,2.581,3.462,2.581,4.217c-0.27,0.378-1.043,0.378-2.32,0c-0.821-1.001-1.708-1.759-2.661-2.274
c-1.044,0-1.981,0.768-2.815,2.302c-1.049,0.366-1.918,0.356-2.607-0.027c2.17-3.753,3.405-5.629,3.705-5.629
c0.054-1.205-0.313-1.808-1.098-1.808C431.731,216.747,431.248,215.94,431.087,215.407z"/>
<path d="M441.455,219.634c0-0.216,1.253-0.543,3.759-0.98c1.104,0,1.57,0.636,1.403,1.906c0.401,2.104,0.584,3.673,0.548,4.703
c-0.455,1.751-2.044,2.86-4.766,3.328c-1.721,0-2.779-1.577-3.175-4.73C439.723,221.414,440.466,220.006,441.455,219.634z"/>
<path d="M11.741,242.777c0-0.032,0.396-0.032,1.187,0c0.67,2.688,0.973,4.498,0.909,5.433c-0.111,5.207-0.053,7.811,0.173,7.811
c0.911,0.671,1.274,1.427,1.089,2.269c0,0.314-0.724,0.438-2.171,0.368c-1.401,0-2.102-2.035-2.102-6.104
c0.051-1.883-0.197-3.693-0.743-5.433C10.448,244.226,11.001,242.777,11.741,242.777z"/>
<path d="M16.652,250.381l0.625-0.777c0.938,0,1.565,1.347,1.88,4.038c0.245,0.49,0.703,0.849,1.374,1.075
c0.537-0.61,0.899-1.246,1.089-1.908c0.402,0.033,0.495,0.673,0.277,1.922c-0.037,2.47-0.854,3.705-2.449,3.705
C18.542,258.436,17.61,255.75,16.652,250.381z M21.647,251.47l1.062-0.638c0.217,0.352,0.217,1.052,0,2.102
C22.042,252.707,21.689,252.22,21.647,251.47z M26.982,252.553c0.333-0.01,0.416,1.44,0.25,4.35
c-0.185,0.962-0.969,1.424-2.352,1.387c-0.481,0-0.652-1.186-0.513-3.559C24.367,253.644,25.238,252.918,26.982,252.553z"/>
<path d="M31.158,250.381c0.958-0.176,1.575-0.176,1.852,0c0.093,0.634-0.171,2.084-0.791,4.35c0,1.364,0.448,2.047,1.346,2.047
c1.424,0,2.137-0.683,2.137-2.047c0-1.281,0.375-2.132,1.124-2.553c0.615,0.897,0.922,2.108,0.922,3.635
c0,1.929-1.755,2.894-5.265,2.894c-2.137-0.213-3.173-1.901-3.108-5.064C29.537,252.198,30.131,251.111,31.158,250.381z"/>
<path d="M39.746,242.777c0.028-0.661,0.504-1.021,1.429-1.082c0.768,0,1.131,0.867,1.089,2.602c-0.394,0.98-0.507,1.922-0.34,2.823
c0.241,0,0.352,2.897,0.333,8.692c0,1.976-0.36,2.963-1.082,2.963c-1.064,0-1.596-0.625-1.596-1.873
c-0.032-3.58,0.016-7.564,0.146-11.953C39.698,243.974,39.705,243.249,39.746,242.777z"/>
<path d="M44.415,249.292c0.99,0.144,1.484,1.23,1.484,3.261c0.564,1.442,1.161,2.164,1.79,2.164c0.638,0,1.256-1.445,1.852-4.336
c0.597-0.735,1.084-1.099,1.464-1.089c0.407,0,0.578,0.726,0.514,2.178c0,1.06-0.939,3.23-2.817,6.515
c-1.05,0.231-1.822,0.231-2.317,0c-1.438-2.363-2.4-4.897-2.886-7.604L44.415,249.292z"/>
<path d="M55.063,250.381c0.958-0.176,1.575-0.176,1.852,0c0.093,0.634-0.171,2.084-0.791,4.35c0,1.364,0.448,2.047,1.346,2.047
c1.424,0,2.137-0.683,2.137-2.047c0-1.281,0.375-2.132,1.124-2.553c0.615,0.897,0.922,2.108,0.922,3.635
c0,1.929-1.755,2.894-5.265,2.894c-2.137-0.213-3.173-1.901-3.108-5.064C53.442,252.198,54.036,251.111,55.063,250.381z"/>
<path d="M84.837,250.381c0.167-0.444,0.916-0.659,2.248-0.646c0.782,0.033,1.212,0.248,1.291,0.646
c-0.093,0.957-1.249,2.442-3.469,4.454l-0.694,0.978c0,0.574,1.318,0.86,3.955,0.86c0.407,0,0.61,0.438,0.61,1.312
c0,0.509-2.375,0.705-7.125,0.59c-0.731,0-1.094-0.206-1.089-0.618c0-0.859,0.895-2.298,2.685-4.314
C84.229,251.468,84.759,250.381,84.837,250.381z"/>
<path d="M90.984,241.688c1.036-0.056,1.547,0.458,1.533,1.54c0,0.647-0.315,1.584-0.944,2.81c0.449,0.477,0.666,4.458,0.652,11.946
c0,0.426-0.627,0.583-1.88,0.472c-0.287,0-0.386-2.691-0.298-8.075c0.171-2.391,0.164-4.926-0.021-7.604
C90.045,242.144,90.364,241.781,90.984,241.688z"/>
<path d="M95.16,256.902c0-0.37,0.566-0.453,1.7-0.25c2.04,0.12,3.126-0.088,3.26-0.624c1.989,0.102,2.983,1.116,2.983,3.045
c-0.842,2.803-1.836,4.204-2.983,4.204c-1.508-0.227-2.234-0.576-2.178-1.048c0.809-0.906,1.172-1.621,1.089-2.144
c-2.419-1.105-3.628-1.806-3.628-2.102L95.16,256.902z M96.568,249.292c0.749-0.171,1.124,0.191,1.124,1.089
c-0.647,0.518-1.29,1.242-1.928,2.172c-0.25-0.81-0.248-1.612,0.007-2.407L96.568,249.292z M99.912,250.381
c0.31-0.078,0.379,0,0.208,0.236L99.912,250.381z M100.695,251.47l0.507-0.548l0.583,0.548
C101.373,251.632,101.01,251.632,100.695,251.47z"/>
<path d="M109.284,256.902c0-0.37,0.566-0.453,1.7-0.25c2.04,0.12,3.126-0.088,3.26-0.624c1.989,0.102,2.983,1.116,2.983,3.045
c-0.842,2.803-1.836,4.204-2.983,4.204c-1.508-0.227-2.234-0.576-2.178-1.048c0.809-0.906,1.172-1.621,1.089-2.144
c-2.419-1.105-3.628-1.806-3.628-2.102L109.284,256.902z M110.692,249.292c0.749-0.171,1.124,0.191,1.124,1.089
c-0.647,0.518-1.29,1.242-1.928,2.172c-0.25-0.81-0.248-1.612,0.007-2.407L110.692,249.292z M114.036,250.381
c0.31-0.078,0.379,0,0.208,0.236L114.036,250.381z M114.819,251.47l0.507-0.548l0.583,0.548
C115.497,251.632,115.134,251.632,114.819,251.47z"/>
<path d="M123.609,250.381c0.314-0.264,0.548-0.264,0.701,0c0.143,4.348,0.425,6.521,0.846,6.521
c0.088,0.563,0.599,0.925,1.533,1.082c-0.925,0.333-1.815,0.483-2.671,0.451c-0.939,0-1.408-1.599-1.408-4.794
C122.708,251.468,123.041,250.381,123.609,250.381z M128.93,250.381c0.282-0.245,0.818-0.22,1.609,0.076
c0.273,0,0.273,1.469,0,4.405l-0.617,0.95c0.462,0,0.668,0.433,0.617,1.298c0,0.68-0.922,0.971-2.768,0.874
c0.102-0.676,0.534-1.399,1.297-2.172c0.004-0.448-0.229-1.933-0.701-4.453L128.93,250.381z"/>
<path d="M134.806,247.12c0-0.092,0.404-0.092,1.214,0c0,0.495,0.583,1.219,1.748,2.172c0.264,0.411,0.389,0.783,0.375,1.116
c-0.181,0.652-0.816,1.367-1.908,2.145c-0.314,1.17-0.391,2.619-0.229,4.35c0.287,0.966,0.275,1.449-0.035,1.449
c-1.614,0.167-2.444,0.044-2.491-0.367c-0.083-5.795,0.12-8.692,0.61-8.692C134.244,248.122,134.482,247.397,134.806,247.12z"/>
<path d="M141.625,250.381c0.73-0.093,1.156-0.093,1.276,0c-0.213,2.174-0.181,3.261,0.097,3.261c-0.153,0.68-0.319,1.403-0.5,2.171
c0.134,0.495,0.855,0.75,2.165,0.764c0.263-0.264,0.987-0.324,2.171-0.181c0.268,0.282,0.268,0.676,0,1.18
c-1.573,0.837-3.383,1.204-5.432,1.103c-1.295,0-1.919-1.315-1.873-3.947C139.863,251.831,140.561,250.381,141.625,250.381z
M144.511,250.381c0-0.056,0.393-0.056,1.179,0C144.904,250.464,144.511,250.464,144.511,250.381z M145.406,251.47l0.347-1.068
c0.754,0,1.115,0.436,1.083,1.305C145.882,251.854,145.406,251.775,145.406,251.47z"/>
<path d="M148.909,248.21c0.181-0.463,0.576-0.717,1.187-0.764c1.531,0.13,2.254,1.185,2.171,3.163c-0.56,0-0.839,1.011-0.839,3.032
c0.088,1.692,0.516,3.141,1.283,4.343c-0.462,0.573-1.334,0.857-2.615,0.854c-1.013,0-1.519-1.732-1.519-5.196
C148.581,250.039,148.691,248.229,148.909,248.21z"/>
<path d="M154.722,250.381c0-0.342,0.631-0.451,1.894-0.326l1.068,0.326c0,0.495-0.784,1.945-2.352,4.35
c0,1.476,0.506,2.199,1.52,2.172c1.443,0,2.252-1.087,2.428-3.261l0.597-0.881c1.055,0,1.542,1.38,1.464,4.142
c-0.129,1.239-1.704,1.845-4.724,1.817c-1.919-0.064-2.879-0.671-2.879-1.817C153.885,252.555,154.213,250.381,154.722,250.381z
M157.733,250.381c0.911-0.189,1.406-0.189,1.484,0C159.139,250.7,158.644,250.7,157.733,250.381z"/>
<path d="M188.09,249.292c0.93-0.088,1.438,0.275,1.526,1.089c-0.449,2.396-1.18,3.846-2.192,4.35
c-0.004,1.513,0.319,2.269,0.971,2.269c0.111,0.823,0.111,1.898,0,3.226c-0.467,1.087-1.191,1.631-2.171,1.631
c-0.277-1.892-1.003-2.842-2.178-2.852c-2.294-0.518-3.441-1.582-3.441-3.191c0.079,0,0.141-1.024,0.188-3.073
c0.268,0,0.351,0.664,0.25,1.991c1.554,1.489,2.602,2.213,3.143,2.172c0.971-0.144,1.94-0.867,2.907-2.172
c-0.647,0-0.937-1.332-0.867-3.996C186.224,250.438,186.846,249.958,188.09,249.292z M181.513,250.381
c0.217-0.421,0.701-0.71,1.45-0.867l0.902,0.867c-0.745,0.416-1.409,1.349-1.991,2.796c-0.662,0-0.911-0.569-0.749-1.707
L181.513,250.381z"/>
<path d="M194.5,250.381c0.314-0.264,0.548-0.264,0.701,0c0.143,4.348,0.425,6.521,0.846,6.521c0.088,0.563,0.599,0.925,1.533,1.082
c-0.925,0.333-1.815,0.483-2.671,0.451c-0.939,0-1.408-1.599-1.408-4.794C193.598,251.468,193.931,250.381,194.5,250.381z
M199.821,250.381c0.282-0.245,0.818-0.22,1.609,0.076c0.273,0,0.273,1.469,0,4.405l-0.617,0.95c0.462,0,0.668,0.433,0.617,1.298
c0,0.68-0.922,0.971-2.768,0.874c0.102-0.676,0.534-1.399,1.297-2.172c0.004-0.448-0.229-1.933-0.701-4.453L199.821,250.381z"/>
<path d="M205.329,241.688c1.036-0.056,1.547,0.458,1.533,1.54c0,0.647-0.315,1.584-0.944,2.81
c0.449,0.477,0.666,4.458,0.652,11.946c0,0.426-0.627,0.583-1.88,0.472c-0.287,0-0.386-2.691-0.298-8.075
c0.171-2.391,0.164-4.926-0.021-7.604C204.39,242.144,204.708,241.781,205.329,241.688z"/>
<path d="M209.602,250.381c0.453-0.43,0.987-0.682,1.603-0.756c2.904,0.407,4.352,1.031,4.343,1.873
c-1.448,0.189-2.171-0.047-2.171-0.708c-1.143-0.11-1.714,0.116-1.714,0.68c-0.971,0.421-1.431,1.869-1.38,4.343
c0.069,0.556,0.738,0.884,2.005,0.985c0.768,0,1.854-0.825,3.261-2.477c0.356,0.319,0.495,1.18,0.416,2.581
c-0.587,1.299-2.174,1.926-4.759,1.88c-1.711-0.282-2.798-1.64-3.261-4.072C207.99,252.693,208.543,251.25,209.602,250.381z"/>
<path d="M217.524,246.038c0.194-0.421,0.622-0.696,1.283-0.825c0.749,0,1.112,0.349,1.089,1.047
c-0.102,2.142,0.15,4.239,0.756,6.293c-0.287,3.801-0.902,5.824-1.845,6.069c-1.258,0-1.887-1.297-1.887-3.892
C216.92,253.454,217.122,250.557,217.524,246.038z"/>
<path d="M222.81,242.777c0.028-0.661,0.504-1.021,1.429-1.082c0.768,0,1.131,0.867,1.089,2.602c-0.394,0.98-0.507,1.922-0.34,2.823
c0.241,0,0.352,2.897,0.333,8.692c0,1.976-0.36,2.963-1.082,2.963c-1.064,0-1.596-0.625-1.596-1.873
c-0.032-3.58,0.016-7.564,0.146-11.953C222.761,243.974,222.768,243.249,222.81,242.777z"/>
<path d="M227.228,250.381c0.731-0.093,1.096,0.271,1.096,1.089l-0.825,0.625C227.253,252.095,227.164,251.523,227.228,250.381z
M232.744,250.381c0.938-0.129,1.408-0.129,1.408,0c0.064,1.175-0.278,2.985-1.027,5.432c0,1.374-1.152,2.766-3.455,4.177
c-1.563,0-2.331-1.753-2.303-5.259c0-1.018,0.044-1.526,0.132-1.526l1.082-0.271c0.726,1.3,1.089,2.135,1.089,2.505
c1.406-0.037,2.129-0.727,2.171-2.067C232.443,252.229,232.744,251.231,232.744,250.381z"/>
<path d="M254.88,242.777c0.042-0.18,0.421-0.355,1.138-0.527c0.578,0,0.794,0.9,0.646,2.699c-0.296,0-0.426,0.724-0.389,2.171
c0.417,0,0.574,1.45,0.472,4.35c-0.102,0-0.139,1.448-0.11,4.343c-0.157,0.245-0.271,0.97-0.34,2.172
c0.342,0,0.513,0.726,0.513,2.178c-0.222,1.753-0.846,2.63-1.873,2.63l-0.624-0.458c0.893-2.179,1.274-3.989,1.145-5.432
c-0.551-1.18-0.793-4.077-0.729-8.692C254.792,248.21,254.844,246.398,254.88,242.777z"/>
<path d="M259.95,250.381c0.314-0.264,0.549-0.264,0.701,0c0.144,4.348,0.426,6.521,0.847,6.521
c0.087,0.563,0.599,0.925,1.532,1.082c-0.925,0.333-1.814,0.483-2.671,0.451c-0.938,0-1.408-1.599-1.408-4.794
C259.049,251.468,259.382,250.381,259.95,250.381z M265.271,250.381c0.282-0.245,0.818-0.22,1.609,0.076
c0.272,0,0.272,1.469,0,4.405l-0.617,0.95c0.462,0,0.668,0.433,0.617,1.298c0,0.68-0.923,0.971-2.768,0.874
c0.102-0.676,0.534-1.399,1.297-2.172c0.005-0.448-0.229-1.933-0.7-4.453L265.271,250.381z"/>
<path d="M270.052,250.381c0.078-0.514,0.832-0.719,2.262-0.617c1.105-0.245,1.829-0.164,2.171,0.242l0.576,0.375
c-1.313,0.277-2.095,2.451-2.345,6.521l0.367,1.082c-0.134,0.389-0.754,0.59-1.859,0.604c-0.906,0-1.359-0.563-1.359-1.686
c-0.203-2.206-0.254-4.017-0.152-5.433L270.052,250.381z M275.907,251.47c0-0.499,0.612-0.717,1.838-0.651
c0.86,0.124,1.371,0.342,1.533,0.651c0,0.477-0.874,0.715-2.622,0.715L275.907,251.47z"/>
<path d="M285.771,248.21c0.203-0.028,0.786-0.356,1.748-0.985c1.087,0,1.63,1.775,1.63,5.328c-0.426,1.239-0.605,1.975-0.541,2.206
c0.171,0,0.423,1.075,0.756,3.226c-0.573,0.943-2.636,1.388-6.188,1.332c-1.781-0.157-2.648-2.049-2.602-5.675
c0.032-2.414,0.899-3.653,2.602-3.719l0.714,0.458c-1.013,0.097-1.491,1.908-1.436,5.432c0.393,0.629,1.357,0.891,2.893,0.784
c1.3-0.24,1.917-1.226,1.853-2.955c-1.476-2.174-2.402-3.261-2.782-3.261c-0.041-1.045,0.269-1.567,0.93-1.567L285.771,248.21z"/>
<path d="M295.976,250.381c0.957-0.176,1.575-0.176,1.853,0c0.092,0.634-0.172,2.084-0.791,4.35c0,1.364,0.448,2.047,1.346,2.047
c1.425,0,2.137-0.683,2.137-2.047c0-1.281,0.375-2.132,1.124-2.553c0.615,0.897,0.923,2.108,0.923,3.635
c0,1.929-1.756,2.894-5.266,2.894c-2.137-0.213-3.173-1.901-3.108-5.064C294.354,252.198,294.949,251.111,295.976,250.381z"/>
<path d="M304.494,251.47c0.231-0.614,0.73-0.955,1.498-1.02l0.777,1.02c-0.509,0-0.735,1.448-0.68,4.343
c1.114,0.999,2.169,1.499,3.163,1.499l0.666,0.673c0,0.338-0.945,0.499-2.837,0.485c-1.966-0.157-2.958-2.13-2.977-5.917
L304.494,251.47z M306.506,249.292c0.666-0.167,1.443-0.167,2.331,0c-0.994,1.045-1.579,1.567-1.755,1.567l-0.896-0.479
L306.506,249.292z M309.912,249.292c0.869-0.194,1.374-0.529,1.513-1.006c0.957,0.194,1.417,1.616,1.38,4.267
c-0.476,1.507-0.959,2.233-1.449,2.178c-0.782-2.844-1.55-4.294-2.304-4.35C309.172,250.256,309.459,249.893,309.912,249.292z"/>
<path d="M335.823,250.381c0.73-0.093,1.156-0.093,1.276,0c-0.213,2.174-0.181,3.261,0.097,3.261
c-0.152,0.68-0.318,1.403-0.499,2.171c0.134,0.495,0.855,0.75,2.164,0.764c0.264-0.264,0.987-0.324,2.172-0.181
c0.268,0.282,0.268,0.676,0,1.18c-1.572,0.837-3.384,1.204-5.433,1.103c-1.295,0-1.919-1.315-1.873-3.947
C334.061,251.831,334.759,250.381,335.823,250.381z M338.709,250.381c0-0.056,0.393-0.056,1.18,0
C339.102,250.464,338.709,250.464,338.709,250.381z M339.604,251.47l0.348-1.068c0.753,0,1.114,0.436,1.082,1.305
C340.08,251.854,339.604,251.775,339.604,251.47z"/>
<path d="M362.212,246.038c1.272-0.125,1.908,0.243,1.908,1.104c0.074,1.757-0.335,2.837-1.228,3.239
c-0.033,0,0.113,2.534,0.437,7.604c-0.203,0.541-1.024,0.768-2.463,0.68c-0.365,0-0.485-0.95-0.36-2.852
c-0.111-5.795,0.157-8.692,0.805-8.692C361.334,246.505,361.634,246.145,362.212,246.038z"/>
<path d="M366.937,241.688c1.036-0.056,1.547,0.458,1.533,1.54c0,0.647-0.314,1.584-0.943,2.81
c0.448,0.477,0.666,4.458,0.651,11.946c0,0.426-0.626,0.583-1.88,0.472c-0.286,0-0.386-2.691-0.298-8.075
c0.171-2.391,0.164-4.926-0.021-7.604C365.997,242.144,366.316,241.781,366.937,241.688z"/>
<path d="M371.528,249.292c1.692-0.277,3.207-0.416,4.544-0.416c0.739,0.443,1.101,0.973,1.082,1.588
c0,0.449-1.087,0.881-3.261,1.298c-0.763,0-1.101,1.713-1.013,5.141c0.139,1.008,0.115,1.512-0.069,1.512
c-0.083,0.314-0.808,0.402-2.172,0.264c-0.43,0-0.624-2.042-0.582-6.125C370.284,250.818,370.774,249.731,371.528,249.292z"/>
<path d="M379.901,250.381c0.453-0.43,0.987-0.682,1.603-0.756c2.904,0.407,4.352,1.031,4.343,1.873
c-1.448,0.189-2.172-0.047-2.172-0.708c-1.143-0.11-1.713,0.116-1.713,0.68c-0.972,0.421-1.432,1.869-1.381,4.343
c0.069,0.556,0.737,0.884,2.005,0.985c0.768,0,1.854-0.825,3.261-2.477c0.355,0.319,0.494,1.18,0.416,2.581
c-0.587,1.299-2.174,1.926-4.759,1.88c-1.712-0.282-2.798-1.64-3.261-4.072C378.289,252.693,378.842,251.25,379.901,250.381z"/>
<path d="M388.878,247.12c0.569-0.125,1.369,0.71,2.4,2.505c0.06,1.23-0.132,1.845-0.576,1.845c0.032,1.526-0.125,3.337-0.472,5.433
l0.659,1.082c0,0.661-0.955,0.906-2.865,0.735c-0.541,0-0.791-2.056-0.749-6.167c0.167-3.396,0.416-5.093,0.749-5.093
L388.878,247.12z"/>
<path d="M411.965,247.12c0.338-0.189,0.777,0.093,1.318,0.847c0.855,0.661,1.542,1.103,2.061,1.325
c-1.693,1.055-2.539,2.867-2.539,5.438c0,1.147,0.883,1.908,2.649,2.282c0,0.074,0.724,0.4,2.172,0.979
c-1.393,0.564-2.84,0.813-4.343,0.749c-2.017,0-3.024-2.063-3.024-6.188C410.609,248.931,411.179,247.12,411.965,247.12z"/>
<path d="M422.897,250.381c0.541-0.272,1.318-0.291,2.331-0.056c1.998-0.176,3.101,0.206,3.309,1.145
c0.708,2.762,1.055,4.278,1.041,4.551c0,1.786-1.811,2.66-5.432,2.623c-2.067-0.255-3.062-1.922-2.983-5.002
C421.219,252.531,421.797,251.444,422.897,250.381z M424.736,251.47c-0.93,0.657-1.406,1.744-1.43,3.261
c0,1.313,0.615,2.037,1.846,2.172c1.757,0.019,2.805-1.432,3.143-4.35c-1.396-1.383-2.419-2.075-3.066-2.075L424.736,251.47z"/>
<path d="M431.722,250.381c0.18-0.439,0.553-0.675,1.116-0.708c0.481,0,1.205,0.63,2.172,1.888c0.43-1.068,1.517-1.603,3.261-1.603
c0.231,0.194,0.231,0.564,0,1.109c-0.939,1.415-1.408,2.637-1.408,3.663c1.327,1.587,1.99,2.671,1.99,3.254
c-0.208,0.291-0.805,0.291-1.789,0c-0.634-0.772-1.318-1.357-2.054-1.755c-0.805,0-1.528,0.592-2.172,1.775
c-0.809,0.282-1.479,0.275-2.012-0.021c1.675-2.896,2.627-4.343,2.858-4.343c0.042-0.93-0.24-1.395-0.847-1.395
C432.219,251.415,431.847,250.793,431.722,250.381z"/>
<path d="M441.045,251.47c0.397-0.23,0.597-0.23,0.597,0c0.833,1.313,1.883,1.971,3.149,1.971c1.521-0.046,2.348,0.384,2.477,1.29
c-0.374,2.933-1.924,4.498-4.647,4.696c-1.258-1.299-1.996-2.864-2.213-4.696c-0.311-0.573-0.338-1.3-0.084-2.178
C440.365,251.924,440.605,251.562,441.045,251.47z"/>
</g>
<g>
<path fill="#231F20" d="M5.62,11.931c0-0.671,3.116-0.893,9.35-0.667c1.824,0.347,3.007,2.34,3.55,5.98
c0.045,0,0.456,2.951,1.232,8.853c-0.482,2.999-2.664,4.499-6.546,4.499c-6.143-0.271-9.214-1.18-9.214-2.725
c-0.354-1.507-0.305-3.87,0.147-7.088c-0.038-4.816,0.033-7.225,0.215-7.225L5.62,11.931z M8.073,15.47
c-0.12,0-0.645,2.362-1.571,7.088c0,3.738,1.052,5.856,3.154,6.354c2.307-0.354,3.931-1.88,4.872-4.578
c0-6.791-1.032-10.303-3.098-10.537C9.562,14.09,8.442,14.649,8.073,15.47z"/>
<path fill="#231F20" d="M29.825,13.706c0.331-0.046,1.281-0.581,2.849-1.605c1.771,0,2.656,2.894,2.656,8.683
c-0.693,2.02-0.987,3.218-0.882,3.595c0.279,0,0.69,1.752,1.232,5.257c-0.935,1.537-4.296,2.261-10.083,2.171
c-2.901-0.257-4.314-3.339-4.239-9.248c0.053-3.935,1.466-5.954,4.239-6.06l1.164,0.746c-1.65,0.158-2.431,3.109-2.34,8.853
c0.641,1.024,2.212,1.45,4.714,1.277c2.118-0.392,3.124-1.997,3.018-4.816c-2.404-3.542-3.915-5.313-4.533-5.313
c-0.067-1.703,0.438-2.555,1.515-2.555L29.825,13.706z"/>
<path fill="#231F20" d="M46.454,17.244c1.56-0.286,2.566-0.286,3.019,0c0.15,1.033-0.279,3.396-1.289,7.089
c0,2.223,0.731,3.335,2.193,3.335c2.321,0,3.482-1.112,3.482-3.335c0-2.088,0.61-3.475,1.831-4.161
c1.002,1.463,1.504,3.438,1.504,5.925c0,3.143-2.86,4.714-8.581,4.714c-3.482-0.347-5.17-3.098-5.064-8.253
C43.812,20.206,44.781,18.436,46.454,17.244z"/>
<path fill="#231F20" d="M66.204,17.244c0.271-0.724,1.492-1.074,3.663-1.051c1.273,0.053,1.975,0.402,2.103,1.051
c-0.15,1.561-2.035,3.979-5.652,7.258l-1.131,1.595c0,0.935,2.148,1.401,6.444,1.401c0.663,0,0.995,0.712,0.995,2.137
c0,0.829-3.871,1.149-11.61,0.961c-1.191,0-1.783-0.335-1.775-1.006c0-1.402,1.458-3.746,4.375-7.032
C65.213,19.016,66.076,17.244,66.204,17.244z"/>
<path fill="#231F20" d="M76.22,3.079c1.688-0.091,2.521,0.746,2.498,2.51c0,1.055-0.513,2.581-1.537,4.578
c0.73,0.776,1.085,7.266,1.063,19.468c0,0.693-1.021,0.949-3.063,0.769c-0.468,0-0.63-4.386-0.486-13.159
c0.278-3.896,0.268-8.026-0.034-12.391C74.69,3.822,75.21,3.23,76.22,3.079z"/>
<path fill="#231F20" d="M84.381,17.244c1.19-0.15,1.884-0.15,2.08,0c-0.347,3.543-0.294,5.313,0.158,5.313
c-0.249,1.108-0.52,2.288-0.813,3.539c0.218,0.807,1.394,1.221,3.526,1.243c0.43-0.43,1.609-0.527,3.539-0.294
c0.437,0.46,0.437,1.101,0,1.922c-2.563,1.364-5.514,1.964-8.853,1.798c-2.11,0-3.127-2.145-3.052-6.433
C81.509,19.608,82.648,17.244,84.381,17.244z M89.085,17.244c0-0.09,0.641-0.09,1.922,0C89.725,17.38,89.085,17.38,89.085,17.244z
M90.543,19.02l0.565-1.741c1.229,0,1.816,0.708,1.764,2.125C91.319,19.645,90.543,19.517,90.543,19.02z"/>
<path fill="#231F20" d="M95.856,4.854c0.045-1.077,0.821-1.665,2.328-1.764c1.251,0,1.843,1.413,1.775,4.239
c-0.641,1.599-0.825,3.132-0.554,4.602c0.392,0,0.572,4.722,0.542,14.166c0,3.218-0.588,4.827-1.764,4.827
c-1.733,0-2.6-1.018-2.6-3.053c-0.053-5.833,0.026-12.326,0.237-19.479C95.777,6.802,95.788,5.622,95.856,4.854z"/>
<path fill="#231F20" d="M133.038,4.854c0.836-0.286,1.33-0.286,1.48,0c0.904,1.093,1.433,6.994,1.583,17.704
c0,5.05-0.689,7.574-2.069,7.574c-1.146,0-1.718-1.345-1.718-4.035c0.226-8.261,0.098-12.391-0.385-12.391
C131.854,7.805,132.223,4.854,133.038,4.854z M142.839,11.931c2.743-0.113,4.114,0.479,4.114,1.775l-0.52,1.661
C144.964,15.368,143.766,14.222,142.839,11.931z M146.185,19.02c0.144-0.513,0.328-0.513,0.555,0c0,0.949,0.538,2.129,1.616,3.538
c0.558,4.296,0.787,6.655,0.689,7.077c-0.294,0.724-1.164,1.108-2.611,1.153c-1.553,0-2.28-0.973-2.182-2.917
C144.885,22.574,145.53,19.622,146.185,19.02z"/>
<path fill="#231F20" d="M153.127,17.244c1.56-0.286,2.566-0.286,3.019,0c0.15,1.033-0.279,3.396-1.289,7.089
c0,2.223,0.731,3.335,2.193,3.335c2.321,0,3.482-1.112,3.482-3.335c0-2.088,0.61-3.475,1.831-4.161
c1.002,1.463,1.504,3.438,1.504,5.925c0,3.143-2.86,4.714-8.581,4.714c-3.482-0.347-5.17-3.098-5.064-8.253
C150.485,20.206,151.454,18.436,153.127,17.244z"/>
<path fill="#231F20" d="M167.123,4.854c0.045-1.077,0.821-1.665,2.328-1.764c1.251,0,1.843,1.413,1.775,4.239
c-0.641,1.599-0.825,3.132-0.554,4.602c0.392,0,0.572,4.722,0.542,14.166c0,3.218-0.588,4.827-1.764,4.827
c-1.733,0-2.6-1.018-2.6-3.053c-0.053-5.833,0.026-12.326,0.237-19.479C167.044,6.802,167.054,5.622,167.123,4.854z"/>
<path fill="#231F20" d="M174.199,4.854c0.045-1.077,0.821-1.665,2.328-1.764c1.251,0,1.843,1.413,1.775,4.239
c-0.641,1.599-0.825,3.132-0.554,4.602c0.392,0,0.572,4.722,0.542,14.166c0,3.218-0.588,4.827-1.764,4.827
c-1.733,0-2.6-1.018-2.6-3.053c-0.053-5.833,0.026-12.326,0.237-19.479C174.12,6.802,174.13,5.622,174.199,4.854z"/>
<path fill="#231F20" d="M181.806,15.47c1.612,0.233,2.419,2.005,2.419,5.313c0.92,2.352,1.892,3.526,2.917,3.526
c1.04,0,2.046-2.354,3.019-7.065c0.972-1.198,1.768-1.79,2.386-1.774c0.663,0,0.941,1.183,0.836,3.55
c0,1.726-1.53,5.265-4.59,10.615c-1.711,0.377-2.97,0.377-3.775,0c-2.345-3.852-3.912-7.981-4.703-12.391L181.806,15.47z"/>
<path fill="#231F20" d="M199.16,17.244c1.56-0.286,2.566-0.286,3.019,0c0.15,1.033-0.279,3.396-1.289,7.089
c0,2.223,0.731,3.335,2.193,3.335c2.321,0,3.482-1.112,3.482-3.335c0-2.088,0.61-3.475,1.831-4.161
c1.002,1.463,1.504,3.438,1.504,5.925c0,3.143-2.86,4.714-8.581,4.714c-3.482-0.347-5.17-3.098-5.064-8.253
C196.518,20.206,197.487,18.436,199.16,17.244z"/>
<path fill="#231F20" d="M213.55,13.706c0.294-0.754,0.938-1.169,1.933-1.244c2.495,0.211,3.675,1.93,3.539,5.155
c-0.912,0-1.368,1.647-1.368,4.94c0.144,2.759,0.841,5.118,2.092,7.077c-0.754,0.935-2.175,1.398-4.263,1.391
c-1.65,0-2.476-2.822-2.476-8.468C213.015,16.687,213.196,13.737,213.55,13.706z"/>
<path fill="#231F20" d="M223.612,3.079c1.688-0.091,2.521,0.746,2.498,2.51c0,1.055-0.513,2.581-1.537,4.578
c0.73,0.776,1.085,7.266,1.063,19.468c0,0.693-1.021,0.949-3.063,0.769c-0.468,0-0.63-4.386-0.486-13.159
c0.278-3.896,0.268-8.026-0.034-12.391C222.082,3.822,222.601,3.23,223.612,3.079z"/>
<path fill="#231F20" d="M230.576,17.244c0.738-0.701,1.608-1.111,2.611-1.232c4.733,0.664,7.092,1.681,7.077,3.053
c-2.359,0.31-3.539-0.075-3.539-1.153c-1.861-0.181-2.792,0.188-2.792,1.108c-1.583,0.686-2.333,3.045-2.25,7.077
c0.113,0.904,1.202,1.439,3.268,1.604c1.251,0,3.022-1.345,5.313-4.035c0.58,0.52,0.807,1.922,0.679,4.205
c-0.958,2.118-3.543,3.14-7.756,3.063c-2.789-0.459-4.56-2.672-5.313-6.636C227.949,21.013,228.849,18.661,230.576,17.244z"/>
<path fill="#231F20" d="M245.938,17.244c1.19-0.15,1.884-0.15,2.08,0c-0.347,3.543-0.294,5.313,0.158,5.313
c-0.249,1.108-0.52,2.288-0.813,3.539c0.218,0.807,1.394,1.221,3.526,1.243c0.43-0.43,1.609-0.527,3.539-0.294
c0.437,0.46,0.437,1.101,0,1.922c-2.563,1.364-5.514,1.964-8.853,1.798c-2.11,0-3.127-2.145-3.052-6.433
C243.066,19.608,244.205,17.244,245.938,17.244z M250.641,17.244c0-0.09,0.641-0.09,1.922,0
C251.282,17.38,250.641,17.38,250.641,17.244z M252.099,19.02l0.565-1.741c1.229,0,1.816,0.708,1.764,2.125
C252.876,19.645,252.099,19.517,252.099,19.02z"/>
</g>
</svg>
