<?xml version="1.0" encoding="utf-8"?>
<svg version="1.1" id="Layer_1" xmlns="http://www.w3.org/2000/svg" xmlns:xlink="http://www.w3.org/1999/xlink" x="0px" y="0px"
	 width="169px" height="175.25px" viewBox="0 0 169 175.25" enable-background="new 0 0 169 175.25" xml:space="preserve">
<rect x="65.25" y="6" fill="#FFFFFF" stroke="#000000" stroke-miterlimit="10" width="38.5" height="31"/>
<g>
	<path d="M71.435,21.25h-0.96v-3.62c-0.351,0.328-0.765,0.571-1.241,0.728v-0.872c0.25-0.082,0.523-0.238,0.817-0.466
		c0.294-0.229,0.496-0.497,0.605-0.802h0.779V21.25z"/>
	<path d="M73.051,20.29h0.96v0.687c0,0.278-0.024,0.497-0.072,0.658c-0.048,0.16-0.139,0.305-0.271,0.432
		c-0.134,0.127-0.303,0.228-0.508,0.301l-0.188-0.396c0.194-0.064,0.332-0.151,0.414-0.263s0.125-0.264,0.13-0.458h-0.465V20.29z"/>
	<path d="M76.438,16.219c0.485,0,0.865,0.173,1.138,0.52c0.326,0.41,0.489,1.09,0.489,2.041c0,0.948-0.164,1.629-0.492,2.044
		c-0.271,0.342-0.649,0.513-1.135,0.513c-0.488,0-0.881-0.188-1.179-0.562c-0.298-0.375-0.448-1.043-0.448-2.005
		c0-0.943,0.164-1.623,0.492-2.037C75.575,16.39,75.953,16.219,76.438,16.219z M76.438,17.015c-0.116,0-0.22,0.037-0.311,0.111
		c-0.091,0.074-0.162,0.207-0.212,0.398c-0.066,0.249-0.099,0.667-0.099,1.254s0.03,0.992,0.089,1.211
		c0.059,0.22,0.134,0.367,0.224,0.439c0.09,0.073,0.193,0.109,0.31,0.109s0.22-0.037,0.311-0.111
		c0.091-0.074,0.162-0.207,0.212-0.398c0.066-0.246,0.099-0.663,0.099-1.251s-0.03-0.992-0.089-1.211
		c-0.059-0.22-0.134-0.367-0.224-0.441C76.658,17.052,76.555,17.015,76.438,17.015z"/>
	<path d="M80.332,16.219c0.485,0,0.865,0.173,1.138,0.52c0.326,0.41,0.489,1.09,0.489,2.041c0,0.948-0.164,1.629-0.492,2.044
		c-0.271,0.342-0.649,0.513-1.135,0.513c-0.488,0-0.881-0.188-1.179-0.562c-0.298-0.375-0.448-1.043-0.448-2.005
		c0-0.943,0.164-1.623,0.492-2.037C79.468,16.39,79.846,16.219,80.332,16.219z M80.332,17.015c-0.116,0-0.22,0.037-0.311,0.111
		c-0.091,0.074-0.162,0.207-0.212,0.398c-0.066,0.249-0.099,0.667-0.099,1.254s0.03,0.992,0.089,1.211
		c0.059,0.22,0.134,0.367,0.224,0.439c0.09,0.073,0.193,0.109,0.31,0.109s0.22-0.037,0.311-0.111
		c0.091-0.074,0.162-0.207,0.212-0.398c0.066-0.246,0.099-0.663,0.099-1.251s-0.03-0.992-0.089-1.211
		c-0.059-0.22-0.134-0.367-0.224-0.441C80.551,17.052,80.448,17.015,80.332,17.015z"/>
	<path d="M84.225,16.219c0.485,0,0.865,0.173,1.138,0.52c0.326,0.41,0.489,1.09,0.489,2.041c0,0.948-0.164,1.629-0.492,2.044
		c-0.271,0.342-0.649,0.513-1.135,0.513c-0.488,0-0.881-0.188-1.179-0.562c-0.298-0.375-0.448-1.043-0.448-2.005
		c0-0.943,0.164-1.623,0.492-2.037C83.361,16.39,83.739,16.219,84.225,16.219z M84.225,17.015c-0.116,0-0.22,0.037-0.311,0.111
		c-0.091,0.074-0.162,0.207-0.212,0.398c-0.066,0.249-0.099,0.667-0.099,1.254s0.03,0.992,0.089,1.211
		c0.059,0.22,0.134,0.367,0.224,0.439c0.09,0.073,0.193,0.109,0.31,0.109s0.22-0.037,0.311-0.111
		c0.091-0.074,0.162-0.207,0.212-0.398c0.066-0.246,0.099-0.663,0.099-1.251s-0.03-0.992-0.089-1.211
		c-0.059-0.22-0.134-0.367-0.224-0.441C84.444,17.052,84.341,17.015,84.225,17.015z"/>
	<path d="M86.675,20.29h0.96v0.687c0,0.278-0.024,0.497-0.072,0.658c-0.048,0.16-0.139,0.305-0.271,0.432
		c-0.134,0.127-0.303,0.228-0.508,0.301l-0.188-0.396c0.194-0.064,0.332-0.151,0.414-0.263s0.125-0.264,0.13-0.458h-0.465V20.29z"/>
	<path d="M90.063,16.219c0.485,0,0.865,0.173,1.138,0.52c0.326,0.41,0.489,1.09,0.489,2.041c0,0.948-0.164,1.629-0.492,2.044
		c-0.271,0.342-0.649,0.513-1.135,0.513c-0.488,0-0.881-0.188-1.179-0.562c-0.298-0.375-0.448-1.043-0.448-2.005
		c0-0.943,0.164-1.623,0.492-2.037C89.199,16.39,89.577,16.219,90.063,16.219z M90.063,17.015c-0.116,0-0.22,0.037-0.311,0.111
		c-0.091,0.074-0.162,0.207-0.212,0.398c-0.066,0.249-0.099,0.667-0.099,1.254s0.03,0.992,0.089,1.211
		c0.059,0.22,0.134,0.367,0.224,0.439c0.09,0.073,0.193,0.109,0.31,0.109s0.22-0.037,0.311-0.111
		c0.091-0.074,0.162-0.207,0.212-0.398c0.066-0.246,0.099-0.663,0.099-1.251s-0.03-0.992-0.089-1.211
		c-0.059-0.22-0.134-0.367-0.224-0.441C90.282,17.052,90.179,17.015,90.063,17.015z"/>
	<path d="M93.956,16.219c0.485,0,0.865,0.173,1.138,0.52c0.326,0.41,0.489,1.09,0.489,2.041c0,0.948-0.164,1.629-0.492,2.044
		c-0.271,0.342-0.649,0.513-1.135,0.513c-0.488,0-0.881-0.188-1.179-0.562c-0.298-0.375-0.448-1.043-0.448-2.005
		c0-0.943,0.164-1.623,0.492-2.037C93.092,16.39,93.47,16.219,93.956,16.219z M93.956,17.015c-0.116,0-0.22,0.037-0.311,0.111
		c-0.091,0.074-0.162,0.207-0.212,0.398c-0.066,0.249-0.099,0.667-0.099,1.254s0.03,0.992,0.089,1.211
		c0.059,0.22,0.134,0.367,0.224,0.439c0.09,0.073,0.193,0.109,0.31,0.109s0.22-0.037,0.311-0.111
		c0.091-0.074,0.162-0.207,0.212-0.398c0.066-0.246,0.099-0.663,0.099-1.251s-0.03-0.992-0.089-1.211
		c-0.059-0.22-0.134-0.367-0.224-0.441C94.175,17.052,94.072,17.015,93.956,17.015z"/>
	<path d="M98.683,21.25h-0.96v-3.62c-0.351,0.328-0.765,0.571-1.241,0.728v-0.872c0.25-0.082,0.523-0.238,0.817-0.466
		c0.294-0.229,0.496-0.497,0.605-0.802h0.779V21.25z"/>
	<path d="M75.24,29.65v-5.011h3.435v0.848h-2.423v1.186h2.092v0.848h-2.092v2.129H75.24z"/>
	<path d="M79.28,27.784c0-0.319,0.079-0.628,0.236-0.926s0.38-0.526,0.668-0.684c0.288-0.157,0.61-0.236,0.965-0.236
		c0.549,0,0.999,0.178,1.35,0.535c0.351,0.356,0.526,0.807,0.526,1.352c0,0.549-0.177,1.004-0.531,1.365
		c-0.354,0.361-0.801,0.542-1.338,0.542c-0.333,0-0.65-0.075-0.952-0.226c-0.302-0.15-0.532-0.371-0.689-0.661
		C79.359,28.554,79.28,28.201,79.28,27.784z M80.265,27.835c0,0.36,0.085,0.636,0.256,0.827s0.382,0.287,0.632,0.287
		s0.461-0.096,0.631-0.287c0.169-0.191,0.254-0.469,0.254-0.834c0-0.355-0.085-0.629-0.254-0.82c-0.17-0.191-0.38-0.287-0.631-0.287
		s-0.461,0.096-0.632,0.287S80.265,27.475,80.265,27.835z"/>
	<path d="M87.08,29.65h-0.96v-1.853c0-0.392-0.021-0.646-0.062-0.761c-0.041-0.115-0.107-0.204-0.2-0.268
		c-0.092-0.064-0.203-0.096-0.333-0.096c-0.167,0-0.315,0.045-0.448,0.137s-0.223,0.212-0.272,0.362
		c-0.049,0.15-0.073,0.428-0.073,0.834v1.644h-0.96v-3.63h0.892v0.533c0.317-0.41,0.715-0.615,1.196-0.615
		c0.212,0,0.406,0.038,0.581,0.114c0.175,0.077,0.308,0.174,0.398,0.292c0.09,0.119,0.152,0.253,0.188,0.403
		c0.036,0.15,0.053,0.366,0.053,0.646V29.65z"/>
	<path d="M89.719,26.02v0.766h-0.656v1.463c0,0.296,0.006,0.469,0.019,0.518c0.013,0.049,0.041,0.09,0.086,0.122
		c0.044,0.032,0.098,0.048,0.162,0.048c0.089,0,0.218-0.031,0.386-0.092l0.082,0.745c-0.223,0.096-0.476,0.144-0.759,0.144
		c-0.173,0-0.329-0.029-0.468-0.087c-0.139-0.059-0.241-0.134-0.306-0.226c-0.065-0.093-0.11-0.217-0.135-0.375
		c-0.021-0.112-0.031-0.337-0.031-0.677v-1.583h-0.441V26.02h0.441v-0.721l0.964-0.561v1.282H89.719z"/>
	<path d="M90.047,28.614l0.964-0.147c0.041,0.187,0.124,0.329,0.25,0.426c0.125,0.097,0.301,0.145,0.526,0.145
		c0.249,0,0.435-0.045,0.561-0.137c0.084-0.064,0.126-0.149,0.126-0.256c0-0.073-0.023-0.133-0.068-0.181
		c-0.048-0.045-0.155-0.088-0.321-0.126c-0.775-0.171-1.266-0.327-1.473-0.468c-0.287-0.196-0.431-0.468-0.431-0.817
		c0-0.314,0.124-0.579,0.373-0.793s0.633-0.321,1.155-0.321c0.497,0,0.866,0.081,1.107,0.243s0.408,0.401,0.499,0.718l-0.906,0.167
		c-0.039-0.141-0.112-0.25-0.22-0.325c-0.108-0.075-0.263-0.113-0.463-0.113c-0.253,0-0.434,0.035-0.543,0.106
		c-0.073,0.05-0.109,0.115-0.109,0.195c0,0.068,0.032,0.126,0.096,0.174c0.086,0.064,0.386,0.154,0.897,0.27
		c0.511,0.116,0.869,0.259,1.071,0.427c0.201,0.171,0.301,0.409,0.301,0.714c0,0.333-0.139,0.619-0.417,0.858
		s-0.689,0.359-1.234,0.359c-0.495,0-0.886-0.1-1.174-0.301C90.324,29.23,90.136,28.958,90.047,28.614z"/>
</g>
<rect x="71.145" y="73.807" fill="#FFFFFF" stroke="#000000" stroke-miterlimit="10" width="13.712" height="13.712"/>
<rect x="85.145" y="73.807" fill="#FFFFFF" stroke="#000000" stroke-miterlimit="10" width="13.712" height="13.712"/>
<g>
	<path d="M73.732,85.25l3.299-8.59h1.225l3.516,8.59h-1.295l-1.002-2.602h-3.592l-0.943,2.602H73.732z M76.211,81.723h2.912
		l-0.896-2.379c-0.273-0.723-0.477-1.316-0.609-1.781c-0.109,0.551-0.264,1.098-0.463,1.641L76.211,81.723z"/>
</g>
<g>
	<path d="M93.352,83.732c-0.391,0.332-0.767,0.566-1.128,0.703s-0.749,0.205-1.163,0.205c-0.684,0-1.209-0.167-1.576-0.501
		s-0.551-0.761-0.551-1.28c0-0.305,0.069-0.583,0.208-0.835s0.32-0.454,0.545-0.606s0.478-0.268,0.759-0.346
		c0.207-0.055,0.52-0.107,0.938-0.158c0.852-0.102,1.479-0.223,1.881-0.363c0.004-0.145,0.006-0.236,0.006-0.275
		c0-0.43-0.1-0.732-0.299-0.908c-0.27-0.238-0.67-0.357-1.201-0.357c-0.496,0-0.862,0.087-1.099,0.261s-0.411,0.481-0.524,0.923
		l-1.031-0.141c0.094-0.441,0.248-0.798,0.463-1.069s0.525-0.48,0.932-0.627s0.877-0.22,1.412-0.22c0.531,0,0.963,0.063,1.295,0.188
		s0.576,0.282,0.732,0.472s0.266,0.429,0.328,0.718c0.035,0.18,0.053,0.504,0.053,0.973v1.406c0,0.98,0.022,1.601,0.067,1.86
		s0.134,0.509,0.267,0.747h-1.102C93.453,84.281,93.383,84.025,93.352,83.732z M93.264,81.377c-0.383,0.156-0.957,0.289-1.723,0.398
		c-0.434,0.063-0.74,0.133-0.92,0.211s-0.318,0.192-0.416,0.343s-0.146,0.317-0.146,0.501c0,0.281,0.106,0.516,0.319,0.703
		s0.524,0.281,0.935,0.281c0.406,0,0.768-0.089,1.084-0.267s0.549-0.421,0.697-0.729c0.113-0.238,0.17-0.59,0.17-1.055V81.377z"/>
</g>
<g>
	<path d="M83.924,42.715h1.201v1.201h-1.201V42.715z"/>
	<path d="M83.924,46.049h1.201v1.201h-1.201V46.049z"/>
	<path d="M83.924,49.383h1.201v1.201h-1.201V49.383z"/>
</g>
<g>
	<g>
		<path fill="none" stroke="#000000" stroke-miterlimit="10" d="M94,70.75c-1-20.284-43.75,0-39-32
			c1.483-9.991,5.973-20.526,0.25-26.25c-2.738-2.739-6.976-3.234-10.939-2.948"/>
		<g>
			<polygon points="44.755,7.03 40.75,10 45.324,11.984 			"/>
		</g>
	</g>
</g>
<rect x="8.679" y="24.008" fill="#FFFFFF" stroke="#000000" stroke-miterlimit="10" width="36.643" height="89.362"/>
<rect x="20.145" y="120.807" fill="#FFFFFF" stroke="#000000" stroke-miterlimit="10" width="13.712" height="13.712"/>
<polyline fill="none" stroke="#000000" stroke-miterlimit="10" points="36,37.667 40.325,37.667 43.413,34.579 "/>
<g>
	<line fill="none" stroke="#000000" stroke-miterlimit="10" x1="12.554" y1="34.133" x2="16.46" y2="38.04"/>
	<line fill="none" stroke="#000000" stroke-miterlimit="10" x1="12.396" y1="38.271" x2="16.583" y2="34.083"/>
</g>
<g>
	<rect x="19.475" y="28.875" fill="#FFFFFF" stroke="#000000" stroke-miterlimit="10" width="15.05" height="14.182"/>
	<line fill="none" stroke="#000000" stroke-miterlimit="10" x1="22.563" y1="28.875" x2="22.563" y2="43.057"/>
	<line fill="none" stroke="#000000" stroke-miterlimit="10" x1="25.563" y1="28.875" x2="25.563" y2="43.057"/>
	<line fill="none" stroke="#000000" stroke-miterlimit="10" x1="28.563" y1="28.875" x2="28.563" y2="43.057"/>
	<line fill="none" stroke="#000000" stroke-miterlimit="10" x1="31.563" y1="28.875" x2="31.563" y2="43.057"/>
	<line fill="none" stroke="#000000" stroke-miterlimit="10" x1="34.092" y1="31.466" x2="19.909" y2="31.466"/>
	<line fill="none" stroke="#000000" stroke-miterlimit="10" x1="34.092" y1="34.466" x2="19.909" y2="34.466"/>
	<line fill="none" stroke="#000000" stroke-miterlimit="10" x1="34.092" y1="37.466" x2="19.909" y2="37.466"/>
	<line fill="none" stroke="#000000" stroke-miterlimit="10" x1="34.092" y1="40.466" x2="19.909" y2="40.466"/>
</g>
<polyline fill="none" stroke="#000000" stroke-miterlimit="10" points="36,56.667 40.325,56.667 43.413,53.579 "/>
<g>
	<line fill="none" stroke="#000000" stroke-miterlimit="10" x1="12.554" y1="53.133" x2="16.46" y2="57.04"/>
	<line fill="none" stroke="#000000" stroke-miterlimit="10" x1="12.396" y1="57.271" x2="16.583" y2="53.083"/>
</g>
<g>
	<rect x="19.475" y="47.875" fill="#FFFFFF" stroke="#000000" stroke-miterlimit="10" width="15.05" height="14.182"/>
	<line fill="none" stroke="#000000" stroke-miterlimit="10" x1="22.563" y1="47.875" x2="22.563" y2="62.057"/>
	<line fill="none" stroke="#000000" stroke-miterlimit="10" x1="25.563" y1="47.875" x2="25.563" y2="62.057"/>
	<line fill="none" stroke="#000000" stroke-miterlimit="10" x1="28.563" y1="47.875" x2="28.563" y2="62.057"/>
	<line fill="none" stroke="#000000" stroke-miterlimit="10" x1="31.563" y1="47.875" x2="31.563" y2="62.057"/>
	<line fill="none" stroke="#000000" stroke-miterlimit="10" x1="34.092" y1="50.466" x2="19.909" y2="50.466"/>
	<line fill="none" stroke="#000000" stroke-miterlimit="10" x1="34.092" y1="53.466" x2="19.909" y2="53.466"/>
	<line fill="none" stroke="#000000" stroke-miterlimit="10" x1="34.092" y1="56.466" x2="19.909" y2="56.466"/>
	<line fill="none" stroke="#000000" stroke-miterlimit="10" x1="34.092" y1="59.466" x2="19.909" y2="59.466"/>
</g>
<g>
	<path d="M12.264,109.5v-2.074h0.314v0.291c0.065-0.102,0.152-0.184,0.26-0.245s0.231-0.093,0.369-0.093
		c0.154,0,0.28,0.032,0.378,0.096s0.167,0.153,0.208,0.268c0.164-0.242,0.377-0.363,0.641-0.363c0.206,0,0.364,0.057,0.475,0.171
		s0.166,0.289,0.166,0.526v1.424h-0.35v-1.307c0-0.141-0.011-0.242-0.034-0.304s-0.064-0.111-0.124-0.149s-0.13-0.057-0.211-0.057
		c-0.146,0-0.267,0.049-0.363,0.146s-0.145,0.252-0.145,0.466v1.205h-0.352v-1.348c0-0.156-0.029-0.273-0.086-0.352
		s-0.151-0.117-0.281-0.117c-0.099,0-0.19,0.026-0.274,0.078s-0.145,0.128-0.183,0.229s-0.057,0.245-0.057,0.434v1.076H12.264z"/>
	<path d="M16.949,109.244c-0.13,0.11-0.255,0.188-0.376,0.234s-0.25,0.068-0.388,0.068c-0.228,0-0.403-0.056-0.525-0.167
		s-0.184-0.254-0.184-0.427c0-0.102,0.023-0.194,0.069-0.278s0.107-0.151,0.182-0.202s0.159-0.089,0.253-0.115
		c0.069-0.019,0.173-0.036,0.313-0.053c0.284-0.034,0.493-0.074,0.627-0.121c0.001-0.048,0.002-0.079,0.002-0.092
		c0-0.144-0.033-0.244-0.1-0.303c-0.09-0.079-0.223-0.119-0.4-0.119c-0.166,0-0.288,0.029-0.366,0.087s-0.137,0.16-0.175,0.308
		l-0.344-0.047c0.031-0.147,0.083-0.266,0.154-0.356s0.175-0.16,0.311-0.209s0.292-0.073,0.471-0.073
		c0.177,0,0.321,0.021,0.432,0.063s0.192,0.094,0.244,0.157s0.088,0.143,0.109,0.239c0.012,0.06,0.018,0.168,0.018,0.324v0.469
		c0,0.327,0.007,0.533,0.022,0.62s0.044,0.17,0.089,0.249H17.02C16.983,109.427,16.959,109.342,16.949,109.244z M16.92,108.459
		c-0.127,0.052-0.319,0.097-0.574,0.133c-0.145,0.021-0.247,0.044-0.307,0.07s-0.106,0.064-0.139,0.114s-0.049,0.105-0.049,0.167
		c0,0.094,0.036,0.172,0.106,0.234s0.175,0.094,0.312,0.094c0.135,0,0.256-0.029,0.361-0.089s0.183-0.141,0.232-0.243
		c0.038-0.079,0.057-0.196,0.057-0.352V108.459z"/>
	<path d="M17.822,109.5v-2.863h0.352v1.633l0.832-0.844h0.455l-0.793,0.77l0.873,1.305h-0.434l-0.686-1.061l-0.248,0.238v0.822
		H17.822z"/>
	<path d="M21.24,108.832l0.363,0.045c-0.057,0.212-0.164,0.377-0.318,0.494s-0.353,0.176-0.594,0.176
		c-0.303,0-0.544-0.094-0.722-0.28s-0.267-0.449-0.267-0.786c0-0.349,0.09-0.62,0.27-0.813s0.413-0.289,0.699-0.289
		c0.277,0,0.504,0.095,0.68,0.283s0.264,0.454,0.264,0.797c0,0.021,0,0.052-0.002,0.094h-1.547c0.013,0.228,0.078,0.402,0.193,0.523
		s0.26,0.182,0.434,0.182c0.129,0,0.239-0.034,0.33-0.102S21.187,108.98,21.24,108.832z M20.086,108.264h1.158
		c-0.016-0.175-0.06-0.306-0.133-0.393c-0.112-0.136-0.257-0.203-0.436-0.203c-0.162,0-0.297,0.054-0.407,0.162
		S20.098,108.083,20.086,108.264z"/>
	<path d="M21.721,110.295v-0.254h2.33v0.254H21.721z"/>
	<path d="M24.262,109.5v-2.863h0.352v2.863H24.262z"/>
	<path d="M25.027,108.463c0-0.384,0.107-0.669,0.32-0.854c0.178-0.153,0.396-0.23,0.652-0.23c0.285,0,0.518,0.094,0.699,0.28
		s0.271,0.445,0.271,0.774c0,0.267-0.04,0.477-0.12,0.63s-0.197,0.271-0.35,0.356s-0.32,0.127-0.501,0.127
		c-0.291,0-0.525-0.093-0.704-0.279S25.027,108.813,25.027,108.463z M25.389,108.463c0,0.266,0.058,0.465,0.174,0.597
		s0.262,0.198,0.438,0.198c0.174,0,0.32-0.066,0.436-0.199s0.174-0.335,0.174-0.607c0-0.257-0.058-0.451-0.175-0.583
		S26.173,107.67,26,107.67c-0.176,0-0.322,0.065-0.438,0.197S25.389,108.197,25.389,108.463z"/>
	<path d="M27.766,109.5l-0.635-2.074h0.363l0.33,1.197l0.123,0.445c0.005-0.022,0.041-0.165,0.107-0.428l0.33-1.215h0.361
		l0.311,1.203l0.104,0.396l0.119-0.4l0.355-1.199h0.342l-0.648,2.074h-0.365l-0.33-1.242l-0.08-0.354l-0.42,1.596H27.766z"/>
	<path d="M31.691,108.832l0.363,0.045c-0.057,0.212-0.164,0.377-0.318,0.494s-0.353,0.176-0.594,0.176
		c-0.303,0-0.544-0.094-0.722-0.28s-0.267-0.449-0.267-0.786c0-0.349,0.09-0.62,0.27-0.813s0.413-0.289,0.699-0.289
		c0.277,0,0.504,0.095,0.68,0.283s0.264,0.454,0.264,0.797c0,0.021,0,0.052-0.002,0.094h-1.547c0.013,0.228,0.078,0.402,0.193,0.523
		s0.26,0.182,0.434,0.182c0.129,0,0.239-0.034,0.33-0.102S31.638,108.98,31.691,108.832z M30.537,108.264h1.158
		c-0.016-0.175-0.06-0.306-0.133-0.393c-0.112-0.136-0.257-0.203-0.436-0.203c-0.162,0-0.297,0.054-0.407,0.162
		S30.549,108.083,30.537,108.264z"/>
	<path d="M32.492,109.5v-2.074h0.316v0.314c0.081-0.147,0.155-0.244,0.224-0.291s0.144-0.07,0.226-0.07
		c0.119,0,0.239,0.038,0.361,0.113l-0.121,0.326c-0.086-0.051-0.172-0.076-0.258-0.076c-0.077,0-0.146,0.023-0.207,0.069
		s-0.105,0.11-0.131,0.192c-0.039,0.125-0.059,0.262-0.059,0.41v1.086H32.492z"/>
	<path d="M35.182,108.74l0.346,0.045c-0.038,0.238-0.134,0.425-0.29,0.56s-0.347,0.202-0.573,0.202
		c-0.284,0-0.512-0.093-0.685-0.278s-0.259-0.451-0.259-0.798c0-0.224,0.037-0.42,0.111-0.588s0.187-0.294,0.339-0.378
		s0.317-0.126,0.495-0.126c0.225,0,0.41,0.057,0.553,0.171s0.235,0.275,0.275,0.485l-0.342,0.053
		c-0.033-0.14-0.09-0.244-0.173-0.314s-0.183-0.105-0.3-0.105c-0.177,0-0.321,0.063-0.432,0.19s-0.166,0.328-0.166,0.603
		c0,0.278,0.053,0.481,0.16,0.607s0.246,0.189,0.418,0.189c0.138,0,0.253-0.042,0.346-0.127S35.157,108.916,35.182,108.74z"/>
	<path d="M37.182,109.244c-0.13,0.11-0.255,0.188-0.376,0.234s-0.25,0.068-0.388,0.068c-0.228,0-0.403-0.056-0.525-0.167
		s-0.184-0.254-0.184-0.427c0-0.102,0.023-0.194,0.069-0.278s0.107-0.151,0.182-0.202s0.159-0.089,0.253-0.115
		c0.069-0.019,0.173-0.036,0.313-0.053c0.284-0.034,0.493-0.074,0.627-0.121c0.001-0.048,0.002-0.079,0.002-0.092
		c0-0.144-0.033-0.244-0.1-0.303c-0.09-0.079-0.223-0.119-0.4-0.119c-0.166,0-0.288,0.029-0.366,0.087s-0.137,0.16-0.175,0.308
		l-0.344-0.047c0.031-0.147,0.083-0.266,0.154-0.356s0.175-0.16,0.311-0.209s0.292-0.073,0.471-0.073
		c0.177,0,0.321,0.021,0.432,0.063s0.192,0.094,0.244,0.157s0.088,0.143,0.109,0.239c0.012,0.06,0.018,0.168,0.018,0.324v0.469
		c0,0.327,0.007,0.533,0.022,0.62s0.044,0.17,0.089,0.249h-0.367C37.215,109.427,37.192,109.342,37.182,109.244z M37.152,108.459
		c-0.127,0.052-0.319,0.097-0.574,0.133c-0.145,0.021-0.247,0.044-0.307,0.07s-0.106,0.064-0.139,0.114s-0.049,0.105-0.049,0.167
		c0,0.094,0.036,0.172,0.106,0.234s0.175,0.094,0.312,0.094c0.135,0,0.256-0.029,0.361-0.089s0.183-0.141,0.232-0.243
		c0.038-0.079,0.057-0.196,0.057-0.352V108.459z"/>
	<path d="M37.912,108.881l0.348-0.055c0.02,0.14,0.074,0.246,0.163,0.32s0.214,0.111,0.374,0.111c0.162,0,0.281-0.033,0.359-0.099
		s0.117-0.143,0.117-0.231c0-0.079-0.035-0.142-0.104-0.188c-0.048-0.031-0.168-0.071-0.359-0.119
		c-0.258-0.065-0.437-0.121-0.536-0.169s-0.175-0.113-0.227-0.197s-0.077-0.177-0.077-0.278c0-0.093,0.021-0.178,0.063-0.257
		s0.1-0.145,0.173-0.196c0.055-0.04,0.129-0.074,0.224-0.103s0.196-0.042,0.304-0.042c0.163,0,0.306,0.023,0.429,0.07
		s0.214,0.11,0.272,0.19s0.099,0.188,0.121,0.321l-0.344,0.047c-0.016-0.106-0.061-0.19-0.136-0.25s-0.181-0.09-0.317-0.09
		c-0.162,0-0.277,0.026-0.346,0.08s-0.104,0.116-0.104,0.188c0,0.046,0.014,0.087,0.043,0.123c0.029,0.038,0.074,0.069,0.135,0.094
		c0.035,0.013,0.139,0.043,0.311,0.09c0.249,0.066,0.422,0.121,0.521,0.163s0.175,0.104,0.231,0.185s0.084,0.181,0.084,0.301
		c0,0.117-0.034,0.228-0.103,0.331s-0.167,0.184-0.296,0.24s-0.275,0.085-0.438,0.085c-0.27,0-0.475-0.056-0.616-0.168
		S37.951,109.101,37.912,108.881z"/>
	<path d="M41.473,108.832l0.363,0.045c-0.057,0.212-0.164,0.377-0.318,0.494s-0.353,0.176-0.594,0.176
		c-0.303,0-0.544-0.094-0.722-0.28s-0.267-0.449-0.267-0.786c0-0.349,0.09-0.62,0.27-0.813s0.413-0.289,0.699-0.289
		c0.277,0,0.504,0.095,0.68,0.283s0.264,0.454,0.264,0.797c0,0.021,0,0.052-0.002,0.094h-1.547c0.013,0.228,0.078,0.402,0.193,0.523
		s0.26,0.182,0.434,0.182c0.129,0,0.239-0.034,0.33-0.102S41.419,108.98,41.473,108.832z M40.318,108.264h1.158
		c-0.016-0.175-0.06-0.306-0.133-0.393c-0.112-0.136-0.257-0.203-0.436-0.203c-0.162,0-0.297,0.054-0.407,0.162
		S40.33,108.083,40.318,108.264z"/>
</g>
<polyline fill="none" stroke="#000000" stroke-miterlimit="10" points="36,75.667 40.325,75.667 43.413,72.579 "/>
<g>
	<line fill="none" stroke="#000000" stroke-miterlimit="10" x1="12.554" y1="72.133" x2="16.46" y2="76.04"/>
	<line fill="none" stroke="#000000" stroke-miterlimit="10" x1="12.396" y1="76.271" x2="16.583" y2="72.083"/>
</g>
<g>
	<rect x="19.475" y="66.875" fill="#FFFFFF" stroke="#000000" stroke-miterlimit="10" width="15.05" height="14.182"/>
	<line fill="none" stroke="#000000" stroke-miterlimit="10" x1="22.563" y1="66.875" x2="22.563" y2="81.057"/>
	<line fill="none" stroke="#000000" stroke-miterlimit="10" x1="25.563" y1="66.875" x2="25.563" y2="81.057"/>
	<line fill="none" stroke="#000000" stroke-miterlimit="10" x1="28.563" y1="66.875" x2="28.563" y2="81.057"/>
	<line fill="none" stroke="#000000" stroke-miterlimit="10" x1="31.563" y1="66.875" x2="31.563" y2="81.057"/>
	<line fill="none" stroke="#000000" stroke-miterlimit="10" x1="34.092" y1="69.466" x2="19.909" y2="69.466"/>
	<line fill="none" stroke="#000000" stroke-miterlimit="10" x1="34.092" y1="72.466" x2="19.909" y2="72.466"/>
	<line fill="none" stroke="#000000" stroke-miterlimit="10" x1="34.092" y1="75.466" x2="19.909" y2="75.466"/>
	<line fill="none" stroke="#000000" stroke-miterlimit="10" x1="34.092" y1="78.466" x2="19.909" y2="78.466"/>
</g>
<polyline fill="none" stroke="#000000" stroke-miterlimit="10" points="36,94.667 40.325,94.667 43.413,91.579 "/>
<g>
	<line fill="none" stroke="#000000" stroke-miterlimit="10" x1="12.554" y1="91.133" x2="16.46" y2="95.04"/>
	<line fill="none" stroke="#000000" stroke-miterlimit="10" x1="12.396" y1="95.271" x2="16.583" y2="91.083"/>
</g>
<g>
	<rect x="19.475" y="85.875" fill="#FFFFFF" stroke="#000000" stroke-miterlimit="10" width="15.05" height="14.182"/>
	<line fill="none" stroke="#000000" stroke-miterlimit="10" x1="22.563" y1="85.875" x2="22.563" y2="100.057"/>
	<line fill="none" stroke="#000000" stroke-miterlimit="10" x1="25.563" y1="85.875" x2="25.563" y2="100.057"/>
	<line fill="none" stroke="#000000" stroke-miterlimit="10" x1="28.563" y1="85.875" x2="28.563" y2="100.057"/>
	<line fill="none" stroke="#000000" stroke-miterlimit="10" x1="31.563" y1="85.875" x2="31.563" y2="100.057"/>
	<line fill="none" stroke="#000000" stroke-miterlimit="10" x1="34.092" y1="88.466" x2="19.909" y2="88.466"/>
	<line fill="none" stroke="#000000" stroke-miterlimit="10" x1="34.092" y1="91.466" x2="19.909" y2="91.466"/>
	<line fill="none" stroke="#000000" stroke-miterlimit="10" x1="34.092" y1="94.466" x2="19.909" y2="94.466"/>
	<line fill="none" stroke="#000000" stroke-miterlimit="10" x1="34.092" y1="97.466" x2="19.909" y2="97.466"/>
</g>
<polyline fill="#FFFFFF" stroke="#000000" stroke-miterlimit="10" points="23.294,115.75 26.83,117.75 30.707,115.75 "/>
<polyline fill="#FFFFFF" stroke="#000000" stroke-miterlimit="10" points="23.294,19.75 26.83,21.75 30.707,19.75 "/>
<rect x="20.145" y="1.859" fill="#FFFFFF" stroke="#000000" stroke-miterlimit="10" width="13.712" height="13.712"/>
<path fill="none" stroke="#000000" stroke-miterlimit="10" d="M22.625,125.5c0.491-0.975,1.369-2.346,2.625-2.5
	c3.095-0.379,7.271,5.782,5.625,8.125C29.774,132.693,26.78,130.509,26,129c-0.809-1.565,0.754-1.717,5.125-5.625"/>
<rect x="49.894" y="108.807" fill="#FFFFFF" stroke="#000000" stroke-miterlimit="10" width="13.712" height="13.712"/>
<rect x="63.894" y="108.807" fill="#FFFFFF" stroke="#000000" stroke-miterlimit="10" width="13.712" height="13.712"/>
<g>
	<path d="M52.482,120.25l3.299-8.59h1.225l3.516,8.59h-1.295l-1.002-2.602h-3.592l-0.943,2.602H52.482z M54.96,116.723h2.912
		l-0.896-2.379c-0.273-0.723-0.477-1.316-0.609-1.781c-0.109,0.551-0.264,1.098-0.463,1.641L54.96,116.723z"/>
</g>
<g>
	<path d="M72.101,118.732c-0.391,0.332-0.767,0.566-1.128,0.703s-0.749,0.205-1.163,0.205c-0.684,0-1.209-0.167-1.576-0.501
		s-0.551-0.761-0.551-1.28c0-0.305,0.069-0.583,0.208-0.835s0.32-0.454,0.545-0.606s0.478-0.268,0.759-0.346
		c0.207-0.055,0.52-0.107,0.938-0.158c0.852-0.102,1.479-0.223,1.881-0.363c0.004-0.145,0.006-0.236,0.006-0.275
		c0-0.43-0.1-0.732-0.299-0.908c-0.27-0.238-0.67-0.357-1.201-0.357c-0.496,0-0.862,0.087-1.099,0.261s-0.411,0.481-0.524,0.923
		l-1.031-0.141c0.094-0.441,0.248-0.798,0.463-1.069s0.525-0.48,0.932-0.627s0.877-0.22,1.412-0.22c0.531,0,0.963,0.063,1.295,0.188
		s0.576,0.282,0.732,0.472s0.266,0.429,0.328,0.718c0.035,0.18,0.053,0.504,0.053,0.973v1.406c0,0.98,0.022,1.601,0.067,1.86
		s0.134,0.509,0.267,0.747h-1.102C72.203,119.281,72.132,119.025,72.101,118.732z M72.013,116.377
		c-0.383,0.156-0.957,0.289-1.723,0.398c-0.434,0.063-0.74,0.133-0.92,0.211s-0.318,0.192-0.416,0.343s-0.146,0.317-0.146,0.501
		c0,0.281,0.106,0.516,0.319,0.703s0.524,0.281,0.935,0.281c0.406,0,0.768-0.089,1.084-0.267s0.549-0.421,0.697-0.729
		c0.113-0.238,0.17-0.59,0.17-1.055V116.377z"/>
</g>
<rect x="117.428" y="24.008" fill="#FFFFFF" stroke="#000000" stroke-miterlimit="10" width="36.643" height="89.362"/>
<rect x="128.894" y="3.859" fill="#FFFFFF" stroke="#000000" stroke-miterlimit="10" width="13.712" height="13.712"/>
<rect x="128.894" y="120.807" fill="#FFFFFF" stroke="#000000" stroke-miterlimit="10" width="13.712" height="13.712"/>
<polyline fill="none" stroke="#000000" stroke-miterlimit="10" points="144.75,37.667 149.075,37.667 152.162,34.579 "/>
<g>
	<line fill="none" stroke="#000000" stroke-miterlimit="10" x1="121.304" y1="34.133" x2="125.21" y2="38.04"/>
	<line fill="none" stroke="#000000" stroke-miterlimit="10" x1="121.145" y1="38.271" x2="125.333" y2="34.083"/>
</g>
<g>
	<rect x="128.225" y="28.875" fill="#FFFFFF" stroke="#000000" stroke-miterlimit="10" width="15.05" height="14.182"/>
	<line fill="none" stroke="#000000" stroke-miterlimit="10" x1="131.313" y1="28.875" x2="131.313" y2="43.057"/>
	<line fill="none" stroke="#000000" stroke-miterlimit="10" x1="134.313" y1="28.875" x2="134.313" y2="43.057"/>
	<line fill="none" stroke="#000000" stroke-miterlimit="10" x1="137.313" y1="28.875" x2="137.313" y2="43.057"/>
	<line fill="none" stroke="#000000" stroke-miterlimit="10" x1="140.313" y1="28.875" x2="140.313" y2="43.057"/>
	<line fill="none" stroke="#000000" stroke-miterlimit="10" x1="142.841" y1="31.466" x2="128.659" y2="31.466"/>
	<line fill="none" stroke="#000000" stroke-miterlimit="10" x1="142.841" y1="34.466" x2="128.659" y2="34.466"/>
	<line fill="none" stroke="#000000" stroke-miterlimit="10" x1="142.841" y1="37.466" x2="128.659" y2="37.466"/>
	<line fill="none" stroke="#000000" stroke-miterlimit="10" x1="142.841" y1="40.466" x2="128.659" y2="40.466"/>
</g>
<polyline fill="none" stroke="#000000" stroke-miterlimit="10" points="144.75,56.667 149.075,56.667 152.162,53.579 "/>
<g>
	<line fill="none" stroke="#000000" stroke-miterlimit="10" x1="121.304" y1="53.133" x2="125.21" y2="57.04"/>
	<line fill="none" stroke="#000000" stroke-miterlimit="10" x1="121.145" y1="57.271" x2="125.333" y2="53.083"/>
</g>
<g>
	<rect x="128.225" y="47.875" fill="#FFFFFF" stroke="#000000" stroke-miterlimit="10" width="15.05" height="14.182"/>
	<line fill="none" stroke="#000000" stroke-miterlimit="10" x1="131.313" y1="47.875" x2="131.313" y2="62.057"/>
	<line fill="none" stroke="#000000" stroke-miterlimit="10" x1="134.313" y1="47.875" x2="134.313" y2="62.057"/>
	<line fill="none" stroke="#000000" stroke-miterlimit="10" x1="137.313" y1="47.875" x2="137.313" y2="62.057"/>
	<line fill="none" stroke="#000000" stroke-miterlimit="10" x1="140.313" y1="47.875" x2="140.313" y2="62.057"/>
	<line fill="none" stroke="#000000" stroke-miterlimit="10" x1="142.841" y1="50.466" x2="128.659" y2="50.466"/>
	<line fill="none" stroke="#000000" stroke-miterlimit="10" x1="142.841" y1="53.466" x2="128.659" y2="53.466"/>
	<line fill="none" stroke="#000000" stroke-miterlimit="10" x1="142.841" y1="56.466" x2="128.659" y2="56.466"/>
	<line fill="none" stroke="#000000" stroke-miterlimit="10" x1="142.841" y1="59.466" x2="128.659" y2="59.466"/>
</g>
<g>
	<path d="M121.013,109.5v-2.074h0.314v0.291c0.065-0.102,0.152-0.184,0.26-0.245s0.231-0.093,0.369-0.093
		c0.154,0,0.28,0.032,0.378,0.096s0.167,0.153,0.208,0.268c0.164-0.242,0.377-0.363,0.641-0.363c0.206,0,0.364,0.057,0.475,0.171
		s0.166,0.289,0.166,0.526v1.424h-0.35v-1.307c0-0.141-0.011-0.242-0.034-0.304s-0.064-0.111-0.124-0.149s-0.13-0.057-0.211-0.057
		c-0.146,0-0.267,0.049-0.363,0.146s-0.145,0.252-0.145,0.466v1.205h-0.352v-1.348c0-0.156-0.029-0.273-0.086-0.352
		s-0.151-0.117-0.281-0.117c-0.099,0-0.19,0.026-0.274,0.078s-0.145,0.128-0.183,0.229s-0.057,0.245-0.057,0.434v1.076H121.013z"/>
	<path d="M125.699,109.244c-0.13,0.11-0.255,0.188-0.376,0.234s-0.25,0.068-0.388,0.068c-0.228,0-0.403-0.056-0.525-0.167
		s-0.184-0.254-0.184-0.427c0-0.102,0.023-0.194,0.069-0.278s0.107-0.151,0.182-0.202s0.159-0.089,0.253-0.115
		c0.069-0.019,0.173-0.036,0.313-0.053c0.284-0.034,0.493-0.074,0.627-0.121c0.001-0.048,0.002-0.079,0.002-0.092
		c0-0.144-0.033-0.244-0.1-0.303c-0.09-0.079-0.223-0.119-0.4-0.119c-0.166,0-0.288,0.029-0.366,0.087s-0.137,0.16-0.175,0.308
		l-0.344-0.047c0.031-0.147,0.083-0.266,0.154-0.356s0.175-0.16,0.311-0.209s0.292-0.073,0.471-0.073
		c0.177,0,0.321,0.021,0.432,0.063s0.192,0.094,0.244,0.157s0.088,0.143,0.109,0.239c0.012,0.06,0.018,0.168,0.018,0.324v0.469
		c0,0.327,0.007,0.533,0.022,0.62s0.044,0.17,0.089,0.249h-0.367C125.732,109.427,125.709,109.342,125.699,109.244z
		 M125.669,108.459c-0.127,0.052-0.319,0.097-0.574,0.133c-0.145,0.021-0.247,0.044-0.307,0.07s-0.106,0.064-0.139,0.114
		s-0.049,0.105-0.049,0.167c0,0.094,0.036,0.172,0.106,0.234s0.175,0.094,0.312,0.094c0.135,0,0.256-0.029,0.361-0.089
		s0.183-0.141,0.232-0.243c0.038-0.079,0.057-0.196,0.057-0.352V108.459z"/>
	<path d="M126.572,109.5v-2.863h0.352v1.633l0.832-0.844h0.455l-0.793,0.77l0.873,1.305h-0.434l-0.686-1.061l-0.248,0.238v0.822
		H126.572z"/>
	<path d="M129.99,108.832l0.363,0.045c-0.057,0.212-0.164,0.377-0.318,0.494s-0.353,0.176-0.594,0.176
		c-0.303,0-0.544-0.094-0.722-0.28s-0.267-0.449-0.267-0.786c0-0.349,0.09-0.62,0.27-0.813s0.413-0.289,0.699-0.289
		c0.277,0,0.504,0.095,0.68,0.283s0.264,0.454,0.264,0.797c0,0.021,0,0.052-0.002,0.094h-1.547c0.013,0.228,0.078,0.402,0.193,0.523
		s0.26,0.182,0.434,0.182c0.129,0,0.239-0.034,0.33-0.102S129.937,108.98,129.99,108.832z M128.835,108.264h1.158
		c-0.016-0.175-0.06-0.306-0.133-0.393c-0.112-0.136-0.257-0.203-0.436-0.203c-0.162,0-0.297,0.054-0.407,0.162
		S128.847,108.083,128.835,108.264z"/>
	<path d="M130.47,110.295v-0.254h2.33v0.254H130.47z"/>
	<path d="M134.378,109.5v-0.305c-0.162,0.234-0.381,0.352-0.658,0.352c-0.123,0-0.237-0.023-0.343-0.07s-0.185-0.105-0.236-0.177
		s-0.087-0.158-0.108-0.261c-0.014-0.069-0.021-0.179-0.021-0.328v-1.285h0.352v1.15c0,0.184,0.007,0.308,0.021,0.371
		c0.022,0.093,0.069,0.165,0.141,0.218s0.16,0.079,0.266,0.079s0.205-0.027,0.297-0.081s0.158-0.128,0.196-0.221
		s0.058-0.229,0.058-0.405v-1.111h0.352v2.074H134.378z"/>
	<path d="M135.244,110.295v-2.869h0.32v0.27c0.076-0.105,0.161-0.185,0.256-0.237s0.21-0.079,0.346-0.079
		c0.177,0,0.333,0.046,0.469,0.137s0.238,0.22,0.307,0.386s0.104,0.348,0.104,0.546c0,0.212-0.038,0.403-0.114,0.573
		s-0.187,0.3-0.332,0.391s-0.298,0.136-0.458,0.136c-0.117,0-0.222-0.024-0.315-0.074s-0.169-0.112-0.229-0.188v1.01H135.244z
		 M135.562,108.475c0,0.267,0.054,0.464,0.162,0.592s0.239,0.191,0.393,0.191c0.156,0,0.29-0.066,0.401-0.198
		s0.167-0.337,0.167-0.614c0-0.265-0.054-0.462-0.163-0.594s-0.239-0.197-0.39-0.197c-0.15,0-0.282,0.07-0.397,0.21
		S135.562,108.208,135.562,108.475z"/>
	<path d="M137.468,110.295v-2.869h0.32v0.27c0.076-0.105,0.161-0.185,0.256-0.237s0.21-0.079,0.346-0.079
		c0.177,0,0.333,0.046,0.469,0.137s0.238,0.22,0.307,0.386s0.104,0.348,0.104,0.546c0,0.212-0.038,0.403-0.114,0.573
		s-0.187,0.3-0.332,0.391s-0.298,0.136-0.458,0.136c-0.117,0-0.222-0.024-0.315-0.074s-0.169-0.112-0.229-0.188v1.01H137.468z
		 M137.787,108.475c0,0.267,0.054,0.464,0.162,0.592s0.239,0.191,0.393,0.191c0.156,0,0.29-0.066,0.401-0.198
		s0.167-0.337,0.167-0.614c0-0.265-0.054-0.462-0.163-0.594s-0.239-0.197-0.39-0.197c-0.15,0-0.282,0.07-0.397,0.21
		S137.787,108.208,137.787,108.475z"/>
	<path d="M141.113,108.832l0.363,0.045c-0.057,0.212-0.164,0.377-0.318,0.494s-0.353,0.176-0.594,0.176
		c-0.303,0-0.544-0.094-0.722-0.28s-0.267-0.449-0.267-0.786c0-0.349,0.09-0.62,0.27-0.813s0.413-0.289,0.699-0.289
		c0.277,0,0.504,0.095,0.68,0.283s0.264,0.454,0.264,0.797c0,0.021,0,0.052-0.002,0.094h-1.547c0.013,0.228,0.078,0.402,0.193,0.523
		s0.26,0.182,0.434,0.182c0.129,0,0.239-0.034,0.33-0.102S141.06,108.98,141.113,108.832z M139.958,108.264h1.158
		c-0.016-0.175-0.06-0.306-0.133-0.393c-0.112-0.136-0.257-0.203-0.436-0.203c-0.162,0-0.297,0.054-0.407,0.162
		S139.97,108.083,139.958,108.264z"/>
	<path d="M141.914,109.5v-2.074h0.316v0.314c0.081-0.147,0.155-0.244,0.224-0.291s0.144-0.07,0.226-0.07
		c0.119,0,0.239,0.038,0.361,0.113l-0.121,0.326c-0.086-0.051-0.172-0.076-0.258-0.076c-0.077,0-0.146,0.023-0.207,0.069
		s-0.105,0.11-0.131,0.192c-0.039,0.125-0.059,0.262-0.059,0.41v1.086H141.914z"/>
	<path d="M144.603,108.74l0.346,0.045c-0.038,0.238-0.134,0.425-0.29,0.56s-0.347,0.202-0.573,0.202
		c-0.284,0-0.512-0.093-0.685-0.278s-0.259-0.451-0.259-0.798c0-0.224,0.037-0.42,0.111-0.588s0.187-0.294,0.339-0.378
		s0.317-0.126,0.495-0.126c0.225,0,0.41,0.057,0.553,0.171s0.235,0.275,0.275,0.485l-0.342,0.053
		c-0.033-0.14-0.09-0.244-0.173-0.314s-0.183-0.105-0.3-0.105c-0.177,0-0.321,0.063-0.432,0.19s-0.166,0.328-0.166,0.603
		c0,0.278,0.053,0.481,0.16,0.607s0.246,0.189,0.418,0.189c0.138,0,0.253-0.042,0.346-0.127S144.578,108.916,144.603,108.74z"/>
	<path d="M146.603,109.244c-0.13,0.11-0.255,0.188-0.376,0.234s-0.25,0.068-0.388,0.068c-0.228,0-0.403-0.056-0.525-0.167
		s-0.184-0.254-0.184-0.427c0-0.102,0.023-0.194,0.069-0.278s0.107-0.151,0.182-0.202s0.159-0.089,0.253-0.115
		c0.069-0.019,0.173-0.036,0.313-0.053c0.284-0.034,0.493-0.074,0.627-0.121c0.001-0.048,0.002-0.079,0.002-0.092
		c0-0.144-0.033-0.244-0.1-0.303c-0.09-0.079-0.223-0.119-0.4-0.119c-0.166,0-0.288,0.029-0.366,0.087s-0.137,0.16-0.175,0.308
		l-0.344-0.047c0.031-0.147,0.083-0.266,0.154-0.356s0.175-0.16,0.311-0.209s0.292-0.073,0.471-0.073
		c0.177,0,0.321,0.021,0.432,0.063s0.192,0.094,0.244,0.157s0.088,0.143,0.109,0.239c0.012,0.06,0.018,0.168,0.018,0.324v0.469
		c0,0.327,0.007,0.533,0.022,0.62s0.044,0.17,0.089,0.249h-0.367C146.637,109.427,146.613,109.342,146.603,109.244z
		 M146.574,108.459c-0.127,0.052-0.319,0.097-0.574,0.133c-0.145,0.021-0.247,0.044-0.307,0.07s-0.106,0.064-0.139,0.114
		s-0.049,0.105-0.049,0.167c0,0.094,0.036,0.172,0.106,0.234s0.175,0.094,0.312,0.094c0.135,0,0.256-0.029,0.361-0.089
		s0.183-0.141,0.232-0.243c0.038-0.079,0.057-0.196,0.057-0.352V108.459z"/>
	<path d="M147.333,108.881l0.348-0.055c0.02,0.14,0.074,0.246,0.163,0.32s0.214,0.111,0.374,0.111c0.162,0,0.281-0.033,0.359-0.099
		s0.117-0.143,0.117-0.231c0-0.079-0.035-0.142-0.104-0.188c-0.048-0.031-0.168-0.071-0.359-0.119
		c-0.258-0.065-0.437-0.121-0.536-0.169s-0.175-0.113-0.227-0.197s-0.077-0.177-0.077-0.278c0-0.093,0.021-0.178,0.063-0.257
		s0.1-0.145,0.173-0.196c0.055-0.04,0.129-0.074,0.224-0.103s0.196-0.042,0.304-0.042c0.163,0,0.306,0.023,0.429,0.07
		s0.214,0.11,0.272,0.19s0.099,0.188,0.121,0.321l-0.344,0.047c-0.016-0.106-0.061-0.19-0.136-0.25s-0.181-0.09-0.317-0.09
		c-0.162,0-0.277,0.026-0.346,0.08s-0.104,0.116-0.104,0.188c0,0.046,0.014,0.087,0.043,0.123c0.029,0.038,0.074,0.069,0.135,0.094
		c0.035,0.013,0.139,0.043,0.311,0.09c0.249,0.066,0.422,0.121,0.521,0.163s0.175,0.104,0.231,0.185s0.084,0.181,0.084,0.301
		c0,0.117-0.034,0.228-0.103,0.331s-0.167,0.184-0.296,0.24s-0.275,0.085-0.438,0.085c-0.27,0-0.475-0.056-0.616-0.168
		S147.373,109.101,147.333,108.881z"/>
	<path d="M150.895,108.832l0.363,0.045c-0.058,0.212-0.164,0.377-0.318,0.494c-0.155,0.117-0.354,0.176-0.594,0.176
		c-0.304,0-0.544-0.094-0.722-0.28c-0.178-0.187-0.267-0.449-0.267-0.786c0-0.349,0.09-0.62,0.27-0.813
		c0.18-0.192,0.412-0.289,0.699-0.289c0.277,0,0.504,0.095,0.68,0.283s0.264,0.454,0.264,0.797c0,0.021-0.001,0.052-0.002,0.094
		h-1.547c0.013,0.228,0.077,0.402,0.193,0.523c0.115,0.121,0.26,0.182,0.434,0.182c0.129,0,0.238-0.034,0.33-0.102
		C150.769,109.089,150.841,108.98,150.895,108.832z M149.74,108.264h1.158c-0.016-0.175-0.061-0.306-0.133-0.393
		c-0.112-0.136-0.258-0.203-0.436-0.203c-0.162,0-0.298,0.054-0.407,0.162C149.813,107.938,149.752,108.083,149.74,108.264z"/>
</g>
<polyline fill="none" stroke="#000000" stroke-miterlimit="10" points="144.75,75.667 149.075,75.667 152.162,72.579 "/>
<g>
	<line fill="none" stroke="#000000" stroke-miterlimit="10" x1="121.304" y1="72.133" x2="125.21" y2="76.04"/>
	<line fill="none" stroke="#000000" stroke-miterlimit="10" x1="121.145" y1="76.271" x2="125.333" y2="72.083"/>
</g>
<g>
	<rect x="128.225" y="66.875" fill="#FFFFFF" stroke="#000000" stroke-miterlimit="10" width="15.05" height="14.182"/>
	<line fill="none" stroke="#000000" stroke-miterlimit="10" x1="131.313" y1="66.875" x2="131.313" y2="81.057"/>
	<line fill="none" stroke="#000000" stroke-miterlimit="10" x1="134.313" y1="66.875" x2="134.313" y2="81.057"/>
	<line fill="none" stroke="#000000" stroke-miterlimit="10" x1="137.313" y1="66.875" x2="137.313" y2="81.057"/>
	<line fill="none" stroke="#000000" stroke-miterlimit="10" x1="140.313" y1="66.875" x2="140.313" y2="81.057"/>
	<line fill="none" stroke="#000000" stroke-miterlimit="10" x1="142.841" y1="69.466" x2="128.659" y2="69.466"/>
	<line fill="none" stroke="#000000" stroke-miterlimit="10" x1="142.841" y1="72.466" x2="128.659" y2="72.466"/>
	<line fill="none" stroke="#000000" stroke-miterlimit="10" x1="142.841" y1="75.466" x2="128.659" y2="75.466"/>
	<line fill="none" stroke="#000000" stroke-miterlimit="10" x1="142.841" y1="78.466" x2="128.659" y2="78.466"/>
</g>
<polyline fill="none" stroke="#000000" stroke-miterlimit="10" points="144.75,94.667 149.075,94.667 152.162,91.579 "/>
<g>
	<line fill="none" stroke="#000000" stroke-miterlimit="10" x1="121.304" y1="91.133" x2="125.21" y2="95.04"/>
	<line fill="none" stroke="#000000" stroke-miterlimit="10" x1="121.145" y1="95.271" x2="125.333" y2="91.083"/>
</g>
<g>
	<rect x="128.225" y="85.875" fill="#FFFFFF" stroke="#000000" stroke-miterlimit="10" width="15.05" height="14.182"/>
	<line fill="none" stroke="#000000" stroke-miterlimit="10" x1="131.313" y1="85.875" x2="131.313" y2="100.057"/>
	<line fill="none" stroke="#000000" stroke-miterlimit="10" x1="134.313" y1="85.875" x2="134.313" y2="100.057"/>
	<line fill="none" stroke="#000000" stroke-miterlimit="10" x1="137.313" y1="85.875" x2="137.313" y2="100.057"/>
	<line fill="none" stroke="#000000" stroke-miterlimit="10" x1="140.313" y1="85.875" x2="140.313" y2="100.057"/>
	<line fill="none" stroke="#000000" stroke-miterlimit="10" x1="142.841" y1="88.466" x2="128.659" y2="88.466"/>
	<line fill="none" stroke="#000000" stroke-miterlimit="10" x1="142.841" y1="91.466" x2="128.659" y2="91.466"/>
	<line fill="none" stroke="#000000" stroke-miterlimit="10" x1="142.841" y1="94.466" x2="128.659" y2="94.466"/>
	<line fill="none" stroke="#000000" stroke-miterlimit="10" x1="142.841" y1="97.466" x2="128.659" y2="97.466"/>
</g>
<polyline fill="#FFFFFF" stroke="#000000" stroke-miterlimit="10" points="132.044,115.75 135.579,117.75 139.456,115.75 "/>
<polyline fill="#FFFFFF" stroke="#000000" stroke-miterlimit="10" points="132.044,19.75 135.579,21.75 139.456,19.75 "/>
<g>
	<path d="M131.295,15l3.299-8.59h1.225l3.516,8.59h-1.295l-1.002-2.602h-3.592L132.502,15H131.295z M133.773,11.473h2.912
		l-0.896-2.379c-0.273-0.723-0.477-1.316-0.609-1.781c-0.109,0.551-0.264,1.098-0.463,1.641L133.773,11.473z"/>
</g>
<polyline fill="none" stroke="#000000" stroke-miterlimit="10" points="132.044,131.667 132.044,123.875 139.456,123.875
	139.456,131.667 "/>
<line fill="none" stroke="#000000" stroke-miterlimit="10" x1="132.044" y1="129.375" x2="140.313" y2="127.771"/>
<line fill="none" stroke="#000000" stroke-miterlimit="10" x1="132.044" y1="125.25" x2="139.456" y2="127.519"/>
<g>
	<g>
		<path fill="none" stroke="#000000" stroke-miterlimit="10" d="M77.5,70.25c0-4.375,9.356-10.784,24.643-13.583
			c8.592-1.574,10.533-11.617,10.857-16.201c0.967-13.653-6.941-21.25-0.75-28.716c1.506-1.816,4.056-2.866,9.161-2.881"/>
		<g>
			<polygon points="120.618,11.379 125,9 120.749,6.394 			"/>
		</g>
	</g>
</g>
<rect x="86.275" y="108.807" fill="#FFFFFF" stroke="#000000" stroke-miterlimit="10" width="13.712" height="13.712"/>
<rect x="100.152" y="108.807" fill="#FFFFFF" stroke="#000000" stroke-miterlimit="10" width="13.712" height="13.712"/>
<g>
	<path d="M94.352,118.732c-0.391,0.332-0.767,0.566-1.128,0.703s-0.749,0.205-1.163,0.205c-0.684,0-1.209-0.167-1.576-0.501
		s-0.551-0.761-0.551-1.28c0-0.305,0.069-0.583,0.208-0.835s0.32-0.454,0.545-0.606s0.478-0.268,0.759-0.346
		c0.207-0.055,0.52-0.107,0.938-0.158c0.852-0.102,1.479-0.223,1.881-0.363c0.004-0.145,0.006-0.236,0.006-0.275
		c0-0.43-0.1-0.732-0.299-0.908c-0.27-0.238-0.67-0.357-1.201-0.357c-0.496,0-0.862,0.087-1.099,0.261s-0.411,0.481-0.524,0.923
		l-1.031-0.141c0.094-0.441,0.248-0.798,0.463-1.069s0.525-0.48,0.932-0.627s0.877-0.22,1.412-0.22c0.531,0,0.963,0.063,1.295,0.188
		s0.576,0.282,0.732,0.472s0.266,0.429,0.328,0.718c0.035,0.18,0.053,0.504,0.053,0.973v1.406c0,0.98,0.022,1.601,0.067,1.86
		s0.134,0.509,0.267,0.747h-1.102C94.453,119.281,94.383,119.025,94.352,118.732z M94.264,116.377
		c-0.383,0.156-0.957,0.289-1.723,0.398c-0.434,0.063-0.74,0.133-0.92,0.211s-0.318,0.192-0.416,0.343s-0.146,0.317-0.146,0.501
		c0,0.281,0.106,0.516,0.319,0.703s0.524,0.281,0.935,0.281c0.406,0,0.768-0.089,1.084-0.267s0.549-0.421,0.697-0.729
		c0.113-0.238,0.17-0.59,0.17-1.055V116.377z"/>
</g>
<g>
	<path d="M52.055,169.449l0.089,0.544c-0.173,0.036-0.328,0.055-0.465,0.055c-0.223,0-0.396-0.035-0.52-0.106
		c-0.123-0.07-0.209-0.163-0.26-0.278c-0.05-0.114-0.075-0.356-0.075-0.726v-2.089h-0.451v-0.479h0.451v-0.899l0.612-0.369v1.269
		h0.619v0.479h-0.619v2.122c0,0.176,0.011,0.289,0.033,0.339c0.021,0.05,0.057,0.09,0.105,0.12c0.049,0.029,0.119,0.044,0.21,0.044
		C51.853,169.474,51.943,169.466,52.055,169.449z"/>
	<path d="M52.649,170v-3.63h0.554v0.55c0.141-0.257,0.272-0.427,0.391-0.509c0.12-0.082,0.251-0.123,0.395-0.123
		c0.208,0,0.418,0.065,0.632,0.198l-0.212,0.57c-0.15-0.088-0.301-0.133-0.451-0.133c-0.134,0-0.255,0.041-0.362,0.121
		c-0.107,0.081-0.184,0.193-0.229,0.337c-0.068,0.219-0.103,0.458-0.103,0.718v1.9H52.649z"/>
	<path d="M57.356,169.553c-0.228,0.193-0.447,0.33-0.658,0.41c-0.21,0.079-0.437,0.119-0.678,0.119
		c-0.399,0-0.705-0.098-0.919-0.292c-0.214-0.195-0.321-0.444-0.321-0.747c0-0.178,0.041-0.34,0.121-0.487
		c0.081-0.146,0.187-0.265,0.318-0.354c0.131-0.089,0.278-0.156,0.442-0.202c0.121-0.031,0.303-0.063,0.547-0.092
		c0.497-0.059,0.862-0.13,1.097-0.212c0.002-0.085,0.003-0.138,0.003-0.161c0-0.25-0.058-0.427-0.174-0.529
		c-0.157-0.139-0.391-0.209-0.701-0.209c-0.29,0-0.503,0.051-0.641,0.152c-0.138,0.102-0.24,0.281-0.306,0.539l-0.602-0.082
		c0.055-0.258,0.145-0.466,0.27-0.624c0.125-0.159,0.307-0.28,0.543-0.366c0.237-0.085,0.512-0.128,0.824-0.128
		c0.31,0,0.562,0.036,0.755,0.109s0.336,0.165,0.427,0.275s0.155,0.25,0.191,0.419c0.021,0.104,0.031,0.293,0.031,0.566v0.82
		c0,0.572,0.013,0.934,0.04,1.086c0.026,0.151,0.078,0.297,0.155,0.436h-0.643C57.415,169.873,57.374,169.723,57.356,169.553z
		 M57.305,168.178c-0.223,0.092-0.558,0.169-1.005,0.232c-0.253,0.037-0.432,0.078-0.537,0.123c-0.105,0.046-0.186,0.113-0.243,0.2
		c-0.057,0.088-0.085,0.186-0.085,0.292c0,0.164,0.062,0.301,0.187,0.41c0.124,0.109,0.306,0.164,0.545,0.164
		c0.237,0,0.448-0.051,0.632-0.155c0.185-0.104,0.32-0.245,0.407-0.425c0.066-0.14,0.099-0.345,0.099-0.615V168.178z"/>
	<path d="M58.884,165.697v-0.708h0.615v0.708H58.884z M58.884,170v-3.63h0.615V170H58.884z"/>
	<path d="M60.436,170v-3.63h0.554v0.517c0.267-0.399,0.652-0.599,1.155-0.599c0.219,0,0.42,0.039,0.603,0.118
		c0.184,0.078,0.321,0.182,0.412,0.309c0.091,0.128,0.155,0.279,0.191,0.455c0.023,0.113,0.034,0.313,0.034,0.598V170H62.77v-2.208
		c0-0.251-0.024-0.438-0.072-0.563s-0.133-0.224-0.254-0.297c-0.122-0.074-0.265-0.111-0.429-0.111
		c-0.262,0-0.488,0.083-0.678,0.249c-0.19,0.167-0.286,0.482-0.286,0.947V170H60.436z"/>
	<path d="M64.332,165.697v-0.708h0.615v0.708H64.332z M64.332,170v-3.63h0.615V170H64.332z"/>
	<path d="M65.884,170v-3.63h0.554v0.517c0.267-0.399,0.652-0.599,1.155-0.599c0.219,0,0.42,0.039,0.603,0.118
		c0.184,0.078,0.321,0.182,0.412,0.309c0.091,0.128,0.155,0.279,0.191,0.455c0.023,0.113,0.034,0.313,0.034,0.598V170h-0.615v-2.208
		c0-0.251-0.024-0.438-0.072-0.563s-0.133-0.224-0.254-0.297c-0.122-0.074-0.265-0.111-0.429-0.111
		c-0.262,0-0.488,0.083-0.678,0.249c-0.19,0.167-0.286,0.482-0.286,0.947V170H65.884z"/>
	<path d="M69.664,170.301l0.598,0.089c0.025,0.185,0.095,0.319,0.208,0.403c0.153,0.113,0.361,0.171,0.625,0.171
		c0.285,0,0.505-0.058,0.66-0.171s0.26-0.273,0.314-0.479c0.032-0.125,0.047-0.389,0.044-0.789C71.846,169.842,71.511,170,71.11,170
		c-0.499,0-0.885-0.18-1.159-0.54s-0.41-0.792-0.41-1.296c0-0.346,0.063-0.666,0.188-0.958c0.125-0.293,0.307-0.519,0.545-0.679
		c0.238-0.16,0.518-0.239,0.839-0.239c0.428,0,0.782,0.173,1.06,0.52v-0.438h0.567v3.138c0,0.564-0.058,0.966-0.173,1.201
		c-0.115,0.236-0.297,0.422-0.547,0.559c-0.249,0.137-0.556,0.205-0.921,0.205c-0.433,0-0.783-0.097-1.049-0.292
		C69.784,170.986,69.655,170.693,69.664,170.301z M70.173,168.12c0,0.476,0.095,0.823,0.284,1.042s0.426,0.328,0.711,0.328
		c0.283,0,0.52-0.108,0.711-0.326c0.191-0.217,0.287-0.559,0.287-1.023c0-0.444-0.099-0.779-0.296-1.005
		c-0.197-0.226-0.435-0.339-0.712-0.339c-0.273,0-0.506,0.111-0.697,0.334C70.269,167.353,70.173,167.683,70.173,168.12z"/>
	<path d="M77.97,170v-0.458c-0.23,0.36-0.568,0.54-1.015,0.54c-0.29,0-0.555-0.08-0.798-0.239c-0.242-0.159-0.431-0.382-0.563-0.668
		c-0.134-0.286-0.2-0.614-0.2-0.986c0-0.362,0.061-0.69,0.181-0.986c0.121-0.295,0.302-0.521,0.543-0.679
		c0.242-0.156,0.512-0.235,0.81-0.235c0.219,0,0.414,0.046,0.584,0.139c0.171,0.092,0.31,0.212,0.417,0.36v-1.798h0.612V170H77.97z
		 M76.025,168.188c0,0.465,0.098,0.813,0.294,1.042c0.196,0.23,0.427,0.346,0.694,0.346c0.269,0,0.497-0.109,0.686-0.33
		c0.188-0.22,0.282-0.555,0.282-1.006c0-0.497-0.096-0.861-0.287-1.094s-0.427-0.35-0.708-0.35c-0.273,0-0.502,0.112-0.686,0.336
		C76.117,167.355,76.025,167.707,76.025,168.188z"/>
	<path d="M81.876,169.553c-0.228,0.193-0.447,0.33-0.658,0.41c-0.21,0.079-0.437,0.119-0.678,0.119
		c-0.399,0-0.705-0.098-0.919-0.292c-0.214-0.195-0.321-0.444-0.321-0.747c0-0.178,0.041-0.34,0.121-0.487
		c0.081-0.146,0.187-0.265,0.318-0.354c0.131-0.089,0.278-0.156,0.442-0.202c0.121-0.031,0.303-0.063,0.547-0.092
		c0.497-0.059,0.862-0.13,1.097-0.212c0.002-0.085,0.003-0.138,0.003-0.161c0-0.25-0.058-0.427-0.174-0.529
		c-0.157-0.139-0.391-0.209-0.701-0.209c-0.29,0-0.503,0.051-0.641,0.152c-0.138,0.102-0.24,0.281-0.306,0.539l-0.602-0.082
		c0.055-0.258,0.145-0.466,0.27-0.624c0.125-0.159,0.307-0.28,0.543-0.366c0.237-0.085,0.512-0.128,0.824-0.128
		c0.31,0,0.562,0.036,0.755,0.109s0.336,0.165,0.427,0.275s0.155,0.25,0.191,0.419c0.021,0.104,0.031,0.293,0.031,0.566v0.82
		c0,0.572,0.013,0.934,0.04,1.086c0.026,0.151,0.078,0.297,0.155,0.436H82C81.936,169.873,81.895,169.723,81.876,169.553z
		 M81.825,168.178c-0.223,0.092-0.558,0.169-1.005,0.232c-0.253,0.037-0.432,0.078-0.537,0.123c-0.105,0.046-0.186,0.113-0.243,0.2
		c-0.057,0.088-0.085,0.186-0.085,0.292c0,0.164,0.062,0.301,0.187,0.41c0.124,0.109,0.306,0.164,0.545,0.164
		c0.237,0,0.448-0.051,0.632-0.155c0.185-0.104,0.32-0.245,0.407-0.425c0.066-0.14,0.099-0.345,0.099-0.615V168.178z"/>
	<path d="M84.744,169.449l0.089,0.544c-0.173,0.036-0.328,0.055-0.465,0.055c-0.223,0-0.396-0.035-0.52-0.106
		c-0.123-0.07-0.209-0.163-0.26-0.278c-0.05-0.114-0.075-0.356-0.075-0.726v-2.089h-0.451v-0.479h0.451v-0.899l0.612-0.369v1.269
		h0.619v0.479h-0.619v2.122c0,0.176,0.011,0.289,0.033,0.339c0.021,0.05,0.057,0.09,0.105,0.12c0.049,0.029,0.119,0.044,0.21,0.044
		C84.542,169.474,84.632,169.466,84.744,169.449z"/>
	<path d="M87.714,169.553c-0.228,0.193-0.447,0.33-0.658,0.41c-0.21,0.079-0.437,0.119-0.678,0.119
		c-0.399,0-0.705-0.098-0.919-0.292c-0.214-0.195-0.321-0.444-0.321-0.747c0-0.178,0.041-0.34,0.121-0.487
		c0.081-0.146,0.187-0.265,0.318-0.354c0.131-0.089,0.278-0.156,0.442-0.202c0.121-0.031,0.303-0.063,0.547-0.092
		c0.497-0.059,0.862-0.13,1.097-0.212c0.002-0.085,0.003-0.138,0.003-0.161c0-0.25-0.058-0.427-0.174-0.529
		c-0.157-0.139-0.391-0.209-0.701-0.209c-0.29,0-0.503,0.051-0.641,0.152c-0.138,0.102-0.24,0.281-0.306,0.539l-0.602-0.082
		c0.055-0.258,0.145-0.466,0.27-0.624c0.125-0.159,0.307-0.28,0.543-0.366c0.237-0.085,0.512-0.128,0.824-0.128
		c0.31,0,0.562,0.036,0.755,0.109s0.336,0.165,0.427,0.275s0.155,0.25,0.191,0.419c0.021,0.104,0.031,0.293,0.031,0.566v0.82
		c0,0.572,0.013,0.934,0.04,1.086c0.026,0.151,0.078,0.297,0.155,0.436h-0.643C87.773,169.873,87.732,169.723,87.714,169.553z
		 M87.663,168.178c-0.223,0.092-0.558,0.169-1.005,0.232c-0.253,0.037-0.432,0.078-0.537,0.123c-0.105,0.046-0.186,0.113-0.243,0.2
		c-0.057,0.088-0.085,0.186-0.085,0.292c0,0.164,0.062,0.301,0.187,0.41c0.124,0.109,0.306,0.164,0.545,0.164
		c0.237,0,0.448-0.051,0.632-0.155c0.185-0.104,0.32-0.245,0.407-0.425c0.066-0.14,0.099-0.345,0.099-0.615V168.178z"/>
	<path d="M93.498,171.391v-1.777c-0.096,0.135-0.229,0.246-0.401,0.336c-0.172,0.088-0.355,0.133-0.549,0.133
		c-0.431,0-0.802-0.172-1.112-0.516c-0.312-0.345-0.467-0.816-0.467-1.416c0-0.364,0.063-0.691,0.189-0.98
		c0.127-0.289,0.31-0.509,0.551-0.658c0.24-0.148,0.504-0.224,0.791-0.224c0.449,0,0.802,0.188,1.06,0.567v-0.485h0.554v5.021
		H93.498z M91.601,168.175c0,0.468,0.098,0.817,0.294,1.051s0.431,0.351,0.704,0.351c0.262,0,0.488-0.111,0.677-0.333
		c0.189-0.223,0.284-0.56,0.284-1.014c0-0.483-0.1-0.847-0.299-1.091c-0.2-0.243-0.434-0.365-0.703-0.365
		c-0.267,0-0.493,0.113-0.678,0.34C91.693,167.34,91.601,167.693,91.601,168.175z"/>
	<path d="M97.456,170v-0.533c-0.283,0.41-0.667,0.615-1.152,0.615c-0.214,0-0.414-0.041-0.6-0.123
		c-0.186-0.082-0.324-0.186-0.414-0.31c-0.09-0.124-0.153-0.276-0.189-0.456c-0.025-0.121-0.038-0.313-0.038-0.574v-2.249h0.615
		v2.013c0,0.322,0.013,0.538,0.038,0.65c0.039,0.161,0.121,0.288,0.246,0.381c0.125,0.092,0.28,0.139,0.465,0.139
		s0.358-0.048,0.52-0.143c0.162-0.094,0.276-0.223,0.344-0.386c0.067-0.163,0.101-0.399,0.101-0.71v-1.944h0.615V170H97.456z"/>
	<path d="M101.455,168.831l0.636,0.079c-0.1,0.371-0.286,0.659-0.557,0.864s-0.618,0.308-1.039,0.308
		c-0.531,0-0.952-0.164-1.263-0.49c-0.311-0.327-0.466-0.785-0.466-1.376c0-0.61,0.157-1.085,0.472-1.422s0.722-0.506,1.224-0.506
		c0.485,0,0.882,0.165,1.189,0.495c0.308,0.331,0.461,0.796,0.461,1.395c0,0.037-0.001,0.092-0.003,0.164H99.4
		c0.023,0.399,0.136,0.705,0.338,0.916c0.203,0.213,0.456,0.318,0.759,0.318c0.226,0,0.418-0.059,0.578-0.178
		S101.361,169.091,101.455,168.831z M99.435,167.836h2.027c-0.027-0.305-0.105-0.533-0.232-0.687
		c-0.196-0.237-0.45-0.355-0.762-0.355c-0.283,0-0.52,0.095-0.712,0.284C99.562,167.267,99.455,167.52,99.435,167.836z"/>
	<path d="M105.242,170v-0.533c-0.283,0.41-0.667,0.615-1.152,0.615c-0.214,0-0.414-0.041-0.6-0.123
		c-0.186-0.082-0.324-0.186-0.414-0.31c-0.09-0.124-0.153-0.276-0.189-0.456c-0.025-0.121-0.038-0.313-0.038-0.574v-2.249h0.615
		v2.013c0,0.322,0.013,0.538,0.038,0.65c0.039,0.161,0.121,0.288,0.246,0.381c0.125,0.092,0.28,0.139,0.465,0.139
		s0.358-0.048,0.52-0.143c0.162-0.094,0.276-0.223,0.344-0.386c0.067-0.163,0.101-0.399,0.101-0.71v-1.944h0.615V170H105.242z"/>
	<path d="M109.241,168.831l0.636,0.079c-0.1,0.371-0.286,0.659-0.557,0.864s-0.618,0.308-1.039,0.308
		c-0.531,0-0.952-0.164-1.263-0.49c-0.311-0.327-0.466-0.785-0.466-1.376c0-0.61,0.157-1.085,0.472-1.422s0.722-0.506,1.224-0.506
		c0.485,0,0.882,0.165,1.189,0.495c0.308,0.331,0.461,0.796,0.461,1.395c0,0.037-0.001,0.092-0.003,0.164h-2.707
		c0.023,0.399,0.136,0.705,0.338,0.916c0.203,0.213,0.456,0.318,0.759,0.318c0.226,0,0.418-0.059,0.578-0.178
		S109.147,169.091,109.241,168.831z M107.221,167.836h2.027c-0.027-0.305-0.105-0.533-0.232-0.687
		c-0.196-0.237-0.45-0.355-0.762-0.355c-0.283,0-0.52,0.095-0.712,0.284C107.348,167.267,107.241,167.52,107.221,167.836z"/>
	<path d="M110.403,168.916l0.608-0.096c0.034,0.244,0.129,0.432,0.286,0.561c0.156,0.131,0.374,0.195,0.654,0.195
		c0.283,0,0.492-0.058,0.629-0.173c0.137-0.114,0.205-0.25,0.205-0.405c0-0.139-0.061-0.248-0.181-0.328
		c-0.084-0.055-0.294-0.123-0.629-0.208c-0.451-0.114-0.764-0.212-0.938-0.296c-0.175-0.083-0.307-0.198-0.396-0.345
		c-0.09-0.147-0.135-0.31-0.135-0.487c0-0.162,0.037-0.312,0.111-0.449c0.074-0.139,0.175-0.252,0.303-0.344
		c0.096-0.07,0.226-0.131,0.392-0.18c0.165-0.049,0.342-0.073,0.531-0.073c0.285,0,0.535,0.041,0.75,0.123
		c0.216,0.082,0.375,0.193,0.477,0.333c0.103,0.141,0.173,0.328,0.212,0.563l-0.602,0.082c-0.027-0.188-0.106-0.332-0.238-0.438
		c-0.131-0.105-0.316-0.157-0.555-0.157c-0.283,0-0.484,0.047-0.605,0.14c-0.121,0.094-0.181,0.203-0.181,0.328
		c0,0.08,0.025,0.152,0.075,0.216c0.05,0.065,0.129,0.12,0.236,0.164c0.062,0.022,0.243,0.075,0.543,0.157
		c0.435,0.116,0.739,0.211,0.911,0.285c0.172,0.074,0.307,0.182,0.405,0.323s0.147,0.317,0.147,0.526
		c0,0.205-0.06,0.398-0.179,0.579c-0.12,0.182-0.292,0.321-0.518,0.421c-0.226,0.099-0.481,0.148-0.766,0.148
		c-0.472,0-0.831-0.098-1.079-0.294C110.629,169.592,110.471,169.302,110.403,168.916z"/>
</g>
<g>
	<rect x="49.894" y="125.139" fill="#FFFFFF" stroke="#000000" stroke-miterlimit="10" width="13.712" height="13.712"/>
	<polyline fill="none" stroke="#000000" stroke-miterlimit="10" points="53.044,135.998 53.044,128.206 60.456,128.206
		60.456,135.998 	"/>
	<line fill="none" stroke="#000000" stroke-miterlimit="10" x1="53.044" y1="133.706" x2="61.313" y2="132.102"/>
	<line fill="none" stroke="#000000" stroke-miterlimit="10" x1="53.044" y1="129.581" x2="60.456" y2="131.85"/>
</g>
<g>
	<g>
		<rect x="63.894" y="125.139" fill="#FFFFFF" width="13.712" height="13.712"/>
		<path d="M78.106,139.351H63.394v-14.712h14.712V139.351z M64.394,138.351h12.712v-12.712H64.394V138.351z"/>
	</g>
	<g>
		<path d="M66.295,136.279l3.299-8.59h1.225l3.516,8.59h-1.295l-1.002-2.602h-3.592l-0.943,2.602H66.295z M68.773,132.752h2.912
			l-0.896-2.379c-0.273-0.723-0.477-1.316-0.609-1.781c-0.109,0.551-0.264,1.098-0.463,1.641L68.773,132.752z"/>
	</g>
</g>
<g>
	<g>
		<path fill="none" stroke="#000000" stroke-miterlimit="10" d="M75.5,90.5c0,7.006-14.378,5.576-17.953,12.499"/>
		<g>
			<polygon points="55.479,101.679 56.75,106.5 60.29,102.989 			"/>
		</g>
	</g>
</g>
<g>
	<g>
		<path fill="none" stroke="#000000" stroke-miterlimit="10" d="M91.5,90.5c0,7.052-17.97,4.909-19.916,12.408"/>
		<g>
			<polygon points="69.282,102.168 71.75,106.5 74.268,102.197 			"/>
		</g>
	</g>
</g>
<g>
	<g>
		<path fill="none" stroke="#000000" stroke-miterlimit="10" d="M95,90.5c0,6.7-1.36,7.706-1.837,12.41"/>
		<g>
			<polygon points="90.763,102.044 93,106.5 95.741,102.335 			"/>
		</g>
	</g>
</g>
<g>
	<g>
		<path fill="none" stroke="#000000" stroke-miterlimit="10" d="M80,90.5c0,7.216,22.684,4.44,26.352,12.432"/>
		<g>
			<polygon points="103.582,102.65 106.75,106.5 108.501,101.832 			"/>
		</g>
	</g>
</g>
<g>
	<path d="M51.471,162.973c-0.339-0.428-0.626-0.93-0.861-1.504s-0.352-1.168-0.352-1.783c0-0.543,0.088-1.063,0.263-1.559
		c0.205-0.577,0.522-1.151,0.95-1.723h0.441c-0.276,0.474-0.458,0.812-0.547,1.015c-0.139,0.314-0.249,0.643-0.328,0.984
		c-0.098,0.426-0.147,0.854-0.147,1.285c0,1.096,0.341,2.19,1.022,3.284H51.471z"/>
	<path d="M52.626,161.5v-3.63h0.55v0.509c0.114-0.178,0.266-0.32,0.455-0.429s0.404-0.162,0.646-0.162
		c0.269,0,0.489,0.056,0.661,0.167c0.172,0.112,0.293,0.269,0.364,0.469c0.287-0.424,0.661-0.636,1.121-0.636
		c0.36,0,0.637,0.1,0.831,0.299s0.291,0.507,0.291,0.921v2.492h-0.612v-2.287c0-0.246-0.02-0.423-0.06-0.531
		c-0.04-0.108-0.112-0.195-0.217-0.262c-0.105-0.065-0.228-0.099-0.369-0.099c-0.255,0-0.467,0.085-0.636,0.255
		s-0.253,0.441-0.253,0.814v2.109h-0.615v-2.358c0-0.273-0.05-0.479-0.15-0.615s-0.264-0.205-0.492-0.205
		c-0.173,0-0.333,0.046-0.48,0.137c-0.146,0.091-0.253,0.225-0.319,0.399c-0.066,0.176-0.099,0.429-0.099,0.76v1.883H52.626z"/>
	<path d="M60.826,161.053c-0.228,0.193-0.447,0.33-0.658,0.41c-0.21,0.079-0.437,0.119-0.678,0.119
		c-0.399,0-0.705-0.098-0.919-0.292c-0.214-0.195-0.321-0.444-0.321-0.747c0-0.178,0.041-0.34,0.121-0.487
		c0.081-0.146,0.187-0.265,0.318-0.354c0.131-0.089,0.278-0.156,0.442-0.202c0.121-0.031,0.303-0.063,0.547-0.092
		c0.497-0.06,0.862-0.13,1.097-0.212c0.002-0.084,0.003-0.138,0.003-0.161c0-0.25-0.058-0.427-0.174-0.529
		c-0.157-0.139-0.391-0.209-0.701-0.209c-0.29,0-0.503,0.051-0.641,0.152c-0.138,0.102-0.24,0.281-0.306,0.539l-0.602-0.082
		c0.055-0.258,0.145-0.466,0.27-0.624s0.307-0.28,0.543-0.366c0.237-0.085,0.512-0.128,0.824-0.128c0.31,0,0.562,0.036,0.755,0.109
		s0.336,0.165,0.427,0.275s0.155,0.25,0.191,0.419c0.021,0.104,0.031,0.293,0.031,0.566v0.82c0,0.572,0.013,0.935,0.04,1.086
		c0.026,0.151,0.078,0.297,0.155,0.436h-0.643C60.885,161.372,60.844,161.223,60.826,161.053z M60.774,159.678
		c-0.223,0.092-0.558,0.169-1.005,0.232c-0.253,0.037-0.432,0.078-0.537,0.123c-0.105,0.046-0.186,0.112-0.243,0.2
		s-0.085,0.186-0.085,0.292c0,0.164,0.062,0.301,0.187,0.41c0.124,0.109,0.306,0.164,0.545,0.164c0.237,0,0.448-0.052,0.632-0.155
		s0.32-0.245,0.407-0.425c0.066-0.14,0.099-0.345,0.099-0.615V159.678z"/>
	<path d="M62.354,161.5v-5.011h0.615v2.857l1.456-1.477h0.796l-1.388,1.347l1.528,2.283h-0.759l-1.2-1.855l-0.434,0.416v1.439
		H62.354z"/>
	<path d="M68.335,160.331l0.636,0.079c-0.1,0.371-0.286,0.659-0.557,0.864s-0.618,0.308-1.039,0.308
		c-0.531,0-0.952-0.163-1.263-0.49c-0.311-0.327-0.466-0.786-0.466-1.376c0-0.61,0.157-1.085,0.472-1.422s0.722-0.506,1.224-0.506
		c0.485,0,0.882,0.165,1.189,0.495c0.308,0.331,0.461,0.796,0.461,1.395c0,0.037-0.001,0.092-0.003,0.164h-2.707
		c0.023,0.399,0.136,0.705,0.338,0.916c0.203,0.213,0.456,0.318,0.759,0.318c0.226,0,0.418-0.06,0.578-0.178
		S68.242,160.591,68.335,160.331z M66.315,159.336h2.027c-0.027-0.305-0.105-0.534-0.232-0.687c-0.196-0.237-0.45-0.355-0.762-0.355
		c-0.283,0-0.52,0.095-0.712,0.284C66.442,158.767,66.335,159.02,66.315,159.336z"/>
	<path d="M71.674,161.5v-5.011h0.615v5.011H71.674z"/>
	<path d="M75.612,160.17l0.605,0.079c-0.066,0.417-0.235,0.743-0.507,0.979c-0.272,0.235-0.607,0.354-1.003,0.354
		c-0.497,0-0.896-0.162-1.198-0.487c-0.302-0.324-0.453-0.79-0.453-1.396c0-0.393,0.065-0.735,0.195-1.029s0.328-0.515,0.593-0.661
		c0.265-0.147,0.554-0.221,0.866-0.221c0.394,0,0.717,0.1,0.967,0.299s0.411,0.482,0.482,0.85l-0.598,0.093
		c-0.057-0.244-0.158-0.428-0.302-0.551c-0.145-0.123-0.32-0.185-0.525-0.185c-0.31,0-0.562,0.111-0.755,0.333
		c-0.194,0.223-0.291,0.574-0.291,1.055c0,0.487,0.093,0.842,0.28,1.063c0.187,0.222,0.431,0.332,0.731,0.332
		c0.242,0,0.443-0.074,0.605-0.223C75.466,160.706,75.568,160.479,75.612,160.17z"/>
	<path d="M77.146,162.973h-0.441c0.681-1.094,1.022-2.188,1.022-3.284c0-0.429-0.049-0.854-0.147-1.274
		c-0.078-0.342-0.186-0.67-0.325-0.984c-0.089-0.205-0.272-0.547-0.55-1.025h0.441c0.428,0.571,0.745,1.146,0.95,1.723
		c0.175,0.496,0.263,1.016,0.263,1.559c0,0.615-0.118,1.209-0.354,1.783C77.77,162.043,77.484,162.545,77.146,162.973z"/>
</g>
<g>
	<path d="M86.471,162.973c-0.339-0.428-0.626-0.93-0.861-1.504s-0.352-1.168-0.352-1.783c0-0.543,0.088-1.063,0.263-1.559
		c0.205-0.577,0.522-1.151,0.95-1.723h0.441c-0.276,0.474-0.458,0.812-0.547,1.015c-0.139,0.314-0.249,0.643-0.328,0.984
		c-0.098,0.426-0.147,0.854-0.147,1.285c0,1.096,0.341,2.19,1.022,3.284H86.471z"/>
	<path d="M87.626,161.5v-3.63h0.55v0.509c0.114-0.178,0.266-0.32,0.455-0.429s0.404-0.162,0.646-0.162
		c0.269,0,0.489,0.056,0.661,0.167c0.172,0.112,0.293,0.269,0.364,0.469c0.287-0.424,0.661-0.636,1.121-0.636
		c0.36,0,0.637,0.1,0.831,0.299s0.291,0.507,0.291,0.921v2.492h-0.612v-2.287c0-0.246-0.02-0.423-0.06-0.531
		c-0.04-0.108-0.112-0.195-0.217-0.262c-0.105-0.065-0.228-0.099-0.369-0.099c-0.255,0-0.467,0.085-0.636,0.255
		s-0.253,0.441-0.253,0.814v2.109h-0.615v-2.358c0-0.273-0.05-0.479-0.15-0.615s-0.264-0.205-0.492-0.205
		c-0.173,0-0.333,0.046-0.48,0.137c-0.146,0.091-0.253,0.225-0.319,0.399c-0.066,0.176-0.099,0.429-0.099,0.76v1.883H87.626z"/>
	<path d="M95.826,161.053c-0.228,0.193-0.447,0.33-0.658,0.41c-0.21,0.079-0.437,0.119-0.678,0.119
		c-0.399,0-0.705-0.098-0.919-0.292c-0.214-0.195-0.321-0.444-0.321-0.747c0-0.178,0.041-0.34,0.121-0.487
		c0.081-0.146,0.187-0.265,0.318-0.354c0.131-0.089,0.278-0.156,0.442-0.202c0.121-0.031,0.303-0.063,0.547-0.092
		c0.497-0.06,0.862-0.13,1.097-0.212c0.002-0.084,0.003-0.138,0.003-0.161c0-0.25-0.058-0.427-0.174-0.529
		c-0.157-0.139-0.391-0.209-0.701-0.209c-0.29,0-0.503,0.051-0.641,0.152c-0.138,0.102-0.24,0.281-0.306,0.539l-0.602-0.082
		c0.055-0.258,0.145-0.466,0.27-0.624s0.307-0.28,0.543-0.366c0.237-0.085,0.512-0.128,0.824-0.128c0.31,0,0.562,0.036,0.755,0.109
		s0.336,0.165,0.427,0.275s0.155,0.25,0.191,0.419c0.021,0.104,0.031,0.293,0.031,0.566v0.82c0,0.572,0.013,0.935,0.04,1.086
		c0.026,0.151,0.078,0.297,0.155,0.436h-0.643C95.885,161.372,95.844,161.223,95.826,161.053z M95.774,159.678
		c-0.223,0.092-0.558,0.169-1.005,0.232c-0.253,0.037-0.432,0.078-0.537,0.123c-0.105,0.046-0.186,0.112-0.243,0.2
		s-0.085,0.186-0.085,0.292c0,0.164,0.062,0.301,0.187,0.41c0.124,0.109,0.306,0.164,0.545,0.164c0.237,0,0.448-0.052,0.632-0.155
		s0.32-0.245,0.407-0.425c0.066-0.14,0.099-0.345,0.099-0.615V159.678z"/>
	<path d="M97.354,161.5v-5.011h0.615v2.857l1.456-1.477h0.796l-1.388,1.347l1.528,2.283h-0.759l-1.2-1.855l-0.434,0.416v1.439
		H97.354z"/>
	<path d="M103.335,160.331l0.636,0.079c-0.1,0.371-0.286,0.659-0.557,0.864s-0.618,0.308-1.039,0.308
		c-0.531,0-0.952-0.163-1.263-0.49c-0.311-0.327-0.466-0.786-0.466-1.376c0-0.61,0.157-1.085,0.472-1.422s0.722-0.506,1.224-0.506
		c0.485,0,0.882,0.165,1.189,0.495c0.308,0.331,0.461,0.796,0.461,1.395c0,0.037-0.001,0.092-0.003,0.164h-2.707
		c0.023,0.399,0.136,0.705,0.338,0.916c0.203,0.213,0.456,0.318,0.759,0.318c0.226,0,0.418-0.06,0.578-0.178
		S103.242,160.591,103.335,160.331z M101.315,159.336h2.027c-0.027-0.305-0.105-0.534-0.232-0.687
		c-0.196-0.237-0.45-0.355-0.762-0.355c-0.283,0-0.52,0.095-0.712,0.284C101.442,158.767,101.335,159.02,101.315,159.336z"/>
	<path d="M109.067,161.5v-0.533c-0.283,0.41-0.667,0.615-1.152,0.615c-0.214,0-0.414-0.041-0.6-0.123
		c-0.186-0.082-0.324-0.186-0.414-0.31c-0.09-0.124-0.153-0.276-0.189-0.456c-0.025-0.121-0.038-0.313-0.038-0.574v-2.249h0.615
		v2.013c0,0.322,0.013,0.538,0.038,0.65c0.039,0.161,0.121,0.288,0.246,0.381c0.125,0.092,0.28,0.139,0.465,0.139
		s0.358-0.048,0.52-0.143s0.276-0.223,0.344-0.386c0.067-0.163,0.101-0.399,0.101-0.71v-1.944h0.615v3.63H109.067z"/>
	<path d="M112.95,160.17l0.605,0.079c-0.066,0.417-0.235,0.743-0.507,0.979c-0.272,0.235-0.607,0.354-1.003,0.354
		c-0.497,0-0.896-0.162-1.198-0.487c-0.302-0.324-0.453-0.79-0.453-1.396c0-0.393,0.065-0.735,0.195-1.029s0.328-0.515,0.593-0.661
		c0.265-0.147,0.554-0.221,0.866-0.221c0.394,0,0.717,0.1,0.967,0.299s0.411,0.482,0.482,0.85l-0.598,0.093
		c-0.057-0.244-0.158-0.428-0.302-0.551c-0.145-0.123-0.32-0.185-0.525-0.185c-0.31,0-0.562,0.111-0.755,0.333
		c-0.194,0.223-0.291,0.574-0.291,1.055c0,0.487,0.093,0.842,0.28,1.063c0.187,0.222,0.431,0.332,0.731,0.332
		c0.242,0,0.443-0.074,0.605-0.223C112.804,160.706,112.906,160.479,112.95,160.17z"/>
	<path d="M114.484,162.973h-0.441c0.681-1.094,1.022-2.188,1.022-3.284c0-0.429-0.049-0.854-0.147-1.274
		c-0.078-0.342-0.186-0.67-0.325-0.984c-0.089-0.205-0.272-0.547-0.55-1.025h0.441c0.428,0.571,0.745,1.146,0.95,1.723
		c0.175,0.496,0.263,1.016,0.263,1.559c0,0.615-0.118,1.209-0.354,1.783C115.108,162.043,114.822,162.545,114.484,162.973z"/>
</g>
<g>
	<g>
		<path fill="none" stroke="#000000" stroke-miterlimit="10" d="M145.5,10.25c3.993,0.608,9.774-0.978,11.75,5.75
			c9,30.649,13.662,92.807-5.088,116.168c-2.999,3.737-14.85,14.082-26.912,15.082c-31.562,2.617-51.135,1.804-53,0.25
			c-0.86-0.717-1.072-1.785-1.061-3.165"/>
		<g>
			<polygon points="73.679,145.191 71.414,140.75 68.7,144.932 			"/>
		</g>
	</g>
</g>
<g>
	<g>
		<path fill="none" stroke="#000000" stroke-miterlimit="10" d="M16.25,10.75c-4.25,0-9-0.035-11.75,5.25
			c-3.012,5.788-2.829,111.836,4.179,119.42c5.16,5.584,17.756,8.912,45.821,12.83c38.5,5.375,49.732,1.867,51.75-1.75
			c0.398-0.713,0.66-1.445,0.825-2.162"/>
		<g>
			<polygon points="109.398,145.249 107.25,140.75 104.427,144.859 			"/>
		</g>
	</g>
</g>
<g>
	<rect x="86.275" y="125.139" fill="#FFFFFF" stroke="#000000" stroke-miterlimit="10" width="13.712" height="13.712"/>
	<path fill="none" stroke="#000000" stroke-miterlimit="10" d="M88.756,129.831c0.491-0.975,1.369-2.346,2.625-2.5
		c3.095-0.379,7.271,5.782,5.625,8.125c-1.101,1.568-4.095-0.616-4.875-2.125c-0.809-1.565,0.754-1.717,5.125-5.625"/>
</g>
<g>
	<rect x="100.152" y="125.139" fill="#FFFFFF" stroke="#000000" stroke-miterlimit="10" width="13.712" height="13.712"/>
	<g>
		<path d="M108.422,134.512c-0.391,0.332-0.767,0.566-1.128,0.703s-0.749,0.205-1.163,0.205c-0.684,0-1.209-0.167-1.576-0.501
			s-0.551-0.761-0.551-1.28c0-0.305,0.069-0.583,0.208-0.835s0.32-0.454,0.545-0.606s0.478-0.268,0.759-0.346
			c0.207-0.055,0.52-0.107,0.938-0.158c0.852-0.102,1.479-0.223,1.881-0.363c0.004-0.145,0.006-0.236,0.006-0.275
			c0-0.43-0.1-0.732-0.299-0.908c-0.27-0.238-0.67-0.357-1.201-0.357c-0.496,0-0.862,0.087-1.099,0.261s-0.411,0.481-0.524,0.923
			l-1.031-0.141c0.094-0.441,0.248-0.798,0.463-1.069s0.525-0.48,0.932-0.627s0.877-0.22,1.412-0.22
			c0.531,0,0.963,0.063,1.295,0.188s0.576,0.282,0.732,0.472s0.266,0.429,0.328,0.718c0.035,0.18,0.053,0.504,0.053,0.973v1.406
			c0,0.98,0.022,1.601,0.067,1.86s0.134,0.509,0.267,0.747h-1.102C108.524,135.061,108.454,134.805,108.422,134.512z
			 M108.334,132.156c-0.383,0.156-0.957,0.289-1.723,0.398c-0.434,0.063-0.74,0.133-0.92,0.211s-0.318,0.192-0.416,0.343
			s-0.146,0.317-0.146,0.501c0,0.281,0.106,0.516,0.319,0.703s0.524,0.281,0.935,0.281c0.406,0,0.768-0.089,1.084-0.267
			s0.549-0.421,0.697-0.729c0.113-0.238,0.17-0.59,0.17-1.055V132.156z"/>
	</g>
</g>
<g>
	<g>
		<path fill="none" stroke="#000000" stroke-miterlimit="10" d="M26.75,136.5c0.161,4.372,1.094,8.994,5.375,11.75
			c7.581,4.881,42.625,9.25,59.842-1.579c0.74-0.466,1.106-0.928,1.259-1.829"/>
		<g>
			<polygon points="95.563,145.667 93.25,141.25 90.581,145.461 			"/>
		</g>
	</g>
</g>
<g>
	<g>
		<path fill="none" stroke="#000000" stroke-miterlimit="10" d="M134.5,137c0,7.475-7.78,10.977-17.072,13.125
			c-13.424,3.104-60.25,6.5-60.678-4.875c-0.008-0.211-0.049-0.437-0.105-0.681"/>
		<g>
			<polygon points="59.224,145.002 56.25,141 54.27,145.576 			"/>
		</g>
	</g>
</g>
<g>
	<path d="M102.712,120.114l3.299-8.59h1.225l3.516,8.59h-1.295l-1.002-2.602h-3.592l-0.943,2.602H102.712z M105.191,116.587h2.912
		l-0.896-2.379c-0.273-0.723-0.477-1.316-0.609-1.781c-0.109,0.551-0.264,1.098-0.463,1.641L105.191,116.587z"/>
</g>
<g>
	<g>
		<line fill="none" stroke="#000000" stroke-miterlimit="10" x1="82.039" y1="105.25" x2="82.039" y2="105.75"/>

			<line fill="none" stroke="#000000" stroke-miterlimit="10" stroke-dasharray="0.9951,0.9951" x1="82.039" y1="106.745" x2="82.039" y2="161.975"/>
		<line fill="none" stroke="#000000" stroke-miterlimit="10" x1="82.039" y1="162.473" x2="82.039" y2="162.973"/>
	</g>
</g>
<polyline fill="#FFFFFF" stroke="#000000" stroke-miterlimit="10" points="81.294,52.75 84.83,54.75 88.707,52.75 "/>
<g>
	<path d="M28.352,11.732c-0.391,0.332-0.767,0.566-1.128,0.703s-0.749,0.205-1.163,0.205c-0.684,0-1.209-0.167-1.576-0.501
		s-0.551-0.761-0.551-1.28c0-0.305,0.069-0.583,0.208-0.835s0.32-0.454,0.545-0.606s0.478-0.268,0.759-0.346
		c0.207-0.055,0.52-0.107,0.938-0.158c0.852-0.102,1.479-0.223,1.881-0.363c0.004-0.145,0.006-0.236,0.006-0.275
		c0-0.43-0.1-0.732-0.299-0.908c-0.27-0.238-0.67-0.357-1.201-0.357c-0.496,0-0.862,0.087-1.099,0.261s-0.411,0.481-0.524,0.923
		l-1.031-0.141c0.094-0.441,0.248-0.798,0.463-1.069s0.525-0.48,0.932-0.627s0.877-0.22,1.412-0.22c0.531,0,0.963,0.063,1.295,0.188
		s0.576,0.282,0.732,0.472s0.266,0.429,0.328,0.718c0.035,0.18,0.053,0.504,0.053,0.973v1.406c0,0.98,0.022,1.601,0.067,1.86
		s0.134,0.509,0.267,0.747h-1.102C28.453,12.281,28.383,12.025,28.352,11.732z M28.264,9.377c-0.383,0.156-0.957,0.289-1.723,0.398
		c-0.434,0.063-0.74,0.133-0.92,0.211s-0.318,0.192-0.416,0.343s-0.146,0.317-0.146,0.501c0,0.281,0.106,0.516,0.319,0.703
		s0.524,0.281,0.935,0.281c0.406,0,0.768-0.089,1.084-0.267s0.549-0.421,0.697-0.729c0.113-0.238,0.17-0.59,0.17-1.055V9.377z"/>
</g>
</svg>
