<?xml version="1.0" encoding="utf-8"?>
<!-- Generator: Adobe Illustrator 22.0.1, SVG Export Plug-In . SVG Version: 6.00 Build 0)  -->
<svg version="1.1" id="Layer_1" xmlns="http://www.w3.org/2000/svg" xmlns:xlink="http://www.w3.org/1999/xlink" x="0px" y="0px"
	 width="58.467px" height="72px" viewBox="0 0 58.467 72" enable-background="new 0 0 58.467 72" xml:space="preserve">
<path d="M22.479,62.514l0.465,7.076c0,0-13.843,1.395-15.857-1.963s-6.921-9.866-1.756-23.554S17.056,3.269,17.056,3.269
	l31.198,0.826c0,0-14.05,35.124-5.372,45.919s11.312,11.312,11.312,11.312l-4.804,8.833c0,0-13.946-6.921-16.787-15.134
	s-17.097-4.132-17.097-4.132S12.665,61.068,22.479,62.514z M23.048,19.591c-0.236,7.077,10.021,3.254,10.021,3.254
	s6.663-12.138,1.085-13.688S23.254,13.393,23.048,19.591z M23.977,30.076c0,0-8.006-3.151-8.884,3.512
	c-0.878,6.663,8.936,10.64,11.983,9.452c3.048-1.188,10.5-5.829,4.029-10.227C27.192,30.154,23.977,30.076,23.977,30.076z"/>
</svg>
